<svg width="163" height="132" viewBox="0 0 163 132" fill="none" xmlns="http://www.w3.org/2000/svg">
<path d="M124.49 79.17L91.2228 46.3794L117.436 46.3794L163 88.3209L117.436 131.216L91.2228 131.216L124.49 98.425L48.9953 98.425C42.2593 98.425 35.9045 97.154 29.931 94.6121C24.0211 92.0067 18.8419 88.4798 14.3936 84.0314C9.94523 79.5831 6.41833 74.4039 3.81287 68.494C1.27096 62.5205 4.85553e-06 56.1657 4.26664e-06 49.4297C3.67775e-06 42.6936 1.27096 36.3706 3.81287 30.4607C6.41833 24.4872 9.94522 19.308 14.3936 14.9232C18.8419 10.4749 24.0211 6.97977 29.931 4.43786C35.9045 1.89595 42.2593 0.624996 48.9953 0.624996L52.0456 0.624995L52.0456 20.3566L48.9953 20.0706C44.9283 20.0706 41.1154 20.8332 37.5567 22.3583C33.998 23.8835 30.8842 25.9805 28.2152 28.6496C25.6097 31.3186 23.5444 34.4324 22.0193 37.9911C20.4942 41.5497 19.7316 45.3626 19.7316 49.4297C19.7316 53.4967 20.4942 57.3414 22.0193 60.9636C23.5444 64.5223 25.6097 67.6679 28.2152 70.4004C30.8842 73.0694 33.9981 75.1983 37.5567 76.787C41.1154 78.3757 44.9283 79.17 48.9953 79.17L124.49 79.17Z" fill="black"/>
</svg>
