<svg width="182" height="184" viewBox="0 0 182 184" fill="none" xmlns="http://www.w3.org/2000/svg">
<g clip-path="url(#clip0_3024_6766)">
<path d="M85.5321 206.851C81.1394 181.666 63.2756 150.038 29.3052 124.56C12.6128 111.968 -4.37237 103.768 -21.0647 100.254V87.9544C12.0271 80.0475 44.5333 57.791 65.3256 27.6276C75.8681 12.3995 82.6036 -2.53575 85.5321 -18.0567H97.8317C102.81 11.521 125.652 44.32 156.694 66.2836C171.922 77.119 187.736 84.4402 203.843 87.9544V100.254C171.337 106.99 133.559 135.982 114.817 165.559C105.446 180.495 99.8817 194.258 97.8317 206.851H85.5321Z" fill="#404501"/>
<path d="M87.665 147.818C85.4 134.832 76.189 118.524 58.673 105.387C50.066 98.8936 41.308 94.6656 32.701 92.8536V86.5116C49.764 82.4346 66.525 70.9586 77.246 55.4056C82.682 47.5536 86.155 39.8526 87.665 31.8496H94.007C96.574 47.1006 108.352 64.0126 124.358 75.3376C132.21 80.9246 140.364 84.6996 148.669 86.5116V92.8536C131.908 96.3266 112.429 111.276 102.765 126.527C97.933 134.228 95.064 141.325 94.007 147.818H87.665Z" fill="#EEFE05"/>
</g>
<rect x="0.5" y="0.5" width="180.92" height="182.952" stroke="#EEFE05"/>
<defs>
<clipPath id="clip0_3024_6766">
<rect width="181.92" height="183.952" fill="white"/>
</clipPath>
</defs>
</svg>
