<svg width="150" height="150" viewBox="0 0 150 150" fill="none" xmlns="http://www.w3.org/2000/svg">
<g clip-path="url(#clip0_3024_6770)">
<path d="M74.1203 207C60.0719 207 50.5797 193.706 50.5797 176.613C50.5797 167.117 53.9969 152.684 60.8312 133.312C67.6656 113.561 71.0828 94.5691 71.0828 74.8177C54.3766 85.0732 41.8469 95.7086 32.3547 106.344C13.3703 127.615 -5.23438 148.506 -24.9781 148.506C-37.1281 148.506 -47 139.01 -47 127.615C-47 115.08 -36.7484 102.546 -14.3469 96.4682C-3.33594 93.4296 9.19375 90.011 23.2422 87.3522C36.9109 84.6934 52.0984 78.616 68.0453 69.5C51.7188 60.384 36.1516 54.3066 21.7234 51.268C-6.75313 45.1906 -29.5344 40.2528 -39.4063 28.8577C-44.3422 23.1602 -47 17.0829 -47 10.6257C-47 -0.769348 -37.8875 -9.50554 -24.5984 -9.50554C-4.475 -9.50554 19.0656 17.0829 35.7719 36.0746C44.125 45.5704 55.8953 55.0663 71.0828 64.1823V59.2445C71.0828 44.0511 69.9437 31.5166 66.9062 22.4006C60.8312 4.1685 51.3391 -24.3191 51.3391 -37.6133C51.3391 -55.0856 61.2109 -68 74.8797 -68C88.1687 -68 98.4203 -55.8453 98.4203 -37.6133C98.4203 -28.4972 95.0031 -13.6837 88.1687 6.44751C81.3344 26.5787 77.9172 45.9503 77.9172 64.1823C99.5594 50.5083 96.9016 52.0276 115.506 34.1754C133.352 14.424 145.881 2.26933 152.716 -2.28867C159.93 -7.22651 167.144 -9.50554 174.738 -9.50554C186.887 -9.50554 196 -1.14918 196 10.6257C196 23.5401 186.508 34.5552 164.486 41.7721C153.855 45.1906 141.325 48.2293 127.277 51.268C112.848 54.3066 97.6609 60.384 80.9547 69.5C97.2812 78.616 112.089 84.3135 126.137 87.3522C153.855 93.4296 177.395 98.7472 188.027 109.762C193.342 115.46 196 121.157 196 127.615C196 139.01 186.888 148.506 173.598 148.506C151.197 148.506 122.341 112.801 111.33 100.267C106.014 94.1892 94.6234 85.453 77.9172 74.8177V79.7555C77.9172 96.0884 81.3344 114.32 87.789 134.072C94.2437 153.823 97.6609 167.877 97.6609 176.613C97.6609 194.465 87.4094 207 74.1203 207Z" fill="#404501"/>
<path d="M74.015 111.348C69.7135 111.348 66.807 107.279 66.807 102.047C66.807 99.1409 67.8533 94.7231 69.946 88.794C72.0386 82.7487 73.0849 76.9358 73.0849 70.8905C67.9696 74.0294 64.1331 77.2846 61.2267 80.5398C55.4139 87.0502 49.7173 93.4443 43.672 93.4443C39.9518 93.4443 36.9291 90.5379 36.9291 87.0502C36.9291 83.2137 40.068 79.3772 46.9272 77.5171C50.2986 76.5871 54.1351 75.5408 58.4366 74.727C62.6218 73.9132 67.2721 72.0531 72.1548 69.2629C67.1558 66.4727 62.3893 64.6126 57.9715 63.6826C49.2523 61.8225 42.2769 60.3111 39.2542 56.8234C37.7429 55.0796 36.9291 53.2195 36.9291 51.2431C36.9291 47.7554 39.7192 45.0815 43.7882 45.0815C49.9498 45.0815 57.1577 53.2195 62.273 59.0323C64.8307 61.9387 68.4346 64.8452 73.0849 67.6353V66.124C73.0849 61.4737 72.7361 57.6372 71.8061 54.8471C69.946 49.2668 67.0396 40.5475 67.0396 36.4785C67.0396 31.1307 70.0622 27.178 74.2475 27.178C78.3164 27.178 81.4554 30.8982 81.4554 36.4785C81.4554 39.2687 80.4091 43.8027 78.3164 49.9643C76.2238 56.1259 75.1775 62.055 75.1775 67.6353C81.8041 63.4501 80.9903 63.9151 86.6869 58.451C92.151 52.4057 95.9875 48.6855 98.0801 47.2904C100.289 45.7791 102.498 45.0815 104.823 45.0815C108.543 45.0815 111.333 47.6392 111.333 51.2431C111.333 55.1959 108.427 58.5673 101.684 60.7762C98.4288 61.8225 94.5924 62.7525 90.2909 63.6826C85.8731 64.6126 81.2229 66.4727 76.1076 69.2629C81.1066 72.0531 85.6406 73.7969 89.9421 74.727C98.4288 76.5871 105.637 78.2147 108.892 81.5861C110.52 83.33 111.333 85.0738 111.333 87.0502C111.333 90.5379 108.543 93.4443 104.474 93.4443C97.615 93.4443 88.7795 82.5162 85.4081 78.6797C83.7805 76.8196 80.2928 74.1457 75.1775 70.8905V72.4018C75.1775 77.4009 76.2238 82.9812 78.2002 89.0265C80.1766 95.0719 81.2229 99.3734 81.2229 102.047C81.2229 107.511 78.0839 111.348 74.015 111.348Z" fill="#EEFE05"/>
</g>
<rect x="1.25" y="1.25" width="147.5" height="147.5" stroke="#808080" stroke-width="2.5"/>
<defs>
<clipPath id="clip0_3024_6770">
<rect width="150" height="150" fill="white"/>
</clipPath>
</defs>
</svg>
