<svg width="260" height="263" viewBox="0 0 260 263" fill="none" xmlns="http://www.w3.org/2000/svg">
<g clip-path="url(#clip0_3024_6756)">
<path d="M118.016 161.554L-45 136.146L-6.17705 16.4252L140.781 91.8351L118.016 161.554ZM93.8276 128.016L67.4036 -35H193.426L167.002 128.016H93.8276ZM118.219 94.4775L264.974 19.0675L304 138.992L140.781 164.196L118.219 94.4775ZM157.448 107.283L274.73 223.752L172.693 297.739L98.2994 150.374L157.448 107.283ZM157.448 148.748L83.0547 296.113L-18.9825 221.922L98.2994 105.657L157.448 148.748Z" fill="#6C7302"/>
<path d="M127.102 138.559L86 132.152L95.7887 101.966L132.842 120.98L127.102 138.559ZM121.004 130.103L114.341 89H146.116L139.454 130.103H121.004ZM127.154 121.646L164.156 102.632L173.996 132.87L132.842 139.225L127.154 121.646ZM137.045 124.875L166.616 154.241L140.889 172.896L122.131 135.74L137.045 124.875ZM137.045 135.33L118.287 172.486L92.56 153.78L122.131 124.465L137.045 135.33Z" fill="#EEFE05"/>
</g>
<rect x="0.5" y="0.5" width="259" height="261.903" stroke="#EEFE05"/>
<defs>
<clipPath id="clip0_3024_6756">
<rect width="260" height="262.903" fill="white"/>
</clipPath>
</defs>
</svg>
