<svg width="181" height="185" viewBox="0 0 181 185" fill="none" xmlns="http://www.w3.org/2000/svg">
<g clip-path="url(#clip0_3024_6777)">
<path d="M201.74 193.931C163.601 193.931 115.753 183.183 84.2018 159.259H58.8913C46.4094 146.084 40.1685 121.814 40.1685 87.4883C40.1685 61.4844 47.7963 33.0534 58.5446 20.9183C59.5848 20.5716 72.4134 21.6117 77.9609 21.6117C90.0961 21.6117 94.6034 20.9183 114.366 5.31591C135.863 -11.6733 149.732 -17.2208 170.535 -17.2208C194.459 -17.2208 213.875 -14.1004 228.437 -8.20613C243.693 -1.96518 255.828 1.50201 262.069 3.2356C266.229 4.27576 270.39 6.35607 273.164 8.43638C283.219 9.12983 293.273 9.82326 303.328 10.8634C319.277 12.597 339.387 15.0241 353.603 16.7576C382.034 20.2248 394.169 28.1994 394.169 44.8419C394.169 61.1377 382.727 68.7655 360.19 68.7655C352.216 68.7655 335.92 67.7254 321.358 67.7254C310.263 67.7254 299.514 68.4188 289.46 69.1122C293.62 75.0065 295.007 80.9007 295.007 89.2219C295.007 100.317 290.153 106.905 280.098 111.412C276.978 112.799 275.244 114.186 275.244 116.613C275.244 120.427 278.711 125.627 278.711 132.215C278.711 144.004 272.817 152.325 261.722 156.139C258.602 157.179 258.255 157.872 258.255 163.073C258.255 183.876 238.492 193.931 201.74 193.931ZM201.74 182.143H215.608C210.061 180.409 202.78 177.635 192.031 172.088C178.163 164.807 166.374 155.445 161.173 147.817C160.48 146.084 160.133 143.31 160.133 140.883C160.133 136.376 162.214 132.215 164.641 129.441C155.973 124.934 148.345 120.427 144.531 117.306C142.797 115.226 141.064 111.412 140.717 106.905C134.476 108.985 127.542 109.678 119.567 109.678C114.02 109.678 108.125 108.985 103.965 107.945V95.8096C107.779 96.8498 115.06 97.1965 119.567 97.1965C129.275 97.1965 136.903 96.1563 143.144 93.0359C146.265 87.4883 151.812 83.6744 158.746 82.981C157.706 79.8605 157.013 76.3933 157.013 72.9261C157.013 61.1377 164.641 51.0828 178.856 51.0828C184.057 51.0828 189.258 52.8164 194.805 54.8968C196.539 52.4697 198.619 49.696 200.353 46.5755C192.725 44.4952 186.831 41.7214 184.404 39.2944L193.765 30.9731C197.926 35.4805 235.025 42.4149 249.24 42.4149C258.602 42.4149 267.616 36.5206 267.616 23.692V20.2248H267.27C267.27 19.1847 262.762 16.4109 258.948 15.3708C252.707 13.6372 239.532 9.82326 223.583 3.2356C210.754 -1.96518 192.725 -4.73894 170.535 -4.73894C152.506 -4.73894 141.41 -0.231588 121.994 15.3708C101.538 31.6666 93.5632 34.0936 77.9609 34.0936C74.4937 34.0936 68.9462 33.7469 64.7856 33.4002C57.8512 45.5353 52.6504 67.3786 52.6504 87.4883C52.6504 115.226 56.811 134.989 64.7856 146.777H88.3625C113.673 168.274 157.36 182.143 201.74 182.143ZM25.6063 170.701C3.06955 170.701 -3.17139 121.814 -3.17139 89.9154C-3.17139 58.3639 3.41627 8.7831 25.6063 8.7831H51.6102C55.7709 8.7831 58.5446 11.9036 58.5446 17.1044V17.7978C56.811 15.7175 55.7709 15.3708 53.3438 15.3708C33.9276 15.3708 28.7268 58.7107 28.7268 89.9154C28.7268 121.814 34.9677 164.807 53.3438 164.807C55.7709 164.807 57.1577 163.767 58.5446 161.34V163.767C58.5446 167.58 56.811 170.701 51.6102 170.701H25.6063ZM241.612 68.7655C244.039 60.4443 254.094 56.2836 264.149 56.2836C270.39 56.2836 273.857 56.6303 276.978 57.3238C290.846 56.6303 307.836 55.2435 321.358 55.2435C336.267 55.2435 352.562 56.2836 360.19 56.2836C376.833 56.2836 381.687 52.8164 381.687 44.8419C381.687 36.1739 374.406 32.7067 351.869 29.2395C338 27.1592 318.931 25.0789 301.595 23.3453C295.354 22.6519 287.726 22.3052 279.751 21.6117V23.3453C279.751 43.455 265.883 54.8968 249.934 54.8968C240.919 54.8968 226.01 52.8164 212.488 49.696C210.754 53.1632 208.674 56.2836 206.594 59.4041H206.94C212.835 61.4844 223.583 65.9918 241.612 68.7655ZM253.747 108.638C259.295 108.638 264.496 106.558 273.51 101.01C281.138 96.1563 282.525 95.1162 282.525 90.2621C282.525 81.9408 281.485 73.9663 274.897 68.7655C272.47 68.4188 270.39 68.4188 268.656 68.4188C255.481 68.4188 251.667 73.6196 251.667 82.6343C229.13 80.2072 216.649 75.6999 203.82 70.8458C195.152 68.0721 185.791 61.4844 178.163 62.5246C174.349 62.8713 169.148 64.9516 169.148 71.5393C169.148 74.313 170.882 78.8204 171.228 79.8605C177.816 85.0613 190.991 93.3826 213.528 101.357C227.05 106.211 244.733 108.638 253.747 108.638ZM248.2 147.124C258.948 147.124 267.616 143.31 267.616 133.602C267.616 128.054 266.229 122.854 264.843 119.387C261.375 120.773 258.948 121.12 255.481 121.12C247.507 121.12 226.703 118 211.794 113.146C195.845 107.945 180.936 100.664 169.841 93.7293C167.068 92.6891 164.641 91.9957 162.214 91.9957C155.973 91.9957 152.159 97.5432 152.159 103.437C152.159 106.211 153.199 109.332 154.586 111.412C161.173 116.266 184.057 128.054 199.313 133.949C219.769 141.923 235.025 147.124 248.2 147.124ZM235.025 173.821C246.12 173.821 247.853 165.153 247.853 159.953C247.853 159.259 247.853 158.566 247.507 157.872H245.08C226.01 157.872 208.674 149.204 195.845 144.004C190.298 141.577 183.017 138.456 176.082 134.989C174.002 137.069 172.268 140.536 171.922 143.657C175.736 148.858 184.75 156.139 194.112 161.34C206.594 168.274 213.875 173.821 235.025 173.821Z" fill="#404501"/>
<path d="M229.884 180.705C196.974 180.705 155.688 171.431 128.463 150.787H106.623C95.8521 139.419 90.4669 118.476 90.4669 88.8574C90.4669 66.419 97.0488 41.8864 106.323 31.4151C107.221 31.116 118.291 32.0135 123.077 32.0135C133.549 32.0135 137.438 31.4151 154.491 17.9521C173.04 3.29237 185.007 -1.49449 202.958 -1.49449C223.601 -1.49449 240.355 1.19811 252.921 6.28415C266.085 11.6694 276.556 14.6611 281.941 16.157C285.531 17.0546 289.121 18.8496 291.515 20.6447C300.191 21.2431 308.867 21.8414 317.543 22.739C331.306 24.2349 348.658 26.3291 360.924 27.825C385.457 30.8168 395.928 37.6979 395.928 52.0585C395.928 66.1198 386.055 72.7018 366.609 72.7018C359.728 72.7018 345.666 71.8042 333.101 71.8042C323.527 71.8042 314.252 72.4026 305.576 73.0009C309.166 78.087 310.363 83.173 310.363 90.3533C310.363 99.927 306.175 105.611 297.498 109.501C294.806 110.697 293.31 111.894 293.31 113.988C293.31 117.279 296.302 121.767 296.302 127.451C296.302 137.623 291.216 144.804 281.642 148.095C278.949 148.992 278.65 149.591 278.65 154.078C278.65 172.029 261.597 180.705 229.884 180.705ZM229.884 170.533H241.851C237.064 169.037 230.782 166.644 221.507 161.857C209.54 155.574 199.368 147.496 194.88 140.914C194.282 139.419 193.983 137.025 193.983 134.931C193.983 131.042 195.778 127.451 197.872 125.058C190.393 121.169 183.811 117.279 180.52 114.587C179.024 112.792 177.528 109.501 177.229 105.611C171.843 107.406 165.86 108.005 158.979 108.005C154.192 108.005 149.106 107.406 145.516 106.509V96.0377C148.807 96.9352 155.089 97.2344 158.979 97.2344C167.356 97.2344 173.938 96.3369 179.323 93.6443C182.016 88.8574 186.802 85.5664 192.786 84.9681C191.888 82.2755 191.29 79.2837 191.29 76.2919C191.29 66.1198 197.872 57.4437 210.138 57.4437C214.626 57.4437 219.114 58.9396 223.901 60.7346C225.396 58.6404 227.191 56.2469 228.687 53.5543C222.105 51.7593 217.019 49.3658 214.925 47.2716L223.003 40.0913C226.593 43.9806 258.605 49.9642 270.872 49.9642C278.949 49.9642 286.728 44.8782 286.728 33.8086V30.8168H286.429C286.429 29.9192 282.539 27.5258 279.249 26.6283C273.863 25.1324 262.495 21.8414 248.732 16.157C237.663 11.6694 222.105 9.27593 202.958 9.27593C187.401 9.27593 177.827 13.1653 161.073 26.6283C143.421 40.6897 136.54 42.7839 123.077 42.7839C120.086 42.7839 115.299 42.4847 111.709 42.1856C105.725 52.6568 101.237 71.505 101.237 88.8574C101.237 112.792 104.827 129.845 111.709 140.017H132.053C153.893 158.566 191.589 170.533 229.884 170.533ZM77.9014 160.66C58.4548 160.66 53.0696 118.476 53.0696 90.9516C53.0696 63.7264 58.754 20.9439 77.9014 20.9439H100.34C103.93 20.9439 106.323 23.6365 106.323 28.1242V28.7225C104.827 26.9275 103.93 26.6283 101.836 26.6283C85.0817 26.6283 80.594 64.0256 80.594 90.9516C80.594 118.476 85.9792 155.574 101.836 155.574C103.93 155.574 105.127 154.677 106.323 152.582V154.677C106.323 157.968 104.827 160.66 100.34 160.66H77.9014ZM264.29 72.7018C266.384 65.5215 275.06 61.9313 283.736 61.9313C289.121 61.9313 292.113 62.2305 294.806 62.8289C306.773 62.2305 321.433 61.0338 333.101 61.0338C345.965 61.0338 360.027 61.9313 366.609 61.9313C380.969 61.9313 385.158 58.9396 385.158 52.0585C385.158 44.579 378.875 41.5872 359.428 38.5954C347.461 36.8004 331.006 35.0053 316.047 33.5094C310.662 32.911 304.08 32.6119 297.199 32.0135V33.5094C297.199 50.8617 285.232 60.7346 271.47 60.7346C263.691 60.7346 250.827 58.9396 239.159 56.2469C237.663 59.2387 235.868 61.9313 234.073 64.6239H234.372C239.458 66.419 248.732 70.3083 264.29 72.7018ZM274.761 107.107C279.548 107.107 284.035 105.312 291.814 100.525C298.396 96.3369 299.593 95.4393 299.593 91.2508C299.593 84.0705 298.695 77.1894 293.011 72.7018C290.916 72.4026 289.121 72.4026 287.626 72.4026C276.257 72.4026 272.966 76.8903 272.966 84.6689C253.519 82.5747 242.749 78.6853 231.679 74.4968C224.2 72.1034 216.122 66.419 209.54 67.3166C206.249 67.6157 201.761 69.4108 201.761 75.0952C201.761 77.4886 203.257 81.3779 203.556 82.2755C209.241 86.7631 220.61 93.9434 240.056 100.825C251.724 105.013 266.982 107.107 274.761 107.107ZM269.974 140.316C279.249 140.316 286.728 137.025 286.728 128.648C286.728 123.861 285.531 119.374 284.335 116.382C281.343 117.579 279.249 117.878 276.257 117.878C269.376 117.878 251.425 115.185 238.56 110.997C224.798 106.509 211.933 100.226 202.36 94.2426C199.966 93.3451 197.872 92.7467 195.778 92.7467C190.393 92.7467 187.102 97.5336 187.102 102.62C187.102 105.013 187.999 107.706 189.196 109.501C194.88 113.689 214.626 123.861 227.79 128.947C245.441 135.828 258.605 140.316 269.974 140.316ZM258.605 163.353C268.179 163.353 269.675 155.873 269.675 151.386C269.675 150.787 269.675 150.189 269.376 149.591H267.281C250.827 149.591 235.868 142.111 224.798 137.623C220.011 135.529 213.728 132.837 207.745 129.845C205.95 131.64 204.454 134.632 204.155 137.324C207.446 141.812 215.224 148.095 223.302 152.582C234.073 158.566 240.355 163.353 258.605 163.353Z" fill="#EEFE05"/>
</g>
<rect x="0.5" y="1.0249" width="180" height="182.95" stroke="#EEFE05"/>
<defs>
<clipPath id="clip0_3024_6777">
<rect y="0.524902" width="181" height="183.95" fill="white"/>
</clipPath>
</defs>
</svg>
