<svg width="57" height="56" viewBox="0 0 57 56" fill="none" xmlns="http://www.w3.org/2000/svg">
<rect x="1.5" y="1" width="54" height="54" rx="27" stroke="black" stroke-width="2"/>
<path d="M21.66 23.3346C22.86 23.3346 23.82 22.3596 23.82 21.1746C23.82 19.9896 22.845 19.0146 21.66 19.0146C20.475 19.0146 19.5 19.9896 19.5 21.1746C19.5 22.3596 20.475 23.3346 21.66 23.3346ZM25.875 24.9696V36.9996H29.595V31.0596C29.595 29.4846 29.895 27.9696 31.83 27.9696C33.765 27.9696 33.765 29.7696 33.765 31.1496V36.9996H37.5V30.3996C37.5 27.1596 36.81 24.6696 33.03 24.6696C31.215 24.6696 30 25.6596 29.505 26.6046H29.46V24.9546H25.89L25.875 24.9696ZM19.8 24.9696H23.535V36.9996H19.8V24.9696Z" fill="black"/>
</svg>
