<svg width="44" height="44" viewBox="0 0 44 44" fill="none" xmlns="http://www.w3.org/2000/svg">
<path d="M25.1248 31.3703L35.1403 23.5035C35.2493 23.4177 35.3375 23.3083 35.3981 23.1835C35.4587 23.0587 35.4902 22.9217 35.4902 22.783C35.4902 22.6442 35.4587 22.5073 35.3981 22.3825C35.3375 22.2577 35.2493 22.1482 35.1403 22.0625L25.1248 14.1938C24.9786 14.0789 24.8009 14.0112 24.6153 13.9996C24.4297 13.9881 24.245 14.0332 24.0857 14.1291C23.9264 14.2249 23.8 14.367 23.7233 14.5364C23.6466 14.7058 23.6232 14.8945 23.6563 15.0775L24.3071 18.6616C15.1111 20.869 11.2758 15.9226 9.79811 12.7308C9.58178 12.2651 8.67245 12.355 8.62478 12.8646C7.44228 26.0665 16.1084 27.9786 24.3364 26.7375L23.6563 30.4885C23.6236 30.6711 23.6472 30.8594 23.7238 31.0284C23.8005 31.1974 23.9266 31.3391 24.0856 31.4349C24.2445 31.5307 24.4288 31.5759 24.614 31.5647C24.7992 31.5535 24.9767 31.4864 25.1229 31.3721" stroke="#151700" stroke-width="2.75" stroke-linecap="round" stroke-linejoin="round"/>
</svg>
