<svg width="282" height="103" viewBox="0 0 282 103" fill="none" xmlns="http://www.w3.org/2000/svg">
<path d="M23.0742 0.744348C32.9491 6.2525 42.8738 11.0907 52.848 15.2591C62.8222 19.4274 72.7468 22.901 82.6218 25.6799C92.5464 28.5084 102.372 30.6422 112.098 32.0813C121.874 33.5203 131.476 34.2399 140.904 34.2399C150.332 34.2399 159.934 33.5203 169.71 32.0813C179.486 30.6422 189.311 28.5084 199.186 25.6799C209.111 22.901 219.06 19.4274 229.034 15.2591C239.058 11.0907 249.008 6.2525 258.883 0.744345L281.436 29.6249C271.413 41.6833 260.892 52.253 249.876 61.334C238.909 70.4647 227.546 78.0818 215.785 84.1854C204.024 90.3387 191.892 94.9536 179.387 98.0303C166.931 101.157 154.178 102.72 141.127 102.72C127.977 102.72 115.1 101.157 102.496 98.0303C89.9412 94.904 77.7587 90.2643 65.9484 84.111C54.1382 77.9577 42.7497 70.3158 31.783 61.1852C20.8163 52.0545 10.3955 41.5096 0.520515 29.5505L23.0742 0.744348Z" fill="#151700"/>
</svg>
