<svg width="56" height="54" viewBox="0 0 56 54" fill="none" xmlns="http://www.w3.org/2000/svg">
<rect x="1.07692" y="1.15407" width="53.8461" height="51.6925" rx="25.8462" stroke="black" stroke-width="2.15385"/>
<path d="M27.9836 30.6709L31.475 34.6404C32.7673 36.1104 33.4146 36.846 34.0919 36.6661C34.7682 36.4874 35.0009 35.5203 35.465 33.5851L38.0389 22.8503C38.755 19.8693 39.1126 18.38 38.3178 17.6444C37.523 16.9089 36.1456 17.4559 33.3909 18.549L20.6121 23.6246C18.4087 24.5001 17.307 24.9373 17.237 25.689C17.2287 25.7656 17.2287 25.8429 17.237 25.9195C17.3048 26.6723 18.4044 27.1127 20.6056 27.9947C21.6018 28.3943 22.1004 28.5946 22.4579 28.9769C22.4981 29.02 22.5369 29.0645 22.5742 29.1104C22.9038 29.5197 23.0438 30.0581 23.3248 31.1307L23.8515 33.1414C24.1239 34.186 24.2607 34.7094 24.6193 34.7804C24.9779 34.8515 25.2892 34.4186 25.9127 33.5517L27.9836 30.6709ZM27.9836 30.6709L27.6422 30.3155C27.2524 29.9084 27.0575 29.706 27.0575 29.454C27.0575 29.202 27.2513 28.9984 27.6422 28.5924L31.4901 24.582" stroke="black" stroke-width="1.61539" stroke-linecap="round" stroke-linejoin="round"/>
</svg>
