<svg width="57" height="56" viewBox="0 0 57 56" fill="none" xmlns="http://www.w3.org/2000/svg">
<rect x="1.5" y="1" width="54" height="54" rx="27" stroke="black" stroke-width="2"/>
<path d="M33.32 36.768L20.253 19.968C20.1841 19.8793 20.1415 19.7731 20.13 19.6614C20.1186 19.5497 20.1386 19.437 20.188 19.3361C20.2374 19.2353 20.3141 19.1503 20.4094 19.0909C20.5047 19.0315 20.6147 19 20.727 19H23.207C23.2983 19.0001 23.3884 19.0211 23.4703 19.0613C23.5523 19.1015 23.624 19.1599 23.68 19.232L36.747 36.032C36.8159 36.1207 36.8585 36.2269 36.87 36.3386C36.8814 36.4503 36.8614 36.563 36.812 36.6639C36.7626 36.7647 36.6859 36.8497 36.5906 36.9091C36.4953 36.9685 36.3853 37 36.273 37H33.793C33.7017 36.9999 33.6116 36.9789 33.5297 36.9387C33.4477 36.8985 33.376 36.8401 33.32 36.768Z" stroke="black" stroke-width="1.5"/>
<path d="M36.5 19L20.5 37" stroke="black" stroke-width="1.5" stroke-linecap="round"/>
</svg>
