<svg width="307" height="402" viewBox="0 0 307 402" fill="none" xmlns="http://www.w3.org/2000/svg">
<rect width="307" height="233" transform="translate(0 0.441406)" fill="#EEFE05"/>
<path d="M153.917 196.366C142.981 196.366 134.189 188.002 134.189 176.851C134.189 167.416 140.622 159.696 149.843 157.766V124.741L121.108 141.254C121.536 142.755 121.965 144.685 121.965 147.258C121.965 157.766 113.388 166.772 102.665 166.772C92.1577 166.772 82.9366 157.98 82.9366 147.258C82.9366 136.75 91.5144 127.744 102.451 127.744C108.241 127.744 113.173 129.888 117.033 134.177L145.554 117.665L117.033 101.153C113.388 105.441 108.67 107.586 102.665 107.586C91.7288 107.586 82.9366 98.7937 82.9366 88.286C82.9366 77.5638 91.9432 68.5572 102.665 68.5572C113.602 68.5572 121.965 77.7782 121.965 88.0715C121.965 90.6448 121.536 92.5748 121.108 94.0759L149.843 110.588V77.5638C140.836 75.8483 134.189 68.3427 134.189 58.4783C134.189 47.5417 142.981 38.964 153.703 38.964C164.854 38.964 173.432 47.9706 173.432 58.4783C173.432 67.9138 166.57 75.8483 157.777 77.5638V110.588L186.513 94.0759C185.87 92.3604 185.655 90.4304 185.655 88.0715C185.655 77.5638 194.018 68.5572 204.955 68.5572C216.32 68.5572 224.684 77.7782 224.684 88.286C224.684 98.7937 215.677 107.586 204.955 107.586C198.951 107.586 194.233 105.441 190.587 101.153L161.852 117.665L190.587 134.177C194.447 129.888 199.379 127.744 205.169 127.744C215.892 127.744 224.684 136.75 224.684 147.258C224.684 157.766 215.677 166.772 204.955 166.772C194.018 166.772 185.655 157.766 185.655 147.258C185.655 144.899 185.87 142.969 186.513 141.254L157.777 124.741V157.766C166.998 159.91 173.432 167.63 173.432 176.851C173.432 188.002 164.854 196.366 153.917 196.366Z" fill="black"/>
<path d="M284.324 221.71C284.324 221.26 284.368 220.838 284.456 220.444C284.544 220.048 284.67 219.685 284.834 219.355C284.998 219.023 285.197 218.726 285.431 218.464C285.667 218.202 285.931 217.981 286.223 217.801C286.517 217.619 286.837 217.48 287.183 217.384C287.529 217.288 287.896 217.24 288.284 217.24C288.672 217.24 289.039 217.288 289.385 217.384C289.731 217.48 290.05 217.619 290.342 217.801C290.636 217.981 290.9 218.202 291.134 218.464C291.37 218.726 291.57 219.023 291.734 219.355C291.898 219.685 292.024 220.048 292.112 220.444C292.2 220.84 292.244 221.262 292.244 221.71C292.244 222.158 292.2 222.58 292.112 222.976C292.024 223.372 291.898 223.736 291.734 224.068C291.57 224.398 291.37 224.694 291.134 224.956C290.9 225.218 290.636 225.44 290.342 225.622C290.05 225.802 289.731 225.94 289.385 226.036C289.039 226.132 288.672 226.18 288.284 226.18C287.896 226.18 287.529 226.132 287.183 226.036C286.837 225.94 286.517 225.802 286.223 225.622C285.931 225.44 285.667 225.218 285.431 224.956C285.197 224.694 284.998 224.398 284.834 224.068C284.67 223.736 284.544 223.372 284.456 222.976C284.368 222.58 284.324 222.158 284.324 221.71ZM286.232 221.71C286.232 222.168 286.277 222.574 286.367 222.928C286.459 223.282 286.592 223.58 286.766 223.822C286.942 224.062 287.157 224.244 287.411 224.368C287.667 224.492 287.958 224.554 288.284 224.554C288.61 224.554 288.9 224.492 289.154 224.368C289.41 224.244 289.625 224.062 289.799 223.822C289.975 223.58 290.108 223.282 290.198 222.928C290.29 222.574 290.336 222.168 290.336 221.71C290.336 221.252 290.29 220.846 290.198 220.492C290.108 220.138 289.975 219.841 289.799 219.601C289.625 219.359 289.41 219.176 289.154 219.052C288.9 218.928 288.61 218.866 288.284 218.866C287.958 218.866 287.667 218.928 287.411 219.052C287.157 219.176 286.942 219.359 286.766 219.601C286.592 219.841 286.459 220.138 286.367 220.492C286.277 220.846 286.232 221.252 286.232 221.71ZM293.922 226V224.731C293.922 224.383 293.965 224.076 294.051 223.81C294.139 223.544 294.257 223.311 294.405 223.111C294.553 222.911 294.724 222.739 294.918 222.595C295.114 222.451 295.321 222.326 295.539 222.22C295.757 222.114 295.979 222.023 296.205 221.947C296.431 221.871 296.649 221.801 296.859 221.737L297.183 221.638C297.445 221.558 297.691 221.478 297.921 221.398C298.151 221.318 298.351 221.224 298.521 221.116C298.693 221.008 298.828 220.878 298.926 220.726C299.026 220.572 299.076 220.383 299.076 220.159C299.076 219.975 299.038 219.805 298.962 219.649C298.886 219.491 298.778 219.355 298.638 219.241C298.498 219.125 298.328 219.034 298.128 218.968C297.93 218.902 297.708 218.869 297.462 218.869C297.2 218.869 296.966 218.907 296.76 218.983C296.554 219.059 296.379 219.168 296.235 219.31C296.093 219.452 295.984 219.626 295.908 219.832C295.834 220.038 295.797 220.271 295.797 220.531V220.699H293.961V220.507C293.961 220.005 294.044 219.553 294.21 219.151C294.376 218.749 294.614 218.406 294.924 218.122C295.234 217.838 295.61 217.62 296.052 217.468C296.494 217.316 296.992 217.24 297.546 217.24C298.074 217.24 298.546 217.31 298.962 217.45C299.38 217.588 299.733 217.785 300.021 218.041C300.311 218.297 300.532 218.606 300.684 218.968C300.836 219.33 300.912 219.734 300.912 220.18C300.912 220.524 300.869 220.826 300.783 221.086C300.697 221.344 300.581 221.569 300.435 221.761C300.289 221.953 300.119 222.116 299.925 222.25C299.733 222.384 299.531 222.499 299.319 222.595C299.107 222.689 298.892 222.768 298.674 222.832C298.456 222.896 298.248 222.955 298.05 223.009L297.582 223.135C297.448 223.171 297.313 223.209 297.177 223.249C297.041 223.287 296.909 223.331 296.781 223.381C296.653 223.429 296.532 223.484 296.418 223.546C296.304 223.608 296.202 223.68 296.112 223.762C296.024 223.844 295.95 223.937 295.89 224.041C295.83 224.145 295.791 224.264 295.773 224.398H300.885V226H293.922Z" fill="#151700"/>
</svg>
