<svg width="307" height="402" viewBox="0 0 307 402" fill="none" xmlns="http://www.w3.org/2000/svg">
<rect width="307" height="233" transform="translate(0 0.882812)" fill="#EEFE05"/>
<path d="M148.994 195.007C145.777 176.564 132.696 153.405 107.821 134.748C95.5976 125.527 83.1599 119.523 70.9366 116.949V107.943C95.1687 102.153 118.972 85.8549 134.197 63.7672C141.917 52.6161 146.85 41.6795 148.994 30.314H158.001C161.646 51.9728 178.373 75.9905 201.104 92.0737C212.255 100.008 223.835 105.369 235.629 107.943V116.949C211.826 121.881 184.163 143.111 170.438 164.77C163.576 175.707 159.502 185.786 158.001 195.007H148.994Z" fill="black"/>
<path d="M284.324 221.71C284.324 221.26 284.368 220.838 284.456 220.444C284.544 220.048 284.67 219.685 284.834 219.355C284.998 219.023 285.197 218.726 285.431 218.464C285.667 218.202 285.931 217.981 286.223 217.801C286.517 217.619 286.837 217.48 287.183 217.384C287.529 217.288 287.896 217.24 288.284 217.24C288.672 217.24 289.039 217.288 289.385 217.384C289.731 217.48 290.05 217.619 290.342 217.801C290.636 217.981 290.9 218.202 291.134 218.464C291.37 218.726 291.57 219.023 291.734 219.355C291.898 219.685 292.024 220.048 292.112 220.444C292.2 220.84 292.244 221.262 292.244 221.71C292.244 222.158 292.2 222.58 292.112 222.976C292.024 223.372 291.898 223.736 291.734 224.068C291.57 224.398 291.37 224.694 291.134 224.956C290.9 225.218 290.636 225.44 290.342 225.622C290.05 225.802 289.731 225.94 289.385 226.036C289.039 226.132 288.672 226.18 288.284 226.18C287.896 226.18 287.529 226.132 287.183 226.036C286.837 225.94 286.517 225.802 286.223 225.622C285.931 225.44 285.667 225.218 285.431 224.956C285.197 224.694 284.998 224.398 284.834 224.068C284.67 223.736 284.544 223.372 284.456 222.976C284.368 222.58 284.324 222.158 284.324 221.71ZM286.232 221.71C286.232 222.168 286.277 222.574 286.367 222.928C286.459 223.282 286.592 223.58 286.766 223.822C286.942 224.062 287.157 224.244 287.411 224.368C287.667 224.492 287.958 224.554 288.284 224.554C288.61 224.554 288.9 224.492 289.154 224.368C289.41 224.244 289.625 224.062 289.799 223.822C289.975 223.58 290.108 223.282 290.198 222.928C290.29 222.574 290.336 222.168 290.336 221.71C290.336 221.252 290.29 220.846 290.198 220.492C290.108 220.138 289.975 219.841 289.799 219.601C289.625 219.359 289.41 219.176 289.154 219.052C288.9 218.928 288.61 218.866 288.284 218.866C287.958 218.866 287.667 218.928 287.411 219.052C287.157 219.176 286.942 219.359 286.766 219.601C286.592 219.841 286.459 220.138 286.367 220.492C286.277 220.846 286.232 221.252 286.232 221.71ZM293.89 220.198C293.89 219.728 293.969 219.31 294.127 218.944C294.285 218.576 294.515 218.266 294.817 218.014C295.121 217.762 295.493 217.57 295.933 217.438C296.373 217.306 296.876 217.24 297.442 217.24C297.97 217.24 298.45 217.297 298.882 217.411C299.314 217.523 299.683 217.683 299.989 217.891C300.295 218.099 300.531 218.349 300.697 218.641C300.865 218.933 300.949 219.259 300.949 219.619C300.949 219.883 300.904 220.128 300.814 220.354C300.724 220.578 300.598 220.775 300.436 220.945C300.274 221.115 300.08 221.254 299.854 221.362C299.63 221.468 299.382 221.535 299.11 221.563C299.462 221.583 299.777 221.644 300.055 221.746C300.335 221.848 300.571 221.986 300.763 222.16C300.957 222.334 301.105 222.541 301.207 222.781C301.311 223.021 301.363 223.29 301.363 223.588C301.363 223.98 301.275 224.336 301.099 224.656C300.923 224.974 300.673 225.246 300.349 225.472C300.025 225.698 299.635 225.873 299.179 225.997C298.723 226.119 298.214 226.18 297.652 226.18C297.058 226.18 296.528 226.11 296.062 225.97C295.596 225.83 295.202 225.627 294.88 225.361C294.558 225.095 294.312 224.769 294.142 224.383C293.974 223.997 293.89 223.558 293.89 223.066V223.051H295.726V223.141C295.726 223.355 295.77 223.549 295.858 223.723C295.948 223.897 296.074 224.046 296.236 224.17C296.4 224.292 296.597 224.387 296.827 224.455C297.057 224.521 297.314 224.554 297.598 224.554C297.878 224.554 298.135 224.522 298.369 224.458C298.605 224.394 298.808 224.305 298.978 224.191C299.15 224.075 299.284 223.938 299.38 223.78C299.476 223.622 299.524 223.449 299.524 223.261C299.524 222.963 299.391 222.744 299.125 222.604C298.861 222.462 298.449 222.391 297.889 222.391H296.572V220.897H297.823C298.029 220.897 298.213 220.877 298.375 220.837C298.539 220.795 298.677 220.736 298.789 220.66C298.901 220.584 298.987 220.491 299.047 220.381C299.107 220.269 299.137 220.143 299.137 220.003C299.137 219.833 299.094 219.679 299.008 219.541C298.924 219.401 298.805 219.281 298.651 219.181C298.497 219.081 298.312 219.004 298.096 218.95C297.882 218.894 297.644 218.866 297.382 218.866C297.118 218.866 296.883 218.895 296.677 218.953C296.473 219.011 296.3 219.095 296.158 219.205C296.018 219.315 295.911 219.451 295.837 219.613C295.763 219.773 295.726 219.957 295.726 220.165V220.213H293.89V220.198Z" fill="#151700"/>
</svg>
