<svg width="307" height="401" viewBox="0 0 307 401" fill="none" xmlns="http://www.w3.org/2000/svg">
<rect width="307" height="233" transform="translate(0 0.210938)" fill="#EEFE05"/>
<path d="M206.117 160.201H193.679C200.542 144.976 207.618 133.396 214.266 125.89H181.242V110.665H214.266C207.404 103.159 200.542 91.5793 193.679 76.5682H206.117C220.914 94.1526 236.783 107.019 253.08 115.382V121.387C236.783 129.75 220.914 142.617 206.117 160.201ZM169.447 125.89H139.425V110.665H169.447V125.89ZM127.631 125.89H99.7531V110.665H127.631V125.89ZM87.9587 125.89H57.9366V110.665H87.9587V125.89Z" fill="black"/>
<path d="M284.324 219.71C284.324 219.26 284.368 218.838 284.456 218.444C284.544 218.048 284.67 217.685 284.834 217.355C284.998 217.023 285.197 216.726 285.431 216.464C285.667 216.202 285.931 215.981 286.223 215.801C286.517 215.619 286.837 215.48 287.183 215.384C287.529 215.288 287.896 215.24 288.284 215.24C288.672 215.24 289.039 215.288 289.385 215.384C289.731 215.48 290.05 215.619 290.342 215.801C290.636 215.981 290.9 216.202 291.134 216.464C291.37 216.726 291.57 217.023 291.734 217.355C291.898 217.685 292.024 218.048 292.112 218.444C292.2 218.84 292.244 219.262 292.244 219.71C292.244 220.158 292.2 220.58 292.112 220.976C292.024 221.372 291.898 221.736 291.734 222.068C291.57 222.398 291.37 222.694 291.134 222.956C290.9 223.218 290.636 223.44 290.342 223.622C290.05 223.802 289.731 223.94 289.385 224.036C289.039 224.132 288.672 224.18 288.284 224.18C287.896 224.18 287.529 224.132 287.183 224.036C286.837 223.94 286.517 223.802 286.223 223.622C285.931 223.44 285.667 223.218 285.431 222.956C285.197 222.694 284.998 222.398 284.834 222.068C284.67 221.736 284.544 221.372 284.456 220.976C284.368 220.58 284.324 220.158 284.324 219.71ZM286.232 219.71C286.232 220.168 286.277 220.574 286.367 220.928C286.459 221.282 286.592 221.58 286.766 221.822C286.942 222.062 287.157 222.244 287.411 222.368C287.667 222.492 287.958 222.554 288.284 222.554C288.61 222.554 288.9 222.492 289.154 222.368C289.41 222.244 289.625 222.062 289.799 221.822C289.975 221.58 290.108 221.282 290.198 220.928C290.29 220.574 290.336 220.168 290.336 219.71C290.336 219.252 290.29 218.846 290.198 218.492C290.108 218.138 289.975 217.841 289.799 217.601C289.625 217.359 289.41 217.176 289.154 217.052C288.9 216.928 288.61 216.866 288.284 216.866C287.958 216.866 287.667 216.928 287.411 217.052C287.157 217.176 286.942 217.359 286.766 217.601C286.592 217.841 286.459 218.138 286.367 218.492C286.277 218.846 286.232 219.252 286.232 219.71ZM297.868 215.24C298.382 215.24 298.85 215.308 299.272 215.444C299.696 215.578 300.059 215.768 300.361 216.014C300.663 216.26 300.897 216.555 301.063 216.899C301.229 217.243 301.312 217.624 301.312 218.042V218.171H299.476V218.081C299.476 217.903 299.436 217.74 299.356 217.592C299.278 217.442 299.168 217.314 299.026 217.208C298.884 217.1 298.715 217.016 298.519 216.956C298.325 216.896 298.111 216.866 297.877 216.866C297.541 216.866 297.241 216.93 296.977 217.058C296.713 217.186 296.49 217.372 296.308 217.616C296.126 217.86 295.987 218.159 295.891 218.513C295.795 218.867 295.747 219.27 295.747 219.722V220.643C295.797 220.351 295.896 220.093 296.044 219.869C296.192 219.643 296.385 219.453 296.623 219.299C296.861 219.143 297.143 219.025 297.469 218.945C297.795 218.865 298.16 218.825 298.564 218.825C299.038 218.825 299.458 218.879 299.824 218.987C300.192 219.095 300.501 219.254 300.751 219.464C301.003 219.672 301.194 219.928 301.324 220.232C301.454 220.536 301.519 220.885 301.519 221.279C301.519 221.729 301.435 222.134 301.267 222.494C301.099 222.852 300.857 223.156 300.541 223.406C300.225 223.654 299.841 223.845 299.389 223.979C298.937 224.111 298.426 224.177 297.856 224.177C297.2 224.177 296.624 224.087 296.128 223.907C295.634 223.727 295.221 223.46 294.889 223.106C294.557 222.752 294.307 222.313 294.139 221.789C293.973 221.265 293.89 220.66 293.89 219.974V219.896C293.89 219.158 293.979 218.501 294.157 217.925C294.335 217.347 294.594 216.859 294.934 216.461C295.274 216.063 295.69 215.76 296.182 215.552C296.676 215.344 297.238 215.24 297.868 215.24ZM297.892 222.551C298.17 222.551 298.415 222.522 298.627 222.464C298.841 222.406 299.02 222.32 299.164 222.206C299.31 222.092 299.42 221.951 299.494 221.783C299.57 221.615 299.608 221.422 299.608 221.204C299.608 220.988 299.571 220.797 299.497 220.631C299.423 220.463 299.315 220.323 299.173 220.211C299.031 220.097 298.855 220.011 298.645 219.953C298.435 219.893 298.194 219.863 297.922 219.863C297.632 219.863 297.367 219.896 297.127 219.962C296.887 220.026 296.681 220.118 296.509 220.238C296.337 220.358 296.204 220.502 296.11 220.67C296.016 220.838 295.969 221.024 295.969 221.228C295.969 221.428 296.014 221.61 296.104 221.774C296.196 221.936 296.326 222.075 296.494 222.191C296.662 222.305 296.864 222.394 297.1 222.458C297.338 222.52 297.602 222.551 297.892 222.551Z" fill="#151700"/>
</svg>
