<svg width="1920" height="1098" viewBox="0 0 1920 1098" fill="none" xmlns="http://www.w3.org/2000/svg">
<path d="M-210.223 827.899C-263.557 744.399 -518.626 139.786 -210.226 77.7859C175.274 0.285903 -145.539 729.4 683.276 729.399C922.977 729.399 1081.28 1098.4 1294.28 1012.4C1507.28 926.399 1426.96 668.786 1392.78 544.899C1349.78 389.08 1318.28 -53.6007 1716.28 106.399C2034.68 234.399 2133.28 394.733 2142.78 458.899" stroke="white" stroke-width="144"/>
<path d="M3.89905 106.445L-48.2849 154.648L-56.4598 145.798L-44.5774 134.822C-47.0332 136.219 -49.4511 137.233 -51.8312 137.863C-54.2113 138.493 -56.5025 138.736 -58.7047 138.592C-60.8843 138.449 -62.9519 137.909 -64.9074 136.971C-66.8639 136.055 -68.6347 134.74 -70.2197 133.024C-71.6636 131.46 -72.8078 129.762 -73.6522 127.928C-74.4858 126.106 -75.0331 124.205 -75.2942 122.224C-75.5328 120.245 -75.4864 118.22 -75.1552 116.15C-74.8123 114.069 -74.1922 111.993 -73.2948 109.922C-72.3975 107.852 -71.2239 105.81 -69.7739 103.795C-68.3014 101.781 -66.5661 99.8518 -64.5681 98.0062C-62.5701 96.1606 -60.515 94.589 -58.4028 93.2914C-56.268 91.9947 -54.1331 90.981 -51.9981 90.2505C-49.8632 89.5199 -47.7507 89.0715 -45.6608 88.9053C-43.5591 88.7282 -41.5368 88.8424 -39.5941 89.2478C-37.6405 89.6649 -35.7886 90.3611 -34.0383 91.3364C-32.2771 92.3233 -30.6746 93.5984 -29.2307 95.1616C-27.6456 96.8775 -26.4743 98.7469 -25.7166 100.77C-24.9363 102.793 -24.5671 104.903 -24.6088 107.098C-24.628 109.294 -25.0459 111.553 -25.8627 113.876C-26.6795 116.198 -27.8815 118.528 -29.4687 120.866L-4.27591 97.5948L3.89905 106.445ZM-37.0143 127.836C-34.9927 125.968 -33.4112 124.061 -32.2696 122.113C-31.1172 120.178 -30.4125 118.252 -30.1554 116.338C-29.8983 114.423 -30.0897 112.542 -30.7298 110.693C-31.3589 108.857 -32.4443 107.104 -33.986 105.435C-35.5493 103.743 -37.2043 102.505 -38.9509 101.723C-40.6866 100.952 -42.5023 100.625 -44.3978 100.742C-46.2707 100.86 -48.2127 101.434 -50.2237 102.464C-52.2229 103.483 -54.2685 104.959 -56.3606 106.892C-58.4526 108.824 -60.0916 110.752 -61.2775 112.675C-62.4516 114.587 -63.1776 116.478 -63.4555 118.346C-63.7226 120.226 -63.5406 122.062 -62.9097 123.854C-62.2678 125.657 -61.1653 127.404 -59.6019 129.097C-58.0711 130.754 -56.4153 131.969 -54.6343 132.742C-52.8425 133.526 -50.9821 133.866 -49.0531 133.761C-47.1015 133.657 -45.1152 133.108 -43.0943 132.112C-41.0625 131.128 -39.0358 129.703 -37.0143 127.836Z" fill="#151700"/>
<path d="M16.0536 163.478L21.8247 174.054L-24.629 199.404L-30.4001 188.828L-16.7063 181.355C-19.3634 182.131 -21.8949 182.519 -24.3006 182.519C-26.6987 182.534 -28.9277 182.173 -30.9875 181.438C-33.0397 180.717 -34.894 179.624 -36.5505 178.158C-38.221 176.7 -39.6464 174.89 -40.8266 172.727C-42.2292 170.157 -43.0079 167.61 -43.1629 165.089C-43.2962 162.573 -42.8363 160.126 -41.7832 157.747C-40.7225 155.381 -39.0744 153.124 -36.8389 150.975C-34.5893 148.817 -31.7791 146.819 -28.4083 144.98L-1.9266 130.529L3.84453 141.105L-21.5838 154.981C-30.2074 159.687 -32.6147 165.53 -28.8056 172.51C-27.7786 174.392 -26.5607 175.906 -25.1521 177.051C-23.7434 178.196 -22.1873 178.96 -20.4838 179.343C-18.7586 179.732 -16.9077 179.733 -14.931 179.347C-12.9404 178.954 -10.8636 178.167 -8.70064 176.987L16.0536 163.478Z" fill="#151700"/>
<path d="M-18.092 215.902L-22.9488 204.876L42.0633 176.239L46.9201 187.264L-18.092 215.902Z" fill="#151700"/>
<path d="M18.1558 259.007C15.1121 259.436 12.2171 259.385 9.47078 258.856C6.72451 258.328 4.19492 257.363 1.88199 255.962C-0.430935 254.561 -2.49033 252.752 -4.29618 250.536C-6.10204 248.32 -7.57607 245.743 -8.71828 242.805C-9.66916 240.359 -10.2845 237.938 -10.5644 235.54C-10.8384 233.157 -10.7997 230.851 -10.4483 228.62C-10.0819 226.383 -9.41944 224.245 -8.46078 222.207C-7.4872 220.164 -6.23279 218.268 -4.69754 216.521C-3.14739 214.768 -1.32841 213.177 0.759383 211.747C2.84718 210.318 5.18847 209.098 7.78324 208.089C11.6605 206.582 15.4209 205.789 19.0644 205.712C22.7137 205.649 26.0863 206.243 29.1821 207.495C32.2928 208.74 35.0469 210.613 37.4442 213.114C39.8565 215.61 41.77 218.677 43.1847 222.316C44.5762 225.895 45.2259 229.376 45.1337 232.759C45.0473 236.158 44.2782 239.323 42.8266 242.257C41.3898 245.184 39.2933 247.828 36.5368 250.187C33.7953 252.541 30.4636 254.48 26.5416 256.005C25.96 256.231 25.3726 256.442 24.7794 256.638C24.192 256.849 23.5632 257.042 22.893 257.217L8.62983 220.532C6.66467 221.571 5.01141 222.772 3.67005 224.135C2.34941 225.506 1.35143 227.002 0.676126 228.62C0.000820572 230.239 -0.327786 231.955 -0.309693 233.767C-0.285803 235.595 0.103015 237.478 0.85676 239.417C2.00477 242.369 3.66524 244.565 5.83815 246.003C8.01107 247.442 10.7138 248.167 13.9464 248.181L18.1558 259.007ZM26.6929 243.148C30.383 241.026 32.8304 238.513 34.0352 235.607C35.2607 232.71 35.1921 229.509 33.8296 226.004C33.1338 224.215 32.2305 222.686 31.1197 221.419C30.0088 220.151 28.7215 219.158 27.2576 218.44C25.7996 217.736 24.1829 217.309 22.4076 217.158C20.6471 217.002 18.7591 217.135 16.7435 217.558L26.6929 243.148Z" fill="#151700"/>
<path d="M44.6902 284.981C47.619 283.906 50.4609 283.475 53.2161 283.691C55.9712 283.906 58.5416 284.709 60.9273 286.1C63.3336 287.501 65.5065 289.472 67.4461 292.016C69.3913 294.574 71.0202 297.64 72.3329 301.215C73.7063 304.955 74.4454 308.476 74.5502 311.778C74.6606 315.095 74.1671 318.115 73.0699 320.836C71.9782 323.572 70.2942 325.971 68.0179 328.034C65.7416 330.098 62.9138 331.75 59.5344 332.991L30.0667 343.812L25.9134 332.503L38.9351 327.721C36.4971 327.951 34.1666 327.802 31.9436 327.272C29.7411 326.751 27.7049 325.871 25.8351 324.631C23.9802 323.387 22.3252 321.804 20.8701 319.884C19.4205 317.979 18.2324 315.765 17.3058 313.242C16.3406 310.613 15.8213 308.085 15.748 305.658C15.6651 303.251 15.9882 301.044 16.7173 299.038C17.4463 297.031 18.5651 295.274 20.0735 293.766C21.6025 292.267 23.4785 291.109 25.7013 290.293C28.0143 289.443 30.2551 289.14 32.4239 289.383C34.5927 289.627 36.6299 290.37 38.5353 291.613C40.4462 292.872 42.1947 294.616 43.7806 296.846C45.3816 299.07 46.7529 301.737 47.8947 304.846L54.2322 322.103L55.3811 321.681C57.2585 320.992 58.8331 320.081 60.1049 318.949C61.3918 317.812 62.3568 316.495 62.9999 314.997C63.6486 313.515 63.9613 311.883 63.9378 310.102C63.9144 308.321 63.5387 306.439 62.8106 304.456C62.0715 302.444 61.1961 300.779 60.1845 299.463C59.1934 298.157 58.1008 297.178 56.9067 296.525C55.7126 295.873 54.4368 295.532 53.0793 295.502C51.7218 295.472 50.3071 295.728 48.8352 296.268L44.6902 284.981ZM40.2044 308.412C39.0682 305.318 37.6896 303.165 36.0686 301.954C34.4532 300.757 32.6316 300.531 30.604 301.276C28.4713 302.059 27.1513 303.524 26.6442 305.67C26.1576 307.826 26.5155 310.541 27.7179 313.815C28.5673 316.128 29.6256 318.152 30.8928 319.885C32.1806 321.628 33.5841 323.013 35.1033 324.04C36.6281 325.082 38.2248 325.74 39.8934 326.014C41.5825 326.297 43.2456 326.138 44.8827 325.537L46.302 325.015L40.2044 308.412Z" fill="#151700"/>
<path d="M69.1882 370.906C66.7012 371.968 64.6005 373.221 62.886 374.666C61.1863 376.104 59.8907 377.675 58.9994 379.377C58.1291 381.088 57.6789 382.907 57.6486 384.833C57.6246 386.774 58.049 388.768 58.922 390.813C59.6756 392.579 60.5957 394.022 61.6822 395.141C62.7898 396.269 64.0143 397.121 65.3559 397.696C66.6975 398.272 68.1225 398.595 69.6308 398.664C71.1602 398.742 72.7129 398.61 74.2891 398.268L79.0086 409.327C76.9741 409.899 74.9535 410.24 72.947 410.348C70.9467 410.471 68.9889 410.367 67.0733 410.037C65.1725 409.7 63.3393 409.134 61.5737 408.339C59.8228 407.538 58.1751 406.51 56.6308 405.256C55.0865 404.001 53.678 402.515 52.4054 400.796C51.139 399.093 50.0412 397.152 49.1117 394.974C48.0881 392.575 47.4005 390.189 47.0491 387.817C46.6893 385.466 46.6487 383.169 46.9274 380.928C47.206 378.687 47.7881 376.525 48.6737 374.442C49.5656 372.374 50.7472 370.435 52.2185 368.624C53.7108 366.821 55.4771 365.172 57.5172 363.675C59.5574 362.178 61.8652 360.88 64.4405 359.781C68.3108 358.129 72.0686 357.213 75.714 357.031C79.3656 356.865 82.7651 357.371 85.9126 358.55C89.0747 359.723 91.9008 361.535 94.3908 363.987C96.8808 366.438 98.8951 369.467 100.434 373.072C101.828 376.339 102.583 379.514 102.698 382.596C102.834 385.686 102.421 388.593 101.461 391.317C100.501 394.04 99.0499 396.53 97.1073 398.785C95.1857 401.049 92.8539 402.984 90.1119 404.589L85.3924 393.53C86.7362 392.643 87.9017 391.624 88.8888 390.472C89.8969 389.328 90.6572 388.073 91.1698 386.706C91.6825 385.339 91.9074 383.869 91.8447 382.295C91.7967 380.715 91.3959 379.043 90.6423 377.277C89.7694 375.231 88.6238 373.545 87.2057 372.22C85.7938 370.909 84.1617 369.979 82.3096 369.43C80.4784 368.889 78.4555 368.734 76.2408 368.966C74.0261 369.198 71.6752 369.845 69.1882 370.906Z" fill="#151700"/>
<path d="M94.0628 409.813C96.8405 408.393 99.6099 407.623 102.371 407.505C105.132 407.386 107.78 407.874 110.316 408.967C112.874 410.067 115.269 411.762 117.501 414.053C119.74 416.358 121.727 419.206 123.461 422.596C125.275 426.143 126.434 429.549 126.936 432.815C127.445 436.095 127.319 439.151 126.558 441.985C125.804 444.833 124.422 447.418 122.411 449.74C120.4 452.063 117.792 454.044 114.587 455.683L86.6386 469.979L81.1522 459.252L93.5023 452.935C91.11 453.458 88.7784 453.59 86.5077 453.332C84.2585 453.081 82.1311 452.453 80.1254 451.448C78.134 450.436 76.3003 449.064 74.6243 447.333C72.9557 445.617 71.5093 443.562 70.2852 441.169C69.0101 438.676 68.1899 436.229 67.8244 433.828C67.452 431.449 67.5067 429.22 67.9886 427.14C68.4705 425.06 69.3692 423.181 70.6848 421.502C72.0219 419.829 73.7446 418.454 75.8528 417.376C78.0465 416.253 80.2345 415.682 82.4168 415.662C84.5991 415.642 86.7109 416.135 88.7524 417.139C90.8011 418.158 92.747 419.679 94.5903 421.701C96.4477 423.717 98.1306 426.198 99.6388 429.147L108.011 445.514L109.1 444.957C110.881 444.046 112.334 442.952 113.46 441.675C114.601 440.391 115.4 438.967 115.858 437.403C116.323 435.853 116.437 434.196 116.199 432.43C115.961 430.665 115.361 428.842 114.399 426.962C113.423 425.053 112.353 423.507 111.19 422.322C110.049 421.145 108.846 420.304 107.582 419.801C106.318 419.297 105.01 419.112 103.659 419.246C102.308 419.38 100.934 419.804 99.5383 420.518L94.0628 409.813ZM92.4345 433.614C90.9336 430.679 89.3055 428.709 87.5503 427.701C85.8024 426.708 83.9669 426.704 82.0439 427.687C80.0211 428.722 78.8874 430.335 78.6427 432.527C78.4195 434.726 79.1021 437.378 80.6905 440.484C81.8126 442.677 83.1071 444.558 84.5741 446.126C86.0626 447.701 87.6228 448.907 89.2548 449.743C90.8941 450.594 92.5584 451.055 94.2478 451.125C95.9588 451.203 97.5906 450.844 99.1432 450.05L100.489 449.361L92.4345 433.614Z" fill="#151700"/>
<path d="M97.932 488.648L91.8041 478.275L152.969 442.143L159.097 452.516L97.932 488.648Z" fill="#151700"/>
<path d="M106.714 502.746L100.284 492.557L160.359 454.641L166.789 464.829L106.714 502.746Z" fill="#151700"/>
<path d="M171.62 552.643L144.434 519.07L152.939 512.183L180.125 545.756L171.62 552.643Z" fill="#151700"/>
<path d="M230.829 566.255C233.628 568.742 235.846 571.268 237.482 573.835C239.119 576.401 240.175 578.934 240.652 581.433C241.129 583.932 241.023 586.353 240.334 588.694C239.657 591.046 238.399 593.257 236.561 595.327L227.715 587.469C228.576 586.5 229.16 585.457 229.468 584.339C229.788 583.232 229.821 582.074 229.568 580.865C229.327 579.667 228.801 578.44 227.99 577.184C227.179 575.929 226.068 574.675 224.657 573.421C223.401 572.305 222.146 571.405 220.893 570.719C219.662 570.033 218.485 569.576 217.36 569.347C216.236 569.119 215.199 569.118 214.249 569.345C213.311 569.581 212.518 570.065 211.87 570.794C211.105 571.656 210.729 572.585 210.743 573.581C210.779 574.576 211.062 575.619 211.591 576.71C212.12 577.801 212.816 578.921 213.677 580.072C214.561 581.221 215.474 582.374 216.415 583.531L218.67 586.304C219.599 587.451 220.561 588.669 221.555 589.959C222.56 591.236 223.484 592.581 224.327 593.994C225.17 595.406 225.874 596.866 226.439 598.374C227.015 599.87 227.338 601.397 227.408 602.957C227.477 604.517 227.231 606.096 226.668 607.693C226.116 609.279 225.133 610.867 223.72 612.458C221.967 614.432 220.015 615.833 217.866 616.663C215.716 617.493 213.402 617.749 210.924 617.431C208.458 617.124 205.85 616.241 203.1 614.783C200.351 613.325 197.504 611.289 194.562 608.675C191.487 605.945 189.055 603.238 187.264 600.556C185.463 597.886 184.294 595.275 183.757 592.723C183.232 590.158 183.328 587.676 184.048 585.276C184.778 582.864 186.12 580.558 188.075 578.357L196.921 586.214C195.03 588.344 194.376 590.694 194.959 593.267C195.552 595.827 197.506 598.579 200.819 601.522C202.291 602.829 203.708 603.884 205.07 604.687C206.444 605.501 207.723 606.049 208.907 606.33C210.103 606.622 211.192 606.637 212.174 606.375C213.168 606.124 214.026 605.591 214.748 604.778C215.322 604.132 215.702 603.463 215.888 602.772C216.073 602.081 216.104 601.36 215.98 600.608C215.879 599.854 215.641 599.086 215.266 598.304C214.902 597.509 214.446 596.698 213.898 595.869C213.361 595.028 212.755 594.168 212.079 593.29C211.416 592.423 210.723 591.54 210.002 590.642L207.744 587.835C207.12 587.044 206.464 586.205 205.776 585.316C205.101 584.438 204.429 583.52 203.76 582.563C203.114 581.603 202.506 580.614 201.936 579.594C201.376 578.561 200.9 577.507 200.507 576.431C200.115 575.355 199.83 574.267 199.651 573.167C199.495 572.065 199.486 570.955 199.624 569.836C199.784 568.716 200.12 567.591 200.631 566.462C201.154 565.343 201.905 564.233 202.882 563.132C204.54 561.266 206.422 559.931 208.527 559.126C210.645 558.332 212.908 558.073 215.316 558.35C217.734 558.615 220.251 559.407 222.868 560.725C225.508 562.043 228.161 563.886 230.829 566.255Z" fill="#151700"/>
<path d="M244.342 613.554C242.801 615.776 241.688 617.955 241.005 620.09C240.331 622.212 240.07 624.231 240.221 626.147C240.394 628.059 240.98 629.838 241.979 631.486C242.991 633.142 244.411 634.605 246.238 635.872C247.816 636.967 249.362 637.699 250.878 638.069C252.416 638.435 253.906 638.504 255.348 638.278C256.79 638.052 258.168 637.567 259.483 636.824C260.819 636.076 262.064 635.138 263.216 634.01L273.095 640.864C271.677 642.431 270.147 643.794 268.506 644.954C266.877 646.122 265.164 647.075 263.366 647.814C261.578 648.54 259.724 649.036 257.806 649.302C255.898 649.555 253.956 649.561 251.981 649.321C250.006 649.08 248.022 648.57 246.031 647.792C244.052 647.023 242.09 645.964 240.144 644.614C238.002 643.127 236.15 641.473 234.591 639.651C233.035 637.851 231.779 635.928 230.823 633.882C229.867 631.836 229.21 629.696 228.852 627.461C228.507 625.235 228.476 622.965 228.758 620.648C229.063 618.328 229.681 615.992 230.613 613.639C231.544 611.286 232.808 608.96 234.404 606.659C236.803 603.202 239.497 600.427 242.487 598.334C245.491 596.251 248.639 594.871 251.931 594.195C255.233 593.506 258.59 593.538 262.002 594.289C265.415 595.04 268.732 596.533 271.952 598.767C274.871 600.792 277.198 603.079 278.935 605.628C280.695 608.173 281.892 610.853 282.528 613.67C283.163 616.487 283.259 619.367 282.813 622.31C282.391 625.25 281.445 628.128 279.977 630.946L270.098 624.092C270.764 622.626 271.209 621.143 271.432 619.643C271.677 618.138 271.654 616.671 271.36 615.241C271.067 613.81 270.476 612.446 269.586 611.147C268.705 609.834 267.475 608.631 265.898 607.536C264.07 606.269 262.204 605.451 260.298 605.082C258.405 604.723 256.528 604.804 254.668 605.324C252.829 605.84 251.034 606.786 249.282 608.16C247.53 609.535 245.884 611.333 244.342 613.554Z" fill="#151700"/>
<path d="M276.438 666.227L265.825 660.524L299.452 597.947L310.065 603.65L294.103 633.353C295.919 631.259 297.827 629.55 299.827 628.228C301.827 626.905 303.884 625.985 305.997 625.467C308.123 624.957 310.281 624.863 312.469 625.185C314.665 625.494 316.848 626.231 319.018 627.397C321.598 628.783 323.63 630.493 325.117 632.527C326.625 634.554 327.581 636.848 327.985 639.408C328.403 641.976 328.26 644.778 327.555 647.814C326.857 650.836 325.6 654.038 323.782 657.421L309.502 683.995L298.889 678.292L312.601 652.775C317.252 644.121 316.074 637.912 309.07 634.148C307.195 633.141 305.355 632.543 303.55 632.353C301.744 632.164 300.013 632.378 298.355 632.995C296.705 633.598 295.158 634.601 293.714 636.004C292.269 637.408 290.96 639.202 289.786 641.386L276.438 666.227Z" fill="#151700"/>
<path d="M374.851 692.231C373.08 694.743 371.061 696.819 368.796 698.459C366.53 700.099 364.095 701.283 361.491 702.01C358.886 702.737 356.158 703 353.306 702.799C350.455 702.599 347.567 701.909 344.643 700.731C342.21 699.75 340.023 698.541 338.084 697.104C336.159 695.673 334.504 694.065 333.118 692.282C331.738 690.484 330.634 688.538 329.804 686.444C328.981 684.335 328.458 682.123 328.235 679.808C328.019 677.478 328.104 675.063 328.49 672.562C328.877 670.062 329.591 667.52 330.632 664.938C332.187 661.08 334.183 657.796 336.621 655.087C339.073 652.383 341.815 650.332 344.846 648.931C347.883 647.516 351.134 646.791 354.599 646.755C358.069 646.705 361.615 647.409 365.236 648.869C368.797 650.304 371.78 652.214 374.183 654.597C376.601 656.986 378.383 659.714 379.528 662.78C380.678 665.831 381.17 669.169 381.003 672.794C380.842 676.403 379.975 680.159 378.402 684.062C378.169 684.641 377.921 685.214 377.658 685.781C377.41 686.353 377.12 686.944 376.789 687.552L340.282 672.838C339.694 674.982 339.438 677.009 339.513 678.92C339.609 680.821 340.016 682.573 340.734 684.173C341.452 685.773 342.477 687.187 343.811 688.415C345.16 689.648 346.799 690.654 348.728 691.432C351.666 692.616 354.403 692.908 356.939 692.309C359.475 691.709 361.855 690.236 364.077 687.889L374.851 692.231ZM369.133 675.151C370.113 671.009 369.956 667.504 368.662 664.637C367.389 661.76 365.008 659.619 361.521 658.214C359.74 657.496 358.008 657.108 356.323 657.05C354.639 656.992 353.034 657.251 351.508 657.826C349.997 658.408 348.579 659.294 347.254 660.485C345.934 661.661 344.739 663.128 343.668 664.888L369.133 675.151Z" fill="#151700"/>
<path d="M442.513 657.317L422.037 725.343L410.5 721.87L415.163 706.381C413.757 708.831 412.189 710.932 410.458 712.684C408.728 714.436 406.878 715.809 404.908 716.803C402.957 717.787 400.902 718.371 398.741 718.556C396.59 718.761 394.397 718.527 392.16 717.853C390.122 717.24 388.274 716.358 386.615 715.207C384.972 714.061 383.535 712.701 382.304 711.127C381.093 709.543 380.105 707.775 379.339 705.824C378.578 703.857 378.058 701.754 377.779 699.514C377.501 697.275 377.475 694.919 377.701 692.448C377.947 689.965 378.462 687.422 379.246 684.817C380.03 682.213 381.002 679.815 382.163 677.625C383.343 675.424 384.667 673.466 386.136 671.753C387.604 670.039 389.196 668.58 390.912 667.376C392.633 666.156 394.433 665.227 396.312 664.59C398.207 663.957 400.156 663.616 402.159 663.568C404.177 663.523 406.205 663.808 408.243 664.421C410.48 665.095 412.438 666.11 414.118 667.468C415.818 668.815 417.207 670.445 418.286 672.357C419.384 674.258 420.172 676.417 420.648 678.832C421.124 681.248 421.271 683.866 421.091 686.685L430.976 653.845L442.513 657.317ZM418.13 696.521C418.924 693.886 419.317 691.44 419.312 689.183C419.321 686.93 418.951 684.913 418.2 683.133C417.449 681.353 416.329 679.83 414.839 678.563C413.364 677.3 411.539 676.341 409.364 675.686C407.157 675.022 405.103 674.797 403.201 675.01C401.314 675.227 399.584 675.868 398.011 676.931C396.458 677.984 395.076 679.465 393.867 681.373C392.662 683.266 391.649 685.576 390.828 688.304C390.007 691.031 389.575 693.524 389.53 695.783C389.489 698.026 389.824 700.023 390.533 701.774C391.258 703.53 392.347 705.019 393.8 706.241C395.269 707.469 397.106 708.415 399.312 709.079C401.473 709.729 403.516 709.935 405.443 709.696C407.385 709.461 409.16 708.809 410.769 707.74C412.397 706.659 413.829 705.177 415.064 703.293C416.315 701.414 417.337 699.157 418.13 696.521Z" fill="#151700"/>
<path d="M483.529 684.988L495.317 687.479L484.377 739.255L472.589 736.765L475.814 721.502C474.676 724.025 473.325 726.201 471.761 728.029C470.213 729.86 468.49 731.32 466.592 732.407C464.71 733.497 462.674 734.195 460.483 734.501C458.29 734.823 455.987 734.729 453.577 734.219C450.712 733.614 448.271 732.55 446.254 731.028C444.256 729.494 442.695 727.554 441.572 725.207C440.465 722.863 439.821 720.143 439.642 717.047C439.465 713.936 439.774 710.501 440.568 706.744L446.804 677.228L458.592 679.719L452.603 708.061C450.572 717.673 453.447 723.301 461.227 724.944C463.325 725.388 465.267 725.446 467.053 725.121C468.839 724.795 470.431 724.109 471.829 723.064C473.246 722.006 474.451 720.6 475.443 718.848C476.438 717.079 477.19 714.989 477.699 712.579L483.529 684.988Z" fill="#151700"/>
<path d="M503.004 742.137L491.116 740.177L502.674 670.083L514.562 672.044L503.004 742.137Z" fill="#151700"/>
<path d="M564.542 732.437C563.482 735.322 562.07 737.85 560.307 740.021C558.544 742.192 556.499 743.966 554.171 745.343C551.844 746.72 549.277 747.681 546.471 748.226C543.664 748.771 540.697 748.853 537.568 748.472C534.963 748.155 532.538 747.554 530.292 746.668C528.063 745.785 526.048 744.661 524.247 743.298C522.449 741.918 520.878 740.325 519.534 738.517C518.193 736.694 517.114 734.693 516.299 732.515C515.486 730.32 514.943 727.966 514.669 725.45C514.395 722.935 514.426 720.295 514.762 717.531C515.264 713.402 516.342 709.713 517.994 706.465C519.662 703.218 521.779 700.526 524.344 698.388C526.911 696.235 529.863 694.692 533.2 693.76C536.539 692.812 540.146 692.574 544.021 693.046C547.833 693.51 551.208 694.581 554.147 696.26C557.102 697.941 559.529 700.115 561.429 702.78C563.331 705.429 564.671 708.525 565.449 712.069C566.228 715.597 566.364 719.45 565.856 723.627C565.78 724.246 565.689 724.864 565.582 725.479C565.491 726.097 565.364 726.742 565.201 727.415L526.129 722.662C526.117 724.885 526.394 726.909 526.962 728.735C527.547 730.547 528.394 732.133 529.502 733.492C530.61 734.852 531.967 735.952 533.573 736.792C535.195 737.634 537.039 738.181 539.104 738.432C542.248 738.815 544.968 738.388 547.262 737.152C549.556 735.916 551.472 733.877 553.011 731.034L564.542 732.437ZM554.595 717.421C554.468 713.167 553.408 709.822 551.415 707.388C549.44 704.939 546.587 703.488 542.854 703.034C540.948 702.802 539.174 702.876 537.532 703.257C535.89 703.637 534.407 704.303 533.083 705.254C531.774 706.207 530.634 707.43 529.662 708.924C528.693 710.402 527.919 712.129 527.34 714.105L554.595 717.421Z" fill="#151700"/>
<path d="M592.186 718.552C592.336 715.436 593.047 712.651 594.319 710.197C595.591 707.744 597.332 705.689 599.542 704.034C601.769 702.363 604.432 701.13 607.53 700.335C610.643 699.54 614.102 699.234 617.906 699.417C621.885 699.609 625.416 700.3 628.498 701.49C631.596 702.681 634.185 704.312 636.264 706.382C638.358 708.453 639.912 710.939 640.926 713.839C641.939 716.74 642.359 719.988 642.186 723.583L640.673 754.939L628.639 754.358L629.307 740.503C628.57 742.838 627.524 744.926 626.17 746.767C624.832 748.592 623.229 750.125 621.359 751.364C619.49 752.588 617.388 753.495 615.052 754.087C612.733 754.68 610.231 754.912 607.546 754.783C604.749 754.648 602.219 754.141 599.954 753.263C597.705 752.402 595.799 751.244 594.235 749.791C592.671 748.338 591.489 746.623 590.687 744.647C589.902 742.654 589.567 740.476 589.681 738.11C589.799 735.649 590.393 733.467 591.462 731.565C592.531 729.662 594.009 728.075 595.897 726.805C597.8 725.535 600.087 724.604 602.759 724.012C605.432 723.404 608.422 723.18 611.73 723.34L630.093 724.225L630.152 723.003C630.248 721.005 630.023 719.2 629.476 717.588C628.93 715.96 628.092 714.558 626.963 713.382C625.851 712.207 624.47 711.284 622.82 710.611C621.171 709.939 619.291 709.552 617.182 709.45C615.04 709.347 613.166 709.505 611.56 709.924C609.971 710.328 608.643 710.953 607.577 711.798C606.511 712.644 605.7 713.686 605.144 714.925C604.587 716.163 604.272 717.566 604.196 719.132L592.186 718.552ZM612.018 731.811C608.726 731.653 606.206 732.084 604.459 733.105C602.728 734.126 601.81 735.716 601.706 737.874C601.597 740.143 602.431 741.929 604.211 743.232C606.007 744.521 608.647 745.249 612.131 745.417C614.592 745.535 616.867 745.349 618.958 744.857C621.064 744.35 622.887 743.597 624.425 742.598C625.979 741.599 627.207 740.385 628.109 738.955C629.027 737.51 629.529 735.916 629.613 734.174L629.686 732.664L612.018 731.811Z" fill="#151700"/>
<path d="M696.589 728.902C696.28 731.588 696.329 734.034 696.735 736.239C697.143 738.428 697.866 740.331 698.904 741.949C699.959 743.552 701.316 744.844 702.975 745.824C704.65 746.806 706.592 747.424 708.801 747.679C710.708 747.899 712.417 747.814 713.928 747.424C715.456 747.02 716.803 746.378 717.967 745.497C719.131 744.617 720.117 743.539 720.925 742.263C721.75 740.972 722.404 739.558 722.887 738.019L734.832 739.395C734.322 741.446 733.617 743.37 732.718 745.167C731.834 746.966 730.774 748.615 729.538 750.116C728.304 751.6 726.905 752.913 725.34 754.053C723.777 755.178 722.069 756.1 720.214 756.821C718.359 757.541 716.37 758.029 714.247 758.284C712.14 758.54 709.91 758.533 707.558 758.262C704.967 757.964 702.554 757.38 700.319 756.51C698.098 755.658 696.083 754.557 694.273 753.205C692.464 751.853 690.874 750.277 689.503 748.476C688.148 746.677 687.048 744.69 686.204 742.515C685.377 740.326 684.818 737.975 684.528 735.461C684.237 732.947 684.253 730.3 684.573 727.518C685.054 723.338 686.119 719.619 687.766 716.362C689.43 713.107 691.553 710.404 694.136 708.254C696.721 706.087 699.695 704.529 703.058 703.58C706.42 702.631 710.049 702.38 713.943 702.829C717.472 703.235 720.603 704.151 723.338 705.578C726.091 706.99 728.412 708.787 730.303 710.97C732.194 713.153 733.638 715.646 734.635 718.451C735.651 721.242 736.177 724.225 736.213 727.402L724.268 726.027C724.164 724.42 723.855 722.903 723.343 721.475C722.849 720.033 722.135 718.751 721.201 717.628C720.267 716.506 719.101 715.583 717.703 714.858C716.307 714.117 714.655 713.637 712.748 713.417C710.538 713.163 708.506 713.323 706.652 713.899C704.814 714.477 703.198 715.434 701.804 716.771C700.427 718.094 699.292 719.775 698.396 721.814C697.501 723.853 696.899 726.216 696.589 728.902Z" fill="#151700"/>
<path d="M741.583 727.141C742.578 724.184 744.022 721.699 745.915 719.685C747.808 717.672 750.043 716.17 752.622 715.181C755.22 714.181 758.118 713.721 761.315 713.801C764.528 713.886 767.939 714.536 771.548 715.75C775.324 717.021 778.532 718.649 781.173 720.635C783.829 722.625 785.874 724.901 787.309 727.46C788.759 730.024 789.576 732.839 789.759 735.906C789.943 738.973 789.461 742.212 788.313 745.624L778.302 775.377L766.883 771.535L771.306 758.387C769.96 760.433 768.384 762.156 766.579 763.558C764.794 764.949 762.833 765.986 760.696 766.668C758.564 767.335 756.294 767.635 753.885 767.567C751.492 767.505 749.022 767.045 746.474 766.188C743.821 765.295 741.524 764.117 739.586 762.654C737.657 761.212 736.138 759.578 735.03 757.754C733.922 755.929 733.253 753.957 733.021 751.836C732.809 749.705 733.081 747.518 733.836 745.273C734.622 742.938 735.789 741.001 737.336 739.462C738.884 737.923 740.739 736.8 742.901 736.093C745.079 735.391 747.533 735.119 750.265 735.279C753.002 735.423 755.94 736.023 759.079 737.079L776.503 742.942L776.894 741.782C777.531 739.886 777.807 738.089 777.721 736.388C777.64 734.673 777.217 733.096 776.452 731.656C775.702 730.222 774.625 728.957 773.222 727.86C771.818 726.763 770.116 725.878 768.114 725.205C766.082 724.521 764.236 724.161 762.576 724.126C760.937 724.081 759.49 724.32 758.233 724.843C756.977 725.365 755.912 726.147 755.039 727.187C754.166 728.226 753.479 729.489 752.979 730.975L741.583 727.141ZM757.045 745.308C753.921 744.257 751.379 743.984 749.42 744.49C747.475 745.001 746.159 746.279 745.47 748.327C744.745 750.48 745.061 752.426 746.417 754.166C747.794 755.895 750.135 757.316 753.441 758.428C755.776 759.214 758.016 759.655 760.161 759.752C762.327 759.839 764.285 759.612 766.037 759.071C767.805 758.534 769.317 757.701 770.575 756.571C771.854 755.431 772.771 754.035 773.327 752.382L773.809 750.949L757.045 745.308Z" fill="#151700"/>
<path d="M793.779 783.575L782.892 778.414L813.324 714.222L824.21 719.382L793.779 783.575Z" fill="#151700"/>
<path d="M809.296 791.685L798.668 786.01L832.133 723.345L842.76 729.021L809.296 791.685Z" fill="#151700"/>
<path d="M882.913 812.558L847.377 787.994L853.6 778.991L889.136 803.555L882.913 812.558Z" fill="#151700"/>
<path d="M944.896 820.614C947.797 822.982 950.118 825.414 951.86 827.91C953.602 830.406 954.763 832.893 955.343 835.37C955.923 837.847 955.918 840.27 955.327 842.638C954.749 845.016 953.585 847.277 951.834 849.421L942.669 841.939C943.488 840.935 944.029 839.868 944.29 838.739C944.563 837.62 944.548 836.461 944.245 835.264C943.955 834.076 943.378 832.872 942.516 831.652C941.653 830.431 940.491 829.224 939.028 828.03C937.727 826.968 936.436 826.12 935.155 825.488C933.897 824.853 932.701 824.445 931.569 824.264C930.436 824.083 929.4 824.125 928.46 824.391C927.533 824.667 926.76 825.182 926.143 825.939C925.415 826.831 925.078 827.775 925.133 828.77C925.211 829.763 925.537 830.793 926.111 831.861C926.685 832.928 927.426 834.019 928.335 835.132C929.266 836.244 930.226 837.358 931.214 838.474L933.583 841.152C934.559 842.258 935.571 843.435 936.618 844.683C937.675 845.918 938.654 847.223 939.555 848.599C940.456 849.975 941.221 851.404 941.848 852.887C942.486 854.358 942.872 855.871 943.006 857.427C943.141 858.982 942.96 860.57 942.464 862.189C941.979 863.796 941.063 865.424 939.717 867.072C938.048 869.117 936.156 870.599 934.043 871.518C931.93 872.437 929.629 872.789 927.14 872.574C924.663 872.37 922.02 871.596 919.212 870.254C916.404 868.912 913.476 866.996 910.427 864.507C907.241 861.907 904.698 859.304 902.797 856.699C900.887 854.106 899.61 851.546 898.968 849.018C898.336 846.478 898.329 843.994 898.948 841.566C899.577 839.126 900.822 836.765 902.684 834.485L911.849 841.967C910.048 844.174 909.493 846.55 910.182 849.095C910.882 851.629 912.948 854.297 916.381 857.099C917.906 858.344 919.365 859.339 920.76 860.085C922.167 860.841 923.467 861.335 924.662 861.567C925.869 861.809 926.958 861.778 927.928 861.476C928.91 861.183 929.746 860.615 930.434 859.772C930.98 859.103 931.332 858.419 931.489 857.721C931.645 857.023 931.646 856.301 931.491 855.555C931.359 854.806 931.089 854.049 930.682 853.283C930.284 852.504 929.795 851.712 929.213 850.907C928.642 850.089 928 849.255 927.289 848.406C926.59 847.567 925.861 846.714 925.103 845.847L922.731 843.136C922.073 842.372 921.383 841.561 920.659 840.701C919.948 839.852 919.238 838.963 918.53 838.034C917.845 837.103 917.196 836.139 916.584 835.144C915.981 834.135 915.462 833.102 915.025 832.043C914.588 830.984 914.258 829.909 914.034 828.817C913.832 827.723 913.777 826.614 913.868 825.491C913.982 824.365 914.27 823.227 914.734 822.077C915.21 820.937 915.914 819.797 916.844 818.657C918.423 816.724 920.247 815.311 922.318 814.419C924.401 813.538 926.651 813.185 929.068 813.362C931.495 813.526 934.043 814.212 936.713 815.42C939.405 816.626 942.133 818.358 944.896 820.614Z" fill="#151700"/>
<path d="M959.609 869.159C957.856 871.218 956.534 873.276 955.643 875.333C954.762 877.379 954.303 879.362 954.263 881.283C954.247 883.203 954.654 885.031 955.486 886.769C956.329 888.518 957.598 890.113 959.291 891.555C960.753 892.8 962.219 893.682 963.691 894.199C965.185 894.715 966.661 894.932 968.118 894.849C969.576 894.767 970.995 894.42 972.376 893.81C973.78 893.199 975.111 892.388 976.37 891.38L985.524 899.176C983.957 900.596 982.3 901.801 980.552 902.792C978.816 903.794 977.018 904.573 975.155 905.131C973.304 905.676 971.41 905.987 969.476 906.062C967.551 906.125 965.618 905.94 963.677 905.505C961.735 905.07 959.812 904.367 957.907 903.396C956.014 902.435 954.166 901.187 952.363 899.652C950.378 897.961 948.699 896.132 947.327 894.164C945.957 892.22 944.897 890.182 944.148 888.052C943.398 885.921 942.956 883.726 942.82 881.467C942.697 879.218 942.891 876.956 943.401 874.679C943.933 872.4 944.779 870.136 945.938 867.887C947.098 865.638 948.585 863.447 950.401 861.316C953.129 858.112 956.085 855.617 959.267 853.83C962.462 852.053 965.731 850.992 969.074 850.644C972.427 850.285 975.765 850.648 979.086 851.733C982.408 852.817 985.561 854.631 988.545 857.172C991.249 859.476 993.34 861.981 994.816 864.689C996.315 867.395 997.242 870.181 997.596 873.047C997.951 875.913 997.761 878.788 997.027 881.673C996.316 884.556 995.091 887.327 993.351 889.986L984.198 882.189C985.005 880.797 985.595 879.365 985.965 877.894C986.358 876.421 986.479 874.959 986.329 873.506C986.178 872.054 985.724 870.638 984.967 869.257C984.22 867.864 983.115 866.545 981.654 865.3C979.961 863.858 978.184 862.86 976.324 862.305C974.475 861.761 972.6 861.655 970.697 861.989C968.817 862.321 966.937 863.085 965.058 864.279C963.179 865.474 961.362 867.101 959.609 869.159Z" fill="#151700"/>
<path d="M985.38 925.91L976.14 918.178L1021.73 863.699L1030.97 871.431L1009.33 897.29C1011.53 895.607 1013.75 894.32 1015.97 893.429C1018.2 892.539 1020.4 892.054 1022.57 891.974C1024.76 891.905 1026.89 892.25 1028.97 893.008C1031.06 893.754 1033.05 894.918 1034.94 896.499C1037.18 898.378 1038.83 900.464 1039.87 902.756C1040.94 905.047 1041.41 907.487 1041.29 910.076C1041.18 912.675 1040.47 915.39 1039.17 918.221C1037.87 921.039 1035.99 923.921 1033.53 926.865L1014.17 950.001L1004.93 942.268L1023.52 920.053C1029.82 912.519 1029.93 906.201 1023.83 901.097C1022.2 899.732 1020.51 898.773 1018.78 898.223C1017.05 897.672 1015.32 897.531 1013.57 897.8C1011.83 898.057 1010.11 898.726 1008.41 899.808C1006.71 900.891 1005.07 902.383 1003.48 904.284L985.38 925.91Z" fill="#151700"/>
<path d="M1070.02 970.904C1067.65 972.853 1065.15 974.315 1062.53 975.291C1059.91 976.268 1057.24 976.759 1054.54 976.765C1051.84 976.771 1049.14 976.297 1046.44 975.343C1043.75 974.389 1041.15 972.954 1038.64 971.039C1036.56 969.444 1034.78 967.695 1033.29 965.793C1031.82 963.9 1030.65 961.91 1029.79 959.821C1028.94 957.72 1028.39 955.55 1028.15 953.311C1027.92 951.059 1028.01 948.788 1028.41 946.497C1028.82 944.194 1029.55 941.889 1030.59 939.582C1031.63 937.275 1033 935.016 1034.69 932.805C1037.22 929.501 1040.02 926.869 1043.09 924.908C1046.17 922.957 1049.36 921.711 1052.66 921.17C1055.96 920.616 1059.29 920.784 1062.64 921.674C1065.99 922.551 1069.22 924.176 1072.32 926.548C1075.37 928.882 1077.74 931.518 1079.42 934.455C1081.11 937.403 1082.1 940.507 1082.39 943.768C1082.68 947.016 1082.27 950.364 1081.14 953.812C1080.02 957.248 1078.18 960.637 1075.63 963.979C1075.25 964.474 1074.85 964.96 1074.45 965.436C1074.06 965.922 1073.62 966.414 1073.14 966.912L1041.88 942.993C1040.74 944.902 1039.95 946.788 1039.52 948.649C1039.1 950.508 1039.03 952.304 1039.29 954.038C1039.56 955.771 1040.17 957.408 1041.13 958.947C1042.1 960.495 1043.41 961.902 1045.06 963.166C1047.58 965.091 1050.14 966.103 1052.74 966.201C1055.35 966.3 1058.03 965.515 1060.8 963.845L1070.02 970.904ZM1069.07 952.918C1071.12 949.187 1071.9 945.768 1071.42 942.659C1070.96 939.547 1069.24 936.849 1066.25 934.564C1064.73 933.397 1063.16 932.561 1061.55 932.056C1059.94 931.551 1058.33 931.372 1056.7 931.52C1055.09 931.677 1053.49 932.153 1051.9 932.947C1050.31 933.728 1048.77 934.824 1047.27 936.234L1069.07 952.918Z" fill="#151700"/>
<path d="M1148.57 958.043L1111.02 1018.35L1100.79 1011.98L1109.34 998.25C1107.35 1000.25 1105.28 1001.87 1103.16 1003.1C1101.03 1004.34 1098.88 1005.18 1096.72 1005.63C1094.58 1006.07 1092.44 1006.1 1090.31 1005.71C1088.18 1005.35 1086.13 1004.55 1084.14 1003.31C1082.34 1002.19 1080.78 1000.85 1079.48 999.307C1078.2 997.771 1077.16 996.083 1076.39 994.242C1075.63 992.397 1075.14 990.432 1074.91 988.348C1074.69 986.25 1074.74 984.085 1075.06 981.85C1075.37 979.616 1075.96 977.336 1076.83 975.009C1077.71 972.677 1078.88 970.357 1080.31 968.048C1081.75 965.739 1083.32 963.679 1085.01 961.868C1086.72 960.052 1088.51 958.509 1090.38 957.238C1092.24 955.968 1094.16 954.976 1096.13 954.262C1098.11 953.534 1100.09 953.109 1102.07 952.985C1104.07 952.869 1106.04 953.05 1107.98 953.527C1109.94 954.012 1111.83 954.816 1113.63 955.941C1115.62 957.176 1117.24 958.668 1118.51 960.418C1119.8 962.162 1120.71 964.098 1121.25 966.226C1121.82 968.348 1122.01 970.638 1121.84 973.094C1121.67 975.55 1121.13 978.115 1120.21 980.79L1138.34 951.675L1148.57 958.043ZM1114.79 989.51C1116.24 987.174 1117.26 984.915 1117.84 982.735C1118.44 980.563 1118.61 978.52 1118.35 976.605C1118.09 974.691 1117.41 972.928 1116.3 971.315C1115.21 969.711 1113.7 968.308 1111.77 967.107C1109.81 965.89 1107.89 965.135 1106 964.843C1104.12 964.56 1102.28 964.726 1100.49 965.341C1098.71 965.952 1096.99 967.02 1095.33 968.546C1093.67 970.058 1092.09 972.023 1090.58 974.441C1089.08 976.858 1088.01 979.152 1087.37 981.32C1086.75 983.475 1086.55 985.49 1086.78 987.366C1087.02 989.25 1087.68 990.971 1088.76 992.532C1089.86 994.1 1091.38 995.493 1093.34 996.711C1095.26 997.903 1097.17 998.636 1099.1 998.909C1101.03 999.191 1102.92 999.026 1104.75 998.413C1106.6 997.796 1108.37 996.74 1110.06 995.245C1111.75 993.758 1113.33 991.846 1114.79 989.51Z" fill="#151700"/>
<path d="M1177.8 989.934L1188.99 994.388L1169.43 1043.56L1158.24 1039.1L1164 1024.61C1162.45 1026.9 1160.75 1028.82 1158.9 1030.35C1157.06 1031.9 1155.12 1033.04 1153.06 1033.79C1151.02 1034.55 1148.9 1034.89 1146.69 1034.82C1144.47 1034.76 1142.22 1034.28 1139.93 1033.37C1137.21 1032.29 1134.98 1030.83 1133.25 1028.98C1131.55 1027.13 1130.34 1024.96 1129.63 1022.45C1128.93 1019.96 1128.76 1017.17 1129.11 1014.08C1129.46 1010.99 1130.35 1007.66 1131.77 1004.09L1142.92 976.057L1154.12 980.511L1143.41 1007.43C1139.78 1016.55 1141.65 1022.59 1149.04 1025.53C1151.04 1026.32 1152.94 1026.71 1154.75 1026.69C1156.57 1026.67 1158.26 1026.27 1159.81 1025.47C1161.39 1024.67 1162.81 1023.49 1164.09 1021.93C1165.37 1020.36 1166.46 1018.43 1167.37 1016.14L1177.8 989.934Z" fill="#151700"/>
<path d="M1190.86 1047.72L1179.08 1045.18L1194.05 975.733L1205.82 978.271L1190.86 1047.72Z" fill="#151700"/>
<path d="M1255.23 1033.48C1254.55 1036.47 1253.47 1039.16 1252 1041.54C1250.53 1043.92 1248.73 1045.94 1246.6 1047.6C1244.47 1049.27 1242.04 1050.55 1239.33 1051.45C1236.62 1052.35 1233.68 1052.81 1230.53 1052.83C1227.91 1052.85 1225.43 1052.56 1223.09 1051.97C1220.76 1051.38 1218.62 1050.53 1216.66 1049.4C1214.7 1048.27 1212.94 1046.89 1211.37 1045.27C1209.81 1043.63 1208.48 1041.78 1207.4 1039.73C1206.31 1037.65 1205.47 1035.39 1204.88 1032.93C1204.28 1030.47 1203.97 1027.85 1203.95 1025.06C1203.92 1020.9 1204.52 1017.11 1205.74 1013.67C1206.98 1010.24 1208.74 1007.3 1211.01 1004.85C1213.28 1002.39 1216.01 1000.48 1219.2 999.128C1222.39 997.761 1225.94 997.063 1229.84 997.035C1233.68 997.007 1237.16 997.638 1240.29 998.927C1243.44 1000.22 1246.12 1002.06 1248.35 1004.46C1250.58 1006.84 1252.3 1009.74 1253.53 1013.16C1254.75 1016.56 1255.38 1020.36 1255.41 1024.57C1255.41 1025.19 1255.4 1025.82 1255.37 1026.44C1255.36 1027.07 1255.32 1027.72 1255.24 1028.41L1215.88 1028.7C1216.16 1030.9 1216.69 1032.87 1217.49 1034.61C1218.3 1036.34 1219.34 1037.8 1220.62 1039.01C1221.89 1040.21 1223.37 1041.13 1225.08 1041.76C1226.79 1042.39 1228.69 1042.69 1230.77 1042.68C1233.94 1042.65 1236.58 1041.88 1238.7 1040.36C1240.81 1038.84 1242.45 1036.58 1243.62 1033.56L1255.23 1033.48ZM1243.45 1019.86C1242.78 1015.65 1241.3 1012.47 1239.01 1010.31C1236.74 1008.14 1233.72 1007.06 1229.96 1007.09C1228.04 1007.1 1226.29 1007.4 1224.71 1007.99C1223.13 1008.58 1221.75 1009.43 1220.55 1010.54C1219.38 1011.65 1218.4 1013.01 1217.63 1014.62C1216.86 1016.21 1216.31 1018.02 1215.99 1020.06L1243.45 1019.86Z" fill="#151700"/>
<path d="M1281.98 1009.87C1280.65 1007.04 1279.96 1004.25 1279.93 1001.49C1279.9 998.725 1280.48 996.093 1281.65 993.594C1282.83 991.073 1284.6 988.733 1286.96 986.575C1289.34 984.411 1292.25 982.516 1295.69 980.891C1299.3 979.191 1302.74 978.142 1306.02 977.745C1309.31 977.34 1312.36 977.564 1315.17 978.415C1317.99 979.259 1320.53 980.724 1322.79 982.808C1325.05 984.892 1326.94 987.562 1328.48 990.818L1341.87 1019.21L1330.98 1024.35L1325.06 1011.8C1325.5 1014.21 1325.56 1016.55 1325.23 1018.81C1324.91 1021.05 1324.21 1023.15 1323.14 1025.13C1322.07 1027.08 1320.64 1028.87 1318.86 1030.49C1317.09 1032.11 1314.99 1033.49 1312.56 1034.63C1310.02 1035.83 1307.55 1036.57 1305.14 1036.86C1302.75 1037.15 1300.52 1037.03 1298.46 1036.48C1296.4 1035.93 1294.55 1034.97 1292.91 1033.61C1291.28 1032.22 1289.96 1030.45 1288.95 1028.31C1287.9 1026.08 1287.4 1023.87 1287.45 1021.69C1287.5 1019.51 1288.06 1017.42 1289.13 1015.41C1290.21 1013.39 1291.8 1011.5 1293.88 1009.72C1295.95 1007.93 1298.48 1006.32 1301.48 1004.91L1318.11 997.066L1317.58 995.959C1316.73 994.15 1315.68 992.663 1314.44 991.496C1313.2 990.315 1311.8 989.471 1310.25 988.964C1308.71 988.449 1307.06 988.283 1305.29 988.464C1303.52 988.645 1301.68 989.187 1299.77 990.088C1297.83 991.003 1296.25 992.023 1295.03 993.147C1293.81 994.25 1292.93 995.426 1292.39 996.673C1291.85 997.92 1291.62 999.221 1291.71 1000.58C1291.8 1001.93 1292.18 1003.32 1292.85 1004.74L1281.98 1009.87ZM1305.71 1012.25C1302.73 1013.66 1300.71 1015.22 1299.65 1016.95C1298.6 1018.66 1298.54 1020.5 1299.46 1022.45C1300.43 1024.5 1302 1025.69 1304.19 1026C1306.38 1026.3 1309.05 1025.7 1312.2 1024.21C1314.43 1023.16 1316.35 1021.93 1317.97 1020.51C1319.59 1019.07 1320.84 1017.55 1321.73 1015.95C1322.64 1014.34 1323.15 1012.69 1323.27 1011C1323.41 1009.29 1323.1 1007.65 1322.36 1006.07L1321.71 1004.71L1305.71 1012.25Z" fill="#151700"/>
<path d="M1365.23 969.048C1367.18 970.923 1369.15 972.369 1371.15 973.383C1373.14 974.387 1375.09 974.967 1377.01 975.123C1378.92 975.256 1380.77 974.961 1382.56 974.237C1384.36 973.502 1386.03 972.333 1387.57 970.731C1388.9 969.348 1389.87 967.938 1390.48 966.501C1391.08 965.041 1391.39 963.581 1391.4 962.121C1391.4 960.661 1391.14 959.223 1390.62 957.808C1390.09 956.369 1389.37 954.991 1388.43 953.673L1396.78 945.012C1398.1 946.662 1399.2 948.389 1400.08 950.195C1400.97 951.988 1401.64 953.831 1402.09 955.724C1402.52 957.606 1402.71 959.514 1402.67 961.45C1402.62 963.375 1402.31 965.293 1401.76 967.204C1401.21 969.116 1400.39 970.993 1399.3 972.835C1398.23 974.666 1396.87 976.434 1395.23 978.14C1393.42 980.018 1391.49 981.582 1389.44 982.832C1387.42 984.081 1385.32 985.014 1383.15 985.632C1380.98 986.251 1378.76 986.558 1376.5 986.556C1374.24 986.542 1372 986.211 1369.75 985.563C1367.51 984.892 1365.3 983.91 1363.13 982.615C1360.96 981.321 1358.86 979.703 1356.84 977.761C1353.81 974.842 1351.5 971.74 1349.91 968.454C1348.33 965.157 1347.47 961.83 1347.33 958.472C1347.18 955.102 1347.74 951.793 1349.03 948.544C1350.31 945.295 1352.31 942.258 1355.03 939.435C1357.5 936.876 1360.13 934.942 1362.92 933.634C1365.71 932.302 1368.55 931.547 1371.43 931.368C1374.31 931.189 1377.17 931.554 1380.01 932.463C1382.84 933.348 1385.53 934.74 1388.08 936.638L1379.74 945.3C1378.4 944.408 1377.01 943.733 1375.56 943.274C1374.11 942.792 1372.66 942.582 1371.2 942.643C1369.74 942.705 1368.3 943.071 1366.88 943.743C1365.44 944.404 1364.06 945.426 1362.73 946.809C1361.18 948.411 1360.08 950.123 1359.41 951.946C1358.76 953.758 1358.54 955.624 1358.75 957.543C1358.97 959.44 1359.62 961.363 1360.7 963.312C1361.77 965.26 1363.29 967.172 1365.23 969.048Z" fill="#151700"/>
<path d="M1389.14 932.493C1386.37 931.042 1384.15 929.222 1382.46 927.033C1380.77 924.845 1379.65 922.399 1379.08 919.697C1378.5 916.973 1378.51 914.039 1379.1 910.894C1379.69 907.736 1380.87 904.471 1382.64 901.101C1384.5 897.574 1386.61 894.665 1388.99 892.373C1391.38 890.066 1393.95 888.408 1396.71 887.398C1399.47 886.373 1402.38 886.013 1405.43 886.319C1408.49 886.624 1411.61 887.614 1414.8 889.289L1442.59 903.894L1436.98 914.559L1424.7 908.105C1426.51 909.759 1427.96 911.588 1429.06 913.593C1430.15 915.576 1430.86 917.677 1431.19 919.895C1431.52 922.106 1431.45 924.395 1431 926.762C1430.56 929.115 1429.71 931.481 1428.46 933.86C1427.16 936.339 1425.63 938.419 1423.88 940.101C1422.15 941.776 1420.3 943.016 1418.32 943.821C1416.34 944.625 1414.29 944.974 1412.16 944.866C1410.02 944.737 1407.91 944.121 1405.81 943.02C1403.63 941.873 1401.9 940.414 1400.63 938.642C1399.35 936.87 1398.54 934.86 1398.18 932.613C1397.84 930.351 1397.96 927.884 1398.55 925.213C1399.12 922.533 1400.18 919.728 1401.72 916.796L1410.28 900.523L1409.19 899.954C1407.42 899.023 1405.69 898.466 1404 898.281C1402.29 898.089 1400.67 898.256 1399.13 898.783C1397.59 899.296 1396.17 900.158 1394.87 901.37C1393.56 902.582 1392.42 904.122 1391.43 905.992C1390.44 907.889 1389.79 909.655 1389.49 911.288C1389.19 912.899 1389.19 914.366 1389.51 915.69C1389.83 917.013 1390.43 918.188 1391.32 919.215C1392.2 920.242 1393.34 921.121 1394.73 921.85L1389.14 932.493ZM1409.53 920.111C1407.99 923.028 1407.32 925.494 1407.51 927.509C1407.7 929.51 1408.76 931.013 1410.67 932.018C1412.68 933.075 1414.65 933.072 1416.59 932.009C1418.51 930.924 1420.29 928.838 1421.91 925.751C1423.05 923.57 1423.85 921.428 1424.28 919.326C1424.71 917.202 1424.8 915.232 1424.54 913.416C1424.29 911.586 1423.71 909.96 1422.79 908.539C1421.87 907.096 1420.64 905.968 1419.09 905.157L1417.76 904.454L1409.53 920.111Z" fill="#151700"/>
<path d="M1448.94 881.98L1445.21 893.436L1377.66 871.441L1381.39 859.985L1448.94 881.98Z" fill="#151700"/>
<path d="M1454.6 860.188L1451.79 871.904L1382.71 855.343L1385.51 843.627L1454.6 860.188Z" fill="#151700"/>
<path d="M1440.6 780.726L1438.51 823.875L1427.58 823.345L1429.67 780.196L1440.6 780.726Z" fill="#151700"/>
<path d="M1404.92 730.434C1404.5 726.714 1404.54 723.352 1405.04 720.349C1405.53 717.347 1406.44 714.757 1407.76 712.579C1409.07 710.402 1410.77 708.673 1412.85 707.392C1414.92 706.095 1417.34 705.291 1420.09 704.981L1421.41 716.738C1420.13 716.884 1419 717.269 1418.02 717.894C1417.04 718.504 1416.24 719.343 1415.62 720.411C1415 721.463 1414.57 722.727 1414.34 724.203C1414.1 725.679 1414.09 727.355 1414.3 729.231C1414.49 730.9 1414.82 732.409 1415.29 733.756C1415.75 735.089 1416.32 736.217 1417 737.138C1417.69 738.059 1418.46 738.753 1419.31 739.22C1420.17 739.671 1421.08 739.841 1422.05 739.732C1423.2 739.603 1424.1 739.163 1424.75 738.413C1425.39 737.648 1425.88 736.684 1426.21 735.519C1426.55 734.354 1426.78 733.056 1426.91 731.624C1427.02 730.179 1427.11 728.711 1427.19 727.221L1427.36 723.651C1427.44 722.177 1427.54 720.628 1427.66 719.004C1427.77 717.382 1427.98 715.764 1428.3 714.151C1428.61 712.537 1429.07 710.98 1429.65 709.481C1430.22 707.983 1431.01 706.631 1432 705.425C1432.99 704.218 1434.23 703.209 1435.71 702.397C1437.18 701.587 1438.98 701.063 1441.09 700.824C1443.71 700.528 1446.1 700.79 1448.26 701.61C1450.41 702.429 1452.3 703.786 1453.93 705.679C1455.56 707.556 1456.91 709.956 1457.98 712.879C1459.05 715.801 1459.81 719.218 1460.25 723.129C1460.71 727.215 1460.71 730.854 1460.25 734.046C1459.8 737.236 1458.93 739.959 1457.62 742.216C1456.3 744.475 1454.57 746.256 1452.43 747.56C1450.27 748.866 1447.73 749.684 1444.8 750.014L1443.48 738.256C1446.31 737.937 1448.37 736.626 1449.65 734.323C1450.92 732.023 1451.31 728.67 1450.81 724.266C1450.59 722.31 1450.24 720.579 1449.77 719.07C1449.29 717.546 1448.7 716.284 1448.01 715.283C1447.32 714.267 1446.52 713.528 1445.61 713.066C1444.7 712.589 1443.71 712.411 1442.63 712.533C1441.77 712.63 1441.04 712.874 1440.44 713.263C1439.84 713.653 1439.34 714.169 1438.93 714.811C1438.5 715.439 1438.16 716.169 1437.92 717.002C1437.66 717.836 1437.45 718.745 1437.31 719.728C1437.14 720.712 1437.02 721.757 1436.94 722.861C1436.85 723.95 1436.77 725.069 1436.71 726.219L1436.51 729.816C1436.45 730.822 1436.38 731.885 1436.29 733.005C1436.21 734.109 1436.09 735.241 1435.95 736.401C1435.79 737.546 1435.58 738.689 1435.32 739.829C1435.05 740.971 1434.7 742.073 1434.27 743.135C1433.84 744.198 1433.33 745.198 1432.73 746.136C1432.11 747.059 1431.37 747.891 1430.52 748.631C1429.65 749.357 1428.65 749.969 1427.51 750.467C1426.38 750.95 1425.08 751.273 1423.62 751.439C1421.13 751.718 1418.84 751.454 1416.74 750.644C1414.63 749.819 1412.78 748.499 1411.17 746.684C1409.55 744.87 1408.21 742.598 1407.14 739.868C1406.06 737.124 1405.32 733.98 1404.92 730.434Z" fill="#151700"/>
<path d="M1426.81 686.209C1429.47 685.699 1431.78 684.92 1433.77 683.871C1435.73 682.826 1437.33 681.566 1438.56 680.091C1439.78 678.603 1440.6 676.922 1441.04 675.045C1441.47 673.153 1441.48 671.115 1441.06 668.931C1440.7 667.046 1440.11 665.441 1439.28 664.116C1438.44 662.779 1437.42 661.687 1436.23 660.841C1435.05 659.994 1433.72 659.376 1432.26 658.988C1430.78 658.588 1429.24 658.388 1427.63 658.388L1425.36 646.58C1427.47 646.451 1429.52 646.547 1431.5 646.867C1433.48 647.171 1435.37 647.687 1437.17 648.417C1438.96 649.149 1440.63 650.091 1442.19 651.242C1443.73 652.396 1445.12 653.75 1446.36 655.303C1447.61 656.856 1448.67 658.608 1449.55 660.557C1450.42 662.49 1451.09 664.62 1451.53 666.945C1452.02 669.507 1452.19 671.984 1452.03 674.377C1451.88 676.751 1451.44 679.004 1450.69 681.135C1449.94 683.266 1448.91 685.256 1447.61 687.103C1446.3 688.935 1444.73 690.58 1442.91 692.038C1441.07 693.483 1438.99 694.72 1436.68 695.751C1434.37 696.781 1431.84 697.56 1429.09 698.088C1424.96 698.881 1421.09 698.98 1417.49 698.385C1413.89 697.773 1410.67 696.558 1407.85 694.738C1405 692.921 1402.63 690.551 1400.71 687.627C1398.8 684.704 1397.47 681.317 1396.73 677.468C1396.06 673.979 1396 670.717 1396.54 667.68C1397.06 664.631 1398.08 661.878 1399.6 659.42C1401.11 656.962 1403.06 654.837 1405.44 653.044C1407.79 651.239 1410.48 649.843 1413.5 648.856L1415.77 660.664C1414.27 661.246 1412.91 661.995 1411.71 662.911C1410.48 663.815 1409.47 664.88 1408.68 666.107C1407.89 667.335 1407.36 668.724 1407.08 670.275C1406.79 671.829 1406.83 673.549 1407.19 675.435C1407.61 677.619 1408.38 679.509 1409.48 681.105C1410.58 682.686 1411.98 683.941 1413.67 684.87C1415.35 685.787 1417.29 686.366 1419.51 686.609C1421.72 686.852 1424.15 686.719 1426.81 686.209Z" fill="#151700"/>
<path d="M1440.75 623.792L1443.67 635.481L1374.75 652.705L1371.83 641.017L1404.54 632.841C1401.77 632.907 1399.22 632.645 1396.9 632.055C1394.57 631.465 1392.51 630.562 1390.7 629.347C1388.9 628.117 1387.37 626.584 1386.14 624.749C1384.89 622.917 1383.97 620.806 1383.37 618.415C1382.66 615.575 1382.56 612.92 1383.06 610.452C1383.55 607.973 1384.6 605.722 1386.22 603.7C1387.84 601.663 1390.01 599.884 1392.73 598.363C1395.44 596.846 1398.65 595.622 1402.38 594.691L1431.64 587.376L1434.57 599.065L1406.46 606.088C1396.93 608.47 1393.13 613.519 1395.06 621.233C1395.57 623.298 1396.37 625.062 1397.44 626.525C1398.52 627.988 1399.84 629.125 1401.41 629.936C1402.97 630.751 1404.75 631.221 1406.76 631.345C1408.77 631.469 1410.98 631.231 1413.39 630.63L1440.75 623.792Z" fill="#151700"/>
<path d="M1398.86 535.974C1401.93 535.85 1404.81 536.187 1407.49 536.986C1410.17 537.785 1412.59 538.996 1414.75 540.62C1416.92 542.244 1418.79 544.248 1420.36 546.632C1421.94 549.017 1423.15 551.728 1423.99 554.764C1424.7 557.292 1425.07 559.763 1425.11 562.176C1425.15 564.574 1424.88 566.866 1424.31 569.051C1423.72 571.24 1422.85 573.301 1421.69 575.234C1420.52 577.171 1419.09 578.933 1417.38 580.519C1415.67 582.109 1413.7 583.512 1411.48 584.727C1409.26 585.943 1406.81 586.924 1404.13 587.67C1400.12 588.785 1396.3 589.2 1392.67 588.916C1389.03 588.616 1385.73 587.69 1382.78 586.138C1379.8 584.589 1377.25 582.452 1375.11 579.725C1372.96 577.003 1371.36 573.761 1370.31 570C1369.28 566.3 1368.98 562.772 1369.41 559.414C1369.83 556.041 1370.91 552.967 1372.65 550.192C1374.37 547.422 1376.72 545 1379.7 542.926C1382.66 540.856 1386.17 539.257 1390.22 538.129C1390.82 537.962 1391.43 537.81 1392.04 537.674C1392.64 537.522 1393.29 537.392 1393.97 537.285L1404.52 575.204C1406.58 574.366 1408.34 573.335 1409.81 572.112C1411.26 570.878 1412.41 569.49 1413.24 567.946C1414.07 566.402 1414.57 564.728 1414.73 562.922C1414.89 561.101 1414.69 559.189 1414.13 557.185C1413.28 554.133 1411.85 551.783 1409.83 550.136C1407.81 548.489 1405.19 547.499 1401.98 547.165L1398.86 535.974ZM1388.79 550.907C1384.91 552.652 1382.23 554.91 1380.74 557.683C1379.23 560.444 1378.98 563.635 1379.99 567.258C1380.5 569.107 1381.25 570.718 1382.23 572.09C1383.21 573.461 1384.39 574.577 1385.78 575.437C1387.16 576.282 1388.73 576.868 1390.48 577.194C1392.21 577.525 1394.1 577.58 1396.15 577.359L1388.79 550.907Z" fill="#151700"/>
<path d="M1334.17 488.507L1403.84 474.594L1406.2 486.409L1390.34 489.577C1393.16 489.665 1395.75 490.061 1398.11 490.765C1400.47 491.468 1402.55 492.456 1404.36 493.727C1406.14 494.986 1407.62 496.526 1408.8 498.346C1409.99 500.147 1410.82 502.193 1411.28 504.484C1411.69 506.571 1411.78 508.617 1411.55 510.622C1411.31 512.611 1410.78 514.519 1409.97 516.345C1409.15 518.158 1408.05 519.862 1406.69 521.456C1405.31 523.052 1403.7 524.5 1401.85 525.799C1400.01 527.097 1397.94 528.228 1395.65 529.191C1393.35 530.141 1390.86 530.882 1388.19 531.415C1385.52 531.947 1382.95 532.217 1380.47 532.222C1377.97 532.215 1375.62 531.967 1373.42 531.477C1371.22 530.987 1369.18 530.267 1367.31 529.319C1365.43 528.374 1363.76 527.222 1362.32 525.863C1360.87 524.488 1359.65 522.928 1358.66 521.184C1357.68 519.423 1356.97 517.499 1356.56 515.412C1356.1 513.122 1356.07 510.916 1356.48 508.795C1356.87 506.661 1357.66 504.669 1358.84 502.818C1360 500.954 1361.53 499.244 1363.44 497.689C1365.35 496.133 1367.59 494.772 1370.17 493.605L1336.53 500.322L1334.17 488.507ZM1380.24 491.593C1377.54 492.132 1375.2 492.935 1373.21 494.001C1371.21 495.052 1369.61 496.327 1368.39 497.826C1367.17 499.326 1366.35 501.031 1365.94 502.942C1365.52 504.837 1365.53 506.899 1365.97 509.127C1366.42 511.386 1367.19 513.305 1368.27 514.884C1369.35 516.447 1370.73 517.672 1372.41 518.561C1374.07 519.437 1376.02 519.96 1378.28 520.13C1380.51 520.303 1383.03 520.111 1385.82 519.553C1388.62 518.995 1391.02 518.205 1393.03 517.183C1395.03 516.164 1396.64 514.929 1397.85 513.48C1399.06 512.015 1399.86 510.354 1400.26 508.496C1400.65 506.623 1400.62 504.557 1400.17 502.297C1399.73 500.085 1398.95 498.185 1397.83 496.597C1396.71 494.993 1395.3 493.733 1393.6 492.816C1391.88 491.887 1389.9 491.32 1387.66 491.115C1385.41 490.895 1382.94 491.054 1380.24 491.593Z" fill="#151700"/>
<path d="M1346.13 439.772L1344.65 427.815L1397.17 421.324L1398.65 433.281L1383.16 435.195C1385.92 435.451 1388.42 436.021 1390.65 436.905C1392.89 437.773 1394.83 438.928 1396.48 440.369C1398.12 441.794 1399.44 443.493 1400.44 445.465C1401.46 447.435 1402.12 449.643 1402.42 452.088C1402.78 454.994 1402.57 457.648 1401.79 460.05C1400.98 462.439 1399.66 464.545 1397.8 466.371C1395.95 468.18 1393.58 469.673 1390.71 470.85C1387.83 472.029 1384.48 472.853 1380.67 473.324L1350.73 477.025L1349.25 465.068L1378 461.515C1387.75 460.31 1392.14 455.761 1391.16 447.869C1390.9 445.741 1390.32 443.886 1389.44 442.303C1388.55 440.72 1387.38 439.438 1385.94 438.455C1384.48 437.459 1382.75 436.777 1380.77 436.409C1378.78 436.043 1376.56 436.011 1374.11 436.313L1346.13 439.772Z" fill="#151700"/>
<path d="M1396.04 402.547L1396.94 414.561L1326.1 419.872L1325.2 407.858L1396.04 402.547Z" fill="#151700"/>
<path d="M1376.32 347.169C1379.33 347.801 1382.03 348.831 1384.44 350.262C1386.84 351.692 1388.89 353.459 1390.59 355.562C1392.29 357.666 1393.61 360.066 1394.56 362.764C1395.5 365.462 1396.02 368.387 1396.09 371.538C1396.16 374.161 1395.91 376.647 1395.36 378.997C1394.81 381.332 1393.99 383.488 1392.9 385.467C1391.8 387.446 1390.45 389.232 1388.85 390.823C1387.24 392.414 1385.42 393.771 1383.38 394.892C1381.33 396.014 1379.08 396.893 1376.63 397.529C1374.18 398.164 1371.56 398.516 1368.78 398.583C1364.62 398.684 1360.81 398.152 1357.36 396.987C1353.91 395.807 1350.94 394.102 1348.45 391.874C1345.95 389.646 1343.99 386.948 1342.59 383.781C1341.17 380.615 1340.41 377.08 1340.32 373.177C1340.22 369.338 1340.79 365.843 1342.03 362.693C1343.27 359.526 1345.06 356.809 1347.43 354.543C1349.77 352.278 1352.64 350.504 1356.04 349.221C1359.41 347.939 1363.21 347.247 1367.41 347.145C1368.04 347.13 1368.66 347.131 1369.29 347.148C1369.91 347.149 1370.57 347.181 1371.26 347.244L1372.21 386.593C1374.41 386.283 1376.37 385.715 1378.1 384.889C1379.81 384.048 1381.25 382.98 1382.44 381.687C1383.62 380.394 1384.52 378.892 1385.11 377.181C1385.71 375.454 1385.99 373.551 1385.94 371.472C1385.86 368.305 1385.04 365.676 1383.49 363.585C1381.93 361.494 1379.64 359.893 1376.6 358.782L1376.32 347.169ZM1362.9 359.186C1358.71 359.928 1355.56 361.461 1353.44 363.785C1351.3 366.093 1350.28 369.127 1350.37 372.886C1350.41 374.805 1350.74 376.55 1351.36 378.119C1351.97 379.689 1352.85 381.06 1353.98 382.233C1355.11 383.39 1356.49 384.341 1358.11 385.086C1359.71 385.831 1361.53 386.347 1363.57 386.634L1362.9 359.186Z" fill="#151700"/>
<path d="M1361.11 315.081C1358.01 314.747 1355.27 313.873 1352.9 312.459C1350.53 311.044 1348.58 309.185 1347.06 306.881C1345.52 304.559 1344.45 301.828 1343.83 298.688C1343.22 295.533 1343.12 292.062 1343.53 288.276C1343.96 284.315 1344.86 280.831 1346.23 277.825C1347.6 274.802 1349.38 272.315 1351.57 270.362C1353.76 268.393 1356.33 266.989 1359.29 266.148C1362.24 265.308 1365.51 265.081 1369.09 265.466L1400.3 268.829L1399.01 280.807L1385.22 279.322C1387.51 280.196 1389.53 281.363 1391.29 282.824C1393.03 284.267 1394.46 285.958 1395.59 287.898C1396.7 289.836 1397.48 291.988 1397.94 294.354C1398.39 296.705 1398.48 299.216 1398.19 301.888C1397.89 304.672 1397.23 307.169 1396.22 309.377C1395.23 311.571 1393.96 313.406 1392.42 314.881C1390.88 316.357 1389.09 317.436 1387.07 318.119C1385.04 318.785 1382.84 318.991 1380.49 318.738C1378.04 318.474 1375.9 317.752 1374.06 316.573C1372.22 315.393 1370.73 313.824 1369.57 311.865C1368.42 309.89 1367.62 307.551 1367.19 304.849C1366.74 302.146 1366.69 299.147 1367.05 295.854L1369.02 277.576L1367.8 277.445C1365.81 277.231 1364 277.349 1362.35 277.8C1360.7 278.249 1359.25 279.002 1358.01 280.059C1356.77 281.101 1355.76 282.425 1355 284.032C1354.23 285.639 1353.73 287.492 1353.5 289.592C1353.27 291.723 1353.32 293.603 1353.64 295.231C1353.95 296.842 1354.5 298.204 1355.28 299.318C1356.06 300.432 1357.05 301.303 1358.26 301.932C1359.46 302.56 1360.84 302.959 1362.4 303.127L1361.11 315.081ZM1375.52 296.067C1375.17 299.344 1375.45 301.885 1376.37 303.69C1377.28 305.478 1378.82 306.488 1380.96 306.719C1383.22 306.963 1385.05 306.235 1386.46 304.536C1387.85 302.819 1388.74 300.227 1389.11 296.759C1389.37 294.309 1389.32 292.026 1388.95 289.911C1388.57 287.777 1387.93 285.914 1387.02 284.319C1386.12 282.709 1384.98 281.412 1383.6 280.427C1382.21 279.424 1380.65 278.83 1378.92 278.643L1377.42 278.481L1375.52 296.067Z" fill="#151700"/>
<path d="M1383.08 224.834C1385.66 225.645 1388.08 226.058 1390.32 226.074C1392.54 226.086 1394.55 225.735 1396.33 225.02C1398.11 224.286 1399.63 223.196 1400.91 221.752C1402.19 220.293 1403.16 218.502 1403.83 216.38C1404.4 214.548 1404.64 212.854 1404.54 211.297C1404.43 209.72 1404.06 208.277 1403.41 206.967C1402.77 205.658 1401.89 204.487 1400.79 203.453C1399.68 202.4 1398.41 201.491 1396.99 200.726L1400.6 189.255C1402.51 190.142 1404.27 191.197 1405.87 192.419C1407.47 193.626 1408.89 194.977 1410.13 196.474C1411.35 197.965 1412.38 199.587 1413.2 201.339C1414.01 203.085 1414.6 204.937 1414.96 206.895C1415.31 208.852 1415.42 210.897 1415.27 213.03C1415.12 215.148 1414.7 217.336 1413.99 219.595C1413.2 222.084 1412.18 224.343 1410.9 226.375C1409.65 228.396 1408.18 230.167 1406.52 231.689C1404.85 233.211 1403 234.475 1400.97 235.483C1398.95 236.474 1396.79 237.18 1394.5 237.6C1392.19 237.999 1389.78 238.105 1387.25 237.916C1384.73 237.727 1382.13 237.214 1379.46 236.375C1375.45 235.114 1371.99 233.368 1369.11 231.136C1366.22 228.889 1363.97 226.295 1362.34 223.353C1360.7 220.406 1359.73 217.192 1359.44 213.71C1359.14 210.229 1359.57 206.618 1360.75 202.878C1361.81 199.489 1363.3 196.586 1365.22 194.17C1367.12 191.732 1369.33 189.791 1371.83 188.346C1374.33 186.9 1377.05 185.952 1379.99 185.501C1382.92 185.03 1385.95 185.075 1389.08 185.638L1385.48 197.11C1383.88 196.91 1382.33 196.927 1380.83 197.16C1379.32 197.374 1377.93 197.834 1376.65 198.539C1375.37 199.245 1374.25 200.216 1373.27 201.452C1372.28 202.684 1371.5 204.216 1370.92 206.048C1370.26 208.17 1370.03 210.195 1370.25 212.125C1370.47 214.039 1371.1 215.806 1372.15 217.427C1373.19 219.029 1374.63 220.461 1376.46 221.724C1378.3 222.988 1380.51 224.024 1383.08 224.834Z" fill="#151700"/>
<path d="M1390.55 177.692C1387.84 176.146 1385.68 174.25 1384.07 172.004C1382.46 169.759 1381.42 167.276 1380.94 164.555C1380.46 161.813 1380.57 158.881 1381.27 155.759C1381.97 152.623 1383.26 149.401 1385.15 146.093C1387.13 142.633 1389.34 139.799 1391.8 137.59C1394.26 135.368 1396.89 133.8 1399.68 132.885C1402.47 131.957 1405.39 131.698 1408.44 132.109C1411.48 132.52 1414.57 133.617 1417.7 135.401L1444.96 150.959L1438.99 161.424L1426.94 154.549C1428.69 156.264 1430.08 158.143 1431.1 160.184C1432.13 162.204 1432.76 164.328 1433.02 166.556C1433.27 168.777 1433.12 171.062 1432.59 173.412C1432.07 175.748 1431.14 178.084 1429.81 180.418C1428.42 182.85 1426.82 184.877 1425.01 186.497C1423.23 188.112 1421.33 189.287 1419.33 190.022C1417.32 190.758 1415.26 191.035 1413.13 190.854C1411 190.651 1408.91 189.962 1406.85 188.789C1404.71 187.567 1403.04 186.049 1401.82 184.234C1400.61 182.419 1399.87 180.382 1399.59 178.124C1399.32 175.852 1399.53 173.391 1400.21 170.741C1400.88 168.083 1402.04 165.316 1403.68 162.44L1412.79 146.472L1411.72 145.866C1409.99 144.874 1408.28 144.257 1406.59 144.014C1404.89 143.763 1403.26 143.874 1401.7 144.348C1400.15 144.807 1398.7 145.62 1397.36 146.785C1396.01 147.951 1394.81 149.451 1393.77 151.286C1392.7 153.148 1391.99 154.89 1391.64 156.511C1391.28 158.111 1391.24 159.578 1391.51 160.911C1391.78 162.245 1392.34 163.44 1393.19 164.497C1394.04 165.554 1395.15 166.472 1396.51 167.249L1390.55 177.692ZM1411.36 166.022C1409.73 168.885 1408.97 171.326 1409.09 173.346C1409.21 175.353 1410.21 176.891 1412.09 177.962C1414.06 179.088 1416.03 179.153 1418 178.157C1419.96 177.14 1421.81 175.117 1423.54 172.087C1424.76 169.947 1425.62 167.834 1426.13 165.748C1426.64 163.64 1426.79 161.674 1426.6 159.85C1426.41 158.013 1425.88 156.368 1425.02 154.916C1424.15 153.442 1422.95 152.273 1421.44 151.408L1420.13 150.659L1411.36 166.022Z" fill="#151700"/>
<path d="M1454.37 142.434L1446.53 151.58L1392.6 105.338L1400.44 96.1919L1454.37 142.434Z" fill="#151700"/>
<path d="M1466.83 130.468L1457.96 138.632L1409.83 86.3859L1418.69 78.2223L1466.83 130.468Z" fill="#151700"/>
<path d="M1513.2 80.9243L1473.06 96.8959L1469.01 86.7274L1509.15 70.7557L1513.2 80.9243Z" fill="#151700"/>
<path d="M1567.84 43.7222C1571.58 43.7713 1574.91 44.231 1577.83 45.1013C1580.75 45.9717 1583.2 47.196 1585.2 48.7743C1587.19 50.3526 1588.7 52.2525 1589.71 54.4739C1590.74 56.6956 1591.23 59.1903 1591.19 61.9581L1579.36 61.8029C1579.38 60.507 1579.14 59.3357 1578.64 58.2891C1578.16 57.2427 1577.43 56.345 1576.45 55.5961C1575.48 54.8473 1574.28 54.2635 1572.84 53.8447C1571.41 53.4258 1569.75 53.204 1567.86 53.1793C1566.18 53.1572 1564.64 53.2971 1563.25 53.5988C1561.87 53.8847 1560.68 54.3091 1559.68 54.8721C1558.68 55.435 1557.89 56.1128 1557.32 56.9054C1556.77 57.6982 1556.48 58.5825 1556.47 59.5584C1556.46 60.7103 1556.78 61.6587 1557.44 62.4034C1558.12 63.1324 1559.02 63.7362 1560.13 64.2148C1561.24 64.6935 1562.5 65.086 1563.91 65.3925C1565.33 65.6831 1566.77 65.9581 1568.24 66.2174L1571.76 66.8396C1573.21 67.0987 1574.74 67.3907 1576.33 67.7157C1577.93 68.0246 1579.51 68.4374 1581.07 68.9539C1582.63 69.4704 1584.12 70.114 1585.53 70.8846C1586.95 71.6392 1588.19 72.5836 1589.26 73.7178C1590.34 74.8519 1591.18 76.2072 1591.8 77.7834C1592.42 79.3437 1592.72 81.1877 1592.69 83.3155C1592.66 85.9553 1592.1 88.2922 1591.01 90.3261C1589.93 92.3601 1588.35 94.0675 1586.27 95.4483C1584.2 96.8293 1581.65 97.868 1578.62 98.5643C1575.58 99.2605 1572.1 99.5829 1568.16 99.5312C1564.05 99.4773 1560.44 99.0219 1557.33 98.1651C1554.22 97.3242 1551.63 96.1141 1549.56 94.5348C1547.48 92.9394 1545.93 90.9989 1544.9 88.7132C1543.88 86.4116 1543.38 83.7889 1543.42 80.8451L1555.25 81.0003C1555.22 83.8481 1556.26 86.0539 1558.38 87.6179C1560.51 89.1659 1563.79 89.969 1568.22 90.0271C1570.18 90.0529 1571.95 89.924 1573.5 89.6404C1575.07 89.357 1576.4 88.9343 1577.48 88.3725C1578.57 87.8108 1579.41 87.1096 1579.98 86.2691C1580.57 85.4287 1580.87 84.4645 1580.88 83.3766C1580.89 82.5127 1580.74 81.7587 1580.43 81.1145C1580.12 80.4704 1579.67 79.9045 1579.08 79.4167C1578.52 78.9132 1577.83 78.4882 1577.04 78.1418C1576.24 77.7793 1575.37 77.4638 1574.41 77.1952C1573.45 76.9107 1572.43 76.6573 1571.35 76.435C1570.28 76.213 1569.18 75.9985 1568.04 75.7916L1564.5 75.1451C1563.51 74.9561 1562.46 74.7504 1561.36 74.5279C1560.28 74.3056 1559.17 74.0511 1558.04 73.7642C1556.92 73.4615 1555.81 73.111 1554.71 72.7125C1553.62 72.2981 1552.57 71.8123 1551.57 71.2551C1550.56 70.6979 1549.64 70.0617 1548.78 69.3464C1547.94 68.6154 1547.21 67.7817 1546.58 66.8454C1545.97 65.8933 1545.49 64.8229 1545.14 63.6341C1544.8 62.4456 1544.64 61.1154 1544.66 59.6436C1544.69 57.1478 1545.24 54.9068 1546.31 52.9206C1547.39 50.9346 1548.93 49.2587 1550.94 47.8928C1552.94 46.511 1555.36 45.4627 1558.2 44.7479C1561.06 44.0173 1564.27 43.6754 1567.84 43.7222Z" fill="#151700"/>
<path d="M1609.67 74.8989C1609.16 77.5539 1609.02 79.9961 1609.26 82.2256C1609.5 84.4394 1610.07 86.392 1610.99 88.0835C1611.92 89.7624 1613.17 91.1535 1614.75 92.257C1616.35 93.3634 1618.24 94.1274 1620.42 94.549C1622.31 94.913 1624.02 94.9581 1625.55 94.6842C1627.11 94.3977 1628.5 93.8597 1629.73 93.0702C1630.95 92.2806 1632.02 91.2804 1632.92 90.0694C1633.84 88.8457 1634.6 87.4851 1635.2 85.9874L1647 88.2668C1646.34 90.2732 1645.49 92.1381 1644.46 93.8614C1643.44 95.5878 1642.26 97.1521 1640.91 98.5543C1639.57 99.9409 1638.07 101.143 1636.43 102.162C1634.78 103.164 1633.01 103.954 1631.11 104.532C1629.2 105.109 1627.18 105.444 1625.04 105.537C1622.92 105.633 1620.7 105.456 1618.38 105.007C1615.82 104.513 1613.45 103.747 1611.29 102.711C1609.14 101.693 1607.22 100.441 1605.51 98.9553C1603.81 97.4699 1602.35 95.7773 1601.12 93.8777C1599.9 91.9811 1598.96 89.9164 1598.28 87.6835C1597.62 85.438 1597.24 83.051 1597.14 80.5225C1597.05 77.994 1597.26 75.3551 1597.79 72.6059C1598.59 68.4742 1599.94 64.8472 1601.83 61.7249C1603.73 58.6056 1606.05 56.0719 1608.79 54.1238C1611.53 52.16 1614.62 50.8325 1618.04 50.1413C1621.47 49.45 1625.11 49.476 1628.95 50.2191C1632.44 50.8924 1635.49 52.044 1638.11 53.674C1640.75 55.2912 1642.93 57.2599 1644.65 59.5799C1646.37 61.8999 1647.62 64.496 1648.4 67.3683C1649.2 70.2279 1649.5 73.243 1649.29 76.4137L1637.49 74.1343C1637.5 72.5244 1637.31 70.9881 1636.91 69.5254C1636.53 68.05 1635.91 66.7173 1635.07 65.5274C1634.22 64.3375 1633.13 63.3281 1631.79 62.4992C1630.45 61.6546 1628.84 61.0504 1626.96 60.6864C1624.77 60.2648 1622.74 60.2705 1620.84 60.7037C1618.97 61.1398 1617.28 61.9716 1615.79 63.1991C1614.32 64.4139 1613.06 66.0038 1612.01 67.9689C1610.96 69.9339 1610.18 72.2439 1609.67 74.8989Z" fill="#151700"/>
<path d="M1657.41 113.038L1645.96 109.297L1668.02 41.7687L1679.47 45.5097L1669 77.5629C1670.42 75.1814 1672 73.1632 1673.73 71.5083C1675.47 69.8535 1677.33 68.5849 1679.32 67.7027C1681.32 66.8254 1683.43 66.3523 1685.64 66.2833C1687.85 66.1992 1690.13 66.5396 1692.48 67.3047C1695.26 68.2139 1697.56 69.5384 1699.38 71.2781C1701.23 73.0076 1702.57 75.0967 1703.42 77.5456C1704.29 79.9994 1704.64 82.7827 1704.48 85.8954C1704.33 88.9928 1703.65 92.3667 1702.46 96.0169L1693.09 124.694L1681.64 120.953L1690.64 93.4165C1693.69 84.0781 1691.43 78.1743 1683.87 75.7051C1681.85 75.0443 1679.93 74.7801 1678.12 74.9124C1676.31 75.0447 1674.65 75.5607 1673.12 76.4604C1671.61 77.3449 1670.26 78.6052 1669.09 80.2415C1667.91 81.8778 1666.94 83.8747 1666.17 86.2321L1657.41 113.038Z" fill="#151700"/>
<path d="M1750.05 129.251C1748.25 131.745 1746.21 133.801 1743.93 135.418C1741.65 137.035 1739.2 138.194 1736.59 138.895C1733.98 139.596 1731.25 139.832 1728.4 139.602C1725.55 139.373 1722.67 138.655 1719.76 137.447C1717.33 136.442 1715.16 135.211 1713.24 133.754C1711.33 132.304 1709.69 130.68 1708.32 128.883C1706.96 127.071 1705.87 125.114 1705.06 123.012C1704.26 120.895 1703.76 118.678 1703.56 116.36C1703.37 114.028 1703.48 111.614 1703.89 109.117C1704.3 106.621 1705.04 104.087 1706.11 101.515C1707.7 97.6726 1709.73 94.409 1712.19 91.7244C1714.67 89.0459 1717.44 87.0218 1720.48 85.652C1723.53 84.2674 1726.79 83.5748 1730.26 83.5741C1733.73 83.5587 1737.26 84.2988 1740.87 85.7946C1744.42 87.2658 1747.38 89.205 1749.76 91.6123C1752.15 94.0257 1753.91 96.7712 1755.02 99.8488C1756.14 102.912 1756.6 106.254 1756.4 109.877C1756.2 113.484 1755.29 117.232 1753.68 121.119C1753.44 121.695 1753.19 122.265 1752.92 122.829C1752.67 123.4 1752.37 123.987 1752.03 124.592L1715.68 109.512C1715.07 111.65 1714.79 113.674 1714.85 115.585C1714.92 117.488 1715.31 119.243 1716.02 120.851C1716.72 122.458 1717.73 123.882 1719.05 125.123C1720.39 126.37 1722.01 127.392 1723.94 128.189C1726.86 129.403 1729.6 129.723 1732.14 129.149C1734.68 128.575 1737.07 127.126 1739.32 124.801L1750.05 129.251ZM1744.5 112.115C1745.52 107.983 1745.4 104.477 1744.14 101.596C1742.89 98.707 1740.54 96.5422 1737.06 95.1016C1735.29 94.366 1733.56 93.9608 1731.88 93.886C1730.19 93.8111 1728.58 94.0537 1727.05 94.6137C1725.54 95.1799 1724.11 96.0517 1722.77 97.2292C1721.44 98.392 1720.23 99.8475 1719.14 101.596L1744.5 112.115Z" fill="#151700"/>
<path d="M1825.59 105.185L1795.76 169.658L1784.83 164.598L1791.62 149.918C1789.88 152.146 1788.04 154.006 1786.08 155.497C1784.12 156.989 1782.09 158.088 1780 158.795C1777.93 159.495 1775.81 159.785 1773.65 159.664C1771.49 159.565 1769.35 159.025 1767.23 158.044C1765.3 157.15 1763.6 156.017 1762.11 154.645C1760.65 153.279 1759.42 151.73 1758.42 149.999C1757.44 148.261 1756.71 146.372 1756.23 144.332C1755.75 142.277 1755.53 140.122 1755.57 137.866C1755.61 135.61 1755.92 133.274 1756.49 130.858C1757.08 128.435 1757.95 125.989 1759.09 123.521C1760.23 121.052 1761.53 118.815 1762.99 116.809C1764.47 114.796 1766.05 113.044 1767.75 111.554C1769.44 110.064 1771.22 108.843 1773.09 107.892C1774.97 106.926 1776.88 106.259 1778.83 105.892C1780.79 105.532 1782.77 105.469 1784.76 105.702C1786.77 105.942 1788.73 106.509 1790.67 107.402C1792.79 108.383 1794.58 109.664 1796.05 111.245C1797.55 112.817 1798.69 114.626 1799.49 116.67C1800.31 118.707 1800.79 120.955 1800.92 123.414C1801.05 125.872 1800.83 128.485 1800.26 131.251L1814.66 100.126L1825.59 105.185ZM1795.94 140.573C1797.1 138.076 1797.83 135.709 1798.14 133.473C1798.47 131.244 1798.39 129.196 1797.89 127.328C1797.4 125.46 1796.51 123.794 1795.21 122.33C1793.93 120.873 1792.25 119.667 1790.19 118.713C1788.1 117.746 1786.1 117.234 1784.19 117.177C1782.29 117.127 1780.48 117.518 1778.78 118.35C1777.09 119.174 1775.51 120.446 1774.05 122.166C1772.59 123.871 1771.26 126.016 1770.07 128.6C1768.87 131.185 1768.09 133.592 1767.73 135.823C1767.37 138.038 1767.43 140.063 1767.88 141.896C1768.35 143.736 1769.22 145.363 1770.49 146.778C1771.77 148.199 1773.46 149.394 1775.55 150.361C1777.59 151.309 1779.59 151.8 1781.53 151.834C1783.49 151.875 1785.33 151.479 1787.08 150.646C1788.84 149.805 1790.47 148.539 1791.96 146.847C1793.46 145.162 1794.79 143.071 1795.94 140.573Z" fill="#151700"/>
<path d="M1859.84 143.004L1870.54 148.554L1846.16 195.524L1835.46 189.974L1842.65 176.128C1840.88 178.255 1838.99 179.991 1837 181.335C1835.02 182.686 1832.97 183.632 1830.85 184.172C1828.74 184.72 1826.59 184.849 1824.4 184.558C1822.2 184.281 1820.01 183.575 1817.82 182.44C1815.22 181.091 1813.16 179.414 1811.62 177.409C1810.1 175.396 1809.12 173.109 1808.66 170.548C1808.22 167.993 1808.33 165.2 1808.98 162.169C1809.64 159.123 1810.86 155.896 1812.63 152.488L1826.53 125.712L1837.22 131.262L1823.87 156.973C1819.35 165.693 1820.61 171.884 1827.67 175.547C1829.58 176.535 1831.43 177.111 1833.24 177.274C1835.05 177.437 1836.76 177.202 1838.39 176.568C1840.04 175.928 1841.58 174.895 1843 173.471C1844.43 172.033 1845.72 170.22 1846.85 168.033L1859.84 143.004Z" fill="#151700"/>
<path d="M1863.51 205.422L1853.01 199.52L1887.81 137.588L1898.31 143.49L1863.51 205.422Z" fill="#151700"/>
<path d="M1921.55 219.484C1919.39 221.671 1917.06 223.388 1914.56 224.634C1912.05 225.879 1909.46 226.647 1906.77 226.937C1904.08 227.226 1901.34 227.038 1898.56 226.372C1895.78 225.706 1893.05 224.552 1890.36 222.909C1888.12 221.542 1886.16 219.99 1884.48 218.254C1882.82 216.527 1881.45 214.669 1880.38 212.683C1879.31 210.682 1878.54 208.581 1878.07 206.38C1877.6 204.165 1877.45 201.897 1877.61 199.577C1877.78 197.243 1878.26 194.874 1879.05 192.471C1879.84 190.068 1880.96 187.678 1882.41 185.302C1884.58 181.751 1887.09 178.839 1889.94 176.567C1892.8 174.303 1895.84 172.729 1899.06 171.846C1902.29 170.948 1905.62 170.767 1909.04 171.3C1912.47 171.821 1915.85 173.098 1919.19 175.132C1922.46 177.133 1925.09 179.506 1927.07 182.251C1929.06 185.005 1930.37 187.988 1931 191.201C1931.63 194.4 1931.57 197.773 1930.81 201.321C1930.06 204.855 1928.59 208.418 1926.4 212.009C1926.07 212.542 1925.73 213.066 1925.38 213.582C1925.04 214.106 1924.66 214.641 1924.23 215.187L1890.64 194.679C1889.7 196.697 1889.12 198.655 1888.88 200.552C1888.66 202.443 1888.77 204.238 1889.22 205.934C1889.67 207.631 1890.45 209.194 1891.56 210.624C1892.69 212.062 1894.14 213.323 1895.91 214.407C1898.62 216.057 1901.27 216.795 1903.87 216.62C1906.47 216.445 1909.06 215.382 1911.64 213.432L1921.55 219.484ZM1918.72 201.698C1920.36 197.772 1920.78 194.289 1919.98 191.248C1919.19 188.202 1917.2 185.699 1913.99 183.74C1912.35 182.74 1910.7 182.073 1909.05 181.739C1907.4 181.405 1905.77 181.397 1904.17 181.714C1902.59 182.039 1901.04 182.681 1899.54 183.638C1898.05 184.581 1896.63 185.833 1895.28 187.392L1918.72 201.698Z" fill="#151700"/>
</svg>
