<svg width="1034" height="617" viewBox="0 0 1034 617" fill="none" xmlns="http://www.w3.org/2000/svg">
<path d="M-96.7969 8.97877C-73.4384 83.4733 72.2678 323.75 233.378 353.043C394.488 382.335 411.618 510.66 475.17 547.486C559.134 596.141 785.521 562.511 723.906 375.138C662.29 187.766 971.8 -59.4131 1024.41 -68.041" stroke="white" stroke-width="97.7064"/>
<path d="M-11.3485 161.598C-11.9004 162.002 -12.346 162.397 -12.6853 162.783C-13.0207 163.173 -13.2571 163.556 -13.3943 163.931C-13.5225 164.308 -13.5496 164.679 -13.4757 165.044C-13.4018 165.41 -13.2301 165.777 -12.9608 166.145C-12.7646 166.413 -12.5566 166.62 -12.3368 166.766C-12.117 166.911 -11.877 167.002 -11.6169 167.038C-11.3567 167.073 -11.0745 167.056 -10.7701 166.987C-10.4605 166.914 -10.1223 166.791 -9.75549 166.62L-4.64802 173.597C-5.96464 174.335 -7.29119 174.805 -8.62766 175.009C-9.95503 175.213 -11.2424 175.175 -12.4899 174.893C-13.7282 174.613 -14.8981 174.101 -15.9995 173.358C-17.0918 172.615 -18.063 171.663 -18.9133 170.502C-19.5635 169.614 -20.0877 168.694 -20.4857 167.742C-20.8851 166.799 -21.1529 165.849 -21.289 164.891C-21.4251 163.933 -21.4316 162.981 -21.3086 162.036C-21.1817 161.095 -20.9235 160.18 -20.534 159.289C-20.1407 158.404 -19.611 157.556 -18.945 156.745C-18.2789 155.935 -17.4781 155.187 -16.5425 154.503C-15.6069 153.818 -14.6549 153.282 -13.6863 152.896C-12.7124 152.506 -11.7441 152.257 -10.7814 152.15C-9.80955 152.044 -8.8562 152.073 -7.92136 152.236C-6.98266 152.405 -6.07998 152.7 -5.21329 153.124C-4.34135 153.543 -3.51645 154.085 -2.73857 154.751C-1.95159 155.418 -1.23299 156.196 -0.582775 157.084C0.267509 158.246 0.878747 159.461 1.25094 160.73C1.63223 162.001 1.76928 163.269 1.66208 164.534C1.55872 165.805 1.20624 167.043 0.604628 168.251C0.00686491 169.463 -0.8426 170.585 -1.94377 171.618L-7.05124 164.64C-6.77679 164.342 -6.56048 164.059 -6.40232 163.79C-6.2389 163.517 -6.13484 163.251 -6.09014 162.992C-6.04544 162.733 -6.0594 162.477 -6.13202 162.224C-6.20464 161.97 -6.33905 161.709 -6.53527 161.441C-6.80459 161.073 -7.10236 160.799 -7.42857 160.618C-7.75479 160.437 -8.11662 160.351 -8.51409 160.359C-8.9077 160.373 -9.3415 160.48 -9.81547 160.682C-10.2856 160.889 -10.7966 161.194 -11.3485 161.598Z" fill="black"/>
<path d="M-1.96955 174.418C-1.05486 173.706 -0.119215 173.142 0.837397 172.727C1.79915 172.308 2.75957 172.031 3.71868 171.895C4.68692 171.76 5.6407 171.76 6.58 171.895C7.52332 172.036 8.43444 172.304 9.31339 172.701C10.1975 173.094 11.0382 173.612 11.8357 174.254C12.6422 174.897 13.3838 175.653 14.0602 176.522C14.7367 177.39 15.2861 178.291 15.7084 179.226C16.1399 180.161 16.4379 181.106 16.6026 182.059C16.7724 183.008 16.808 183.955 16.7093 184.899C16.6146 185.848 16.3813 186.773 16.0095 187.673C15.6468 188.575 15.1473 189.439 14.5109 190.265C13.8745 191.091 13.0964 191.862 12.1766 192.579C11.2619 193.291 10.3237 193.857 9.36193 194.276C8.40018 194.695 7.43775 194.97 6.47465 195.101C5.51554 195.237 4.56434 195.234 3.62102 195.094C2.68172 194.959 1.77002 194.695 0.885936 194.302C0.00185244 193.909 -0.838905 193.391 -1.63634 192.749C-2.43891 192.111 -3.18044 191.355 -3.86092 190.482C-4.53741 189.613 -5.0888 188.709 -5.51511 187.77C-5.94256 186.839 -6.23862 185.898 -6.40328 184.944C-6.56795 183.991 -6.60293 183.04 -6.50823 182.091C-6.40952 181.147 -6.17883 180.224 -5.81616 179.322C-5.44948 178.426 -4.94538 177.562 -4.30386 176.732C-3.66234 175.902 -2.88424 175.131 -1.96955 174.418ZM3.43432 181.356C2.89476 181.776 2.46116 182.184 2.13353 182.58C1.8059 182.975 1.5811 183.365 1.45913 183.749C1.34229 184.129 1.32629 184.501 1.41111 184.864C1.49593 185.227 1.67844 185.589 1.95864 185.948C2.23884 186.308 2.54468 186.573 2.87616 186.745C3.21164 186.921 3.57589 186.996 3.96893 186.971C4.3711 186.947 4.80405 186.824 5.26778 186.603C5.7315 186.382 6.23315 186.062 6.77271 185.641C7.31227 185.221 7.74587 184.813 8.0735 184.418C8.40113 184.022 8.62336 183.634 8.7402 183.254C8.86103 182.879 8.87704 182.508 8.78822 182.139C8.7034 181.776 8.52089 181.414 8.24068 181.055C7.96048 180.695 7.65464 180.43 7.32317 180.259C6.99169 180.087 6.62743 180.012 6.2304 180.032C5.83336 180.053 5.40298 180.173 4.93926 180.394C4.47553 180.615 3.97388 180.935 3.43432 181.356Z" fill="black"/>
<path d="M18.8591 200.724L10.5618 207.601L5.01249 200.906L21.5996 187.158L27.1489 193.853L21.7854 198.298L21.7428 198.308C22.8438 197.615 23.8789 197.109 24.8481 196.788C25.8172 196.467 26.7254 196.327 27.5726 196.369C28.424 196.417 29.217 196.644 29.9515 197.05C30.6952 197.457 31.3871 198.047 32.0272 198.819C32.7048 199.637 33.1534 200.454 33.3731 201.27C33.5978 202.082 33.5873 202.911 33.3415 203.758C33.0999 204.61 32.6247 205.486 31.9159 206.386C31.2071 207.287 30.2585 208.23 29.0699 209.215L18.892 217.651L13.3427 210.956L21.64 204.079C22.1616 203.646 22.5838 203.237 22.9068 202.851C23.2389 202.466 23.4721 202.099 23.6065 201.751C23.75 201.403 23.7947 201.074 23.7404 200.764C23.6912 200.45 23.5481 200.149 23.3112 199.863C23.1533 199.673 22.9823 199.523 22.7982 199.413C22.6142 199.303 22.4151 199.231 22.2008 199.198C21.9866 199.164 21.7547 199.17 21.5052 199.216C21.2649 199.263 21.0045 199.352 20.7239 199.483C20.4483 199.609 20.1552 199.776 19.8444 199.983C19.5336 200.19 19.2051 200.437 18.8591 200.724Z" fill="black"/>
<path d="M31.5191 231.82C30.6403 231.205 29.8598 230.603 29.1777 230.015C28.4999 229.431 27.9051 228.848 27.3934 228.266C26.5032 227.253 25.867 226.238 25.4848 225.221C25.102 224.214 24.9732 223.204 25.0984 222.192C25.2279 221.185 25.6114 220.176 26.2488 219.164C26.8906 218.158 27.7863 217.15 28.936 216.139L42.4025 204.302L48.1435 210.834L34.6697 222.677C34.3125 222.991 34.0325 223.289 33.8297 223.571C33.6361 223.854 33.5145 224.13 33.4649 224.399C33.4244 224.669 33.4532 224.938 33.5512 225.208C33.6585 225.478 33.8389 225.757 34.0926 226.046C34.3034 226.286 34.5708 226.541 34.8949 226.811C35.2283 227.081 35.6441 227.397 36.1425 227.756L31.5191 231.82ZM42.5859 222.093L32.136 210.204L37.1263 205.818L47.5762 217.706L42.5859 222.093Z" fill="black"/>
<path d="M41.7003 223.986C42.7294 223.026 43.8292 222.353 44.9996 221.965C46.17 221.578 47.3675 221.468 48.5922 221.635C49.8213 221.807 51.0591 222.256 52.3057 222.982C53.5522 223.708 54.7662 224.704 55.9477 225.972C57.1247 227.234 58.0183 228.499 58.6283 229.764C59.2384 231.03 59.5659 232.27 59.6109 233.483C59.6603 234.702 59.423 235.885 58.8988 237.033C58.3794 238.176 57.5765 239.254 56.4902 240.266L47.1422 248.981L41.2126 242.62L45.029 239.062L45.0561 239.077C44.5245 239.386 43.9859 239.63 43.4404 239.809C42.8997 239.983 42.3566 240.093 41.8112 240.139C41.2658 240.184 40.7226 240.165 40.1817 240.081C39.6456 239.994 39.1207 239.846 38.6072 239.639C38.0937 239.432 37.5986 239.159 37.122 238.82C36.6406 238.485 36.1867 238.089 35.7603 237.631C35.0896 236.912 34.5884 236.155 34.2569 235.359C33.9205 234.569 33.7522 233.782 33.7521 232.998C33.7567 232.21 33.9265 231.442 34.2615 230.693C34.6058 229.945 35.1162 229.255 35.7928 228.625C36.5741 227.896 37.414 227.407 38.3122 227.157C39.2197 226.908 40.1651 226.891 41.1484 227.105C42.1362 227.324 43.1504 227.777 44.191 228.463C45.2363 229.145 46.2919 230.057 47.3579 231.201L50.2961 234.353L47.4373 237.018L45.5652 235.009C45.2809 234.704 45.0038 234.46 44.7337 234.275C44.4684 234.086 44.2101 233.962 43.9587 233.902C43.7121 233.838 43.4748 233.837 43.2468 233.898C43.0236 233.955 42.8143 234.074 42.619 234.256C42.4379 234.425 42.3046 234.612 42.2191 234.816C42.1383 235.016 42.1057 235.225 42.1211 235.442C42.1365 235.659 42.1978 235.882 42.305 236.112C42.4214 236.342 42.5839 236.569 42.7927 236.793C42.9881 237.002 43.1983 237.185 43.4233 237.34C43.6531 237.491 43.8884 237.614 44.1293 237.71C44.375 237.802 44.6216 237.866 44.8692 237.902C45.1212 237.943 45.363 237.95 45.5944 237.921C45.8303 237.897 46.0511 237.842 46.2569 237.757C46.4674 237.668 46.6561 237.546 46.8228 237.39L50.5606 233.906C50.9418 233.55 51.2466 233.204 51.475 232.866C51.7083 232.524 51.8559 232.191 51.918 231.866C51.9893 231.541 51.9728 231.222 51.8686 230.91C51.7688 230.602 51.5789 230.298 51.2991 229.998C51.0282 229.707 50.7451 229.499 50.45 229.374C50.164 229.248 49.8661 229.201 49.5562 229.232C49.2508 229.267 48.9336 229.376 48.6046 229.558C48.2804 229.735 47.9444 229.986 47.5965 230.311L41.7003 223.986Z" fill="black"/>
<path d="M64.6424 251.361C64.1614 251.847 63.7839 252.308 63.5099 252.742C63.2406 253.181 63.0678 253.597 62.9917 253.988C62.9247 254.38 62.9567 254.751 63.0876 255.1C63.2184 255.45 63.446 255.785 63.7701 256.105C64.0063 256.339 64.2445 256.51 64.4846 256.62C64.7247 256.729 64.976 256.78 65.2385 256.774C65.501 256.768 65.777 256.707 66.0666 256.59C66.3607 256.469 66.6753 256.294 67.0102 256.067L73.158 262.148C71.9747 263.085 70.7394 263.759 69.452 264.172C68.1738 264.584 66.8965 264.75 65.6202 264.669C64.3531 264.589 63.117 264.268 61.9117 263.708C60.7157 263.148 59.606 262.362 58.5825 261.35C57.7999 260.576 57.1367 259.75 56.593 258.874C56.0494 258.006 55.6345 257.11 55.3485 256.186C55.0625 255.262 54.9054 254.323 54.8771 253.37C54.8535 252.421 54.9635 251.476 55.2071 250.535C55.4553 249.599 55.8441 248.678 56.3734 247.772C56.9027 246.866 57.5751 246.001 58.3905 245.177C59.2058 244.353 60.0611 243.673 60.9564 243.139C61.8562 242.599 62.7729 242.201 63.7065 241.942C64.6493 241.684 65.5952 241.561 66.5441 241.574C67.4976 241.592 68.4358 241.741 69.3585 242.022C70.2858 242.298 71.1862 242.703 72.0596 243.237C72.9423 243.771 73.775 244.425 74.5576 245.199C75.5811 246.212 76.377 247.315 76.9455 248.509C77.5232 249.704 77.8592 250.934 77.9537 252.2C78.0527 253.471 77.9008 254.75 77.4979 256.037C77.0997 257.329 76.4386 258.572 75.5147 259.765L69.367 253.684C69.5908 253.347 69.7595 253.033 69.8731 252.742C69.9912 252.446 70.0519 252.167 70.0551 251.905C70.0582 251.642 70.0039 251.392 69.8921 251.153C69.7802 250.914 69.6062 250.677 69.37 250.444C69.0458 250.123 68.7084 249.899 68.3576 249.772C68.0069 249.645 67.6359 249.617 67.2448 249.689C66.8583 249.764 66.447 249.939 66.011 250.213C65.5795 250.492 65.1233 250.875 64.6424 251.361Z" fill="black"/>
<path d="M78.9964 279.653C78.058 279.134 77.2187 278.617 76.4787 278.103C75.7434 277.594 75.0908 277.077 74.5209 276.551C73.5294 275.637 72.7904 274.695 72.3037 273.724C71.8174 272.761 71.5834 271.771 71.6018 270.751C71.625 269.736 71.9006 268.692 72.4286 267.62C72.9613 266.552 73.7464 265.455 74.7839 264.329L86.9354 251.146L93.3294 257.04L81.1712 270.23C80.8489 270.58 80.6017 270.906 80.4296 271.208C80.2667 271.509 80.1747 271.797 80.1536 272.069C80.1416 272.342 80.1985 272.607 80.3242 272.865C80.4592 273.122 80.6679 273.381 80.9505 273.641C81.1852 273.858 81.4779 274.083 81.8285 274.318C82.1884 274.552 82.635 274.822 83.1684 275.127L78.9964 279.653ZM88.9826 268.82L77.3441 258.092L81.8472 253.207L93.4856 263.934L88.9826 268.82Z" fill="black"/>
<path d="M102.043 285.504C101.611 286.034 101.28 286.528 101.048 286.987C100.822 287.449 100.69 287.88 100.652 288.277C100.623 288.673 100.69 289.039 100.854 289.375C101.017 289.71 101.276 290.021 101.629 290.31C101.887 290.519 102.14 290.667 102.39 290.753C102.639 290.839 102.894 290.866 103.155 290.835C103.416 290.804 103.685 290.716 103.962 290.572C104.243 290.423 104.539 290.22 104.851 289.961L111.552 295.426C110.464 296.471 109.299 297.261 108.057 297.795C106.824 298.328 105.569 298.615 104.291 298.657C103.022 298.698 101.761 298.498 100.507 298.056C99.2632 297.613 98.0833 296.936 96.9676 296.027C96.1145 295.331 95.3753 294.573 94.7502 293.752C94.126 292.941 93.6273 292.089 93.2541 291.196C92.8809 290.303 92.6347 289.384 92.5153 288.438C92.401 287.496 92.42 286.545 92.5724 285.585C92.7298 284.629 93.0286 283.675 93.4689 282.723C93.9091 281.77 94.4955 280.845 95.2282 279.946C95.9609 279.048 96.7473 278.29 97.5872 277.672C98.4313 277.049 99.3056 276.564 100.21 276.218C101.124 275.87 102.054 275.657 103 275.58C103.95 275.506 104.899 275.565 105.844 275.756C106.793 275.942 107.728 276.259 108.649 276.707C109.579 277.154 110.47 277.725 111.323 278.421C112.439 279.331 113.337 280.353 114.017 281.487C114.706 282.621 115.159 283.813 115.374 285.065C115.594 286.32 115.565 287.608 115.288 288.928C115.015 290.252 114.476 291.552 113.67 292.828L106.969 287.364C107.159 287.006 107.297 286.678 107.382 286.377C107.472 286.072 107.505 285.788 107.483 285.527C107.461 285.265 107.383 285.021 107.249 284.794C107.115 284.566 106.919 284.348 106.662 284.138C106.308 283.85 105.951 283.659 105.59 283.566C105.228 283.474 104.856 283.481 104.474 283.59C104.096 283.702 103.704 283.916 103.296 284.23C102.893 284.549 102.476 284.973 102.043 285.504Z" fill="black"/>
<path d="M114.395 295.589C115.075 294.65 115.817 293.848 116.62 293.183C117.427 292.513 118.272 291.979 119.155 291.581C120.048 291.182 120.964 290.916 121.903 290.785C122.849 290.657 123.798 290.661 124.753 290.797C125.712 290.928 126.663 291.191 127.608 291.586C128.562 291.979 129.485 292.498 130.376 293.144C131.268 293.79 132.047 294.502 132.713 295.282C133.387 296.06 133.937 296.884 134.361 297.754C134.788 298.618 135.086 299.518 135.254 300.452C135.427 301.39 135.461 302.343 135.355 303.311C135.258 304.278 135.019 305.247 134.637 306.218C134.256 307.188 133.724 308.146 133.04 309.09C132.36 310.029 131.617 310.834 130.81 311.504C130.003 312.174 129.155 312.707 128.266 313.101C127.383 313.499 126.469 313.761 125.524 313.889C124.584 314.021 123.635 314.021 122.676 313.89C121.718 313.759 120.766 313.496 119.821 313.102C118.873 312.712 117.95 312.193 117.053 311.544C116.162 310.898 115.38 310.183 114.709 309.4C114.039 308.625 113.493 307.803 113.069 306.934C112.645 306.064 112.347 305.16 112.173 304.222C112.005 303.288 111.97 302.338 112.067 301.371C112.169 300.407 112.413 299.438 112.798 298.462C113.183 297.486 113.715 296.529 114.395 295.589ZM121.518 300.747C121.116 301.301 120.814 301.813 120.609 302.284C120.405 302.756 120.297 303.193 120.287 303.595C120.281 303.993 120.369 304.354 120.552 304.68C120.734 305.005 121.01 305.301 121.38 305.569C121.749 305.836 122.117 306.006 122.483 306.078C122.854 306.154 123.225 306.125 123.595 305.991C123.975 305.855 124.356 305.617 124.74 305.276C125.124 304.934 125.517 304.487 125.918 303.933C126.319 303.379 126.622 302.866 126.826 302.395C127.03 301.924 127.136 301.49 127.142 301.092C127.154 300.698 127.066 300.337 126.878 300.008C126.695 299.683 126.419 299.386 126.05 299.119C125.681 298.851 125.313 298.682 124.947 298.61C124.581 298.538 124.21 298.567 123.834 298.697C123.459 298.827 123.079 299.063 122.695 299.404C122.311 299.745 121.919 300.193 121.518 300.747Z" fill="black"/>
<path d="M142.454 315.168L136.715 324.29L129.355 319.659L140.828 301.424L148.188 306.054L144.478 311.951L144.441 311.974C145.271 310.972 146.096 310.168 146.917 309.561C147.738 308.953 148.557 308.538 149.375 308.314C150.199 308.093 151.023 308.061 151.848 308.218C152.681 308.373 153.523 308.718 154.372 309.252C155.271 309.818 155.952 310.454 156.415 311.161C156.882 311.862 157.13 312.654 157.161 313.535C157.197 314.419 157.018 315.4 156.626 316.477C156.233 317.553 155.626 318.745 154.804 320.052L147.764 331.241L140.404 326.61L146.143 317.489C146.503 316.915 146.777 316.395 146.963 315.927C147.159 315.457 147.266 315.036 147.285 314.663C147.313 314.289 147.253 313.962 147.105 313.684C146.96 313.401 146.73 313.16 146.416 312.962C146.207 312.831 145.997 312.741 145.788 312.694C145.579 312.647 145.368 312.641 145.153 312.676C144.939 312.71 144.721 312.788 144.498 312.91C144.284 313.03 144.065 313.195 143.839 313.407C143.617 313.614 143.39 313.864 143.159 314.157C142.929 314.451 142.694 314.788 142.454 315.168Z" fill="black"/>
<path d="M162.649 339.207C161.612 338.93 160.673 338.633 159.83 338.314C158.993 337.998 158.235 337.654 157.554 337.283C156.371 336.637 155.425 335.902 154.717 335.078C154.012 334.262 153.545 333.358 153.315 332.364C153.092 331.374 153.106 330.294 153.358 329.126C153.616 327.96 154.111 326.706 154.845 325.362L163.435 309.625L171.068 313.792L162.473 329.537C162.245 329.955 162.084 330.331 161.99 330.666C161.905 330.998 161.886 331.299 161.932 331.569C161.986 331.836 162.106 332.079 162.29 332.299C162.483 332.515 162.749 332.716 163.086 332.9C163.366 333.053 163.705 333.201 164.102 333.343C164.508 333.483 165.007 333.637 165.598 333.804L162.649 339.207ZM169.708 326.274L155.815 318.69L158.999 312.858L172.892 320.442L169.708 326.274Z" fill="black"/>
<path d="M172.398 329.924C172.974 328.64 173.726 327.593 174.653 326.781C175.581 325.969 176.642 325.402 177.835 325.08C179.035 324.761 180.35 324.694 181.78 324.878C183.211 325.063 184.717 325.509 186.298 326.218C187.873 326.924 189.188 327.741 190.242 328.671C191.296 329.6 192.079 330.615 192.592 331.716C193.111 332.819 193.352 334.001 193.315 335.263C193.281 336.518 192.96 337.823 192.353 339.178L187.126 350.84L179.19 347.284L181.324 342.523L181.355 342.526C180.985 343.017 180.584 343.451 180.151 343.828C179.72 344.199 179.263 344.511 178.778 344.765C178.293 345.018 177.785 345.212 177.254 345.345C176.726 345.473 176.185 345.541 175.631 345.55C175.078 345.558 174.516 345.499 173.944 345.372C173.371 345.25 172.799 345.062 172.228 344.806C171.33 344.403 170.574 343.9 169.96 343.297C169.343 342.699 168.882 342.039 168.577 341.317C168.275 340.589 168.133 339.815 168.151 338.995C168.177 338.172 168.38 337.338 168.758 336.494C169.195 335.52 169.779 334.743 170.509 334.163C171.249 333.581 172.113 333.198 173.102 333.013C174.097 332.831 175.208 332.854 176.433 333.082C177.661 333.304 178.989 333.735 180.415 334.374L184.347 336.136L182.749 339.703L180.243 338.58C179.863 338.409 179.513 338.291 179.192 338.226C178.874 338.155 178.588 338.141 178.333 338.184C178.081 338.221 177.862 338.312 177.675 338.457C177.492 338.596 177.345 338.787 177.236 339.031C177.135 339.257 177.085 339.48 177.085 339.702C177.089 339.918 177.139 340.122 177.238 340.316C177.337 340.511 177.48 340.693 177.668 340.862C177.864 341.029 178.102 341.175 178.382 341.3C178.643 341.417 178.908 341.504 179.176 341.56C179.446 341.609 179.711 341.632 179.97 341.627C180.232 341.615 180.484 341.579 180.726 341.516C180.975 341.456 181.2 341.368 181.402 341.251C181.61 341.137 181.792 341.001 181.949 340.843C182.108 340.679 182.234 340.493 182.327 340.285L184.417 335.622C184.631 335.146 184.777 334.708 184.856 334.309C184.938 333.903 184.944 333.538 184.875 333.214C184.815 332.887 184.676 332.6 184.458 332.353C184.247 332.108 183.954 331.902 183.579 331.734C183.217 331.572 182.875 331.49 182.554 331.489C182.242 331.485 181.949 331.557 181.676 331.705C181.408 331.857 181.158 332.08 180.926 332.376C180.696 332.665 180.484 333.027 180.289 333.461L172.398 329.924Z" fill="black"/>
<path d="M201.738 344.651C201.521 345.299 201.386 345.879 201.332 346.39C201.284 346.903 201.313 347.352 201.418 347.737C201.531 348.118 201.723 348.437 201.995 348.692C202.267 348.948 202.619 349.148 203.051 349.292C203.366 349.397 203.656 349.446 203.919 349.438C204.183 349.43 204.431 349.365 204.664 349.244C204.897 349.122 205.118 348.945 205.326 348.713C205.536 348.474 205.741 348.178 205.941 347.826L214.143 350.566C213.495 351.929 212.685 353.08 211.712 354.019C210.747 354.953 209.675 355.666 208.494 356.158C207.322 356.645 206.071 356.904 204.743 356.934C203.423 356.96 202.08 356.745 200.714 356.289C199.67 355.94 198.711 355.493 197.835 354.946C196.964 354.408 196.197 353.788 195.532 353.085C194.867 352.382 194.311 351.609 193.865 350.766C193.424 349.926 193.106 349.03 192.908 348.078C192.717 347.128 192.659 346.13 192.734 345.084C192.809 344.037 193.03 342.964 193.397 341.865C193.765 340.765 194.232 339.778 194.799 338.902C195.368 338.021 196.014 337.258 196.738 336.614C197.469 335.966 198.264 335.438 199.121 335.031C199.984 334.625 200.892 334.345 201.843 334.189C202.797 334.027 203.784 333.992 204.803 334.086C205.831 334.175 206.867 334.394 207.911 334.742C209.277 335.199 210.478 335.837 211.516 336.657C212.562 337.474 213.407 338.429 214.051 339.523C214.701 340.619 215.13 341.834 215.337 343.167C215.55 344.502 215.506 345.908 215.204 347.387L207.003 344.648C207.055 344.246 207.067 343.89 207.041 343.579C207.016 343.261 206.947 342.984 206.834 342.747C206.721 342.51 206.561 342.309 206.356 342.145C206.15 341.98 205.889 341.845 205.574 341.739C205.142 341.595 204.74 341.543 204.369 341.584C203.998 341.625 203.653 341.764 203.334 342.001C203.021 342.239 202.729 342.578 202.459 343.017C202.195 343.457 201.955 344.002 201.738 344.651Z" fill="black"/>
<path d="M227.558 362.839C226.485 362.851 225.5 362.817 224.603 362.736C223.712 362.656 222.889 362.529 222.134 362.354C220.82 362.05 219.712 361.596 218.809 360.992C217.911 360.396 217.218 359.65 216.73 358.755C216.248 357.861 215.972 356.817 215.901 355.624C215.836 354.432 215.976 353.091 216.322 351.599L220.37 334.133L228.841 336.097L224.791 353.572C224.684 354.035 224.63 354.441 224.629 354.789C224.637 355.131 224.699 355.426 224.815 355.674C224.94 355.917 225.12 356.119 225.357 356.281C225.601 356.438 225.911 356.56 226.285 356.647C226.596 356.719 226.962 356.77 227.383 356.801C227.811 356.826 228.333 356.84 228.948 356.842L227.558 362.839ZM230.884 348.485L215.465 344.912L216.965 338.439L232.384 342.013L230.884 348.485Z" fill="black"/>
<path d="M253.634 357.425C253.46 358.087 253.363 358.674 253.342 359.187C253.328 359.702 253.386 360.149 253.515 360.526C253.653 360.899 253.866 361.204 254.153 361.442C254.441 361.679 254.806 361.856 255.247 361.972C255.568 362.056 255.86 362.086 256.122 362.061C256.385 362.035 256.628 361.955 256.853 361.818C257.077 361.682 257.286 361.491 257.478 361.245C257.673 360.993 257.858 360.685 258.035 360.321L266.397 362.521C265.84 363.923 265.106 365.124 264.197 366.124C263.295 367.12 262.271 367.901 261.125 368.469C259.987 369.031 258.756 369.371 257.432 369.487C256.116 369.599 254.762 369.472 253.37 369.106C252.305 368.826 251.319 368.442 250.41 367.953C249.506 367.473 248.699 366.904 247.99 366.246C247.28 365.588 246.676 364.853 246.175 364.041C245.681 363.231 245.305 362.357 245.046 361.42C244.794 360.485 244.671 359.493 244.677 358.444C244.684 357.395 244.835 356.31 245.13 355.188C245.425 354.067 245.826 353.051 246.335 352.141C246.846 351.225 247.441 350.421 248.121 349.731C248.809 349.037 249.567 348.458 250.396 347.996C251.231 347.536 252.118 347.197 253.058 346.979C253.999 346.755 254.982 346.656 256.005 346.683C257.036 346.705 258.084 346.856 259.149 347.137C260.541 347.503 261.782 348.061 262.871 348.813C263.967 349.559 264.873 350.457 265.587 351.507C266.307 352.559 266.814 353.743 267.107 355.059C267.407 356.378 267.455 357.784 267.25 359.28L258.887 357.08C258.913 356.676 258.902 356.319 258.855 356.011C258.81 355.696 258.724 355.424 258.595 355.195C258.467 354.965 258.295 354.775 258.079 354.624C257.862 354.473 257.594 354.355 257.272 354.271C256.831 354.155 256.427 354.129 256.06 354.194C255.693 354.259 255.357 354.42 255.054 354.677C254.757 354.936 254.488 355.293 254.247 355.748C254.012 356.205 253.808 356.764 253.634 357.425Z" fill="black"/>
<path d="M267.381 360.946C267.774 359.856 268.265 358.88 268.852 358.018C269.442 357.151 270.106 356.403 270.844 355.776C271.591 355.145 272.398 354.636 273.264 354.249C274.137 353.864 275.051 353.605 276.006 353.472C276.963 353.332 277.95 353.321 278.968 353.438C279.993 353.552 281.023 353.795 282.059 354.168C283.095 354.542 284.04 355.011 284.896 355.575C285.76 356.136 286.517 356.776 287.165 357.494C287.815 358.206 288.35 358.988 288.771 359.838C289.197 360.692 289.494 361.598 289.66 362.558C289.835 363.514 289.873 364.511 289.776 365.55C289.679 366.588 289.432 367.655 289.037 368.752C288.644 369.843 288.153 370.822 287.563 371.69C286.973 372.557 286.306 373.304 285.562 373.928C284.823 374.555 284.018 375.061 283.145 375.446C282.279 375.833 281.367 376.096 280.409 376.236C279.452 376.376 278.465 376.387 277.448 376.269C276.428 376.158 275.398 375.915 274.356 375.539C273.32 375.166 272.372 374.696 271.51 374.129C270.652 373.571 269.899 372.932 269.25 372.214C268.602 371.496 268.065 370.71 267.639 369.857C267.218 369.006 266.921 368.103 266.746 367.146C266.577 366.192 266.543 365.193 266.642 364.149C266.742 363.105 266.988 362.037 267.381 360.946ZM275.654 363.928C275.422 364.572 275.273 365.148 275.207 365.657C275.141 366.167 275.159 366.616 275.261 367.006C275.365 367.39 275.55 367.713 275.816 367.975C276.081 368.237 276.429 368.445 276.857 368.6C277.286 368.754 277.687 368.815 278.058 368.783C278.436 368.753 278.784 368.622 279.103 368.391C279.43 368.156 279.731 367.821 280.005 367.387C280.28 366.953 280.533 366.414 280.765 365.77C280.996 365.127 281.145 364.551 281.211 364.041C281.277 363.532 281.258 363.085 281.154 362.702C281.056 362.32 280.871 361.997 280.6 361.733C280.334 361.471 279.987 361.263 279.558 361.108C279.129 360.954 278.728 360.892 278.357 360.925C277.985 360.957 277.637 361.088 277.312 361.317C276.987 361.546 276.687 361.877 276.413 362.312C276.139 362.746 275.886 363.285 275.654 363.928Z" fill="black"/>
<path d="M298.931 373.226L294.294 382.954L286.444 379.213L295.713 359.765L303.563 363.506L300.566 369.795L300.532 369.822C301.239 368.73 301.965 367.835 302.71 367.136C303.454 366.438 304.219 365.929 305.006 365.612C305.798 365.296 306.613 365.169 307.451 365.229C308.297 365.286 309.172 365.53 310.078 365.962C311.036 366.418 311.787 366.971 312.329 367.619C312.875 368.261 313.214 369.018 313.347 369.89C313.486 370.764 313.423 371.759 313.158 372.874C312.894 373.989 312.43 375.243 311.765 376.637L306.078 388.571L298.228 384.829L302.865 375.101C303.156 374.489 303.367 373.94 303.498 373.454C303.637 372.965 303.694 372.534 303.67 372.162C303.654 371.786 303.556 371.469 303.377 371.21C303.2 370.945 302.944 370.733 302.609 370.573C302.385 370.467 302.167 370.403 301.954 370.38C301.741 370.358 301.53 370.377 301.321 370.436C301.112 370.495 300.905 370.598 300.698 370.745C300.499 370.889 300.3 371.079 300.101 371.316C299.904 371.547 299.708 371.821 299.513 372.14C299.318 372.458 299.124 372.82 298.931 373.226Z" fill="black"/>
<path d="M320.579 396.934C319.553 396.621 318.624 396.29 317.793 395.942C316.968 395.596 316.222 395.226 315.556 394.831C314.396 394.143 313.477 393.375 312.799 392.526C312.123 391.686 311.688 390.766 311.494 389.765C311.305 388.767 311.358 387.689 311.651 386.53C311.95 385.374 312.49 384.138 313.27 382.821L322.414 367.399L329.894 371.834L320.745 387.264C320.503 387.673 320.329 388.044 320.223 388.375C320.127 388.704 320.097 389.004 320.133 389.275C320.178 389.544 320.288 389.792 320.465 390.017C320.651 390.241 320.909 390.451 321.239 390.647C321.514 390.809 321.847 390.969 322.239 391.126C322.639 391.28 323.132 391.451 323.718 391.639L320.579 396.934ZM328.093 384.26L314.477 376.188L317.865 370.473L331.481 378.545L328.093 384.26Z" fill="black"/>
<path d="M330.076 387.433C330.904 386.295 331.856 385.425 332.932 384.823C334.007 384.22 335.162 383.885 336.396 383.817C337.636 383.753 338.936 383.958 340.298 384.434C341.66 384.911 343.041 385.659 344.441 386.679C345.837 387.695 346.954 388.767 347.793 389.894C348.632 391.021 349.189 392.176 349.464 393.359C349.743 394.546 349.735 395.752 349.438 396.978C349.145 398.199 348.561 399.41 347.687 400.611L340.163 410.941L333.134 405.821L336.205 401.604L336.235 401.613C335.772 402.017 335.289 402.359 334.787 402.638C334.29 402.912 333.777 403.123 333.25 403.271C332.723 403.419 332.187 403.504 331.64 403.524C331.097 403.54 330.553 403.494 330.01 403.389C329.466 403.283 328.928 403.109 328.396 402.866C327.86 402.629 327.339 402.326 326.834 401.958C326.039 401.379 325.403 400.73 324.926 400.012C324.446 399.3 324.131 398.559 323.983 397.79C323.838 397.015 323.858 396.229 324.045 395.43C324.241 394.63 324.612 393.856 325.156 393.108C325.785 392.245 326.517 391.605 327.351 391.19C328.195 390.773 329.12 390.576 330.126 390.6C331.137 390.628 332.219 390.879 333.371 391.356C334.527 391.827 335.736 392.523 337 393.443L340.483 395.98L338.182 399.139L335.963 397.523C335.626 397.277 335.307 397.089 335.007 396.959C334.711 396.824 334.433 396.751 334.175 396.74C333.921 396.724 333.688 396.768 333.476 396.871C333.267 396.969 333.084 397.126 332.927 397.342C332.781 397.542 332.686 397.751 332.641 397.968C332.599 398.179 332.607 398.39 332.663 398.601C332.72 398.811 332.822 399.019 332.971 399.224C333.129 399.427 333.332 399.619 333.579 399.799C333.811 399.968 334.052 400.108 334.302 400.217C334.556 400.322 334.811 400.399 335.066 400.447C335.324 400.49 335.578 400.506 335.828 400.495C336.084 400.488 336.322 400.448 336.544 400.376C336.771 400.307 336.977 400.212 337.163 400.089C337.353 399.962 337.515 399.806 337.649 399.621L340.658 395.491C340.965 395.07 341.198 394.672 341.358 394.297C341.522 393.917 341.604 393.561 341.603 393.23C341.612 392.898 341.535 392.588 341.374 392.301C341.217 392.018 340.973 391.756 340.641 391.514C340.32 391.28 340.003 391.13 339.689 391.062C339.385 390.994 339.083 391.004 338.785 391.093C338.492 391.185 338.201 391.352 337.912 391.593C337.628 391.829 337.345 392.139 337.065 392.524L330.076 387.433Z" fill="black"/>
<path d="M355.452 409.945C354.994 410.453 354.639 410.931 354.386 411.378C354.137 411.829 353.984 412.252 353.927 412.647C353.878 413.042 353.928 413.41 354.075 413.753C354.222 414.096 354.465 414.42 354.804 414.725C355.051 414.947 355.297 415.107 355.542 415.205C355.787 415.303 356.041 415.342 356.302 415.324C356.564 415.305 356.837 415.231 357.121 415.101C357.409 414.966 357.715 414.777 358.039 414.534L364.466 420.318C363.329 421.309 362.127 422.042 360.86 422.514C359.603 422.986 358.335 423.212 357.056 423.192C355.787 423.171 354.537 422.91 353.306 422.407C352.085 421.904 350.94 421.171 349.87 420.208C349.051 419.472 348.35 418.679 347.766 417.828C347.182 416.987 346.725 416.112 346.396 415.202C346.066 414.293 345.865 413.362 345.792 412.411C345.724 411.465 345.789 410.516 345.988 409.565C346.192 408.618 346.537 407.679 347.023 406.75C347.509 405.82 348.14 404.924 348.915 404.062C349.691 403.201 350.513 402.481 351.382 401.905C352.256 401.324 353.152 400.883 354.073 400.58C355.002 400.278 355.941 400.111 356.89 400.079C357.843 400.052 358.787 400.157 359.722 400.393C360.662 400.625 361.58 400.987 362.478 401.48C363.385 401.972 364.247 402.586 365.065 403.322C366.135 404.285 366.983 405.35 367.607 406.516C368.24 407.682 368.634 408.895 368.788 410.155C368.947 411.42 368.855 412.705 368.514 414.009C368.177 415.319 367.575 416.591 366.708 417.827L360.281 412.042C360.488 411.695 360.642 411.373 360.742 411.077C360.846 410.777 360.893 410.495 360.884 410.233C360.875 409.97 360.809 409.722 360.686 409.489C360.563 409.256 360.378 409.028 360.131 408.806C359.792 408.501 359.444 408.293 359.088 408.183C358.732 408.072 358.36 408.062 357.972 408.151C357.59 408.245 357.187 408.439 356.765 408.734C356.347 409.033 355.909 409.436 355.452 409.945Z" fill="black"/>
<path d="M369.249 438.347C368.346 437.768 367.542 437.198 366.837 436.637C366.137 436.08 365.519 435.522 364.985 434.96C364.055 433.984 363.379 432.995 362.956 431.994C362.533 431.003 362.364 429.999 362.449 428.983C362.538 427.971 362.881 426.948 363.478 425.912C364.079 424.881 364.934 423.837 366.042 422.782L379.026 410.417L385.023 416.714L372.032 429.086C371.688 429.413 371.42 429.723 371.229 430.013C371.046 430.303 370.936 430.584 370.897 430.855C370.867 431.126 370.907 431.394 371.016 431.659C371.133 431.925 371.325 432.197 371.59 432.475C371.81 432.706 372.087 432.95 372.422 433.207C372.766 433.464 373.194 433.763 373.706 434.102L369.249 438.347ZM379.919 428.186L369.003 416.724L373.815 412.142L384.73 423.604L379.919 428.186Z" fill="black"/>
<path d="M391.388 448.12C390.851 448.543 390.42 448.953 390.094 449.351C389.773 449.753 389.55 450.144 389.426 450.524C389.311 450.904 389.297 451.276 389.384 451.639C389.471 452.002 389.655 452.362 389.937 452.72C390.143 452.981 390.358 453.181 390.583 453.319C390.807 453.457 391.05 453.539 391.312 453.566C391.573 453.592 391.854 453.565 392.156 453.485C392.463 453.401 392.797 453.267 393.157 453.082L398.507 459.876C397.217 460.659 395.908 461.176 394.58 461.426C393.26 461.678 391.972 461.685 390.716 461.447C389.468 461.211 388.281 460.74 387.154 460.036C386.036 459.333 385.032 458.415 384.142 457.284C383.461 456.42 382.904 455.519 382.473 454.581C382.041 453.653 381.74 452.713 381.57 451.761C381.4 450.808 381.36 449.857 381.45 448.908C381.544 447.963 381.769 447.039 382.127 446.136C382.489 445.237 382.989 444.371 383.626 443.538C384.263 442.704 385.037 441.929 385.948 441.212C386.859 440.494 387.791 439.926 388.746 439.506C389.705 439.082 390.664 438.799 391.623 438.658C392.59 438.518 393.544 438.513 394.484 438.643C395.428 438.779 396.34 439.042 397.221 439.435C398.108 439.823 398.951 440.336 399.752 440.974C400.562 441.613 401.307 442.365 401.989 443.23C402.879 444.361 403.533 445.554 403.949 446.809C404.375 448.066 404.557 449.328 404.494 450.596C404.436 451.87 404.127 453.12 403.568 454.348C403.014 455.58 402.204 456.732 401.14 457.802L395.79 451.009C396.054 450.702 396.26 450.411 396.409 450.136C396.562 449.858 396.657 449.588 396.693 449.328C396.728 449.068 396.705 448.812 396.624 448.561C396.542 448.311 396.399 448.055 396.193 447.794C395.911 447.435 395.604 447.172 395.271 447.002C394.939 446.833 394.574 446.759 394.177 446.782C393.784 446.809 393.355 446.932 392.888 447.15C392.426 447.374 391.926 447.697 391.388 448.12Z" fill="black"/>
<path d="M400.548 459.832C401.49 459.156 402.446 458.628 403.418 458.251C404.395 457.869 405.366 457.629 406.329 457.53C407.302 457.433 408.255 457.47 409.189 457.641C410.126 457.818 411.026 458.122 411.889 458.552C412.757 458.979 413.577 459.529 414.349 460.201C415.13 460.875 415.842 461.659 416.485 462.553C417.127 463.447 417.641 464.369 418.027 465.319C418.422 466.27 418.683 467.225 418.811 468.184C418.944 469.14 418.943 470.087 418.808 471.026C418.677 471.971 418.408 472.886 418.002 473.772C417.604 474.659 417.072 475.503 416.404 476.303C415.736 477.104 414.929 477.845 413.982 478.525C413.041 479.202 412.081 479.731 411.104 480.112C410.127 480.494 409.154 480.731 408.187 480.825C407.223 480.924 406.273 480.885 405.336 480.708C404.402 480.537 403.502 480.238 402.633 479.811C401.765 479.384 400.945 478.834 400.173 478.162C399.396 477.493 398.684 476.709 398.038 475.81C397.395 474.916 396.879 473.992 396.489 473.037C396.098 472.09 395.839 471.138 395.711 470.179C395.583 469.22 395.585 468.268 395.716 467.323C395.851 466.384 396.118 465.471 396.515 464.584C396.916 463.702 397.453 462.859 398.126 462.054C398.799 461.25 399.607 460.509 400.548 459.832ZM405.68 466.973C405.125 467.372 404.675 467.763 404.333 468.146C403.99 468.528 403.75 468.909 403.614 469.288C403.482 469.663 403.452 470.034 403.523 470.4C403.593 470.767 403.762 471.135 404.028 471.505C404.294 471.875 404.589 472.153 404.914 472.336C405.242 472.525 405.604 472.615 405.997 472.605C406.4 472.596 406.837 472.49 407.309 472.287C407.781 472.085 408.295 471.784 408.85 471.384C409.406 470.985 409.855 470.594 410.197 470.212C410.54 469.829 410.777 469.45 410.908 469.075C411.044 468.705 411.074 468.334 411 467.963C410.929 467.597 410.76 467.228 410.494 466.858C410.228 466.488 409.933 466.211 409.608 466.027C409.284 465.843 408.923 465.754 408.525 465.759C408.128 465.764 407.693 465.867 407.221 466.07C406.749 466.273 406.235 466.574 405.68 466.973Z" fill="black"/>
<path d="M420.401 487.769L411.584 493.966L406.584 486.851L424.211 474.464L429.211 481.579L423.511 485.584L423.468 485.591C424.62 484.988 425.692 484.565 426.684 484.322C427.676 484.079 428.592 484.012 429.433 484.121C430.278 484.236 431.05 484.525 431.75 484.989C432.459 485.454 433.102 486.097 433.679 486.917C434.289 487.786 434.672 488.636 434.826 489.467C434.985 490.295 434.909 491.12 434.597 491.945C434.288 492.775 433.745 493.61 432.967 494.452C432.189 495.293 431.168 496.158 429.905 497.045L419.089 504.646L414.089 497.531L422.907 491.335C423.461 490.945 423.914 490.571 424.267 490.212C424.629 489.854 424.89 489.507 425.052 489.171C425.223 488.836 425.293 488.511 425.264 488.198C425.24 487.88 425.121 487.57 424.908 487.266C424.765 487.063 424.607 486.9 424.432 486.776C424.257 486.652 424.064 486.564 423.854 486.514C423.643 486.463 423.411 486.45 423.159 486.476C422.915 486.504 422.649 486.572 422.359 486.68C422.074 486.785 421.768 486.928 421.442 487.11C421.116 487.291 420.769 487.511 420.401 487.769Z" fill="black"/>
<path d="M429.452 518.419C428.626 517.734 427.897 517.071 427.266 516.428C426.638 515.791 426.092 515.162 425.63 514.54C424.825 513.458 424.274 512.394 423.976 511.35C423.677 510.314 423.631 509.297 423.838 508.299C424.049 507.306 424.514 506.331 425.232 505.375C425.954 504.424 426.929 503.492 428.157 502.579L442.544 491.881L447.733 498.859L433.338 509.563C432.956 509.847 432.653 510.121 432.428 510.386C432.212 510.652 432.068 510.917 431.997 511.181C431.934 511.447 431.941 511.718 432.017 511.994C432.102 512.272 432.259 512.565 432.488 512.874C432.678 513.13 432.924 513.406 433.225 513.701C433.535 513.998 433.924 514.347 434.391 514.746L429.452 518.419ZM441.275 509.627L431.831 496.925L437.162 492.961L446.607 505.662L441.275 509.627Z" fill="black"/>
<path d="M441.358 513.168C442.416 512.241 443.536 511.602 444.718 511.251C445.9 510.9 447.1 510.827 448.319 511.032C449.543 511.242 450.766 511.729 451.989 512.493C453.213 513.257 454.396 514.291 455.537 515.594C456.675 516.893 457.529 518.184 458.099 519.468C458.67 520.752 458.959 522.001 458.966 523.216C458.978 524.435 458.704 525.61 458.145 526.741C457.59 527.868 456.755 528.92 455.638 529.899L446.024 538.32L440.294 531.779L444.219 528.341L444.246 528.357C443.705 528.649 443.159 528.876 442.608 529.038C442.062 529.196 441.516 529.289 440.969 529.317C440.423 529.346 439.881 529.31 439.343 529.21C438.809 529.105 438.289 528.942 437.782 528.719C437.276 528.496 436.789 528.208 436.323 527.854C435.852 527.504 435.411 527.094 434.999 526.624C434.351 525.884 433.873 525.112 433.567 524.307C433.255 523.506 433.111 522.714 433.135 521.931C433.164 521.143 433.357 520.381 433.715 519.643C434.083 518.905 434.614 518.232 435.31 517.622C436.113 516.919 436.968 516.456 437.874 516.234C438.788 516.013 439.734 516.025 440.71 516.269C441.691 516.519 442.69 517.002 443.709 517.721C444.733 518.434 445.76 519.379 446.79 520.555L449.629 523.796L446.689 526.372L444.88 524.306C444.606 523.993 444.336 523.74 444.072 523.547C443.813 523.35 443.558 523.217 443.309 523.15C443.064 523.079 442.827 523.07 442.597 523.124C442.373 523.174 442.16 523.287 441.959 523.463C441.773 523.626 441.634 523.808 441.542 524.01C441.455 524.207 441.416 524.414 441.424 524.632C441.433 524.85 441.488 525.075 441.588 525.307C441.697 525.541 441.852 525.773 442.054 526.003C442.243 526.219 442.447 526.408 442.667 526.57C442.892 526.728 443.124 526.858 443.362 526.962C443.604 527.061 443.849 527.133 444.095 527.177C444.346 527.225 444.587 527.239 444.819 527.217C445.056 527.201 445.278 527.153 445.487 527.075C445.7 526.992 445.892 526.875 446.064 526.725L449.907 523.358C450.299 523.014 450.615 522.678 450.854 522.347C451.097 522.012 451.255 521.684 451.327 521.361C451.409 521.038 451.402 520.719 451.307 520.404C451.217 520.093 451.037 519.783 450.766 519.475C450.505 519.176 450.228 518.959 449.937 518.825C449.655 518.691 449.359 518.634 449.048 518.655C448.742 518.681 448.421 518.78 448.087 518.952C447.757 519.119 447.414 519.359 447.056 519.673L441.358 513.168Z" fill="black"/>
<path d="M462.667 538.751C462.245 539.289 461.923 539.79 461.701 540.253C461.483 540.72 461.36 541.153 461.329 541.551C461.307 541.948 461.382 542.312 461.552 542.644C461.722 542.976 461.987 543.283 462.345 543.564C462.607 543.769 462.863 543.912 463.114 543.993C463.365 544.074 463.621 544.096 463.881 544.06C464.141 544.024 464.408 543.931 464.682 543.782C464.961 543.628 465.253 543.418 465.56 543.154L472.365 548.488C471.297 549.555 470.148 550.367 468.916 550.924C467.694 551.481 466.444 551.792 465.167 551.859C463.899 551.924 462.634 551.748 461.373 551.331C460.12 550.912 458.928 550.258 457.795 549.37C456.928 548.691 456.175 547.947 455.534 547.139C454.894 546.339 454.379 545.497 453.989 544.612C453.599 543.726 453.335 542.812 453.197 541.868C453.065 540.928 453.065 539.977 453.199 539.015C453.338 538.056 453.619 537.096 454.04 536.136C454.462 535.175 455.031 534.239 455.746 533.326C456.461 532.414 457.233 531.641 458.061 531.007C458.893 530.368 459.758 529.866 460.655 529.502C461.562 529.137 462.488 528.907 463.432 528.811C464.381 528.719 465.33 528.759 466.279 528.932C467.232 529.1 468.173 529.399 469.102 529.829C470.04 530.258 470.942 530.812 471.809 531.491C472.942 532.379 473.859 533.384 474.561 534.505C475.272 535.625 475.747 536.809 475.986 538.056C476.231 539.307 476.227 540.595 475.974 541.92C475.727 543.249 475.213 544.559 474.433 545.851L467.627 540.516C467.811 540.155 467.942 539.824 468.022 539.522C468.105 539.215 468.133 538.931 468.106 538.67C468.079 538.408 467.996 538.166 467.858 537.941C467.719 537.717 467.519 537.502 467.258 537.297C466.899 537.016 466.538 536.832 466.175 536.746C465.812 536.66 465.44 536.675 465.06 536.791C464.685 536.911 464.296 537.132 463.895 537.454C463.498 537.78 463.089 538.213 462.667 538.751Z" fill="black"/>
<path d="M484.912 564.246C483.861 564.032 482.905 563.791 482.045 563.523C481.191 563.258 480.413 562.96 479.712 562.63C478.492 562.055 477.504 561.378 476.749 560.597C475.996 559.825 475.476 558.95 475.187 557.972C474.905 556.997 474.855 555.918 475.037 554.737C475.225 553.558 475.645 552.276 476.297 550.892L483.934 534.671L491.802 538.375L484.16 554.605C483.957 555.035 483.819 555.42 483.746 555.76C483.681 556.096 483.679 556.398 483.741 556.665C483.811 556.928 483.945 557.164 484.142 557.372C484.348 557.577 484.625 557.761 484.972 557.925C485.261 558.061 485.608 558.188 486.013 558.307C486.427 558.422 486.934 558.546 487.534 558.677L484.912 564.246ZM491.188 550.916L476.868 544.173L479.698 538.162L494.019 544.905L491.188 550.916Z" fill="black"/>
<path d="M508.588 560.816C508.427 561.481 508.342 562.07 508.332 562.584C508.328 563.099 508.395 563.544 508.532 563.919C508.678 564.289 508.897 564.59 509.189 564.821C509.482 565.053 509.85 565.222 510.293 565.329C510.616 565.407 510.908 565.43 511.17 565.4C511.432 565.369 511.674 565.283 511.896 565.143C512.117 565.002 512.322 564.807 512.509 564.557C512.699 564.301 512.878 563.989 513.047 563.621L521.453 565.65C520.924 567.064 520.215 568.28 519.326 569.298C518.445 570.311 517.437 571.114 516.303 571.704C515.176 572.29 513.952 572.655 512.631 572.798C511.318 572.937 509.962 572.837 508.562 572.5C507.492 572.241 506.498 571.877 505.579 571.408C504.665 570.946 503.847 570.393 503.125 569.75C502.402 569.107 501.783 568.384 501.266 567.583C500.755 566.783 500.361 565.917 500.083 564.985C499.812 564.055 499.669 563.066 499.654 562.017C499.639 560.968 499.768 559.88 500.04 558.753C500.312 557.626 500.693 556.602 501.183 555.682C501.675 554.755 502.253 553.94 502.919 553.236C503.593 552.528 504.339 551.934 505.158 551.455C505.984 550.978 506.864 550.62 507.799 550.384C508.735 550.141 509.715 550.022 510.739 550.028C511.771 550.029 512.822 550.159 513.892 550.417C515.291 550.755 516.543 551.288 517.647 552.017C518.759 552.741 519.682 553.62 520.417 554.655C521.159 555.692 521.69 556.866 522.01 558.176C522.337 559.488 522.413 560.893 522.239 562.392L513.833 560.364C513.85 559.959 513.832 559.603 513.779 559.295C513.728 558.981 513.636 558.711 513.503 558.485C513.37 558.258 513.194 558.072 512.974 557.925C512.755 557.778 512.484 557.666 512.161 557.588C511.718 557.481 511.313 557.464 510.947 557.536C510.581 557.609 510.249 557.776 509.951 558.04C509.66 558.304 509.398 558.667 509.166 559.127C508.941 559.588 508.748 560.151 508.588 560.816Z" fill="black"/>
<path d="M523.831 564.488C523.964 563.336 524.219 562.274 524.594 561.301C524.97 560.322 525.446 559.442 526.021 558.663C526.604 557.878 527.273 557.199 528.029 556.624C528.79 556.05 529.621 555.589 530.52 555.241C531.42 554.886 532.379 554.65 533.396 554.532C534.42 554.408 535.479 554.41 536.573 554.537C537.666 554.663 538.694 554.904 539.656 555.258C540.625 555.607 541.508 556.057 542.303 556.608C543.099 557.153 543.798 557.791 544.402 558.524C545.012 559.257 545.507 560.072 545.889 560.968C546.277 561.859 546.543 562.821 546.685 563.854C546.827 564.887 546.831 565.983 546.697 567.141C546.563 568.293 546.309 569.358 545.933 570.337C545.557 571.317 545.078 572.196 544.496 572.974C543.92 573.753 543.251 574.43 542.49 575.004C541.734 575.578 540.907 576.043 540.007 576.398C539.106 576.752 538.148 576.988 537.131 577.106C536.113 577.231 535.054 577.229 533.954 577.102C532.861 576.975 531.83 576.734 530.861 576.379C529.898 576.031 529.019 575.582 528.224 575.03C527.429 574.479 526.726 573.837 526.116 573.104C525.513 572.372 525.017 571.56 524.628 570.669C524.246 569.779 523.985 568.814 523.843 567.774C523.701 566.735 523.697 565.639 523.831 564.488ZM532.566 565.501C532.487 566.181 532.474 566.776 532.526 567.287C532.578 567.798 532.698 568.231 532.886 568.588C533.075 568.937 533.329 569.21 533.647 569.404C533.966 569.598 534.352 569.722 534.805 569.774C535.257 569.827 535.661 569.795 536.016 569.679C536.377 569.563 536.686 569.356 536.943 569.058C537.208 568.755 537.424 568.36 537.592 567.875C537.76 567.389 537.883 566.807 537.962 566.127C538.041 565.448 538.054 564.853 538.002 564.342C537.95 563.831 537.829 563.4 537.64 563.051C537.458 562.702 537.204 562.43 536.879 562.234C536.561 562.04 536.175 561.917 535.722 561.864C535.269 561.812 534.866 561.843 534.511 561.96C534.157 562.076 533.847 562.283 533.583 562.58C533.319 562.877 533.104 563.269 532.936 563.754C532.768 564.239 532.645 564.822 532.566 565.501Z" fill="black"/>
<path d="M557.546 567.462L557.411 578.238L548.716 578.129L548.985 556.587L557.681 556.696L557.593 563.662L557.573 563.7C557.759 562.413 558.043 561.296 558.426 560.35C558.81 559.404 559.292 558.621 559.873 558.003C560.46 557.385 561.147 556.928 561.932 556.632C562.724 556.329 563.622 556.184 564.625 556.196C565.686 556.21 566.599 556.397 567.363 556.758C568.128 557.113 568.753 557.658 569.239 558.394C569.731 559.13 570.091 560.059 570.318 561.183C570.544 562.306 570.648 563.639 570.629 565.183L570.463 578.402L561.768 578.293L561.903 567.517C561.912 566.839 561.873 566.253 561.788 565.756C561.71 565.254 561.582 564.839 561.403 564.511C561.232 564.176 561.01 563.929 560.738 563.769C560.467 563.603 560.146 563.518 559.774 563.513C559.527 563.51 559.302 563.543 559.099 563.612C558.896 563.681 558.712 563.786 558.548 563.928C558.383 564.069 558.238 564.249 558.111 564.469C557.991 564.683 557.89 564.939 557.808 565.238C557.726 565.53 557.664 565.861 557.62 566.232C557.576 566.603 557.551 567.013 557.546 567.462Z" fill="black"/>
<path d="M589.73 576.94C588.71 577.27 587.759 577.529 586.878 577.718C586.003 577.906 585.18 578.029 584.407 578.086C583.062 578.185 581.869 578.08 580.827 577.771C579.793 577.468 578.909 576.961 578.178 576.251C577.453 575.54 576.88 574.626 576.458 573.507C576.042 572.388 575.779 571.065 575.666 569.539L574.352 551.658L583.024 551.02L584.339 568.911C584.374 569.385 584.443 569.788 584.546 570.12C584.655 570.445 584.802 570.709 584.986 570.911C585.177 571.106 585.409 571.245 585.683 571.33C585.963 571.407 586.295 571.432 586.678 571.404C586.996 571.38 587.361 571.321 587.772 571.225C588.189 571.123 588.691 570.981 589.279 570.801L589.73 576.94ZM588.65 562.245L572.864 563.406L572.377 556.78L588.163 555.619L588.65 562.245Z" fill="black"/>
<path d="M591.692 563.968C591.465 562.58 591.516 561.291 591.843 560.103C592.171 558.914 592.744 557.857 593.563 556.931C594.389 556.005 595.45 555.224 596.745 554.591C598.041 553.957 599.544 553.5 601.254 553.222C602.958 552.944 604.505 552.902 605.897 553.098C607.288 553.293 608.501 553.709 609.536 554.346C610.576 554.981 611.429 555.835 612.092 556.908C612.754 557.975 613.205 559.241 613.444 560.707L615.502 573.32L606.919 574.72L606.079 569.571L606.107 569.557C606.068 570.17 605.972 570.753 605.818 571.306C605.663 571.853 605.453 572.366 605.188 572.845C604.923 573.324 604.605 573.765 604.236 574.168C603.865 574.565 603.451 574.92 602.993 575.232C602.536 575.544 602.034 575.804 601.487 576.012C600.941 576.227 600.36 576.384 599.743 576.485C598.772 576.643 597.864 576.64 597.019 576.474C596.174 576.315 595.426 576.018 594.774 575.583C594.122 575.142 593.577 574.574 593.14 573.879C592.709 573.178 592.419 572.37 592.27 571.457C592.098 570.403 592.158 569.433 592.449 568.547C592.745 567.654 593.255 566.858 593.98 566.159C594.71 565.459 595.65 564.867 596.798 564.383C597.946 563.892 599.291 563.521 600.834 563.269L605.087 562.575L605.716 566.433L603.006 566.875C602.595 566.942 602.237 567.036 601.934 567.158C601.629 567.274 601.382 567.42 601.193 567.596C601.003 567.766 600.87 567.962 600.795 568.186C600.718 568.403 600.701 568.643 600.744 568.907C600.784 569.151 600.865 569.366 600.987 569.55C601.109 569.728 601.264 569.871 601.453 569.979C601.643 570.087 601.862 570.16 602.113 570.198C602.369 570.229 602.648 570.22 602.95 570.171C603.233 570.124 603.501 570.051 603.755 569.95C604.008 569.843 604.242 569.716 604.455 569.569C604.668 569.415 604.858 569.245 605.026 569.06C605.2 568.873 605.339 568.675 605.444 568.467C605.555 568.257 605.632 568.043 605.676 567.825C605.718 567.6 605.721 567.375 605.684 567.15L604.862 562.107C604.778 561.593 604.659 561.147 604.505 560.769C604.35 560.386 604.155 560.078 603.919 559.845C603.688 559.606 603.414 559.443 603.096 559.356C602.785 559.268 602.427 559.257 602.022 559.323C601.63 559.387 601.299 559.507 601.031 559.683C600.768 559.851 600.563 560.073 600.417 560.347C600.277 560.621 600.191 560.945 600.16 561.32C600.127 561.688 600.149 562.107 600.226 562.576L591.692 563.968Z" fill="black"/>
<path d="M624.884 559.88C625.066 560.539 625.277 561.096 625.517 561.55C625.763 562.002 626.037 562.359 626.339 562.621C626.645 562.874 626.982 563.031 627.35 563.092C627.719 563.153 628.122 563.122 628.562 563.001C628.882 562.913 629.149 562.792 629.364 562.638C629.578 562.485 629.748 562.292 629.874 562.062C630 561.831 630.084 561.561 630.127 561.252C630.169 560.937 630.174 560.577 630.144 560.173L638.48 557.876C638.702 559.368 638.671 560.776 638.387 562.097C638.107 563.411 637.614 564.601 636.908 565.667C636.206 566.725 635.313 567.637 634.226 568.403C633.145 569.16 631.91 569.73 630.522 570.113C629.461 570.405 628.415 570.569 627.384 570.603C626.36 570.642 625.377 570.555 624.433 570.342C623.489 570.129 622.597 569.797 621.757 569.346C620.923 568.894 620.158 568.327 619.464 567.647C618.776 566.965 618.172 566.169 617.651 565.259C617.129 564.348 616.715 563.334 616.407 562.216C616.099 561.099 615.936 560.018 615.919 558.976C615.9 557.927 616.011 556.934 616.253 555.995C616.499 555.049 616.864 554.168 617.348 553.352C617.839 552.534 618.436 551.796 619.14 551.136C619.841 550.469 620.641 549.891 621.539 549.4C622.442 548.901 623.425 548.505 624.486 548.213C625.874 547.83 627.227 547.69 628.546 547.793C629.869 547.888 631.103 548.21 632.248 548.759C633.399 549.307 634.432 550.076 635.347 551.067C636.268 552.056 637.016 553.249 637.59 554.645L629.253 556.942C629.072 556.58 628.884 556.277 628.689 556.034C628.492 555.784 628.28 555.592 628.054 555.459C627.828 555.325 627.584 555.247 627.321 555.225C627.058 555.203 626.766 555.236 626.446 555.324C626.006 555.445 625.644 555.626 625.359 555.867C625.074 556.108 624.865 556.415 624.732 556.79C624.605 557.163 624.551 557.607 624.572 558.121C624.598 558.634 624.702 559.22 624.884 559.88Z" fill="black"/>
<path d="M657.29 560.157C656.41 560.77 655.576 561.296 654.789 561.734C654.007 562.169 653.255 562.527 652.532 562.807C651.275 563.294 650.103 563.541 649.017 563.55C647.939 563.563 646.946 563.336 646.039 562.87C645.138 562.401 644.323 561.694 643.593 560.747C642.869 559.798 642.231 558.61 641.678 557.183L635.202 540.464L643.311 537.323L649.79 554.051C649.962 554.494 650.146 554.86 650.341 555.147C650.54 555.426 650.757 555.636 650.993 555.775C651.232 555.906 651.495 555.972 651.781 555.972C652.072 555.965 652.396 555.891 652.755 555.753C653.052 555.637 653.384 555.474 653.749 555.263C654.118 555.043 654.557 554.761 655.066 554.417L657.29 560.157ZM651.968 546.418L637.208 552.135L634.808 545.939L649.568 540.222L651.968 546.418Z" fill="black"/>
<path d="M672.796 540.418C673.154 541.001 673.512 541.477 673.868 541.847C674.231 542.213 674.593 542.479 674.956 542.647C675.32 542.805 675.688 542.862 676.058 542.818C676.429 542.774 676.808 542.633 677.197 542.394C677.48 542.22 677.703 542.03 677.866 541.823C678.03 541.615 678.14 541.384 678.196 541.127C678.253 540.871 678.259 540.588 678.214 540.279C678.167 539.964 678.072 539.617 677.931 539.238L685.3 534.714C685.928 536.086 686.289 537.446 686.384 538.795C686.48 540.134 686.337 541.415 685.955 542.635C685.575 543.847 684.97 544.971 684.14 546.008C683.311 547.037 682.283 547.928 681.057 548.681C680.118 549.257 679.159 549.704 678.178 550.024C677.206 550.345 676.237 550.535 675.271 550.593C674.306 550.651 673.356 550.58 672.424 550.381C671.497 550.178 670.605 549.846 669.749 549.386C668.899 548.922 668.097 548.325 667.343 547.596C666.589 546.866 665.909 546.007 665.303 545.019C664.696 544.031 664.24 543.038 663.933 542.042C663.624 541.039 663.454 540.054 663.426 539.086C663.399 538.109 663.505 537.161 663.743 536.242C663.988 535.32 664.356 534.445 664.848 533.615C665.336 532.78 665.944 532.002 666.671 531.281C667.399 530.55 668.233 529.897 669.171 529.321C670.398 528.568 671.659 528.058 672.954 527.79C674.252 527.513 675.527 527.479 676.779 527.689C678.037 527.895 679.243 528.347 680.397 529.044C681.557 529.739 682.607 530.676 683.546 531.858L676.177 536.382C675.903 536.084 675.638 535.846 675.382 535.666C675.123 535.481 674.867 535.356 674.613 535.29C674.358 535.225 674.102 535.218 673.843 535.27C673.585 535.321 673.314 535.434 673.031 535.608C672.642 535.847 672.344 536.121 672.138 536.431C671.931 536.742 671.815 537.096 671.791 537.492C671.773 537.886 671.845 538.327 672.008 538.816C672.176 539.301 672.439 539.835 672.796 540.418Z" fill="black"/>
<path d="M685.317 532.891C684.551 532.021 683.932 531.121 683.46 530.191C682.984 529.256 682.649 528.315 682.455 527.365C682.262 526.407 682.204 525.455 682.283 524.509C682.366 523.559 682.579 522.633 682.922 521.732C683.261 520.826 683.727 519.956 684.32 519.121C684.913 518.277 685.623 517.491 686.449 516.763C687.275 516.036 688.142 515.433 689.049 514.955C689.956 514.468 690.881 514.113 691.823 513.891C692.76 513.665 693.703 513.572 694.651 513.614C695.604 513.651 696.541 513.828 697.463 514.145C698.385 514.452 699.277 514.899 700.14 515.484C701.003 516.069 701.82 516.8 702.591 517.674C703.357 518.544 703.978 519.447 704.454 520.381C704.931 521.316 705.263 522.26 705.452 523.214C705.646 524.163 705.701 525.112 705.618 526.063C705.539 527.008 705.331 527.934 704.992 528.84C704.653 529.747 704.187 530.617 703.594 531.452C703.006 532.291 702.296 533.077 701.465 533.809C700.639 534.537 699.77 535.142 698.858 535.624C697.955 536.107 697.033 536.459 696.091 536.681C695.15 536.903 694.202 536.995 693.249 536.958C692.301 536.917 691.366 536.742 690.444 536.435C689.527 536.123 688.635 535.672 687.768 535.081C686.901 534.491 686.084 533.761 685.317 532.891ZM691.916 527.078C692.368 527.591 692.801 528 693.216 528.303C693.63 528.606 694.033 528.807 694.424 528.905C694.81 528.999 695.182 528.993 695.54 528.886C695.897 528.779 696.247 528.575 696.589 528.274C696.931 527.973 697.178 527.651 697.328 527.31C697.484 526.965 697.538 526.596 697.488 526.206C697.44 525.806 697.291 525.381 697.043 524.931C696.794 524.482 696.444 524 695.992 523.487C695.54 522.974 695.107 522.566 694.692 522.263C694.277 521.959 693.877 521.761 693.491 521.667C693.109 521.569 692.737 521.576 692.375 521.687C692.017 521.793 691.667 521.997 691.325 522.299C690.983 522.6 690.737 522.921 690.586 523.263C690.435 523.604 690.382 523.972 690.426 524.367C690.47 524.762 690.616 525.184 690.865 525.634C691.113 526.084 691.464 526.565 691.916 527.078Z" fill="black"/>
<path d="M710.07 508.487L718.694 514.95L713.479 521.909L696.239 508.988L701.454 502.03L707.028 506.208L707.048 506.247C706.117 505.338 705.383 504.45 704.845 503.582C704.306 502.715 703.959 501.864 703.802 501.03C703.649 500.191 703.685 499.367 703.909 498.558C704.131 497.74 704.543 496.93 705.145 496.127C705.781 495.277 706.471 494.65 707.213 494.246C707.951 493.838 708.759 493.655 709.64 493.696C710.525 493.732 711.488 493.99 712.529 494.469C713.57 494.948 714.708 495.651 715.943 496.576L726.522 504.504L721.307 511.463L712.683 505C712.141 504.594 711.644 504.278 711.194 504.055C710.742 503.822 710.33 503.68 709.96 503.631C709.589 503.573 709.259 503.606 708.97 503.731C708.675 503.852 708.417 504.061 708.194 504.359C708.046 504.557 707.94 504.758 707.876 504.963C707.812 505.167 707.789 505.377 707.806 505.594C707.823 505.81 707.883 506.034 707.986 506.266C708.087 506.489 708.235 506.721 708.428 506.963C708.615 507.202 708.846 507.448 709.12 507.702C709.393 507.956 709.71 508.217 710.07 508.487Z" fill="black"/>
<path d="M734.991 487.369C734.758 488.416 734.5 489.367 734.216 490.223C733.936 491.072 733.624 491.844 733.281 492.54C732.685 493.749 731.99 494.724 731.196 495.466C730.411 496.205 729.527 496.709 728.544 496.98C727.564 497.245 726.485 497.276 725.307 497.073C724.131 496.864 722.857 496.421 721.484 495.745L705.402 487.819L709.246 480.019L725.337 487.949C725.764 488.159 726.146 488.304 726.484 488.384C726.82 488.455 727.121 488.462 727.389 488.405C727.654 488.339 727.892 488.21 728.103 488.016C728.312 487.814 728.501 487.54 728.671 487.196C728.812 486.909 728.946 486.565 729.072 486.162C729.194 485.751 729.327 485.246 729.469 484.648L734.991 487.369ZM721.774 480.856L714.777 495.054L708.818 492.117L715.815 477.919L721.774 480.856Z" fill="black"/>
<path d="M724.688 479.655C723.331 479.284 722.18 478.702 721.235 477.91C720.29 477.118 719.567 476.157 719.066 475.027C718.566 473.891 718.298 472.602 718.26 471.16C718.222 469.718 718.432 468.162 718.89 466.49C719.345 464.825 719.951 463.401 720.707 462.217C721.463 461.032 722.346 460.102 723.355 459.426C724.365 458.744 725.497 458.324 726.748 458.167C727.994 458.008 729.333 458.124 730.766 458.516L743.092 461.889L740.798 470.276L735.765 468.899L735.763 468.869C736.305 469.159 736.796 469.489 737.235 469.859C737.667 470.227 738.046 470.631 738.372 471.071C738.697 471.512 738.966 471.984 739.18 472.488C739.387 472.99 739.537 473.514 739.631 474.06C739.725 474.605 739.752 475.17 739.714 475.754C739.682 476.339 739.584 476.934 739.419 477.537C739.159 478.486 738.778 479.31 738.276 480.01C737.78 480.712 737.199 481.269 736.533 481.68C735.86 482.091 735.117 482.35 734.304 482.458C733.486 482.559 732.631 482.487 731.739 482.243C730.709 481.961 729.851 481.504 729.167 480.871C728.478 480.23 727.966 479.435 727.632 478.485C727.299 477.53 727.151 476.429 727.188 475.183C727.219 473.936 727.44 472.558 727.853 471.05L728.99 466.894L732.76 467.925L732.035 470.573C731.925 470.976 731.862 471.34 731.847 471.667C731.826 471.992 731.856 472.277 731.937 472.522C732.013 472.765 732.136 472.968 732.308 473.13C732.474 473.29 732.685 473.405 732.943 473.476C733.182 473.541 733.41 473.556 733.629 473.522C733.842 473.485 734.036 473.404 734.213 473.276C734.39 473.149 734.547 472.979 734.686 472.768C734.821 472.548 734.928 472.29 735.009 471.995C735.085 471.718 735.13 471.444 735.144 471.171C735.151 470.896 735.133 470.631 735.088 470.375C735.036 470.118 734.961 469.875 734.862 469.645C734.765 469.409 734.643 469.2 734.497 469.018C734.352 468.83 734.19 468.671 734.009 468.541C733.823 468.409 733.619 468.312 733.4 468.252L728.471 466.904C727.968 466.766 727.513 466.689 727.106 466.672C726.692 466.653 726.331 466.703 726.022 466.821C725.708 466.931 725.445 467.113 725.234 467.365C725.025 467.612 724.866 467.933 724.758 468.329C724.653 468.712 724.625 469.063 724.673 469.38C724.717 469.689 724.833 469.967 725.022 470.215C725.213 470.456 725.472 470.669 725.8 470.853C726.121 471.035 726.511 471.189 726.97 471.315L724.688 479.655Z" fill="black"/>
<path d="M733.924 446.968C734.607 447.013 735.202 446.997 735.71 446.92C736.218 446.836 736.645 446.695 736.991 446.496C737.331 446.29 737.59 446.023 737.769 445.696C737.947 445.368 738.052 444.977 738.082 444.522C738.104 444.19 738.078 443.898 738.003 443.645C737.928 443.392 737.803 443.168 737.627 442.974C737.45 442.779 737.223 442.611 736.945 442.468C736.661 442.325 736.323 442.202 735.932 442.097L736.505 433.469C737.988 433.751 739.307 434.243 740.461 434.946C741.61 435.643 742.571 436.5 743.345 437.518C744.114 438.528 744.681 439.672 745.046 440.95C745.406 442.221 745.538 443.574 745.442 445.011C745.37 446.109 745.18 447.151 744.873 448.136C744.572 449.115 744.167 450.015 743.655 450.836C743.144 451.657 742.537 452.39 741.835 453.036C741.133 453.674 740.346 454.21 739.476 454.642C738.605 455.067 737.654 455.376 736.623 455.568C735.592 455.761 734.498 455.819 733.341 455.742C732.184 455.665 731.111 455.463 730.121 455.136C729.124 454.809 728.222 454.377 727.416 453.84C726.603 453.297 725.892 452.662 725.28 451.936C724.67 451.203 724.169 450.396 723.777 449.515C723.378 448.633 723.095 447.688 722.927 446.678C722.753 445.661 722.703 444.603 722.776 443.505C722.871 442.068 723.184 440.744 723.715 439.533C724.24 438.314 724.95 437.255 725.846 436.355C726.742 435.448 727.808 434.726 729.045 434.188C730.282 433.643 731.654 433.33 733.161 433.247L732.588 441.875C732.186 441.927 731.839 442.005 731.544 442.109C731.244 442.213 730.993 442.35 730.792 442.52C730.592 442.689 730.438 442.894 730.33 443.135C730.223 443.376 730.158 443.662 730.136 443.994C730.106 444.449 730.158 444.85 730.291 445.199C730.425 445.547 730.647 445.846 730.956 446.095C731.267 446.337 731.668 446.534 732.161 446.684C732.654 446.828 733.242 446.922 733.924 446.968Z" fill="black"/>
<path d="M744.05 415.645C744.38 416.666 744.64 417.616 744.83 418.497C745.019 419.371 745.142 420.195 745.199 420.968C745.299 422.313 745.195 423.506 744.887 424.548C744.585 425.583 744.079 426.466 743.369 427.198C742.659 427.924 741.745 428.498 740.627 428.92C739.508 429.337 738.185 429.601 736.659 429.715L718.779 431.043L718.135 422.371L736.024 421.042C736.499 421.007 736.902 420.938 737.234 420.835C737.559 420.726 737.822 420.579 738.024 420.394C738.219 420.203 738.358 419.971 738.443 419.697C738.52 419.417 738.544 419.085 738.516 418.702C738.492 418.383 738.432 418.019 738.336 417.608C738.234 417.191 738.092 416.689 737.911 416.101L744.05 415.645ZM729.356 416.737L730.528 432.521L723.902 433.014L722.73 417.229L729.356 416.737Z" fill="black"/>
<path d="M729.772 395.95C730.437 395.789 731 395.596 731.461 395.371C731.921 395.139 732.286 394.876 732.557 394.583C732.82 394.284 732.988 393.952 733.06 393.586C733.132 393.22 733.115 392.816 733.007 392.373C732.929 392.05 732.817 391.779 732.67 391.56C732.523 391.34 732.336 391.164 732.11 391.032C731.883 390.899 731.616 390.806 731.309 390.753C730.995 390.702 730.635 390.685 730.231 390.702L728.196 382.298C729.695 382.123 731.101 382.198 732.413 382.524C733.717 382.845 734.891 383.375 735.934 384.114C736.97 384.849 737.853 385.771 738.584 386.881C739.308 387.986 739.838 389.238 740.177 390.637C740.436 391.707 740.567 392.758 740.568 393.789C740.575 394.813 740.457 395.793 740.214 396.73C739.972 397.667 739.612 398.548 739.135 399.374C738.657 400.193 738.067 400.939 737.365 401.612C736.662 402.278 735.847 402.857 734.921 403.349C733.994 403.842 732.968 404.224 731.841 404.497C730.714 404.77 729.629 404.898 728.586 404.883C727.538 404.869 726.548 404.726 725.618 404.455C724.68 404.18 723.811 403.787 723.011 403.277C722.209 402.761 721.489 402.141 720.851 401.417C720.207 400.695 719.654 399.877 719.192 398.964C718.722 398.045 718.357 397.051 718.098 395.981C717.759 394.582 717.662 393.225 717.806 391.91C717.943 390.591 718.303 389.367 718.888 388.241C719.472 387.107 720.273 386.099 721.293 385.216C722.31 384.326 723.526 383.616 724.939 383.086L726.973 391.491C726.606 391.66 726.297 391.839 726.048 392.027C725.792 392.216 725.594 392.421 725.453 392.643C725.312 392.865 725.227 393.107 725.196 393.369C725.166 393.631 725.19 393.923 725.268 394.246C725.375 394.689 725.545 395.057 725.776 395.349C726.008 395.642 726.309 395.86 726.679 396.005C727.048 396.144 727.489 396.211 728.004 396.207C728.518 396.197 729.107 396.111 729.772 395.95Z" fill="black"/>
<path d="M725.136 380.026C724.019 380.338 722.94 380.506 721.897 380.527C720.848 380.55 719.855 380.443 718.915 380.205C717.968 379.963 717.086 379.602 716.268 379.121C715.448 378.633 714.707 378.039 714.044 377.339C713.374 376.64 712.793 375.843 712.298 374.946C711.795 374.045 711.396 373.065 711.099 372.005C710.802 370.945 710.635 369.902 710.598 368.878C710.553 367.848 710.636 366.861 710.844 365.917C711.047 364.974 711.373 364.084 711.822 363.248C712.269 362.406 712.836 361.639 713.521 360.946C714.198 360.249 714.988 359.639 715.89 359.116C716.792 358.592 717.804 358.174 718.927 357.859C720.044 357.546 721.126 357.379 722.175 357.355C723.224 357.332 724.219 357.442 725.159 357.686C726.099 357.924 726.978 358.286 727.798 358.774C728.616 359.255 729.359 359.845 730.029 360.544C730.698 361.242 731.28 362.04 731.774 362.936C732.275 363.831 732.675 364.811 732.974 365.878C733.27 366.938 733.438 367.983 733.477 369.014C733.52 370.037 733.437 371.021 733.228 371.965C733.019 372.91 732.691 373.804 732.243 374.646C731.794 375.482 731.231 376.249 730.554 376.946C729.875 377.636 729.081 378.244 728.173 378.769C727.265 379.294 726.252 379.713 725.136 380.026ZM722.764 371.558C723.423 371.374 723.978 371.16 724.432 370.918C724.885 370.677 725.24 370.401 725.499 370.092C725.751 369.785 725.907 369.447 725.966 369.078C726.025 368.71 725.993 368.306 725.87 367.867C725.747 367.428 725.565 367.067 725.323 366.783C725.079 366.492 724.771 366.285 724.397 366.159C724.016 366.029 723.569 365.979 723.056 366.007C722.543 366.036 721.957 366.142 721.299 366.327C720.64 366.511 720.084 366.725 719.631 366.966C719.178 367.208 718.826 367.483 718.573 367.79C718.319 368.091 718.164 368.429 718.106 368.804C718.047 369.172 718.079 369.576 718.202 370.015C718.325 370.454 718.508 370.816 718.749 371.1C718.991 371.384 719.3 371.591 719.675 371.723C720.05 371.855 720.494 371.906 721.007 371.878C721.52 371.849 722.105 371.743 722.764 371.558Z" fill="black"/>
<path d="M717.334 346.337L728.036 345.07L729.058 353.705L707.664 356.238L706.641 347.603L713.559 346.783L713.6 346.798C712.3 346.782 711.155 346.645 710.167 346.388C709.179 346.131 708.341 345.755 707.653 345.259C706.964 344.757 706.421 344.136 706.025 343.396C705.622 342.65 705.361 341.779 705.243 340.782C705.119 339.728 705.186 338.798 705.445 337.994C705.697 337.19 706.156 336.499 706.823 335.922C707.488 335.338 708.363 334.861 709.447 334.49C710.532 334.119 711.84 333.842 713.373 333.661L726.501 332.107L727.524 340.742L716.821 342.009C716.149 342.089 715.572 342.203 715.091 342.352C714.603 342.495 714.208 342.676 713.906 342.895C713.597 343.109 713.38 343.361 713.257 343.651C713.128 343.942 713.085 344.272 713.129 344.64C713.158 344.886 713.22 345.105 713.315 345.297C713.409 345.489 713.538 345.658 713.699 345.803C713.86 345.948 714.058 346.068 714.293 346.165C714.52 346.257 714.787 346.323 715.094 346.366C715.394 346.409 715.731 346.428 716.104 346.423C716.478 346.418 716.887 346.389 717.334 346.337Z" fill="black"/>
<path d="M726.477 316.064C726.729 317.106 726.916 318.074 727.038 318.967C727.16 319.853 727.22 320.683 727.219 321.459C727.216 322.807 727.021 323.989 726.635 325.004C726.255 326.013 725.684 326.855 724.92 327.531C724.157 328.201 723.201 328.703 722.054 329.04C720.907 329.37 719.568 329.533 718.037 329.53L700.108 329.493L700.126 320.797L718.065 320.834C718.54 320.835 718.948 320.797 719.287 320.719C719.619 320.635 719.893 320.509 720.108 320.34C720.317 320.164 720.474 319.943 720.578 319.676C720.677 319.403 720.726 319.074 720.727 318.69C720.728 318.371 720.696 318.003 720.631 317.586C720.561 317.162 720.458 316.651 720.322 316.051L726.477 316.064ZM711.743 316.034L711.711 331.862L705.067 331.848L705.099 316.02L711.743 316.034Z" fill="black"/>
<path d="M713.483 313.475C712.084 313.319 710.857 312.923 709.801 312.288C708.744 311.652 707.881 310.815 707.21 309.777C706.54 308.732 706.074 307.501 705.813 306.082C705.552 304.663 705.517 303.093 705.709 301.371C705.9 299.656 706.278 298.154 706.841 296.867C707.404 295.579 708.131 294.523 709.022 293.699C709.915 292.867 710.967 292.277 712.179 291.927C713.385 291.577 714.726 291.484 716.202 291.648L728.903 293.065L727.939 301.707L722.754 301.129L722.747 301.098C723.328 301.301 723.864 301.551 724.355 301.848C724.84 302.144 725.277 302.485 725.667 302.869C726.056 303.253 726.396 303.678 726.685 304.143C726.967 304.607 727.197 305.101 727.375 305.626C727.552 306.15 727.667 306.704 727.72 307.286C727.78 307.87 727.775 308.472 727.705 309.094C727.596 310.071 727.348 310.945 726.961 311.714C726.58 312.484 726.093 313.125 725.498 313.635C724.897 314.145 724.204 314.517 723.417 314.75C722.625 314.976 721.77 315.038 720.85 314.936C719.789 314.817 718.871 314.499 718.096 313.98C717.316 313.454 716.687 312.748 716.209 311.862C715.732 310.97 715.414 309.905 715.257 308.669C715.094 307.432 715.099 306.036 715.272 304.482L715.75 300.2L719.634 300.633L719.329 303.362C719.283 303.776 719.278 304.146 719.314 304.471C719.343 304.795 719.417 305.072 719.536 305.302C719.648 305.531 719.801 305.712 719.996 305.845C720.185 305.977 720.412 306.058 720.677 306.088C720.923 306.115 721.151 306.095 721.362 306.027C721.567 305.958 721.746 305.847 721.901 305.694C722.056 305.54 722.185 305.348 722.289 305.117C722.388 304.879 722.454 304.608 722.488 304.304C722.52 304.019 722.522 303.741 722.493 303.469C722.458 303.196 722.398 302.937 722.314 302.692C722.224 302.446 722.112 302.217 721.978 302.006C721.845 301.788 721.692 301.6 721.519 301.443C721.348 301.28 721.162 301.148 720.964 301.047C720.759 300.946 720.543 300.882 720.317 300.857L715.238 300.291C714.72 300.233 714.259 300.227 713.854 300.274C713.442 300.32 713.093 300.425 712.806 300.589C712.513 300.747 712.282 300.967 712.113 301.25C711.944 301.526 711.838 301.868 711.792 302.276C711.748 302.67 711.774 303.021 711.871 303.327C711.963 303.625 712.121 303.882 712.346 304.097C712.572 304.306 712.861 304.476 713.213 304.607C713.559 304.737 713.968 304.829 714.441 304.881L713.483 313.475Z" fill="black"/>
<path d="M720.491 280.741C721.158 280.891 721.749 280.967 722.263 280.969C722.778 280.964 723.221 280.89 723.594 280.747C723.962 280.595 724.259 280.372 724.486 280.075C724.712 279.779 724.876 279.409 724.975 278.964C725.048 278.64 725.067 278.347 725.032 278.085C724.997 277.824 724.908 277.583 724.763 277.364C724.619 277.145 724.421 276.943 724.168 276.76C723.909 276.575 723.594 276.401 723.224 276.238L725.117 267.8C726.538 268.306 727.766 268.995 728.798 269.868C729.826 270.733 730.644 271.727 731.253 272.852C731.857 273.969 732.241 275.186 732.406 276.505C732.566 277.816 732.488 279.174 732.173 280.578C731.932 281.653 731.584 282.653 731.13 283.579C730.683 284.5 730.143 285.327 729.512 286.06C728.88 286.792 728.168 287.424 727.375 287.953C726.583 288.477 725.724 288.885 724.797 289.177C723.871 289.464 722.884 289.623 721.836 289.655C720.787 289.687 719.697 289.576 718.566 289.322C717.435 289.068 716.405 288.703 715.477 288.228C714.543 287.752 713.718 287.186 713.004 286.532C712.284 285.87 711.679 285.133 711.186 284.322C710.696 283.504 710.324 282.63 710.073 281.699C709.814 280.766 709.68 279.788 709.669 278.764C709.654 277.733 709.766 276.68 710.007 275.606C710.323 274.201 710.836 272.941 711.546 271.826C712.252 270.702 713.117 269.765 714.14 269.013C715.165 268.255 716.329 267.705 717.634 267.363C718.941 267.016 720.345 266.917 721.846 267.067L719.954 275.504C719.549 275.493 719.193 275.517 718.886 275.575C718.573 275.632 718.305 275.728 718.08 275.865C717.856 276.001 717.672 276.18 717.529 276.402C717.386 276.624 717.278 276.896 717.205 277.221C717.106 277.666 717.095 278.07 717.173 278.435C717.252 278.8 717.425 279.129 717.693 279.423C717.962 279.71 718.329 279.966 718.792 280.19C719.257 280.408 719.824 280.592 720.491 280.741Z" fill="black"/>
<path d="M738.593 254.641C738.527 255.712 738.422 256.692 738.276 257.581C738.132 258.464 737.946 259.275 737.716 260.016C737.318 261.304 736.785 262.376 736.117 263.233C735.457 264.086 734.664 264.723 733.735 265.145C732.809 265.561 731.748 265.761 730.553 265.745C729.359 265.724 728.031 265.486 726.569 265.034L709.442 259.732L712.013 251.425L729.15 256.73C729.604 256.87 730.005 256.953 730.351 256.979C730.694 256.996 730.993 256.956 731.248 256.858C731.499 256.751 731.714 256.586 731.892 256.362C732.067 256.129 732.211 255.829 732.324 255.462C732.419 255.157 732.496 254.796 732.557 254.379C732.614 253.953 732.666 253.434 732.712 252.821L738.593 254.641ZM724.517 250.284L719.837 265.404L713.49 263.44L718.171 248.319L724.517 250.284Z" fill="black"/>
<path d="M735.566 232.614C736.196 232.88 736.764 233.059 737.269 233.152C737.777 233.238 738.227 233.244 738.619 233.169C739.007 233.085 739.339 232.917 739.615 232.666C739.891 232.414 740.117 232.078 740.294 231.658C740.423 231.352 740.493 231.067 740.505 230.804C740.517 230.54 740.472 230.288 740.368 230.046C740.265 229.805 740.105 229.572 739.889 229.346C739.667 229.118 739.388 228.891 739.052 228.665L742.408 220.696C743.718 221.445 744.804 222.341 745.666 223.382C746.524 224.415 747.154 225.539 747.554 226.754C747.951 227.96 748.113 229.226 748.042 230.553C747.968 231.872 747.651 233.194 747.092 234.521C746.665 235.536 746.146 236.458 745.534 237.289C744.931 238.117 744.254 238.835 743.503 239.445C742.752 240.054 741.939 240.55 741.064 240.931C740.193 241.306 739.275 241.555 738.311 241.679C737.349 241.797 736.35 241.779 735.312 241.625C734.274 241.471 733.221 241.169 732.153 240.719C731.084 240.269 730.135 239.728 729.306 239.096C728.471 238.461 727.759 237.759 727.172 236.989C726.581 236.21 726.115 235.377 725.774 234.492C725.436 233.6 725.225 232.674 725.142 231.713C725.053 230.75 725.094 229.763 725.265 228.754C725.432 227.736 725.729 226.719 726.156 225.705C726.715 224.378 727.443 223.229 728.34 222.257C729.233 221.276 730.25 220.506 731.39 219.947C732.533 219.382 733.776 219.047 735.121 218.942C736.468 218.831 737.868 218.982 739.319 219.395L735.963 227.365C735.567 227.282 735.213 227.243 734.9 227.246C734.582 227.246 734.301 227.293 734.056 227.388C733.811 227.483 733.598 227.627 733.418 227.819C733.238 228.012 733.084 228.262 732.955 228.568C732.778 228.988 732.696 229.385 732.708 229.757C732.721 230.13 732.833 230.485 733.045 230.821C733.259 231.152 733.574 231.469 733.991 231.771C734.41 232.068 734.935 232.349 735.566 232.614Z" fill="black"/>
<path d="M741.611 218.265C740.575 217.744 739.665 217.14 738.88 216.453C738.089 215.764 737.427 215.015 736.893 214.207C736.356 213.39 735.947 212.528 735.667 211.622C735.389 210.709 735.242 209.771 735.224 208.807C735.2 207.839 735.307 206.858 735.545 205.862C735.781 204.858 736.146 203.864 736.64 202.881C737.135 201.897 737.714 201.014 738.377 200.232C739.037 199.442 739.763 198.768 740.554 198.21C741.339 197.65 742.179 197.212 743.074 196.897C743.972 196.575 744.907 196.39 745.88 196.34C746.85 196.281 747.845 196.362 748.864 196.583C749.883 196.804 750.913 197.176 751.955 197.7C752.991 198.221 753.904 198.826 754.695 199.516C755.486 200.205 756.146 200.957 756.678 201.771C757.212 202.579 757.617 203.439 757.895 204.352C758.175 205.258 758.327 206.195 758.351 207.162C758.375 208.13 758.268 209.111 758.03 210.107C757.797 211.105 757.432 212.099 756.934 213.089C756.44 214.072 755.859 214.958 755.193 215.745C754.536 216.53 753.812 217.202 753.021 217.759C752.23 218.316 751.386 218.756 750.488 219.077C749.593 219.392 748.66 219.579 747.69 219.638C746.723 219.691 745.727 219.606 744.702 219.382C743.677 219.158 742.647 218.786 741.611 218.265ZM745.562 210.409C746.173 210.716 746.728 210.933 747.226 211.06C747.724 211.186 748.172 211.222 748.571 211.168C748.965 211.11 749.307 210.966 749.599 210.733C749.891 210.501 750.139 210.181 750.344 209.774C750.549 209.366 750.658 208.976 750.67 208.603C750.686 208.225 750.598 207.863 750.407 207.519C750.212 207.166 749.916 206.828 749.518 206.503C749.119 206.179 748.615 205.863 748.004 205.556C747.393 205.248 746.838 205.032 746.34 204.905C745.843 204.779 745.397 204.744 745.004 204.801C744.613 204.853 744.27 204.998 743.976 205.236C743.684 205.468 743.435 205.788 743.23 206.195C743.026 206.603 742.917 206.993 742.904 207.366C742.892 207.738 742.98 208.1 743.168 208.45C743.357 208.8 743.65 209.137 744.048 209.461C744.447 209.786 744.951 210.102 745.562 210.409Z" fill="black"/>
<path d="M758.142 186.767L767.467 192.17L763.107 199.694L744.466 188.893L748.826 181.369L754.853 184.862L754.877 184.898C753.846 184.105 753.012 183.31 752.376 182.512C751.739 181.714 751.294 180.91 751.04 180.1C750.79 179.285 750.728 178.463 750.855 177.633C750.98 176.794 751.293 175.941 751.796 175.073C752.329 174.154 752.94 173.451 753.629 172.962C754.313 172.47 755.095 172.193 755.974 172.13C756.857 172.062 757.844 172.204 758.934 172.557C760.024 172.911 761.237 173.474 762.573 174.248L774.011 180.876L769.651 188.4L760.327 182.997C759.741 182.657 759.21 182.403 758.736 182.233C758.26 182.055 757.835 181.963 757.462 181.958C757.086 181.944 756.762 182.016 756.49 182.174C756.212 182.329 755.98 182.567 755.794 182.888C755.669 183.103 755.588 183.315 755.549 183.526C755.509 183.736 755.511 183.948 755.553 184.161C755.596 184.373 755.682 184.589 755.811 184.807C755.938 185.016 756.112 185.23 756.332 185.448C756.546 185.662 756.805 185.879 757.106 186.099C757.408 186.319 757.753 186.542 758.142 186.767Z" fill="black"/>
<path d="M783.103 166.338C782.757 167.353 782.396 168.27 782.02 169.089C781.648 169.902 781.253 170.636 780.836 171.289C780.111 172.426 779.313 173.319 778.443 173.969C777.581 174.617 776.647 175.022 775.64 175.183C774.637 175.338 773.561 175.251 772.412 174.92C771.267 174.583 770.049 174.003 768.759 173.18L753.644 163.536L758.321 156.205L773.444 165.854C773.845 166.11 774.209 166.296 774.537 166.412C774.863 166.52 775.162 166.56 775.434 166.532C775.704 166.496 775.955 166.394 776.187 166.225C776.416 166.047 776.634 165.796 776.841 165.472C777.013 165.202 777.183 164.875 777.352 164.488C777.52 164.093 777.707 163.606 777.914 163.027L783.103 166.338ZM770.682 158.413L762.168 171.756L756.567 168.183L765.081 154.839L770.682 158.413Z" fill="black"/>
<path d="M773.53 157.287C772.374 156.485 771.482 155.553 770.855 154.492C770.228 153.43 769.867 152.283 769.77 151.051C769.678 149.813 769.854 148.508 770.299 147.136C770.744 145.764 771.46 144.366 772.448 142.943C773.432 141.525 774.478 140.383 775.585 139.519C776.693 138.654 777.835 138.071 779.011 137.769C780.192 137.463 781.398 137.443 782.631 137.712C783.858 137.977 785.082 138.533 786.302 139.38L796.801 146.666L791.843 153.81L787.557 150.836L787.566 150.806C787.98 151.26 788.333 151.735 788.623 152.23C788.909 152.721 789.131 153.228 789.291 153.752C789.451 154.275 789.548 154.81 789.581 155.356C789.609 155.899 789.576 156.443 789.483 156.989C789.39 157.535 789.228 158.076 788.997 158.614C788.772 159.156 788.481 159.683 788.125 160.197C787.564 161.005 786.93 161.655 786.224 162.148C785.522 162.645 784.789 162.976 784.023 163.142C783.252 163.305 782.465 163.302 781.663 163.134C780.858 162.956 780.076 162.603 779.316 162.076C778.439 161.467 777.783 160.75 777.348 159.925C776.912 159.091 776.694 158.171 776.695 157.165C776.699 156.153 776.927 155.066 777.376 153.903C777.821 152.737 778.489 151.512 779.38 150.228L781.837 146.688L785.048 148.916L783.482 151.172C783.245 151.514 783.064 151.837 782.941 152.14C782.813 152.439 782.746 152.718 782.741 152.976C782.731 153.231 782.78 153.463 782.888 153.673C782.991 153.879 783.152 154.058 783.371 154.21C783.575 154.352 783.785 154.442 784.003 154.482C784.216 154.519 784.427 154.507 784.636 154.446C784.844 154.384 785.05 154.277 785.251 154.124C785.451 153.961 785.639 153.754 785.813 153.503C785.977 153.267 786.11 153.023 786.214 152.77C786.313 152.514 786.384 152.257 786.427 152.002C786.464 151.742 786.474 151.488 786.457 151.238C786.444 150.983 786.399 150.745 786.321 150.525C786.248 150.3 786.148 150.096 786.021 149.913C785.889 149.726 785.729 149.567 785.542 149.437L781.344 146.524C780.916 146.227 780.513 146.003 780.134 145.851C779.75 145.696 779.393 145.622 779.062 145.63C778.73 145.63 778.422 145.713 778.139 145.881C777.859 146.044 777.603 146.294 777.369 146.631C777.142 146.958 776.999 147.279 776.939 147.594C776.877 147.9 776.894 148.201 776.99 148.497C777.089 148.788 777.262 149.075 777.51 149.358C777.753 149.637 778.069 149.912 778.46 150.183L773.53 157.287Z" fill="black"/>
<path d="M795.001 131.046C795.547 131.458 796.053 131.772 796.52 131.986C796.991 132.195 797.426 132.311 797.824 132.334C798.222 132.349 798.585 132.268 798.914 132.092C799.243 131.916 799.545 131.646 799.82 131.283C800.02 131.018 800.158 130.759 800.235 130.506C800.311 130.254 800.329 129.998 800.288 129.739C800.248 129.479 800.15 129.214 799.996 128.942C799.837 128.667 799.622 128.378 799.352 128.076L804.566 121.177C805.651 122.226 806.483 123.361 807.063 124.583C807.64 125.795 807.974 127.039 808.063 128.315C808.151 129.582 807.997 130.849 807.602 132.118C807.205 133.378 806.573 134.582 805.705 135.73C805.041 136.608 804.311 137.375 803.514 138.03C802.726 138.684 801.893 139.214 801.014 139.619C800.136 140.025 799.226 140.305 798.285 140.459C797.348 140.608 796.397 140.625 795.432 140.508C794.471 140.386 793.507 140.122 792.539 139.717C791.571 139.313 790.625 138.761 789.7 138.062C788.775 137.363 787.988 136.605 787.34 135.788C786.686 134.968 786.169 134.112 785.79 133.221C785.409 132.32 785.162 131.399 785.049 130.457C784.941 129.509 784.964 128.56 785.12 127.608C785.271 126.652 785.553 125.706 785.967 124.77C786.379 123.824 786.918 122.912 787.581 122.034C788.449 120.885 789.438 119.95 790.546 119.229C791.654 118.498 792.829 118.002 794.071 117.741C795.317 117.474 796.605 117.456 797.935 117.685C799.268 117.908 800.587 118.399 801.892 119.157L796.679 126.056C796.315 125.878 795.981 125.753 795.678 125.679C795.369 125.601 795.085 125.577 794.824 125.609C794.563 125.641 794.322 125.728 794.1 125.87C793.878 126.013 793.667 126.216 793.467 126.482C793.192 126.845 793.014 127.209 792.935 127.574C792.855 127.938 792.877 128.31 792.999 128.688C793.126 129.061 793.353 129.446 793.683 129.841C794.016 130.232 794.456 130.634 795.001 131.046Z" fill="black"/>
<path d="M821.178 114.8C820.723 115.772 820.265 116.644 819.802 117.417C819.344 118.186 818.872 118.872 818.387 119.476C817.542 120.527 816.652 121.329 815.716 121.88C814.789 122.431 813.817 122.731 812.798 122.782C811.784 122.828 810.724 122.624 809.618 122.17C808.516 121.711 807.368 121.002 806.175 120.044L792.197 108.815L797.643 102.036L811.629 113.27C811.999 113.568 812.341 113.793 812.654 113.944C812.966 114.086 813.259 114.158 813.533 114.161C813.805 114.154 814.066 114.079 814.314 113.936C814.562 113.784 814.806 113.559 815.047 113.259C815.247 113.01 815.452 112.703 815.662 112.337C815.871 111.962 816.11 111.498 816.379 110.945L821.178 114.8ZM809.691 105.573L799.778 117.913L794.598 113.752L804.511 101.412L809.691 105.573Z" fill="black"/>
<path d="M827.027 91.4436C827.541 91.8943 828.024 92.2432 828.474 92.4905C828.929 92.7328 829.354 92.8801 829.75 92.9324C830.145 92.9756 830.513 92.9213 830.853 92.7695C831.194 92.6178 831.515 92.3704 831.815 92.0275C832.034 91.7776 832.191 91.5295 832.286 91.2832C832.38 91.037 832.416 90.783 832.394 90.5213C832.373 90.2597 832.295 89.9879 832.161 89.7059C832.022 89.4197 831.829 89.1162 831.581 88.7956L837.279 82.2916C838.286 83.416 839.034 84.6083 839.523 85.8685C840.012 87.1194 840.255 88.3843 840.252 89.6631C840.248 90.9328 840.003 92.186 839.517 93.4229C839.03 94.6506 838.313 95.8058 837.364 96.8886C836.639 97.7166 835.855 98.4284 835.012 99.0241C834.179 99.6192 833.31 100.087 832.405 100.429C831.5 100.77 830.572 100.984 829.622 101.07C828.677 101.15 827.727 101.098 826.773 100.912C825.823 100.72 824.88 100.388 823.944 99.9143C823.008 99.4407 822.104 98.8219 821.232 98.0578C820.36 97.2938 819.63 96.4811 819.043 95.6198C818.45 94.7542 817.996 93.8633 817.682 92.947C817.367 92.0215 817.187 91.0848 817.143 90.1368C817.103 89.184 817.196 88.2385 817.42 87.3005C817.639 86.3582 817.989 85.435 818.469 84.5309C818.949 83.6176 819.552 82.7469 820.277 81.9189C821.226 80.8361 822.279 79.9749 823.437 79.3353C824.594 78.6865 825.802 78.2767 827.06 78.1059C828.323 77.9302 829.608 78.0045 830.918 78.3289C832.231 78.6483 833.511 79.2331 834.759 80.0832L829.06 86.5872C828.71 86.3841 828.386 86.2347 828.089 86.1389C827.787 86.0389 827.505 85.9952 827.243 86.0079C826.98 86.0206 826.733 86.09 826.502 86.2161C826.27 86.3422 826.045 86.5301 825.826 86.78C825.525 87.123 825.322 87.4733 825.217 87.8311C825.111 88.1889 825.106 88.5609 825.2 88.947C825.299 89.3282 825.499 89.7281 825.799 90.1468C826.103 90.5606 826.513 90.9929 827.027 91.4436Z" fill="black"/>
<path d="M836.978 80.0727C836.13 79.2822 835.425 78.4474 834.864 77.5684C834.299 76.685 833.873 75.7805 833.587 74.855C833.301 73.9203 833.15 72.9785 833.135 72.0296C833.124 71.076 833.246 70.1338 833.499 69.2032C833.747 68.2681 834.125 67.3561 834.633 66.4671C835.141 65.569 835.77 64.7173 836.52 63.912C837.271 63.1067 838.074 62.4217 838.93 61.857C839.785 61.2831 840.671 60.8394 841.586 60.5261C842.497 60.2083 843.426 60.0236 844.373 59.9718C845.325 59.9153 846.275 59.9994 847.223 60.2241C848.171 60.4396 849.103 60.7963 850.019 61.2941C850.936 61.7919 851.82 62.4382 852.673 63.2332C853.521 64.0237 854.228 64.8607 854.794 65.7441C855.36 66.6275 855.783 67.5344 856.065 68.4647C856.351 69.3902 856.499 70.3298 856.51 71.2834C856.525 72.2323 856.408 73.1743 856.16 74.1094C855.912 75.0445 855.533 75.9565 855.025 76.8454C854.522 77.7388 853.893 78.5905 853.138 79.4006C852.388 80.2058 851.582 80.8932 850.722 81.4627C849.871 82.0319 848.988 82.4731 848.072 82.7864C847.157 83.0998 846.223 83.2847 845.271 83.3412C844.324 83.393 843.376 83.3111 842.428 83.0956C841.485 82.8753 840.553 82.514 839.632 82.0118C838.711 81.5096 837.826 80.8632 836.978 80.0727ZM842.974 73.64C843.474 74.1063 843.945 74.4699 844.388 74.7309C844.83 74.9918 845.251 75.1522 845.649 75.2119C846.043 75.2672 846.412 75.2242 846.758 75.0831C847.103 74.9419 847.431 74.7045 847.742 74.3709C848.053 74.0374 848.266 73.6934 848.383 73.3391C848.504 72.9799 848.521 72.6083 848.434 72.2243C848.346 71.831 848.157 71.4229 847.865 70.9999C847.574 70.5769 847.178 70.1323 846.678 69.6659C846.177 69.1996 845.706 68.836 845.264 68.575C844.821 68.3141 844.403 68.1559 844.009 68.1006C843.62 68.0406 843.251 68.0836 842.901 68.2295C842.556 68.3707 842.227 68.6081 841.917 68.9416C841.606 69.2752 841.392 69.6191 841.275 69.9735C841.159 70.3279 841.142 70.6995 841.225 71.0883C841.308 71.4771 841.495 71.883 841.786 72.306C842.077 72.729 842.473 73.1736 842.974 73.64Z" fill="black"/>
<path d="M860.104 55.636L867.773 63.2077L861.664 69.3957L846.333 54.2591L852.442 48.0711L857.4 52.9656L857.414 53.007C856.615 51.9803 856.007 51.0008 855.592 50.0684C855.176 49.1361 854.947 48.2463 854.904 47.399C854.867 46.5471 855.014 45.7355 855.345 44.9642C855.676 44.1837 856.194 43.4365 856.899 42.7227C857.645 41.9672 858.413 41.4395 859.203 41.1397C859.989 40.8353 860.815 40.7632 861.682 40.9235C862.554 41.0791 863.473 41.4648 864.439 42.0804C865.406 42.6961 866.439 43.5462 867.537 44.6308L876.944 53.9187L870.835 60.1067L863.166 52.535C862.684 52.059 862.235 51.6796 861.818 51.3967C861.402 51.1046 861.014 50.909 860.654 50.8099C860.294 50.7017 859.962 50.69 859.659 50.7748C859.351 50.8551 859.066 51.0273 858.805 51.2916C858.631 51.4677 858.499 51.6528 858.408 51.8468C858.317 52.0408 858.265 52.2461 858.253 52.4627C858.241 52.6793 858.27 52.9094 858.34 53.153C858.411 53.3875 858.525 53.6378 858.684 53.9039C858.837 54.1655 859.033 54.4406 859.269 54.7293C859.506 55.018 859.784 55.3202 860.104 55.636Z" fill="black"/>
<path d="M888.75 42.2714C888.177 43.1782 887.612 43.9861 887.056 44.6951C886.505 45.3996 885.951 46.0211 885.393 46.5596C884.423 47.4963 883.44 48.1795 882.442 48.6091C881.453 49.0388 880.45 49.2149 879.434 49.1374C878.422 49.0553 877.396 48.7197 876.356 48.1304C875.32 47.5367 874.271 46.6893 873.207 45.5883L860.751 32.6927L867.005 26.6513L879.469 39.5539C879.799 39.8959 880.11 40.1616 880.401 40.3509C880.693 40.531 880.974 40.6395 881.246 40.6765C881.517 40.7042 881.785 40.6628 882.049 40.5522C882.314 40.4324 882.585 40.239 882.861 39.972C883.091 39.7503 883.333 39.4711 883.587 39.1347C883.842 38.789 884.137 38.3588 884.473 37.844L888.75 42.2714ZM878.513 31.6739L867.129 42.6706L862.513 37.8919L873.897 26.8951L878.513 31.6739Z" fill="black"/>
<path d="M881.896 30.8967C880.944 29.861 880.278 28.7566 879.898 27.5836C879.519 26.4105 879.417 25.2123 879.593 23.9888C879.773 22.7609 880.231 21.5262 880.965 20.2847C881.7 19.0431 882.705 17.836 883.98 16.6633C885.251 15.495 886.521 14.6102 887.791 14.0089C889.061 13.4076 890.303 13.0886 891.517 13.052C892.736 13.0109 893.917 13.2565 895.061 13.7885C896.201 14.3158 897.273 15.1261 898.278 16.2194L906.928 25.6273L900.527 31.5129L896.995 27.672L897.01 27.645C897.315 28.1787 897.555 28.7189 897.731 29.2657C897.901 29.8076 898.008 30.3514 898.049 30.8971C898.091 31.4429 898.068 31.9859 897.981 32.5262C897.889 33.0617 897.738 33.5855 897.528 34.0976C897.317 34.6097 897.041 35.1029 896.698 35.5772C896.36 36.0562 895.961 36.5074 895.5 36.9306C894.776 37.5963 894.015 38.0922 893.218 38.4184C892.425 38.7493 891.637 38.9121 890.853 38.9069C890.065 38.8968 889.298 38.7217 888.552 38.3815C887.806 38.0321 887.12 37.517 886.494 36.8361C885.771 36.0497 885.288 35.2065 885.044 34.3066C884.801 33.3974 884.79 32.4519 885.011 31.47C885.237 30.4838 885.697 29.4727 886.39 28.4369C887.079 27.3964 887.999 26.347 889.15 25.2889L892.322 22.3726L894.967 25.2496L892.946 27.1079C892.639 27.39 892.392 27.6655 892.206 27.9343C892.015 28.1982 891.889 28.4557 891.828 28.7067C891.762 28.9529 891.759 29.1902 891.819 29.4186C891.874 29.6422 891.992 29.8522 892.173 30.0488C892.34 30.2311 892.526 30.3656 892.73 30.4525C892.929 30.5347 893.137 30.5688 893.355 30.5548C893.572 30.5409 893.796 30.4812 894.026 30.3756C894.257 30.2608 894.485 30.0998 894.71 29.8926C894.921 29.6986 895.105 29.4897 895.262 29.2658C895.414 29.037 895.539 28.8026 895.637 28.5624C895.73 28.3173 895.796 28.0711 895.834 27.8238C895.877 27.5721 895.885 27.3304 895.858 27.0987C895.835 26.8627 895.782 26.6415 895.699 26.4351C895.611 26.224 895.49 26.0345 895.335 25.8667L891.877 22.105C891.524 21.7214 891.18 21.4142 890.844 21.1834C890.503 20.9478 890.171 20.7979 889.846 20.7335C889.522 20.66 889.203 20.6743 888.89 20.7764C888.582 20.8741 888.276 21.0618 887.974 21.3395C887.682 21.6085 887.472 21.8901 887.344 22.1844C887.217 22.4695 887.168 22.767 887.196 23.0771C887.229 23.3827 887.336 23.7007 887.516 24.0309C887.691 24.3564 887.94 24.6941 888.261 25.0442L881.896 30.8967Z" fill="black"/>
<path d="M909.212 9.26063C909.66 9.77742 910.09 10.189 910.502 10.4955C910.919 10.7977 911.32 11.0017 911.705 11.1077C912.091 11.2044 912.463 11.2009 912.821 11.0972C913.179 10.9934 913.531 10.7922 913.875 10.4936C914.126 10.276 914.316 10.0516 914.443 9.82061C914.57 9.58957 914.641 9.34295 914.655 9.08075C914.669 8.81855 914.629 8.53863 914.535 8.24101C914.436 7.93846 914.286 7.61147 914.085 7.26003L920.619 1.59599C921.462 2.84748 922.04 4.13083 922.353 5.44605C922.666 6.75208 922.734 8.03829 922.556 9.30468C922.378 10.5619 921.965 11.7699 921.314 12.9287C920.664 14.0783 919.795 15.1246 918.707 16.0675C917.876 16.7886 917.002 17.3866 916.086 17.8616C915.179 18.3372 914.254 18.6822 913.311 18.8966C912.367 19.111 911.419 19.1958 910.467 19.151C909.519 19.1019 908.585 18.9199 907.666 18.605C906.751 18.2858 905.863 17.8276 905 17.2305C904.138 16.6334 903.327 15.8968 902.567 15.0207C901.808 14.1446 901.196 13.2398 900.731 12.3062C900.263 11.3677 899.935 10.4232 899.749 9.47253C899.564 8.51269 899.514 7.56022 899.6 6.61511C899.69 5.66574 899.911 4.74178 900.261 3.84323C900.607 2.93977 901.08 2.07304 901.68 1.24305C902.28 0.403874 902.996 -0.376251 903.827 -1.09732C904.915 -2.04026 906.076 -2.7494 907.311 -3.22473C908.546 -3.70925 909.798 -3.95012 911.068 -3.94733C912.342 -3.94881 913.606 -3.69941 914.859 -3.19913C916.116 -2.70312 917.305 -1.94883 918.424 -0.936283L911.89 4.72776C911.571 4.47873 911.27 4.28646 910.989 4.15097C910.704 4.01056 910.43 3.92872 910.169 3.90545C909.907 3.88219 909.653 3.91717 909.406 4.0104C909.159 4.10362 908.91 4.25904 908.659 4.47664C908.315 4.77531 908.066 5.09464 907.912 5.43463C907.759 5.77463 907.703 6.14233 907.744 6.53776C907.79 6.92892 907.933 7.35239 908.172 7.80817C908.417 8.25968 908.764 8.74384 909.212 9.26063Z" fill="black"/>
<path d="M939.952 -2.75482C939.309 -1.8965 938.682 -1.13608 938.071 -0.473547C937.466 0.184846 936.864 0.760277 936.265 1.25274C935.224 2.10939 934.189 2.71211 933.16 3.06092C932.14 3.41062 931.127 3.5064 930.119 3.34826C929.117 3.18598 928.121 2.76978 927.131 2.09966C926.146 1.4254 925.168 0.497229 924.195 -0.684867L912.804 -14.5305L919.519 -20.0552L930.917 -6.20206C931.219 -5.83486 931.507 -5.5453 931.783 -5.33339C932.059 -5.13065 932.331 -5.00008 932.599 -4.94168C932.867 -4.89245 933.137 -4.91243 933.41 -5.00162C933.683 -5.09998 933.968 -5.27124 934.265 -5.51541C934.511 -5.71819 934.775 -5.97716 935.055 -6.29232C935.337 -6.61664 935.666 -7.02199 936.041 -7.50836L939.952 -2.75482ZM930.591 -14.1331L918.368 -4.07685L914.147 -9.20765L926.37 -19.2639L930.591 -14.1331Z" fill="black"/>
</svg>
