<svg width="1159" height="146" viewBox="0 0 1159 146" fill="none" xmlns="http://www.w3.org/2000/svg">
<g clip-path="url(#clip0_3024_7056)">
<path d="M57.2864 93H4.72465L4.72465 -81.812L57.2864 -81.812L57.2864 93ZM199.485 47.4662C197.556 55.065 194.564 61.8961 190.509 67.9594C186.453 74.0227 181.551 79.1804 175.803 83.4326C170.055 87.6454 163.539 90.8739 156.255 93.1181C149.01 95.4017 141.215 96.5435 132.868 96.5435C126.096 96.5435 119.698 95.7954 113.674 94.2993C107.65 92.8031 102.099 90.6377 97.0196 87.8029C91.9799 84.9681 87.4325 81.5427 83.3772 77.5268C79.3612 73.4714 75.9358 68.9043 73.101 63.8253C70.3056 58.7069 68.1598 53.1358 66.6637 47.1118C65.1676 41.0879 64.4195 34.6703 64.4195 27.8589C64.4195 21.0475 65.1479 14.6299 66.6046 8.60594C68.1008 2.54264 70.2269 -3.02851 72.9829 -8.10751C75.7783 -13.1865 79.1643 -17.734 83.1409 -21.7499C87.1569 -25.8053 91.665 -29.2306 96.6652 -32.026C101.705 -34.8608 107.197 -37.0263 113.142 -38.5224C119.127 -40.0186 125.486 -40.7666 132.218 -40.7666C138.951 -40.7666 145.29 -40.0186 151.235 -38.5224C157.219 -37.0263 162.712 -34.8608 167.712 -32.026C172.752 -29.2306 177.26 -25.8053 181.236 -21.7499C185.252 -17.734 188.638 -13.1668 191.394 -8.04845C194.19 -2.96945 196.316 2.6017 197.773 8.665C199.269 14.7283 200.017 21.1656 200.017 27.977C200.017 29.6306 199.958 31.3433 199.84 33.1151C199.761 34.8868 199.623 36.5404 199.426 38.0759H113.261C114.009 44.6117 116.174 49.612 119.757 53.0767C123.379 56.5021 128.281 58.2148 134.462 58.2148C142.927 58.2148 148.853 54.6319 152.239 47.4662H199.485ZM152.18 14.4527C150.999 8.23191 148.794 3.66475 145.565 0.751213C142.376 -2.16232 138.045 -3.61909 132.573 -3.61909C126.982 -3.61909 122.611 -2.12295 119.462 0.869328C116.351 3.82224 114.343 8.35003 113.438 14.4527L152.18 14.4527ZM297.994 91.996C291.695 93.4922 285.848 94.6143 280.454 95.3623C275.099 96.1498 270.08 96.5435 265.394 96.5435C232.794 96.5435 216.494 78.078 216.494 41.147V2.93636H202.32L202.32 -37.2232H216.494V-67.2247L269.056 -67.2247V-37.2232L297.994 -37.2232V2.93636H269.056V41.206C269.056 44.0802 269.292 46.5409 269.765 48.5883C270.276 50.5963 271.044 52.2499 272.068 53.5492C273.131 54.8485 274.47 55.7934 276.084 56.384C277.737 56.9745 279.726 57.2698 282.049 57.2698C283.978 57.2698 286.202 57.073 288.722 56.6793C291.281 56.2462 294.372 55.6162 297.994 54.7894L297.994 91.996ZM337.862 10.2005L305.971 10.2005L314.593 -81.812H362.43L337.862 10.2005ZM420.274 -40.7666C430.905 -40.7666 440.413 -39.6642 448.799 -37.4594C457.186 -35.2546 464.273 -32.0457 470.06 -27.8329C475.848 -23.6595 480.277 -18.5411 483.348 -12.4778C486.419 -6.41451 487.955 0.455921 487.955 8.13348L435.688 8.13348C435.688 -2.02452 431.141 -7.10352 422.046 -7.10352C420.235 -7.10352 418.581 -6.90666 417.085 -6.51294C415.589 -6.15859 414.309 -5.62707 413.246 -4.91837C412.183 -4.24904 411.356 -3.42223 410.766 -2.43793C410.175 -1.493 409.88 -0.44964 409.88 0.692152C409.88 2.46389 410.333 3.92066 411.238 5.06245C412.183 6.20425 413.542 7.18855 415.313 8.01536C417.124 8.8028 419.349 9.49182 421.987 10.0824C424.664 10.6336 427.735 11.2439 431.2 11.9132L439.941 13.5668C442.421 14.0393 445.039 14.5511 447.795 15.1023C450.551 15.6535 453.347 16.3229 456.182 17.1103C459.016 17.8978 461.831 18.823 464.627 19.886C467.462 20.9097 470.139 22.1499 472.659 23.6067C475.218 25.0241 477.58 26.6777 479.746 28.5676C481.951 30.4574 483.86 32.6229 485.474 35.064C487.089 37.5051 488.349 40.2611 489.254 43.3321C490.16 46.4031 490.612 49.8482 490.612 53.6673C490.612 60.4393 489.116 66.4829 486.124 71.7981C483.171 77.1134 478.86 81.6018 473.19 85.2634C467.521 88.925 460.591 91.7204 452.402 93.6496C444.212 95.5789 434.881 96.5435 424.408 96.5435C413.305 96.5435 403.443 95.4411 394.82 93.2362C386.198 91.0708 378.953 87.8816 373.087 83.6688C367.22 79.4166 362.752 74.1998 359.681 68.0184C356.649 61.7976 355.133 54.6713 355.133 46.6394H407.4C407.4 51.8365 408.778 55.754 411.534 58.3919C414.29 60.9905 418.384 62.2898 423.818 62.2898C425.944 62.2898 427.893 62.0929 429.664 61.6992C431.476 61.3055 433.031 60.7543 434.33 60.0456C435.629 59.2975 436.633 58.4313 437.342 57.447C438.051 56.4627 438.405 55.38 438.405 54.1988C438.405 52.5846 438.051 51.2853 437.342 50.301C436.633 49.2773 435.432 48.4111 433.739 47.7024C432.046 46.9937 429.802 46.3441 427.007 45.7535C424.211 45.1629 420.747 44.4936 416.613 43.7455L407.872 42.151C404.84 41.5997 401.494 40.9501 397.832 40.202C394.171 39.4146 390.47 38.3909 386.729 37.131C383.028 35.8317 379.426 34.2372 375.922 32.3473C372.457 30.4574 369.366 28.1148 366.649 25.3194C363.972 22.4846 361.807 19.138 360.153 15.2795C358.539 11.3817 357.732 6.81451 357.732 1.57802C357.732 -5.11523 359.129 -11.0801 361.925 -16.3166C364.76 -21.5531 368.854 -25.9824 374.209 -29.6047C379.563 -33.2269 386.119 -35.9829 393.875 -37.8728C401.632 -39.802 410.431 -40.7666 420.274 -40.7666ZM696.904 -37.2232L706.472 56.8564L720.055 -37.2232L770.845 -37.2232L743.915 93H671.273L660.347 -5.68613L649.481 93L576.839 93L549.85 -37.2232L603.297 -37.2232L616.821 59.514L626.625 -37.2232L696.904 -37.2232ZM768.503 27.8589C768.503 20.8113 769.29 14.2361 770.865 8.13348C772.44 2.0308 774.684 -3.56003 777.598 -8.63903C780.551 -13.7574 784.094 -18.3049 788.228 -22.2815C792.402 -26.258 797.067 -29.6047 802.225 -32.3213C807.383 -35.0774 812.974 -37.1641 818.998 -38.5815C825.061 -40.0383 831.42 -40.7666 838.073 -40.7666C844.767 -40.7666 851.125 -40.0383 857.149 -38.5815C863.173 -37.1641 868.764 -35.0774 873.922 -32.3213C879.08 -29.6047 883.725 -26.258 887.859 -22.2815C892.033 -18.3049 895.576 -13.7574 898.49 -8.63903C901.443 -3.56003 903.707 2.05049 905.282 8.19253C906.857 14.2952 907.644 20.8507 907.644 27.8589C907.644 34.8671 906.857 41.4423 905.282 47.5843C903.707 53.7263 901.443 59.3369 898.49 64.4159C895.576 69.4949 892.033 74.0227 887.859 77.9992C883.725 81.9758 879.08 85.3421 873.922 88.0982C868.764 90.8542 863.153 92.9409 857.09 94.3583C851.066 95.8151 844.727 96.5435 838.073 96.5435C831.42 96.5435 825.061 95.8151 818.998 94.3583C812.974 92.9409 807.383 90.8542 802.225 88.0982C797.067 85.3421 792.402 81.9758 788.228 77.9992C784.094 74.0227 780.551 69.4949 777.598 64.4159C774.684 59.3369 772.44 53.7263 770.865 47.5843C769.29 41.4423 768.503 34.8671 768.503 27.8589ZM821.655 27.8589C821.655 36.1664 823.014 42.2691 825.73 46.1669C828.486 50.0254 832.601 51.9546 838.073 51.9546C843.586 51.9546 847.7 50.0254 850.417 46.1669C853.133 42.2691 854.492 36.1664 854.492 27.8589C854.492 19.5514 853.133 13.4684 850.417 9.60993C847.7 5.75146 843.586 3.82223 838.073 3.82223C832.601 3.82223 828.486 5.75146 825.73 9.60993C823.014 13.4684 821.655 19.5514 821.655 27.8589ZM967.381 93H914.819V-37.2232L967.381 -37.2232V13.5668C968.051 5.84989 969.094 -1.11897 970.511 -7.33975C971.968 -13.5999 973.976 -18.9348 976.535 -23.3445C979.134 -27.7936 982.382 -31.2189 986.28 -33.6206C990.217 -36.0223 994.981 -37.2232 1000.57 -37.2232H1011.08V11.7951H985.748C981.929 11.7951 978.819 12.366 976.417 13.5078C974.015 14.6102 972.145 16.3426 970.807 18.7049C969.468 21.0672 968.562 24.0989 968.09 27.7998C967.617 31.5008 967.381 35.9302 967.381 41.0879V93ZM1113.1 27.0911L1158.99 93L1097.51 93L1069.81 48.6473V93H1017.25V-81.812H1069.81V13.0944L1097.51 -37.2232L1155.8 -37.2232L1113.1 27.0911Z" fill="#FDFEE8"/>
</g>
<defs>
<clipPath id="clip0_3024_7056">
<rect width="1159" height="146" fill="white"/>
</clipPath>
</defs>
</svg>
