<svg width="273" height="273" viewBox="0 0 273 273" fill="none" xmlns="http://www.w3.org/2000/svg">
<g clip-path="url(#clip0_3024_6749)">
<path d="M-56.4414 317.328C-122.925 317.328 -206.331 298.592 -261.331 256.889H-305.451C-327.209 233.922 -338.088 191.614 -338.088 131.78C-338.088 86.4502 -324.792 36.89 -306.056 15.7362C-304.242 15.1319 -281.88 16.945 -272.21 16.945C-251.056 16.945 -243.199 15.7362 -208.748 -11.4614C-171.276 -41.0767 -147.1 -50.747 -110.837 -50.747C-69.1336 -50.747 -35.2877 -45.3074 -9.90316 -35.0327C16.6901 -24.1537 37.8439 -18.1097 48.7229 -15.0878C55.9756 -13.2746 63.2283 -9.64825 68.0635 -6.02191C85.5909 -4.8131 103.118 -3.60433 120.646 -1.79114C148.448 1.23082 183.503 5.46157 208.283 8.48353C257.843 14.5274 278.997 28.4285 278.997 57.4393C278.997 85.8458 259.052 99.1424 219.766 99.1424C205.865 99.1424 177.459 97.3293 152.074 97.3293C132.734 97.3293 113.997 98.538 96.4699 99.7468C103.723 110.021 106.14 120.296 106.14 134.802C106.14 154.142 97.6787 165.626 80.1513 173.483C74.7118 175.9 71.6898 178.318 71.6898 182.549C71.6898 189.197 77.7338 198.263 77.7338 209.746C77.7338 230.296 67.4591 244.801 48.1185 251.449C42.679 253.263 42.0746 254.471 42.0746 263.537C42.0746 299.801 7.62421 317.328 -56.4414 317.328ZM-56.4414 296.779H-32.2657C-41.936 293.757 -54.6282 288.922 -73.3644 279.251C-97.5401 266.559 -118.089 250.241 -127.155 236.944C-128.364 233.922 -128.969 229.087 -128.969 224.856C-128.969 216.999 -125.342 209.746 -121.111 204.911C-136.221 197.054 -149.518 189.197 -156.166 183.757C-159.188 180.131 -162.21 173.483 -162.815 165.626C-173.694 169.252 -185.781 170.461 -199.682 170.461C-209.353 170.461 -219.627 169.252 -226.88 167.439V146.285C-220.232 148.098 -207.54 148.703 -199.682 148.703C-182.759 148.703 -169.463 146.889 -158.584 141.45C-153.144 131.78 -143.474 125.131 -131.386 123.923C-133.199 118.483 -134.408 112.439 -134.408 106.395C-134.408 85.8458 -121.111 68.3184 -96.3313 68.3184C-87.2654 68.3184 -78.1996 71.3404 -68.5293 74.9667C-65.5073 70.736 -61.8809 65.9008 -58.859 60.4613C-72.1556 56.8349 -82.4303 51.9998 -86.661 47.769L-70.3424 33.2636C-63.0897 41.1207 1.58029 53.2086 26.3604 53.2086C42.679 53.2086 58.3932 42.9339 58.3932 20.5714V14.5274H57.7888C57.7888 12.7143 49.9317 7.87912 43.2834 6.06595C32.4043 3.04399 9.4374 -3.60433 -18.3647 -15.0878C-40.7272 -24.1537 -72.1556 -28.9888 -110.837 -28.9888C-142.265 -28.9888 -161.606 -21.1317 -195.452 6.06595C-231.111 34.4724 -245.012 38.7032 -272.21 38.7032C-278.254 38.7032 -287.924 38.0988 -295.177 37.4944C-307.264 58.6481 -316.33 96.7249 -316.33 131.78C-316.33 180.131 -309.078 214.581 -295.177 235.131H-254.078C-209.957 272.603 -133.804 296.779 -56.4414 296.779ZM-363.473 276.834C-402.758 276.834 -413.637 191.614 -413.637 136.01C-413.637 81.0106 -402.154 -5.41752 -363.473 -5.41752H-318.143C-310.891 -5.41752 -306.056 0.0220134 -306.056 9.08791V10.2967C-309.078 6.67035 -310.891 6.06595 -315.121 6.06595C-348.967 6.06595 -358.033 81.615 -358.033 136.01C-358.033 191.614 -347.154 266.559 -315.121 266.559C-310.891 266.559 -308.473 264.746 -306.056 260.515V264.746C-306.056 271.394 -309.078 276.834 -318.143 276.834H-363.473ZM13.0637 99.1424C17.2945 84.637 34.8219 77.3843 52.3493 77.3843C63.2283 77.3843 69.2723 77.9887 74.7118 79.1975C98.8875 77.9887 128.503 75.5711 152.074 75.5711C178.063 75.5711 206.469 77.3843 219.766 77.3843C248.777 77.3843 257.238 71.3404 257.238 57.4393C257.238 42.3295 244.546 36.2856 205.261 30.2417C181.085 26.6153 147.843 22.9889 117.624 19.967C106.745 18.7582 93.448 18.1538 79.5469 16.945V19.967C79.5469 55.0218 55.3712 74.9667 27.5692 74.9667C11.855 74.9667 -14.1339 71.3404 -37.7052 65.9008C-40.7272 71.9447 -44.3536 77.3843 -47.9799 82.8238H-47.3755C-37.1008 86.4502 -18.3647 94.3073 13.0637 99.1424ZM34.2175 168.648C43.8878 168.648 52.9537 165.021 68.6679 155.351C81.9645 146.889 84.3821 145.076 84.3821 136.615C84.3821 122.109 82.5689 108.208 71.0855 99.1424C66.8547 98.538 63.2283 98.538 60.2064 98.538C37.2395 98.538 30.5911 107.604 30.5911 123.318C-8.69439 119.087 -30.4525 111.23 -52.8151 102.769C-67.9249 97.9336 -84.2435 86.4502 -97.5401 88.2634C-104.188 88.8678 -113.254 92.4941 -113.254 103.978C-113.254 108.813 -110.232 116.67 -109.628 118.483C-98.1445 127.549 -75.1776 142.054 -35.892 155.955C-12.3207 164.417 18.5033 168.648 34.2175 168.648ZM24.5472 235.735C43.2834 235.735 58.3932 229.087 58.3932 212.164C58.3932 202.494 55.9756 193.428 53.5581 187.384C47.5141 189.801 43.2834 190.406 37.2395 190.406C23.3384 190.406 -12.9251 184.966 -38.914 176.505C-66.7161 167.439 -92.705 154.747 -112.046 142.659C-116.881 140.846 -121.111 139.637 -125.342 139.637C-136.221 139.637 -142.87 149.307 -142.87 159.582C-142.87 164.417 -141.056 169.856 -138.639 173.483C-127.155 181.944 -87.2654 202.494 -60.6721 212.768C-25.013 226.669 1.58029 235.735 24.5472 235.735ZM1.58029 282.273C20.9209 282.273 23.9428 267.164 23.9428 258.098C23.9428 256.889 23.9428 255.68 23.3384 254.471H19.1077C-14.1339 254.471 -44.3536 239.362 -66.7161 230.296C-76.3864 226.065 -89.0786 220.625 -101.166 214.581C-104.793 218.208 -107.815 224.252 -108.419 229.691C-101.771 238.757 -86.0566 251.449 -69.7381 260.515C-47.9799 272.603 -35.2877 282.273 1.58029 282.273Z" fill="#404501"/>
<path d="M122.463 203.993C97.5093 203.993 66.2038 196.96 45.5602 181.308H29C20.8334 172.687 16.75 156.808 16.75 134.349C16.75 117.335 21.7408 98.7335 28.7732 90.7936C29.4537 90.5668 37.8473 91.2474 41.4769 91.2474C49.4167 91.2474 52.3658 90.7936 65.2963 80.5853C79.3612 69.4696 88.4352 65.8399 102.046 65.8399C117.699 65.8399 130.403 67.8816 139.931 71.7381C149.912 75.8214 157.852 78.0899 161.935 79.2242C164.658 79.9048 167.38 81.2659 169.195 82.627C175.773 83.0807 182.352 83.5344 188.931 84.2149C199.366 85.3492 212.523 86.9372 221.824 88.0714C240.426 90.3399 248.366 95.5575 248.366 106.446C248.366 117.108 240.88 122.099 226.134 122.099C220.917 122.099 210.255 121.419 200.727 121.419C193.468 121.419 186.435 121.872 179.857 122.326C182.579 126.183 183.486 130.039 183.486 135.483C183.486 142.743 180.31 147.053 173.732 150.002C171.69 150.909 170.556 151.817 170.556 153.405C170.556 155.9 172.824 159.303 172.824 163.613C172.824 171.326 168.968 176.771 161.708 179.266C159.667 179.946 159.44 180.4 159.44 183.803C159.44 197.414 146.509 203.993 122.463 203.993ZM122.463 196.28H131.537C127.907 195.146 123.144 193.331 116.111 189.701C107.037 184.937 99.3241 178.812 95.9214 173.821C95.4677 172.687 95.2408 170.872 95.2408 169.284C95.2408 166.335 96.6019 163.613 98.1899 161.798C92.5186 158.849 87.5278 155.9 85.0325 153.858C83.8982 152.497 82.7639 150.002 82.5371 147.053C78.4538 148.414 73.9167 148.868 68.6991 148.868C65.0695 148.868 61.213 148.414 58.4908 147.733V139.794C60.9862 140.474 65.7501 140.701 68.6991 140.701C75.051 140.701 80.0417 140.021 84.1251 137.979C86.1667 134.349 89.7964 131.854 94.3334 131.4C93.6528 129.358 93.1991 127.09 93.1991 124.821C93.1991 117.108 98.1899 110.53 107.491 110.53C110.894 110.53 114.296 111.664 117.926 113.025C119.06 111.437 120.421 109.622 121.556 107.581C116.565 106.22 112.708 104.405 111.12 102.817L117.245 97.3724C119.968 100.321 144.241 104.858 153.542 104.858C159.667 104.858 165.565 101.002 165.565 92.6085V90.3399H165.338C165.338 89.6594 162.389 87.8446 159.894 87.164C155.81 86.0298 147.19 83.5344 136.755 79.2242C128.361 75.8214 116.565 74.0066 102.046 74.0066C90.2501 74.0066 82.9908 76.9557 70.2871 87.164C56.9028 97.8261 51.6852 99.414 41.4769 99.414C39.2084 99.414 35.5787 99.1872 32.8565 98.9603C28.3195 106.9 24.9167 121.192 24.9167 134.349C24.9167 152.497 27.6389 165.428 32.8565 173.141H48.2825C64.8426 187.206 93.426 196.28 122.463 196.28ZM7.22224 188.794C-7.52314 188.794 -11.6065 156.808 -11.6065 135.937C-11.6065 115.294 -7.29629 82.8538 7.22224 82.8538H24.2361C26.9584 82.8538 28.7732 84.8955 28.7732 88.2983V88.752C27.6389 87.3909 26.9584 87.164 25.3704 87.164C12.6667 87.164 9.26391 115.521 9.26391 135.937C9.26391 156.808 13.3472 184.937 25.3704 184.937C26.9584 184.937 27.8658 184.257 28.7732 182.669V184.257C28.7732 186.752 27.6389 188.794 24.2361 188.794H7.22224ZM148.551 122.099C150.139 116.655 156.718 113.933 163.296 113.933C167.38 113.933 169.648 114.159 171.69 114.613C180.764 114.159 191.88 113.252 200.727 113.252C210.482 113.252 221.144 113.933 226.134 113.933C237.023 113.933 240.199 111.664 240.199 106.446C240.199 100.775 235.435 98.5066 220.69 96.2381C211.616 94.877 199.139 93.5159 187.796 92.3816C183.713 91.9279 178.722 91.7011 173.505 91.2474V92.3816C173.505 105.539 164.431 113.025 153.995 113.025C148.097 113.025 138.343 111.664 129.495 109.622C128.361 111.891 127 113.933 125.639 115.974H125.866C129.722 117.335 136.755 120.284 148.551 122.099ZM156.491 148.187C160.12 148.187 163.523 146.826 169.421 143.196C174.412 140.021 175.32 139.34 175.32 136.164C175.32 130.72 174.639 125.502 170.329 122.099C168.741 121.872 167.38 121.872 166.245 121.872C157.625 121.872 155.13 125.275 155.13 131.173C140.384 129.585 132.218 126.636 123.824 123.46C118.153 121.646 112.028 117.335 107.037 118.016C104.542 118.243 101.139 119.604 101.139 123.914C101.139 125.729 102.273 128.678 102.5 129.358C106.81 132.761 115.431 138.206 130.176 143.423C139.023 146.599 150.593 148.187 156.491 148.187ZM152.861 173.368C159.894 173.368 165.565 170.872 165.565 164.521C165.565 160.891 164.658 157.488 163.75 155.22C161.482 156.127 159.894 156.354 157.625 156.354C152.408 156.354 138.796 154.312 129.042 151.136C118.607 147.733 108.852 142.97 101.593 138.433C99.7778 137.752 98.1899 137.298 96.6019 137.298C92.5186 137.298 90.0232 140.928 90.0232 144.784C90.0232 146.599 90.7038 148.641 91.6112 150.002C95.9214 153.178 110.894 160.891 120.875 164.747C134.259 169.965 144.241 173.368 152.861 173.368ZM144.241 190.835C151.5 190.835 152.634 185.164 152.634 181.761C152.634 181.308 152.634 180.854 152.408 180.4H150.82C138.343 180.4 127 174.729 118.607 171.326C114.977 169.738 110.213 167.696 105.676 165.428C104.315 166.789 103.181 169.058 102.954 171.099C105.449 174.502 111.347 179.266 117.472 182.669C125.639 187.206 130.403 190.835 144.241 190.835Z" fill="#EEFE05"/>
</g>
<rect x="0.754144" y="0.754144" width="271.492" height="271.492" stroke="#EEFE05" stroke-width="1.50829"/>
<defs>
<clipPath id="clip0_3024_6749">
<rect width="273" height="273" fill="white"/>
</clipPath>
</defs>
</svg>
