<svg width="362" height="439" viewBox="0 0 362 439" fill="none" xmlns="http://www.w3.org/2000/svg">
<path d="M29.388 176.292L28.5498 163.295C28.1011 155.041 27.7922 148.954 28.0342 144.922C28.2762 140.891 28.2978 136.037 28.4296 131.594L28.5239 118.788C28.5455 113.934 28.457 108.669 28.3684 103.404C37.9796 91.573 46.798 81.7176 55.3448 74.1387C63.4804 66.67 68.7671 61.7275 70.3824 59.5318L81.5578 48.6041C85.8903 48.3247 90.0319 48.9779 93.9532 48.8087L103.661 48.8519C105.827 48.7122 110.27 48.844 117.18 48.3147C124.09 47.7854 134.098 47.3072 148.028 46.6598C155.277 53.973 162.004 60.9852 168.099 67.2852L175.458 75.0096C182.185 82.0218 187.318 86.3758 189.624 88.4024C191.82 90.0177 193.604 91.7432 196.02 94.1809L204.422 102.507C220.703 118.859 230.177 129.543 233.665 134.338C237.264 139.544 243.359 145.844 252.282 154.471L280.834 182.079L294.7 195.993C309.718 210.921 321.344 232.927 322.446 237.039L328.116 254.912C328.226 255.323 355.015 343.785 354.354 341.317L356.557 349.542C358.541 356.943 359.452 361.988 358.578 365.307C358.005 368.105 356.28 369.89 353.813 370.551C350.523 371.432 345.97 370.889 341.718 369.825L329.785 366.411L303.863 360.135C300.133 359.372 296.814 358.498 292.973 357.324L274.512 352.574C271.714 352.002 269.438 351.73 267.462 350.937C266.008 350.445 263.21 349.873 259.48 349.109L232.956 343.876C214.825 340.36 204.427 336.095 201.57 332.012C198.713 327.929 191.054 320.726 179.414 310.183L165.989 297.913C161.267 293.449 158.029 291.232 156.876 290.218C155.201 288.904 153.417 287.179 151.111 285.152L110.727 247.933C107.9 245.605 105.594 243.579 104.441 242.566L63.5659 206.8C53.1892 197.681 42.0707 187.438 29.388 176.292ZM221.69 324.858C225.641 326.444 232.279 328.191 239.74 329.718L269.693 336.236L274.356 337.19C275.81 337.682 283.08 340.141 297.4 344.238C311.198 348.033 319.592 349.75 322.881 348.869C329.461 347.106 336.744 338.103 337.508 334.372C338.301 332.397 337.83 328.997 336.508 324.062C334.415 316.249 331.088 308.767 328.172 301.174C325.256 293.582 321.569 283.111 317.932 269.541L315.398 260.083C314.296 255.971 312.232 249.913 310.609 245.5L307.363 236.674C303.097 247.072 300.939 253.82 301.189 256.398C301.028 259.086 301.799 261.964 302.79 265.665L304.443 271.833C304.994 273.889 305.435 275.534 306.397 277.48L308.351 283.127C303.078 276.606 296.681 270.828 292.98 271.819C292.158 272.04 291.035 272.781 290.132 274.346C289.529 275.388 289.368 278.076 290.139 280.955C292.013 287.945 298.608 299.4 307.619 313.292C299.658 306.611 287.115 297.631 283.796 296.758L277.569 294.9C275.182 294.218 272.605 294.468 270.138 295.129C265.203 296.451 259.204 302.025 260.967 308.604C261.408 310.249 262.37 312.195 264.155 313.92L269.127 320.962C266.108 319.567 262.679 318.282 258.648 318.04C255.027 317.688 251.598 316.403 248.279 315.53C244.96 314.656 241.038 314.826 236.926 315.927C231.169 317.47 225.662 321.59 221.69 324.858ZM158.154 120.634L160.9 124.306L169.302 132.632C172.349 135.782 174.575 139.153 176.058 141.399C178.313 146.525 187.346 155.563 197.693 162.928C202.606 166.459 206.696 170.212 210.897 174.375C215.098 178.538 218.557 181.578 221.795 183.795L226.187 187.026C227.34 188.039 228.794 188.531 229.535 189.654L238.679 199.104L243.621 204.391C245.406 206.116 246.147 207.24 246.779 207.952L258.61 217.563L266.35 223.423C270.741 226.653 274.2 229.693 277.769 233.144L283.123 238.32C285.018 240.457 287.023 243.005 289.329 245.032L297.742 217.215C294.584 213.654 291.426 210.093 288.378 206.943L280.388 198.506C275.967 193.52 272.398 190.069 268.307 186.317L252.907 173.255C250.08 170.927 248.185 168.791 247.143 168.189C246.1 167.587 244.616 165.34 241.569 162.19L231.273 151.727C223.393 143.701 218.34 138.003 215.292 134.853C212.245 131.703 207.523 127.239 201.838 120.829L192.475 110.557L181.657 99.7924C173.146 91.0547 163.893 81.1935 153.597 70.7304C156.021 79.777 156.55 86.6869 156.528 91.5407C156.396 95.9834 155.934 99.1924 156.265 100.426L156.824 109.091C156.993 113.012 157.874 116.302 158.154 120.634ZM115.376 168.237C117.161 169.962 118.534 171.798 119.797 173.222L124.519 177.687L133.743 185.793C139.508 190.859 143.819 195.433 147.197 199.817C149.944 203.488 158.455 212.226 173.033 225.509L198.729 249.034C200.513 250.76 202.298 252.485 204.824 255.334L221.546 273.331C224.072 276.18 226.378 278.206 228.163 279.932L234.038 285.409C236.454 287.847 243.482 294.338 246.831 296.966C252.257 294.19 257.272 291.524 262.177 288.447C266.972 284.959 269.41 282.542 269.711 282.021L275.54 272.526L278.962 267.202C280.166 265.116 281.069 263.552 282.383 261.878L278.183 257.714C277.551 257.002 276.508 256.4 276.288 255.578C276.178 255.166 274.915 253.742 273.13 252.016L267.145 246.128L260.638 239.938C251.826 231.722 245.099 224.709 240.568 219.313C236.036 213.916 232.878 210.355 231.314 209.451L224.947 205.428C221.298 203.321 219.102 201.705 214.049 196.008L202.571 182.776L198.15 177.79C196.666 175.544 191.232 171.711 185.798 167.878L178.278 162.841C173.996 160.022 170.537 156.982 168.312 153.612C165.786 150.763 162.848 148.024 160.322 145.175L156.011 140.601C153.705 138.574 151.81 136.437 149.505 134.411L146.244 137.047C145.532 137.679 144.409 138.421 143.696 139.052L141.56 140.947C140.436 141.689 139.533 143.253 138.439 145.75C137.044 148.768 134.717 151.595 131.868 154.122L121.485 163.074C119.349 164.969 117.102 166.452 115.376 168.237ZM57.5274 179.33C59.8334 181.356 62.3597 184.205 65.4074 187.355C67.9337 190.204 70.3498 192.642 71.613 194.066L76.034 199.052C79.0817 202.202 86.6311 208.994 98.873 218.495C111.115 227.996 121.051 235.471 128.079 241.961L138.676 251.903C142.135 254.943 146.115 258.284 149.684 261.735C153.253 265.186 156.191 267.925 157.755 268.828L161.956 272.991C162.587 273.703 163.961 275.539 165.635 276.853C167.309 278.167 169.505 279.783 171.4 281.919L177.495 288.219C178.538 288.821 181.476 291.56 186.418 296.847C191.361 302.133 199.321 308.815 209.778 316.591L233.129 305.045L228.708 300.059C227.555 299.046 226.292 297.622 225.029 296.197L221.761 292.225C221.019 291.101 219.234 289.376 216.928 287.349L201.91 272.422C199.494 269.984 197.599 267.848 195.705 265.711C193.288 263.273 190.241 260.123 184.917 256.702L178.961 252.568C176.765 250.953 175.612 249.939 174.981 249.227L168.033 241.392C164.244 237.119 162.951 233.94 161.989 231.994C161.027 230.048 158.089 227.309 153.397 224.6L148.073 221.178C143.902 218.77 140.222 214.908 137.666 210.304C134.89 204.878 131.953 202.139 127.782 199.731C124.132 197.623 120.152 194.283 116.142 189.187C111.611 183.79 105.956 179.135 99.5889 175.111C96.4901 175.06 93.5014 175.42 90.4026 175.369C87.8252 175.619 85.1375 175.458 82.9713 175.597L77.7062 175.686C75.0186 175.525 70.4953 176.737 65.8618 177.537L57.5274 179.33ZM45.498 164.042C46.3204 163.822 51.2844 164.255 52.6282 164.335L57.2912 165.29C61.4329 165.943 72.8661 164.202 82.1331 162.6L88.0002 161.469C93.1551 160.969 99.2426 160.66 100.175 160.851C101.078 159.287 102.613 158.435 104.037 157.171L106.886 154.645C107.9 153.492 109.023 152.75 109.324 152.229L115.594 144.379C119.949 139.245 123.289 135.265 126.248 133.15C129.619 130.925 132.057 128.509 133.371 126.834L136.521 123.786L140.493 120.518C141.617 119.777 143.041 118.513 144.877 117.14L142.496 98.3858L141.857 91.0647L140.306 78.6989C140.086 77.8765 138.645 65.9219 138.777 61.4792C134.445 61.7586 130.112 62.038 126.712 62.5083L117.225 63.2875C114.236 63.6476 112.481 63.6771 111.138 63.5964C110.205 63.4056 108.039 63.5453 105.872 63.685L98.331 63.5021L89.2549 64.1711L82.7346 69.4441C79.1734 72.6019 76.6255 74.6068 74.9 76.3914C73.5857 78.0658 71.8602 79.8503 69.8336 82.1562L60.7949 91.1892C60.0827 91.8207 58.7684 93.4951 57.1531 95.6909C55.0164 97.5856 52.6888 100.413 48.7164 103.681L41.4839 109.586C41.2793 121.981 43.7192 144.245 44.6086 154.144L45.498 164.042ZM70.0799 127.486C65.2318 109.393 82.7583 89.2707 99.6179 84.7532C109.076 82.219 117.829 86.9252 119.813 94.327C123.889 109.542 99.9232 133.593 86.3532 137.229C78.5402 139.322 72.2835 135.71 70.0799 127.486Z" fill="black"/>
</svg>
