<svg width="307" height="233" viewBox="0 0 307 233" fill="none" xmlns="http://www.w3.org/2000/svg">
<rect width="307" height="233" fill="#EEFE05"/>
<path d="M173.958 43.7685L167.473 102.139L226.492 85.6007L231.68 125.487L177.85 129.379L213.196 176.399L177.201 195.532L152.556 145.917L130.829 195.208L93.5367 176.399L128.559 129.379L75.0527 125.163L81.214 85.6007L138.936 102.139L132.45 43.7685H173.958Z" fill="black"/>
<path d="M284.324 221.71C284.324 221.26 284.368 220.838 284.456 220.444C284.544 220.048 284.67 219.685 284.834 219.355C284.998 219.023 285.197 218.726 285.431 218.464C285.667 218.202 285.931 217.981 286.223 217.801C286.517 217.619 286.837 217.48 287.183 217.384C287.529 217.288 287.896 217.24 288.284 217.24C288.672 217.24 289.039 217.288 289.385 217.384C289.731 217.48 290.05 217.619 290.342 217.801C290.636 217.981 290.9 218.202 291.134 218.464C291.37 218.726 291.57 219.023 291.734 219.355C291.898 219.685 292.024 220.048 292.112 220.444C292.2 220.84 292.244 221.262 292.244 221.71C292.244 222.158 292.2 222.58 292.112 222.976C292.024 223.372 291.898 223.736 291.734 224.068C291.57 224.398 291.37 224.694 291.134 224.956C290.9 225.218 290.636 225.44 290.342 225.622C290.05 225.802 289.731 225.94 289.385 226.036C289.039 226.132 288.672 226.18 288.284 226.18C287.896 226.18 287.529 226.132 287.183 226.036C286.837 225.94 286.517 225.802 286.223 225.622C285.931 225.44 285.667 225.218 285.431 224.956C285.197 224.694 284.998 224.398 284.834 224.068C284.67 223.736 284.544 223.372 284.456 222.976C284.368 222.58 284.324 222.158 284.324 221.71ZM286.232 221.71C286.232 222.168 286.277 222.574 286.367 222.928C286.459 223.282 286.592 223.58 286.766 223.822C286.942 224.062 287.157 224.244 287.411 224.368C287.667 224.492 287.958 224.554 288.284 224.554C288.61 224.554 288.9 224.492 289.154 224.368C289.41 224.244 289.625 224.062 289.799 223.822C289.975 223.58 290.108 223.282 290.198 222.928C290.29 222.574 290.336 222.168 290.336 221.71C290.336 221.252 290.29 220.846 290.198 220.492C290.108 220.138 289.975 219.841 289.799 219.601C289.625 219.359 289.41 219.176 289.154 219.052C288.9 218.928 288.61 218.866 288.284 218.866C287.958 218.866 287.667 218.928 287.411 219.052C287.157 219.176 286.942 219.359 286.766 219.601C286.592 219.841 286.459 220.138 286.367 220.492C286.277 220.846 286.232 221.252 286.232 221.71ZM297.37 224.398H298.69V226H294.157V224.398H295.474V220.042H293.8V218.542H294.421C294.667 218.542 294.872 218.523 295.036 218.485C295.2 218.445 295.33 218.376 295.426 218.278C295.524 218.18 295.593 218.047 295.633 217.879C295.675 217.709 295.696 217.495 295.696 217.237H297.37V224.398Z" fill="#151700"/>
</svg>
