<svg width="307" height="401" viewBox="0 0 307 401" fill="none" xmlns="http://www.w3.org/2000/svg">
<rect width="307" height="233" transform="translate(0 0.324219)" fill="#EEFE05"/>
<path d="M154.225 179.989C120.511 179.989 93.2734 152.752 93.2734 119.037C93.2734 85.3231 120.511 58.0859 154.225 58.0859C187.939 58.0859 215.176 85.3231 215.176 119.037C215.176 152.752 187.607 179.989 154.225 179.989ZM154.225 168.031C181.296 168.031 203.218 146.108 203.218 119.037C203.218 91.9663 181.296 70.0437 154.225 70.0437C127.154 70.0437 105.231 91.9663 105.231 119.037C105.231 146.108 127.154 168.031 154.225 168.031ZM154.225 139.797C142.433 139.797 133.465 130.995 133.465 119.037C133.465 107.412 142.433 98.1112 154.225 98.1112C165.85 98.1112 175.151 107.246 175.151 119.037C175.151 130.497 166.016 139.797 154.225 139.797ZM154.225 130.165C160.37 130.165 165.352 125.348 165.352 119.037C165.352 112.726 160.536 107.744 154.225 107.744C148.08 107.744 143.097 112.56 143.097 119.037C143.097 125.348 148.246 130.165 154.225 130.165Z" fill="#151700"/>
<path d="M284.324 220.71C284.324 220.26 284.368 219.838 284.456 219.444C284.544 219.048 284.67 218.685 284.834 218.355C284.998 218.023 285.197 217.726 285.431 217.464C285.667 217.202 285.931 216.981 286.223 216.801C286.517 216.619 286.837 216.48 287.183 216.384C287.529 216.288 287.896 216.24 288.284 216.24C288.672 216.24 289.039 216.288 289.385 216.384C289.731 216.48 290.05 216.619 290.342 216.801C290.636 216.981 290.9 217.202 291.134 217.464C291.37 217.726 291.57 218.023 291.734 218.355C291.898 218.685 292.024 219.048 292.112 219.444C292.2 219.84 292.244 220.262 292.244 220.71C292.244 221.158 292.2 221.58 292.112 221.976C292.024 222.372 291.898 222.736 291.734 223.068C291.57 223.398 291.37 223.694 291.134 223.956C290.9 224.218 290.636 224.44 290.342 224.622C290.05 224.802 289.731 224.94 289.385 225.036C289.039 225.132 288.672 225.18 288.284 225.18C287.896 225.18 287.529 225.132 287.183 225.036C286.837 224.94 286.517 224.802 286.223 224.622C285.931 224.44 285.667 224.218 285.431 223.956C285.197 223.694 284.998 223.398 284.834 223.068C284.67 222.736 284.544 222.372 284.456 221.976C284.368 221.58 284.324 221.158 284.324 220.71ZM286.232 220.71C286.232 221.168 286.277 221.574 286.367 221.928C286.459 222.282 286.592 222.58 286.766 222.822C286.942 223.062 287.157 223.244 287.411 223.368C287.667 223.492 287.958 223.554 288.284 223.554C288.61 223.554 288.9 223.492 289.154 223.368C289.41 223.244 289.625 223.062 289.799 222.822C289.975 222.58 290.108 222.282 290.198 221.928C290.29 221.574 290.336 221.168 290.336 220.71C290.336 220.252 290.29 219.846 290.198 219.492C290.108 219.138 289.975 218.841 289.799 218.601C289.625 218.359 289.41 218.176 289.154 218.052C288.9 217.928 288.61 217.866 288.284 217.866C287.958 217.866 287.667 217.928 287.411 218.052C287.157 218.176 286.942 218.359 286.766 218.601C286.592 218.841 286.459 219.138 286.367 219.492C286.277 219.846 286.232 220.252 286.232 220.71ZM298.807 225V223.173H293.887V221.217L298.438 216.42H300.667V221.595H301.807V223.173H300.667V225H298.807ZM298.807 221.595V218.217L295.615 221.595H298.807Z" fill="#151700"/>
</svg>
