<svg width="307" height="402" viewBox="0 0 307 402" fill="none" xmlns="http://www.w3.org/2000/svg">
<rect width="307" height="233" transform="translate(0 0.769531)" fill="#EEFE05"/>
<path d="M109.955 183V162.72C132.84 162.72 139.91 157.883 139.91 141.51C136.189 148.394 127.444 153.231 116.653 153.231C96.3732 153.231 81.4888 138.905 81.4888 119.183C81.4888 100.578 94.6987 87.5539 111.444 87.5539C119.072 87.5539 122.979 89.0423 126.514 91.8332C122.607 87.926 119.63 80.1117 119.63 75.4603C119.63 56.1106 133.026 43.645 153.492 43.645C173.958 43.645 187.354 55.9246 187.354 75.4603C187.354 80.1117 184.377 88.1121 180.47 91.8332C184.005 89.0423 187.912 87.5539 195.54 87.5539C212.285 87.5539 225.495 100.392 225.495 119.183C225.495 138.905 210.425 153.231 190.331 153.231C179.912 153.231 170.795 148.394 167.074 141.51C167.074 157.51 173.772 162.72 197.029 162.72V183H109.955ZM118.514 175.186H188.47V170.162C162.051 170.162 157.957 157.883 157.957 127.556H162.423C167.818 137.044 178.795 143.37 190.331 143.37C204.285 143.37 215.076 132.579 215.076 119.183C215.076 105.043 206.704 96.1124 192.563 96.1124C185.493 96.1124 179.726 97.973 175.446 102.996L170.609 99.0893C174.516 92.0192 176.935 83.0886 176.935 75.4603C176.935 62.0644 168.004 54.064 153.492 54.064C138.98 54.064 130.049 62.0644 130.049 75.4603C130.049 83.0886 132.282 91.8332 136.375 99.0893L131.538 102.996C127.072 97.973 121.491 96.1124 114.42 96.1124C100.466 96.1124 91.9079 105.043 91.9079 119.183C91.9079 132.393 102.699 143.37 116.653 143.37C128.002 143.37 139.166 137.231 144.561 127.556H149.027C149.027 158.255 144.933 170.162 118.514 170.162V175.186Z" fill="black"/>
<path d="M284.324 220.71C284.324 220.26 284.368 219.838 284.456 219.444C284.544 219.048 284.67 218.685 284.834 218.355C284.998 218.023 285.197 217.726 285.431 217.464C285.667 217.202 285.931 216.981 286.223 216.801C286.517 216.619 286.837 216.48 287.183 216.384C287.529 216.288 287.896 216.24 288.284 216.24C288.672 216.24 289.039 216.288 289.385 216.384C289.731 216.48 290.05 216.619 290.342 216.801C290.636 216.981 290.9 217.202 291.134 217.464C291.37 217.726 291.57 218.023 291.734 218.355C291.898 218.685 292.024 219.048 292.112 219.444C292.2 219.84 292.244 220.262 292.244 220.71C292.244 221.158 292.2 221.58 292.112 221.976C292.024 222.372 291.898 222.736 291.734 223.068C291.57 223.398 291.37 223.694 291.134 223.956C290.9 224.218 290.636 224.44 290.342 224.622C290.05 224.802 289.731 224.94 289.385 225.036C289.039 225.132 288.672 225.18 288.284 225.18C287.896 225.18 287.529 225.132 287.183 225.036C286.837 224.94 286.517 224.802 286.223 224.622C285.931 224.44 285.667 224.218 285.431 223.956C285.197 223.694 284.998 223.398 284.834 223.068C284.67 222.736 284.544 222.372 284.456 221.976C284.368 221.58 284.324 221.158 284.324 220.71ZM286.232 220.71C286.232 221.168 286.277 221.574 286.367 221.928C286.459 222.282 286.592 222.58 286.766 222.822C286.942 223.062 287.157 223.244 287.411 223.368C287.667 223.492 287.958 223.554 288.284 223.554C288.61 223.554 288.9 223.492 289.154 223.368C289.41 223.244 289.625 223.062 289.799 222.822C289.975 222.58 290.108 222.282 290.198 221.928C290.29 221.574 290.336 221.168 290.336 220.71C290.336 220.252 290.29 219.846 290.198 219.492C290.108 219.138 289.975 218.841 289.799 218.601C289.625 218.359 289.41 218.176 289.154 218.052C288.9 217.928 288.61 217.866 288.284 217.866C287.958 217.866 287.667 217.928 287.411 218.052C287.157 218.176 286.942 218.359 286.766 218.601C286.592 218.841 286.459 219.138 286.367 219.492C286.277 219.846 286.232 220.252 286.232 220.71ZM301.318 222.045C301.318 222.359 301.278 222.655 301.198 222.933C301.118 223.211 301.003 223.466 300.853 223.698C300.703 223.93 300.519 224.138 300.301 224.322C300.085 224.504 299.839 224.659 299.563 224.787C299.287 224.913 298.985 225.009 298.657 225.075C298.329 225.143 297.978 225.177 297.604 225.177C297.248 225.177 296.911 225.147 296.593 225.087C296.277 225.027 295.985 224.941 295.717 224.829C295.449 224.715 295.207 224.578 294.991 224.418C294.777 224.256 294.595 224.074 294.445 223.872C294.295 223.67 294.18 223.45 294.1 223.212C294.02 222.974 293.98 222.721 293.98 222.453V222.387H295.864V222.438C295.864 222.59 295.909 222.733 295.999 222.867C296.089 223.001 296.212 223.118 296.368 223.218C296.524 223.316 296.707 223.394 296.917 223.452C297.127 223.508 297.352 223.536 297.592 223.536C297.858 223.536 298.102 223.5 298.324 223.428C298.548 223.356 298.74 223.256 298.9 223.128C299.06 222.998 299.185 222.844 299.275 222.666C299.365 222.486 299.41 222.288 299.41 222.072C299.41 221.868 299.369 221.682 299.287 221.514C299.205 221.346 299.086 221.202 298.93 221.082C298.776 220.962 298.588 220.869 298.366 220.803C298.146 220.737 297.896 220.704 297.616 220.704C297.406 220.704 297.209 220.724 297.025 220.764C296.843 220.802 296.679 220.856 296.533 220.926C296.387 220.994 296.263 221.075 296.161 221.169C296.061 221.263 295.989 221.364 295.945 221.472H294.085V216.42H300.751V218.034H295.945V220.824C296.023 220.61 296.137 220.415 296.287 220.239C296.439 220.063 296.623 219.913 296.839 219.789C297.055 219.663 297.3 219.566 297.574 219.498C297.85 219.428 298.151 219.393 298.477 219.393C298.923 219.393 299.321 219.457 299.671 219.585C300.023 219.711 300.321 219.89 300.565 220.122C300.809 220.354 300.995 220.633 301.123 220.959C301.253 221.285 301.318 221.647 301.318 222.045Z" fill="#151700"/>
</svg>
