<svg width="307" height="402" viewBox="0 0 307 402" fill="none" xmlns="http://www.w3.org/2000/svg">
<rect width="307" height="233" transform="translate(0 0.652344)" fill="#EEFE05"/>
<path d="M183.887 176.212C175.309 176.212 170.163 175.354 168.662 173.853C167.161 172.352 160.513 168.278 148.075 162.059C145.073 160.558 137.138 156.055 127.274 151.122C125.13 150.05 117.41 145.761 114.836 144.475L110.976 142.545C110.333 142.33 109.261 141.687 107.76 140.829L101.755 137.827C99.6109 136.755 97.252 135.254 94.6787 133.967L66.3721 118.956C64.0133 112.308 62.2977 106.947 61.6544 102.658C61.011 98.3692 59.2955 92.1504 56.9366 83.7871C60.3677 76.2816 63.1555 70.706 65.5144 67.4894C67.2299 65.1305 68.9455 62.5572 72.3766 57.1961C73.6632 55.2661 74.9499 52.6928 76.2365 50.3339C78.381 49.6906 83.0987 48.4039 85.0287 47.975C89.7465 47.1172 97.0376 44.7584 100.898 43.4717C103.256 42.6139 105.615 41.9706 108.403 41.3273L124.057 50.9772C130.92 55.2661 137.138 58.0539 142.928 61.6994L148.933 65.5594C157.511 71.1349 162.228 74.1371 163.301 75.2093C164.373 76.2816 167.804 78.2115 173.594 81.6426C182.172 86.7893 190.964 91.7215 199.542 96.8681C202.329 98.5837 204.259 99.8703 206.189 101.371C209.62 104.159 215.196 109.949 218.627 115.739L230.421 135.468C242.645 156.055 249.078 166.777 249.507 168.278C249.936 169.564 250.15 170.637 250.15 171.28C250.15 174.497 246.934 175.354 243.074 175.354C238.141 175.354 232.995 175.569 228.063 175.569L189.892 175.998C187.962 175.998 185.817 176.212 183.887 176.212ZM72.8054 111.236C73.2343 111.236 73.8777 111.021 74.521 111.021L78.8099 110.378C80.311 110.378 83.0987 109.52 86.9587 107.59C90.3898 105.875 97.252 103.087 98.9675 103.087C99.3964 102.658 102.828 96.8681 103.256 95.5815L104.329 92.7937C105.401 89.7915 107.116 87.6471 108.403 86.146C109.69 84.6448 110.762 83.1437 111.62 81.6426C112.477 80.356 113.764 78.426 115.694 76.0671C115.265 74.9949 114.193 71.7782 112.049 66.6316C109.904 61.4849 108.618 58.2683 107.974 56.3383L105.83 49.4761L100.04 51.6205C97.0376 52.6928 93.8209 53.9794 92.5342 54.1939L81.8121 57.1961C81.1687 58.0539 78.1665 62.5572 77.7376 63.4149L71.5188 73.2793C69.3743 76.7104 66.801 81.2138 64.2277 85.0737L67.2299 95.1526C68.3021 99.0126 69.1599 100.299 69.8032 102.229L72.8054 111.236ZM202.329 121.1V106.518L187.747 97.0826C185.817 95.7959 182.601 94.0804 179.598 92.5793L175.309 90.4348C174.023 89.7915 172.951 89.3626 172.307 88.9337L155.795 78.426C153.651 77.1393 152.15 76.2816 151.292 75.6382L114.407 52.4783L116.337 57.4105C117.195 59.7694 118.267 62.5572 118.267 63.6294C118.267 65.5594 121.27 73.4938 122.342 75.8527C122.985 76.9249 124.701 78.2115 127.489 79.7126C130.491 81.2138 132.421 82.7149 133.707 84.0015C134.994 85.2882 136.281 86.3604 138.211 87.6471L140.784 89.3626C142.5 90.6493 144.43 91.507 145.716 91.9359C150.863 93.6515 150.863 93.8659 155.152 96.4392C156.867 97.5115 158.797 98.5837 161.156 99.4415C164.802 100.728 166.946 102.015 174.452 106.947L188.176 113.38C190.964 114.667 193.323 115.954 194.824 116.811L202.329 121.1ZM85.6721 94.0804C81.3832 94.0804 78.381 89.3626 78.381 83.7871C78.381 74.566 87.3876 64.4872 93.8209 64.4872C98.9675 64.4872 101.541 68.1327 101.541 73.9227C101.541 78.8549 92.7487 94.0804 85.6721 94.0804ZM187.318 151.551C192.894 147.048 195.896 143.188 196.754 140.4C197.612 137.612 198.255 135.039 199.327 132.895L200.614 130.107C196.11 127.319 192.036 124.746 187.962 121.744C184.745 120.671 183.458 120.242 180.456 118.098L176.167 115.096C171.021 111.45 167.804 109.735 166.088 109.735C164.158 109.735 162.014 108.663 159.012 106.518L149.147 99.227C147.432 97.9403 144.858 96.8681 137.567 94.2948C135.209 93.437 133.064 92.3648 131.563 91.0782C129.847 89.7915 128.346 88.9337 126.845 88.0759L123.843 86.3604C122.771 85.5026 121.484 85.0737 119.983 84.216C117.41 87.2182 115.909 89.3626 115.909 90.4348C115.909 91.7215 115.051 93.437 113.55 95.7959L107.545 104.803L110.333 106.733C111.834 107.805 113.764 108.877 115.265 109.52L118.053 110.807C121.055 112.308 123.629 113.809 125.987 115.525C128.132 117.026 129.633 118.098 130.705 118.741L158.154 133.967C160.084 135.039 163.515 137.398 166.946 139.542L179.813 147.691C180.885 148.335 182.172 148.978 183.458 149.621L187.318 151.551ZM171.449 165.705L181.743 157.127C180.885 156.698 180.027 156.269 179.384 155.626C178.526 155.197 177.668 154.553 176.596 153.91L174.452 152.409C174.023 151.98 172.951 151.337 171.449 150.479L158.583 142.759C157.725 142.116 155.581 140.829 152.15 139.542C147.432 137.827 144.43 135.682 141.427 134.181C139.712 132.251 138.425 131.179 137.567 130.107C136.924 129.464 135.423 128.606 132.85 127.534L130.062 126.461C127.06 125.389 124.701 124.102 122.556 121.958C120.626 120.028 118.911 118.741 117.41 118.527C115.694 118.312 113.764 117.455 111.834 116.168C107.331 113.166 104.114 111.45 100.683 109.949C99.3964 110.593 93.8209 112.094 92.5342 112.308C89.532 112.737 87.3876 113.809 84.3854 115.31L80.5254 117.24C88.0309 121.958 94.2498 126.247 101.755 129.678L108.403 132.68C109.904 133.324 111.62 134.181 113.335 134.825C114.836 135.468 117.839 136.755 122.127 139.114L134.994 145.976C139.283 148.335 143.572 150.908 147.861 153.267C150.648 154.768 153.222 156.483 156.01 157.985C159.012 159.7 165.659 163.131 171.449 165.705ZM180.456 168.492C181.528 168.492 185.388 168.278 190.106 168.278C195.253 168.278 200.614 168.063 207.262 168.063C214.553 168.063 221.629 168.278 228.92 168.278C232.351 168.278 236.211 161.63 236.211 158.413C236.211 156.912 233.209 151.98 230.207 147.691L227.205 143.402C224.846 139.971 220.986 134.396 218.627 129.678L216.911 126.247C216.054 124.531 214.124 121.529 212.408 119.17L209.192 114.667L208.763 117.24C208.548 118.956 208.548 120.671 208.548 122.601V123.888C208.763 124.317 208.763 124.746 208.763 124.96C208.763 125.818 209.62 127.534 210.907 129.678C212.194 132.037 213.695 134.61 215.625 137.398C212.837 135.254 209.406 133.109 207.69 133.109C206.618 133.109 205.76 133.752 205.76 135.682C205.76 138.47 211.979 145.332 217.769 150.693C216.268 150.265 214.767 150.05 213.266 149.621L208.548 147.691C207.262 147.048 204.259 146.833 202.544 146.833C198.255 146.833 195.038 151.122 195.038 153.267C195.038 155.84 197.397 157.77 201.043 160.558C197.826 160.558 196.11 160.772 195.038 160.772C193.537 160.772 192.036 160.987 190.32 160.987C184.745 160.987 180.885 164.847 178.312 168.278L180.456 168.492Z" fill="black"/>
<path d="M284.324 219.71C284.324 219.26 284.368 218.838 284.456 218.444C284.544 218.048 284.67 217.685 284.834 217.355C284.998 217.023 285.197 216.726 285.431 216.464C285.667 216.202 285.931 215.981 286.223 215.801C286.517 215.619 286.837 215.48 287.183 215.384C287.529 215.288 287.896 215.24 288.284 215.24C288.672 215.24 289.039 215.288 289.385 215.384C289.731 215.48 290.05 215.619 290.342 215.801C290.636 215.981 290.9 216.202 291.134 216.464C291.37 216.726 291.57 217.023 291.734 217.355C291.898 217.685 292.024 218.048 292.112 218.444C292.2 218.84 292.244 219.262 292.244 219.71C292.244 220.158 292.2 220.58 292.112 220.976C292.024 221.372 291.898 221.736 291.734 222.068C291.57 222.398 291.37 222.694 291.134 222.956C290.9 223.218 290.636 223.44 290.342 223.622C290.05 223.802 289.731 223.94 289.385 224.036C289.039 224.132 288.672 224.18 288.284 224.18C287.896 224.18 287.529 224.132 287.183 224.036C286.837 223.94 286.517 223.802 286.223 223.622C285.931 223.44 285.667 223.218 285.431 222.956C285.197 222.694 284.998 222.398 284.834 222.068C284.67 221.736 284.544 221.372 284.456 220.976C284.368 220.58 284.324 220.158 284.324 219.71ZM286.232 219.71C286.232 220.168 286.277 220.574 286.367 220.928C286.459 221.282 286.592 221.58 286.766 221.822C286.942 222.062 287.157 222.244 287.411 222.368C287.667 222.492 287.958 222.554 288.284 222.554C288.61 222.554 288.9 222.492 289.154 222.368C289.41 222.244 289.625 222.062 289.799 221.822C289.975 221.58 290.108 221.282 290.198 220.928C290.29 220.574 290.336 220.168 290.336 219.71C290.336 219.252 290.29 218.846 290.198 218.492C290.108 218.138 289.975 217.841 289.799 217.601C289.625 217.359 289.41 217.176 289.154 217.052C288.9 216.928 288.61 216.866 288.284 216.866C287.958 216.866 287.667 216.928 287.411 217.052C287.157 217.176 286.942 217.359 286.766 217.601C286.592 217.841 286.459 218.138 286.367 218.492C286.277 218.846 286.232 219.252 286.232 219.71ZM295.256 224C295.288 223.514 295.339 223.055 295.409 222.623C295.479 222.191 295.574 221.778 295.694 221.384C295.814 220.988 295.96 220.607 296.132 220.241C296.306 219.875 296.511 219.515 296.747 219.161C296.985 218.807 297.256 218.455 297.56 218.105C297.864 217.755 298.207 217.398 298.589 217.034H293.507V215.42H300.233V217.106C299.891 217.46 299.586 217.802 299.318 218.132C299.05 218.46 298.812 218.79 298.604 219.122C298.398 219.452 298.219 219.791 298.067 220.139C297.917 220.487 297.789 220.858 297.683 221.252C297.577 221.644 297.49 222.066 297.422 222.518C297.354 222.968 297.3 223.462 297.26 224H295.256Z" fill="#151700"/>
</svg>
