<svg width="488" height="793" viewBox="0 0 488 793" fill="none" xmlns="http://www.w3.org/2000/svg">
<rect x="0.511719" width="487" height="793" fill="#EEFE05"/>
<g clip-path="url(#clip0_3024_7499)">
<path d="M9.63298 755.96C9.63298 743.97 10.8054 732.726 13.1501 722.228C15.4949 711.676 18.8522 702.004 23.2219 693.211C27.5917 684.365 32.8941 676.452 39.129 669.471C45.4172 662.49 52.4515 656.601 60.2319 651.805C68.0655 646.956 76.5919 643.252 85.8111 640.694C95.0303 638.136 104.809 636.857 115.147 636.857C125.486 636.857 135.264 638.136 144.483 640.694C153.703 643.252 162.202 646.956 169.983 651.805C177.816 656.601 184.851 662.49 191.086 669.471C197.374 676.452 202.703 684.365 207.073 693.211C211.442 702.004 214.8 711.676 217.144 722.228C219.489 732.779 220.662 744.023 220.662 755.96C220.662 767.897 219.489 779.142 217.144 789.693C214.8 800.244 211.442 809.943 207.073 818.789C202.703 827.582 197.374 835.469 191.086 842.45C184.851 849.431 177.816 855.346 169.983 860.196C162.202 864.992 153.703 868.669 144.483 871.227C135.264 873.785 125.486 875.064 115.147 875.064C104.809 875.064 95.0303 873.785 85.8111 871.227C76.5919 868.669 68.0655 864.992 60.2319 860.196C52.4515 855.346 45.4172 849.431 39.129 842.45C32.8941 835.469 27.5917 827.582 23.2219 818.789C18.8522 809.943 15.4949 800.244 13.1501 789.693C10.8054 779.142 9.63298 767.897 9.63298 755.96ZM60.4717 755.96C60.4717 768.164 61.6707 778.982 64.0688 788.414C66.5201 797.846 70.0639 805.787 74.7001 812.235C79.3896 818.63 85.1183 823.479 91.8862 826.783C98.7073 830.087 106.461 831.739 115.147 831.739C123.834 831.739 131.561 830.087 138.328 826.783C145.15 823.479 150.878 818.63 155.514 812.235C160.204 805.787 163.748 797.846 166.146 788.414C168.597 778.982 169.823 768.164 169.823 755.96C169.823 743.757 168.597 732.939 166.146 723.507C163.748 714.075 160.204 706.161 155.514 699.766C150.878 693.318 145.15 688.442 138.328 685.138C131.561 681.834 123.834 680.182 115.147 680.182C106.461 680.182 98.7073 681.834 91.8862 685.138C85.1183 688.442 79.3896 693.318 74.7001 699.766C70.0639 706.161 66.5201 714.075 64.0688 723.507C61.6707 732.939 60.4717 743.757 60.4717 755.96ZM327.412 827.582H362.584V870.268H241.802V827.582H276.893V711.517H232.29V671.549H248.836C255.391 671.549 260.853 671.043 265.223 670.03C269.593 668.964 273.056 667.126 275.614 664.515C278.226 661.904 280.064 658.36 281.13 653.883C282.249 649.354 282.808 643.652 282.808 636.777H327.412V827.582ZM381.9 930.858L457.919 633.66H504.681L428.662 930.858H381.9Z" fill="#151700"/>
</g>
<path d="M277.137 113L266.767 206.327L361.131 179.884L369.427 243.658L283.359 249.879L339.873 325.059L282.322 355.65L242.917 276.322L208.179 355.131L148.553 325.059L204.55 249.879L119 243.139L128.851 179.884L221.141 206.327L210.771 113H277.137Z" fill="black"/>
<defs>
<clipPath id="clip0_3024_7499">
<rect width="487" height="190" fill="white" transform="translate(1 602)"/>
</clipPath>
</defs>
</svg>
