<svg width="730" height="346" viewBox="0 0 730 346" fill="none" xmlns="http://www.w3.org/2000/svg">
<g clip-path="url(#clip0_3024_7511)">
<rect width="730" height="346" fill="#131313"/>
<path d="M346.602 228.938L186.274 211.124L231.7 373.234L122.142 387.485L111.454 239.627L-17.7 336.715L-70.2521 237.846L66.0271 170.151L-69.3614 110.473L-17.7 8.04131L111.454 104.238L123.033 -42.7294L231.7 -25.8058L186.274 132.741L346.602 114.927L346.602 228.938ZM783.943 228.938L623.614 211.124L669.041 373.234L559.483 387.485L548.794 239.627L419.641 336.715L367.088 237.846L503.368 170.151L367.979 110.473L419.641 8.04133L548.794 104.238L560.373 -42.7294L669.041 -25.8058L623.614 132.741L783.943 114.927L783.943 228.938Z" fill="white"/>
</g>
<defs>
<clipPath id="clip0_3024_7511">
<rect width="730" height="346" fill="white"/>
</clipPath>
</defs>
</svg>
