<svg width="1920" height="1612" viewBox="0 0 1920 1612" fill="none" xmlns="http://www.w3.org/2000/svg">
<path d="M-118.419 1327.77C-189.26 1258.5 -574.499 727.267 -288.121 597.105C69.8518 434.402 -77.6955 1217.19 729.632 1029.69C963.117 975.458 1200.79 1299.08 1388.81 1167.12C1576.84 1035.16 1440.32 802.4 1379 689.458C1301.86 547.406 1171.03 123.33 1594.91 189.141C1934.01 241.791 2066.33 375.661 2090.1 436.015" stroke="white" stroke-width="144"/>
<path d="M-24.6622 721.961C-27.5302 723.067 -30.3615 723.673 -33.1562 723.779C-35.9509 723.885 -38.6332 723.518 -41.2031 722.676C-43.773 721.835 -46.1882 720.539 -48.4486 718.789C-50.709 717.038 -52.7279 714.862 -54.5051 712.258C-55.9846 710.091 -57.1318 707.872 -57.9468 705.6C-58.7528 703.341 -59.237 701.085 -59.3994 698.832C-59.5486 696.571 -59.3868 694.339 -58.914 692.137C-58.428 689.926 -57.6349 687.796 -56.5347 685.747C-55.4213 683.689 -54.0095 681.727 -52.2993 679.862C-50.5891 677.997 -48.5843 676.28 -46.2851 674.71C-42.8494 672.364 -39.3658 670.742 -35.8343 669.842C-32.2938 668.955 -28.8742 668.771 -25.5756 669.289C-22.2638 669.799 -19.1573 671 -16.2563 672.895C-13.342 674.78 -10.7842 677.334 -8.58302 680.558C-6.41789 683.73 -4.99751 686.974 -4.3219 690.29C-3.63727 693.62 -3.67015 696.878 -4.42054 700.064C-5.15771 703.24 -6.60191 706.29 -8.75314 709.211C-10.8912 712.124 -13.6978 714.766 -17.1732 717.139C-17.6885 717.491 -18.2129 717.83 -18.7463 718.155C-19.2707 718.494 -19.8395 718.824 -20.4528 719.146L-42.6455 686.639C-44.3247 688.095 -45.6634 689.639 -46.6617 691.27C-47.6378 692.905 -48.2716 694.587 -48.5632 696.316C-48.8548 698.046 -48.7867 699.792 -48.359 701.553C-47.9223 703.328 -47.1175 705.074 -45.9448 706.792C-44.1585 709.408 -42.0444 711.171 -39.6024 712.081C-37.1605 712.99 -34.3635 713.086 -31.2117 712.368L-24.6622 721.961ZM-19.9344 704.582C-16.8199 701.68 -15.0046 698.678 -14.4885 695.575C-13.9502 692.476 -14.741 689.373 -16.8611 686.268C-17.9436 684.682 -19.1693 683.398 -20.5382 682.414C-21.907 681.431 -23.3856 680.755 -24.974 680.386C-26.5533 680.031 -28.2248 679.981 -29.9882 680.235C-31.7385 680.481 -33.5474 681.038 -35.4151 681.906L-19.9344 704.582Z" fill="#151700"/>
<path d="M7.06065 741.258C9.67015 739.548 12.3411 738.486 15.0736 738.073C17.806 737.659 20.4915 737.86 23.13 738.675C25.7906 739.495 28.3533 740.924 30.818 742.963C33.2915 745.014 35.5719 747.633 37.6593 750.818C39.8431 754.15 41.3597 757.412 42.2088 760.605C43.0668 763.812 43.2692 766.864 42.816 769.763C42.3715 772.675 41.2741 775.393 39.5235 777.918C37.773 780.443 35.3923 782.692 32.3813 784.665L6.12576 801.873L-0.478409 791.796L11.1238 784.192C8.80122 784.968 6.49726 785.35 4.21193 785.336C1.94876 785.327 -0.23372 784.931 -2.33549 784.146C-4.42388 783.353 -6.39396 782.186 -8.24572 780.645C-10.0887 779.118 -11.7469 777.23 -13.2204 774.981C-14.7552 772.64 -15.8329 770.295 -16.4535 767.947C-17.0788 765.621 -17.2632 763.398 -17.007 761.279C-16.7507 759.16 -16.0585 757.195 -14.9305 755.384C-13.7802 753.578 -12.2148 752.026 -10.2343 750.728C-8.17346 749.378 -6.05924 748.575 -3.89163 748.322C-1.72403 748.068 0.42843 748.331 2.56574 749.111C4.71182 749.905 6.80951 751.208 8.85884 753.021C10.9215 754.826 12.8606 757.113 14.6761 759.883L24.7534 775.259L25.7771 774.588C27.4499 773.492 28.7776 772.249 29.7604 770.859C30.7566 769.46 31.3985 767.958 31.6862 766.354C31.9827 764.763 31.9181 763.103 31.4923 761.373C31.0666 759.644 30.2748 757.896 29.1171 756.129C27.9419 754.336 26.7127 752.913 25.4296 751.86C24.1686 750.812 22.8828 750.105 21.5721 749.74C20.2614 749.374 18.9415 749.331 17.6124 749.609C16.2834 749.887 14.9631 750.455 13.6517 751.315L7.06065 741.258ZM7.99193 765.096C6.18521 762.34 4.35533 760.555 2.5023 759.741C0.658042 758.941 -1.16737 759.133 -2.97395 760.317C-4.8742 761.563 -5.82853 763.288 -5.83696 765.494C-5.82324 767.704 -4.8604 770.268 -2.94843 773.185C-1.59778 775.246 -0.109186 776.977 1.51734 778.379C3.16602 779.785 4.84649 780.817 6.55874 781.474C8.27976 782.144 9.98388 782.424 11.6711 782.313C13.3804 782.206 14.9645 781.675 16.4231 780.719L17.6877 779.89L7.99193 765.096Z" fill="#151700"/>
<path d="M50.3624 819.414C48.1799 821.011 46.4172 822.706 45.074 824.502C43.7438 826.288 42.8372 828.11 42.3541 829.97C41.8935 831.834 41.8663 833.707 42.2726 835.591C42.6884 837.487 43.5528 839.333 44.8659 841.128C45.9995 842.677 47.2221 843.874 48.5337 844.719C49.8677 845.567 51.2532 846.119 52.6902 846.377C54.1272 846.634 55.5882 846.626 57.0732 846.352C58.5805 846.082 60.0632 845.602 61.5211 844.912L68.6201 854.617C66.7679 855.635 64.8767 856.424 62.9467 856.983C61.0261 857.555 59.0955 857.897 57.1548 858.008C55.2271 858.11 53.3134 857.974 51.4137 857.599C49.527 857.215 47.6895 856.586 45.9014 855.714C44.1133 854.841 42.4051 853.712 40.7767 852.326C39.1578 850.953 37.6493 849.311 36.2512 847.4C34.7114 845.295 33.502 843.126 32.623 840.895C31.7405 838.686 31.1815 836.458 30.9459 834.212C30.7103 831.966 30.7882 829.728 31.1797 827.499C31.5805 825.283 32.2927 823.127 33.3163 821.03C34.3621 818.937 35.7094 816.93 37.358 815.01C39.0066 813.091 40.9609 811.304 43.2208 809.651C46.6171 807.167 50.0702 805.424 53.58 804.423C57.0992 803.434 60.5252 803.158 63.8578 803.595C67.2033 804.022 70.3661 805.148 73.3462 806.972C76.3262 808.797 78.9734 811.291 81.2878 814.455C83.3849 817.322 84.8381 820.243 85.6474 823.22C86.4791 826.199 86.7354 829.124 86.4163 831.994C86.0972 834.864 85.2467 837.617 83.8647 840.254C82.5051 842.894 80.6714 845.306 78.3635 847.49L71.2645 837.785C72.3729 836.617 73.2776 835.361 73.9785 834.015C74.7018 832.674 75.1585 831.279 75.3486 829.832C75.5387 828.384 75.4252 826.901 75.0081 825.382C74.6039 823.854 73.835 822.315 72.7014 820.766C71.3884 818.971 69.8912 817.588 68.2098 816.617C66.5379 815.66 64.7378 815.123 62.8095 815.007C60.9035 814.895 58.8981 815.202 56.7932 815.929C54.6884 816.656 52.5448 817.818 50.3624 819.414Z" fill="#151700"/>
<path d="M83.3934 851.685C85.7777 849.673 88.3011 848.297 90.9638 847.557C93.6265 846.817 96.3166 846.692 99.0341 847.184C101.774 847.676 104.49 848.786 107.183 850.513C109.886 852.251 112.465 854.576 114.921 857.486C117.491 860.53 119.39 863.586 120.618 866.654C121.856 869.733 122.425 872.739 122.324 875.671C122.234 878.616 121.473 881.446 120.039 884.164C118.606 886.881 116.514 889.401 113.762 891.723L89.7729 911.97L82.0021 902.763L92.603 893.816C90.3909 894.866 88.1497 895.523 85.8794 895.785C83.6317 896.049 81.4173 895.918 79.2363 895.393C77.0676 894.858 74.9712 893.937 72.9471 892.63C70.9334 891.336 69.0596 889.661 67.3259 887.607C65.5199 885.467 64.1674 883.27 63.2682 881.014C62.3672 878.78 61.9161 876.596 61.915 874.461C61.9139 872.327 62.3641 870.293 63.2657 868.359C64.1898 866.428 65.5567 864.698 67.3663 863.171C69.2492 861.582 71.2513 860.53 73.3725 860.017C75.4937 859.504 77.6622 859.506 79.878 860.023C82.1041 860.552 84.3436 861.592 86.5966 863.146C88.8618 864.688 91.0625 866.725 93.1987 869.256L105.056 883.305L105.992 882.516C107.52 881.226 108.688 879.831 109.496 878.333C110.316 876.824 110.773 875.256 110.865 873.629C110.967 872.014 110.703 870.374 110.072 868.708C109.441 867.042 108.444 865.402 107.082 863.788C105.699 862.15 104.307 860.885 102.906 859.995C101.528 859.106 100.167 858.56 98.8215 858.355C97.4763 858.15 96.1608 858.266 94.8749 858.702C93.589 859.139 92.347 859.862 91.1487 860.874L83.3934 851.685ZM87.1918 875.237C85.0659 872.718 83.0341 871.167 81.0966 870.583C79.1693 870.011 77.3804 870.422 75.7297 871.815C73.9935 873.28 73.2541 875.108 73.5116 877.299C73.7917 879.491 75.0566 881.92 77.3063 884.585C78.8956 886.468 80.582 888.008 82.3657 889.203C84.1719 890.4 85.9645 891.222 87.7434 891.668C89.5327 892.126 91.2581 892.198 92.9196 891.884C94.6037 891.572 96.1121 890.854 97.4449 889.729L98.6003 888.754L87.1918 875.237Z" fill="#151700"/>
<path d="M104.996 927.601L96.6805 918.883L148.085 869.85L156.401 878.568L104.996 927.601Z" fill="#151700"/>
<path d="M116.74 939.346L108.172 930.876L158.111 880.352L166.68 888.821L116.74 939.346Z" fill="#151700"/>
<path d="M191.253 973.265L157.176 946.713L163.903 938.08L197.979 964.633L191.253 973.265Z" fill="#151700"/>
<path d="M252.005 973.13C255.294 974.919 258.026 976.878 260.201 979.008C262.376 981.138 263.978 983.366 265.008 985.692C266.037 988.019 266.482 990.4 266.34 992.837C266.213 995.281 265.488 997.719 264.166 1000.15L253.772 994.498C254.391 993.36 254.724 992.211 254.771 991.053C254.832 989.902 254.603 988.767 254.083 987.646C253.577 986.534 252.787 985.457 251.713 984.418C250.639 983.379 249.273 982.408 247.614 981.506C246.138 980.704 244.713 980.11 243.337 979.726C241.983 979.336 240.733 979.157 239.586 979.189C238.439 979.221 237.429 979.455 236.555 979.89C235.695 980.333 235.031 980.983 234.565 981.841C234.015 982.853 233.859 983.843 234.098 984.81C234.358 985.771 234.869 986.723 235.632 987.666C236.394 988.609 237.325 989.543 238.424 990.469C239.545 991.388 240.695 992.304 241.873 993.219L244.698 995.41C245.862 996.316 247.074 997.285 248.335 998.317C249.603 999.334 250.807 1000.44 251.948 1001.62C253.088 1002.8 254.104 1004.07 254.996 1005.41C255.895 1006.74 256.555 1008.15 256.976 1009.65C257.397 1011.16 257.514 1012.75 257.327 1014.44C257.148 1016.1 256.55 1017.87 255.533 1019.74C254.272 1022.06 252.688 1023.87 250.782 1025.16C248.876 1026.46 246.68 1027.23 244.194 1027.48C241.723 1027.74 238.983 1027.47 235.974 1026.67C232.966 1025.87 229.733 1024.54 226.275 1022.66C222.663 1020.69 219.681 1018.6 217.33 1016.4C214.971 1014.2 213.242 1011.93 212.142 1009.56C211.05 1007.18 210.583 1004.74 210.74 1002.24C210.906 999.727 211.692 997.176 213.098 994.59L223.492 1000.24C222.132 1002.74 222.026 1005.18 223.176 1007.56C224.334 1009.92 226.859 1012.15 230.752 1014.27C232.481 1015.21 234.1 1015.92 235.609 1016.39C237.132 1016.88 238.501 1017.12 239.718 1017.13C240.949 1017.14 242.013 1016.91 242.91 1016.43C243.822 1015.96 244.537 1015.25 245.057 1014.29C245.47 1013.53 245.688 1012.8 245.713 1012.08C245.738 1011.37 245.604 1010.66 245.314 1009.95C245.045 1009.24 244.639 1008.55 244.097 1007.87C243.562 1007.18 242.934 1006.49 242.213 1005.81C241.5 1005.11 240.715 1004.41 239.858 1003.71C239.016 1003.01 238.142 1002.31 237.235 1001.6L234.402 999.373C233.614 998.744 232.785 998.075 231.915 997.365C231.058 996.662 230.196 995.92 229.328 995.138C228.482 994.35 227.665 993.524 226.879 992.659C226.1 991.78 225.398 990.861 224.772 989.902C224.147 988.942 223.622 987.947 223.2 986.916C222.799 985.878 222.539 984.799 222.42 983.678C222.323 982.55 222.395 981.379 222.638 980.163C222.894 978.954 223.374 977.704 224.077 976.41C225.27 974.218 226.8 972.491 228.669 971.231C230.553 969.979 232.698 969.215 235.106 968.94C237.522 968.651 240.153 968.852 243 969.545C245.869 970.23 248.871 971.426 252.005 973.13Z" fill="#151700"/>
<path d="M275.869 1016.15C274.87 1018.66 274.279 1021.03 274.097 1023.27C273.92 1025.49 274.122 1027.51 274.703 1029.34C275.304 1031.17 276.277 1032.77 277.623 1034.15C278.984 1035.53 280.698 1036.63 282.765 1037.46C284.549 1038.17 286.221 1038.53 287.781 1038.55C289.361 1038.55 290.829 1038.29 292.182 1037.74C293.536 1037.19 294.769 1036.41 295.881 1035.39C297.013 1034.36 298.014 1033.16 298.881 1031.8L310.055 1036.24C309.028 1038.09 307.846 1039.76 306.509 1041.26C305.187 1042.77 303.734 1044.09 302.15 1045.21C300.572 1046.33 298.879 1047.23 297.071 1047.92C295.269 1048.6 293.379 1049.04 291.401 1049.26C289.422 1049.47 287.375 1049.42 285.259 1049.11C283.158 1048.81 281.007 1048.22 278.806 1047.35C276.383 1046.39 274.205 1045.19 272.274 1043.77C270.351 1042.37 268.693 1040.78 267.299 1039C265.904 1037.23 264.78 1035.29 263.926 1033.2C263.086 1031.11 262.542 1028.9 262.294 1026.58C262.066 1024.25 262.139 1021.84 262.514 1019.33C262.889 1016.83 263.594 1014.28 264.628 1011.68C266.182 1007.77 268.179 1004.45 270.619 1001.74C273.073 999.031 275.827 996.975 278.881 995.572C281.942 994.154 285.219 993.425 288.713 993.384C292.207 993.344 295.775 994.048 299.418 995.496C302.719 996.808 305.503 998.509 307.772 1000.6C310.061 1002.68 311.834 1005.02 313.09 1007.62C314.347 1010.22 315.091 1013 315.323 1015.97C315.576 1018.93 315.307 1021.95 314.514 1025.02L303.34 1020.58C303.658 1019 303.756 1017.46 303.633 1015.95C303.532 1014.43 303.177 1013 302.568 1011.68C301.959 1010.35 301.074 1009.15 299.913 1008.09C298.758 1007.01 297.288 1006.12 295.504 1005.41C293.437 1004.59 291.434 1004.21 289.494 1004.28C287.569 1004.36 285.759 1004.87 284.064 1005.79C282.391 1006.71 280.856 1008.04 279.46 1009.77C278.065 1011.51 276.867 1013.63 275.869 1016.15Z" fill="#151700"/>
<path d="M319.049 1060.19L307.421 1057.04L326.02 988.476L337.647 991.63L328.82 1024.17C330.114 1021.72 331.586 1019.63 333.235 1017.89C334.885 1016.15 336.68 1014.78 338.621 1013.8C340.577 1012.82 342.657 1012.24 344.862 1012.06C347.07 1011.87 349.363 1012.09 351.741 1012.74C354.567 1013.5 356.934 1014.71 358.842 1016.35C360.77 1017.99 362.22 1020 363.193 1022.41C364.181 1024.81 364.676 1027.58 364.676 1030.69C364.68 1033.79 364.179 1037.2 363.174 1040.9L355.276 1070.02L343.648 1066.86L351.232 1038.91C353.804 1029.43 351.253 1023.64 343.578 1021.56C341.524 1021.01 339.596 1020.84 337.795 1021.06C335.993 1021.29 334.355 1021.89 332.88 1022.86C331.41 1023.82 330.129 1025.15 329.04 1026.84C327.951 1028.54 327.081 1030.58 326.432 1032.98L319.049 1060.19Z" fill="#151700"/>
<path d="M420.793 1063.26C419.636 1066.1 418.139 1068.58 416.304 1070.69C414.468 1072.8 412.364 1074.51 409.991 1075.8C407.619 1077.1 405.021 1077.98 402.198 1078.43C399.375 1078.88 396.406 1078.86 393.292 1078.37C390.699 1077.97 388.296 1077.28 386.081 1076.32C383.883 1075.36 381.907 1074.17 380.154 1072.75C378.403 1071.31 376.887 1069.66 375.605 1067.81C374.326 1065.94 373.316 1063.91 372.575 1061.7C371.837 1059.48 371.374 1057.11 371.185 1054.59C370.996 1052.06 371.116 1049.43 371.546 1046.68C372.188 1042.57 373.389 1038.92 375.151 1035.72C376.928 1032.54 379.134 1029.92 381.77 1027.87C384.409 1025.8 387.411 1024.36 390.778 1023.54C394.147 1022.71 397.76 1022.59 401.617 1023.19C405.411 1023.79 408.748 1024.97 411.628 1026.75C414.524 1028.53 416.877 1030.78 418.686 1033.51C420.497 1036.22 421.731 1039.36 422.388 1042.93C423.048 1046.48 423.053 1050.34 422.404 1054.5C422.308 1055.11 422.196 1055.73 422.068 1056.34C421.956 1056.95 421.807 1057.59 421.622 1058.26L382.733 1052.19C382.645 1054.41 382.854 1056.44 383.36 1058.29C383.884 1060.12 384.676 1061.73 385.737 1063.13C386.799 1064.52 388.118 1065.67 389.695 1066.56C391.287 1067.46 393.111 1068.07 395.166 1068.39C398.296 1068.88 401.029 1068.54 403.363 1067.39C405.698 1066.23 407.682 1064.25 409.316 1061.47L420.793 1063.26ZM411.36 1047.91C411.376 1043.66 410.43 1040.28 408.521 1037.78C406.631 1035.26 403.828 1033.72 400.113 1033.14C398.216 1032.84 396.44 1032.86 394.787 1033.18C393.133 1033.5 391.628 1034.12 390.272 1035.03C388.932 1035.93 387.751 1037.12 386.729 1038.58C385.71 1040.02 384.878 1041.72 384.232 1043.68L411.36 1047.91Z" fill="#151700"/>
<path d="M478.802 1013.94L474.246 1084.84L462.223 1084.06L463.26 1067.92C462.445 1070.63 461.393 1073.03 460.104 1075.12C458.815 1077.22 457.323 1078.98 455.629 1080.39C453.952 1081.79 452.082 1082.83 450.018 1083.5C447.97 1084.18 445.78 1084.45 443.449 1084.3C441.326 1084.16 439.326 1083.72 437.45 1082.98C435.59 1082.23 433.882 1081.23 432.328 1079.98C430.79 1078.71 429.427 1077.21 428.239 1075.48C427.053 1073.74 426.071 1071.81 425.293 1069.69C424.515 1067.57 423.957 1065.28 423.618 1062.82C423.296 1060.35 423.222 1057.76 423.396 1055.04C423.571 1052.33 423.975 1049.77 424.61 1047.38C425.262 1044.96 426.109 1042.76 427.152 1040.76C428.194 1038.76 429.415 1036.97 430.814 1035.41C432.214 1033.84 433.757 1032.52 435.444 1031.48C437.146 1030.43 438.968 1029.66 440.908 1029.16C442.864 1028.66 444.904 1028.48 447.027 1028.61C449.359 1028.76 451.496 1029.31 453.439 1030.25C455.4 1031.18 457.122 1032.45 458.605 1034.07C460.105 1035.68 461.361 1037.6 462.371 1039.85C463.381 1042.09 464.117 1044.61 464.579 1047.39L466.778 1013.17L478.802 1013.94ZM463.921 1057.65C464.097 1054.9 463.927 1052.43 463.411 1050.23C462.911 1048.03 462.094 1046.15 460.96 1044.59C459.826 1043.02 458.39 1041.79 456.652 1040.9C454.93 1040 452.935 1039.48 450.667 1039.33C448.368 1039.19 446.316 1039.43 444.512 1040.07C442.723 1040.71 441.183 1041.72 439.891 1043.11C438.616 1044.49 437.605 1046.25 436.859 1048.38C436.114 1050.5 435.65 1052.98 435.467 1055.82C435.285 1058.66 435.427 1061.19 435.894 1063.4C436.362 1065.59 437.14 1067.46 438.227 1069.01C439.33 1070.55 440.728 1071.76 442.42 1072.62C444.128 1073.48 446.132 1073.99 448.431 1074.13C450.683 1074.28 452.72 1074.02 454.542 1073.35C456.381 1072.68 457.963 1071.64 459.288 1070.24C460.629 1068.82 461.689 1067.05 462.466 1064.94C463.259 1062.82 463.744 1060.39 463.921 1057.65Z" fill="#151700"/>
<path d="M525.016 1031.62L537.062 1031.38L538.119 1084.28L526.073 1084.53L525.762 1068.93C525.224 1071.64 524.4 1074.07 523.291 1076.2C522.197 1078.34 520.849 1080.15 519.246 1081.64C517.66 1083.12 515.834 1084.27 513.77 1085.06C511.705 1085.87 509.441 1086.3 506.978 1086.35C504.05 1086.41 501.432 1085.92 499.123 1084.9C496.83 1083.85 494.871 1082.32 493.246 1080.28C491.637 1078.25 490.395 1075.75 489.519 1072.77C488.643 1069.78 488.167 1066.37 488.09 1062.53L487.488 1032.37L499.534 1032.12L500.112 1061.09C500.308 1070.91 504.382 1075.74 512.332 1075.58C514.476 1075.54 516.38 1075.16 518.046 1074.44C519.712 1073.71 521.108 1072.69 522.233 1071.35C523.375 1070 524.23 1068.36 524.8 1066.43C525.369 1064.48 525.629 1062.27 525.58 1059.81L525.016 1031.62Z" fill="#151700"/>
<path d="M556.914 1082.88L544.891 1083.66L540.293 1012.77L552.315 1011.99L556.914 1082.88Z" fill="#151700"/>
<path d="M614.663 1059.51C614.283 1062.56 613.48 1065.34 612.254 1067.85C611.028 1070.37 609.437 1072.56 607.481 1074.42C605.526 1076.29 603.243 1077.81 600.632 1078.97C598.022 1080.14 595.15 1080.89 592.016 1081.23C589.407 1081.51 586.909 1081.47 584.521 1081.12C582.15 1080.76 579.933 1080.12 577.87 1079.2C575.806 1078.27 573.915 1077.07 572.198 1075.61C570.479 1074.14 568.976 1072.43 567.689 1070.5C566.401 1068.54 565.339 1066.37 564.502 1063.98C563.666 1061.6 563.099 1059.02 562.802 1056.25C562.357 1052.11 562.572 1048.28 563.446 1044.74C564.337 1041.2 565.79 1038.1 567.804 1035.44C569.818 1032.76 572.344 1030.59 575.384 1028.92C578.422 1027.25 581.881 1026.2 585.763 1025.78C589.581 1025.37 593.111 1025.65 596.354 1026.62C599.612 1027.59 602.468 1029.16 604.922 1031.32C607.374 1033.47 609.379 1036.19 610.938 1039.46C612.496 1042.72 613.5 1046.44 613.95 1050.63C614.016 1051.25 614.067 1051.87 614.102 1052.49C614.153 1053.12 614.175 1053.77 614.169 1054.47L575.035 1058.68C575.526 1060.84 576.254 1062.75 577.22 1064.4C578.2 1066.04 579.384 1067.39 580.77 1068.46C582.157 1069.54 583.728 1070.3 585.483 1070.76C587.253 1071.21 589.173 1071.32 591.241 1071.1C594.391 1070.76 596.943 1069.73 598.898 1068.01C600.853 1066.29 602.258 1063.87 603.114 1060.75L614.663 1059.51ZM601.577 1047.13C600.49 1043.02 598.702 1040 596.21 1038.08C593.732 1036.14 590.624 1035.37 586.886 1035.77C584.977 1035.98 583.266 1036.45 581.753 1037.19C580.239 1037.94 578.945 1038.92 577.87 1040.15C576.811 1041.37 575.977 1042.82 575.369 1044.49C574.758 1046.15 574.395 1048.01 574.278 1050.07L601.577 1047.13Z" fill="#151700"/>
<path d="M638.448 1039.73C637.889 1036.66 637.952 1033.79 638.635 1031.11C639.319 1028.43 640.55 1026.04 642.329 1023.92C644.12 1021.79 646.434 1019.99 649.272 1018.51C652.125 1017.03 655.425 1015.95 659.172 1015.27C663.091 1014.56 666.687 1014.43 669.959 1014.89C673.246 1015.35 676.136 1016.36 678.629 1017.9C681.138 1019.45 683.214 1021.52 684.858 1024.11C686.501 1026.71 687.645 1029.78 688.289 1033.32L693.909 1064.2L682.056 1066.36L679.573 1052.71C679.383 1055.15 678.836 1057.42 677.934 1059.52C677.044 1061.6 675.828 1063.46 674.287 1065.09C672.743 1066.7 670.901 1068.06 668.76 1069.17C666.635 1070.27 664.251 1071.06 661.606 1071.54C658.851 1072.05 656.272 1072.13 653.867 1071.78C651.482 1071.45 649.363 1070.76 647.511 1069.69C645.659 1068.63 644.119 1067.23 642.891 1065.49C641.676 1063.72 640.856 1061.68 640.432 1059.35C639.991 1056.92 640.076 1054.66 640.686 1052.57C641.297 1050.47 642.378 1048.59 643.929 1046.93C645.496 1045.26 647.514 1043.84 649.982 1042.66C652.448 1041.46 655.31 1040.56 658.568 1039.97L676.655 1036.68L676.436 1035.47C676.078 1033.51 675.45 1031.8 674.553 1030.35C673.652 1028.89 672.519 1027.71 671.154 1026.82C669.804 1025.93 668.25 1025.34 666.491 1025.06C664.732 1024.78 662.814 1024.83 660.736 1025.21C658.627 1025.59 656.837 1026.17 655.368 1026.94C653.911 1027.69 652.759 1028.6 651.912 1029.67C651.065 1030.73 650.511 1031.93 650.249 1033.26C649.987 1034.6 649.997 1036.03 650.277 1037.58L638.448 1039.73ZM660.765 1048.16C657.523 1048.75 655.166 1049.74 653.695 1051.13C652.24 1052.51 651.705 1054.27 652.092 1056.4C652.499 1058.63 653.716 1060.18 655.744 1061.05C657.785 1061.9 660.521 1062.01 663.953 1061.38C666.377 1060.94 668.552 1060.25 670.476 1059.29C672.414 1058.32 674.019 1057.18 675.291 1055.86C676.578 1054.53 677.5 1053.07 678.055 1051.48C678.623 1049.86 678.75 1048.19 678.438 1046.48L678.168 1044.99L660.765 1048.16Z" fill="#151700"/>
<path d="M742.486 1026.19C742.793 1028.88 743.393 1031.25 744.288 1033.3C745.181 1035.34 746.315 1037.03 747.692 1038.38C749.083 1039.7 750.697 1040.65 752.535 1041.23C754.388 1041.81 756.42 1041.97 758.629 1041.72C760.537 1041.5 762.182 1041.03 763.565 1040.31C764.963 1039.57 766.129 1038.64 767.064 1037.52C767.999 1036.4 768.715 1035.12 769.213 1033.7C769.725 1032.26 770.042 1030.73 770.165 1029.12L782.111 1027.76C782.078 1029.87 781.827 1031.91 781.357 1033.86C780.904 1035.81 780.245 1037.66 779.38 1039.4C778.514 1041.13 777.448 1042.72 776.182 1044.19C774.914 1045.63 773.458 1046.92 771.814 1048.04C770.171 1049.16 768.344 1050.09 766.333 1050.82C764.339 1051.54 762.165 1052.04 759.813 1052.31C757.221 1052.6 754.739 1052.58 752.365 1052.24C750.009 1051.91 747.796 1051.29 745.728 1050.39C743.66 1049.48 741.755 1048.3 740.012 1046.86C738.285 1045.41 736.764 1043.73 735.449 1041.8C734.149 1039.86 733.073 1037.69 732.221 1035.31C731.37 1032.93 730.785 1030.34 730.468 1027.56C729.992 1023.38 730.187 1019.52 731.055 1015.97C731.939 1012.42 733.396 1009.31 735.425 1006.63C737.453 1003.94 739.997 1001.75 743.058 1000.06C746.119 998.376 749.597 997.311 753.491 996.867C757.02 996.465 760.278 996.649 763.265 997.42C766.265 998.172 768.933 999.398 771.269 1001.1C773.604 1002.79 775.575 1004.9 777.181 1007.4C778.802 1009.89 779.989 1012.68 780.744 1015.77L768.797 1017.13C768.331 1015.59 767.688 1014.18 766.866 1012.9C766.058 1011.61 765.073 1010.52 763.909 1009.64C762.746 1008.76 761.401 1008.12 759.875 1007.73C758.348 1007.33 756.63 1007.23 754.722 1007.45C752.513 1007.7 750.57 1008.32 748.894 1009.3C747.234 1010.28 745.877 1011.58 744.821 1013.19C743.78 1014.79 743.054 1016.69 742.643 1018.88C742.232 1021.07 742.18 1023.5 742.486 1026.19Z" fill="#151700"/>
<path d="M785.915 1014.3C786.215 1011.19 787.059 1008.44 788.448 1006.05C789.836 1003.66 791.674 1001.7 793.961 1000.15C796.266 998.587 798.985 997.483 802.118 996.838C805.266 996.194 808.736 996.055 812.526 996.421C816.491 996.805 819.985 997.665 823.006 999.002C826.044 1000.34 828.551 1002.09 830.527 1004.26C832.52 1006.43 833.952 1008.99 834.825 1011.93C835.697 1014.88 835.961 1018.14 835.614 1021.73L832.594 1052.97L820.602 1051.82L821.936 1038.01C821.087 1040.3 819.942 1042.34 818.501 1044.11C817.077 1045.87 815.402 1047.33 813.474 1048.47C811.548 1049.61 809.405 1050.41 807.044 1050.89C804.699 1051.37 802.188 1051.48 799.513 1051.22C796.726 1050.95 794.223 1050.33 792.003 1049.34C789.798 1048.37 787.95 1047.12 786.458 1045.6C784.966 1044.07 783.867 1042.3 783.161 1040.29C782.473 1038.26 782.243 1036.07 782.471 1033.71C782.708 1031.26 783.406 1029.11 784.565 1027.26C785.725 1025.41 787.277 1023.9 789.224 1022.72C791.186 1021.54 793.516 1020.72 796.213 1020.26C798.911 1019.78 801.909 1019.7 805.206 1020.02L823.504 1021.79L823.622 1020.57C823.815 1018.58 823.676 1016.76 823.208 1015.13C822.741 1013.48 821.972 1012.03 820.901 1010.81C819.846 1009.58 818.511 1008.59 816.896 1007.84C815.28 1007.09 813.422 1006.61 811.32 1006.41C809.186 1006.2 807.306 1006.27 805.682 1006.61C804.075 1006.94 802.719 1007.5 801.613 1008.29C800.508 1009.08 799.648 1010.09 799.032 1011.3C798.417 1012.51 798.034 1013.89 797.883 1015.45L785.915 1014.3ZM805.086 1028.49C801.805 1028.18 799.267 1028.49 797.473 1029.42C795.695 1030.36 794.701 1031.9 794.494 1034.05C794.275 1036.31 795.023 1038.14 796.737 1039.53C798.469 1040.9 801.071 1041.75 804.543 1042.09C806.996 1042.33 809.278 1042.25 811.389 1041.86C813.518 1041.45 815.374 1040.79 816.959 1039.87C818.559 1038.94 819.844 1037.79 820.814 1036.4C821.801 1035 822.378 1033.44 822.546 1031.7L822.692 1030.2L805.086 1028.49Z" fill="#151700"/>
<path d="M849.526 1057.46L837.754 1054.89L852.874 985.482L864.646 988.046L849.526 1057.46Z" fill="#151700"/>
<path d="M866.474 1061.85L854.838 1058.72L873.258 990.114L884.894 993.238L866.474 1061.85Z" fill="#151700"/>
<path d="M942.905 1065.52L902.733 1049.64L906.758 1039.46L946.93 1055.35L942.905 1065.52Z" fill="#151700"/>
<path d="M1005.1 1059.35C1008.46 1061 1011.28 1062.84 1013.54 1064.88C1015.8 1066.92 1017.49 1069.08 1018.62 1071.36C1019.74 1073.64 1020.29 1076 1020.25 1078.44C1020.22 1080.89 1019.6 1083.36 1018.38 1085.84L1007.76 1080.63C1008.33 1079.46 1008.61 1078.3 1008.61 1077.14C1008.63 1075.99 1008.35 1074.86 1007.78 1073.77C1007.23 1072.68 1006.4 1071.63 1005.28 1070.64C1004.17 1069.65 1002.76 1068.73 1001.07 1067.9C999.557 1067.16 998.108 1066.63 996.717 1066.3C995.348 1065.97 994.092 1065.84 992.947 1065.92C991.803 1066 990.803 1066.28 989.948 1066.75C989.107 1067.23 988.471 1067.9 988.041 1068.78C987.533 1069.81 987.419 1070.81 987.698 1071.76C987.998 1072.71 988.549 1073.64 989.349 1074.55C990.15 1075.46 991.119 1076.36 992.256 1077.24C993.414 1078.11 994.601 1078.98 995.817 1079.84L998.73 1081.91C999.931 1082.77 1001.18 1083.69 1002.48 1084.67C1003.79 1085.63 1005.04 1086.68 1006.23 1087.82C1007.42 1088.95 1008.49 1090.17 1009.44 1091.48C1010.39 1092.76 1011.11 1094.15 1011.59 1095.64C1012.07 1097.12 1012.26 1098.71 1012.14 1100.4C1012.03 1102.07 1011.51 1103.86 1010.57 1105.78C1009.41 1108.14 1007.9 1110.02 1006.05 1111.39C1004.2 1112.76 1002.04 1113.63 999.562 1113.98C997.103 1114.34 994.354 1114.19 991.316 1113.51C988.277 1112.84 984.991 1111.64 981.458 1109.9C977.767 1108.09 974.701 1106.13 972.26 1104.02C969.812 1101.93 967.989 1099.72 966.792 1097.41C965.601 1095.08 965.033 1092.66 965.086 1090.15C965.147 1087.63 965.826 1085.05 967.124 1082.41L977.744 1087.63C976.489 1090.18 976.485 1092.62 977.733 1094.95C978.987 1097.26 981.604 1099.39 985.582 1101.34C987.349 1102.21 988.995 1102.85 990.522 1103.26C992.064 1103.68 993.443 1103.86 994.659 1103.82C995.889 1103.78 996.943 1103.5 997.819 1102.99C998.71 1102.48 999.395 1101.74 999.875 1100.76C1000.26 1099.99 1000.44 1099.24 1000.44 1098.53C1000.43 1097.81 1000.27 1097.11 999.951 1096.42C999.652 1095.72 999.218 1095.04 998.648 1094.39C998.085 1093.72 997.429 1093.06 996.68 1092.4C995.938 1091.74 995.125 1091.07 994.24 1090.4C993.37 1089.75 992.467 1089.08 991.532 1088.41L988.608 1086.3C987.795 1085.71 986.939 1085.07 986.039 1084.4C985.154 1083.73 984.262 1083.03 983.362 1082.28C982.484 1081.53 981.634 1080.74 980.812 1079.91C979.997 1079.06 979.258 1078.17 978.592 1077.24C977.927 1076.31 977.362 1075.33 976.897 1074.32C976.453 1073.3 976.149 1072.23 975.983 1071.12C975.839 1070 975.863 1068.82 976.054 1067.6C976.26 1066.38 976.687 1065.11 977.336 1063.79C978.436 1061.55 979.894 1059.76 981.709 1058.42C983.538 1057.09 985.65 1056.24 988.045 1055.87C990.446 1055.48 993.084 1055.57 995.957 1056.14C998.852 1056.71 1001.9 1057.78 1005.1 1059.35Z" fill="#151700"/>
<path d="M1030.42 1103.31C1029.18 1105.71 1028.35 1108.01 1027.95 1110.22C1027.56 1112.41 1027.56 1114.45 1027.95 1116.33C1028.37 1118.2 1029.18 1119.89 1030.39 1121.39C1031.6 1122.91 1033.2 1124.17 1035.17 1125.2C1036.88 1126.08 1038.51 1126.6 1040.06 1126.78C1041.63 1126.94 1043.12 1126.82 1044.52 1126.41C1045.92 1126 1047.22 1125.34 1048.43 1124.43C1049.66 1123.52 1050.77 1122.43 1051.77 1121.16L1062.45 1126.68C1061.25 1128.42 1059.91 1129.97 1058.43 1131.33C1056.96 1132.7 1055.39 1133.87 1053.7 1134.83C1052.02 1135.78 1050.24 1136.51 1048.38 1137.02C1046.52 1137.52 1044.59 1137.78 1042.6 1137.79C1040.61 1137.81 1038.58 1137.56 1036.5 1137.04C1034.44 1136.53 1032.36 1135.74 1030.26 1134.65C1027.94 1133.45 1025.89 1132.05 1024.11 1130.44C1022.34 1128.86 1020.84 1127.11 1019.63 1125.21C1018.42 1123.3 1017.49 1121.26 1016.85 1119.09C1016.22 1116.93 1015.9 1114.68 1015.88 1112.35C1015.88 1110.01 1016.19 1107.61 1016.81 1105.16C1017.43 1102.71 1018.39 1100.24 1019.67 1097.75C1021.61 1094.01 1023.92 1090.91 1026.62 1088.45C1029.33 1086 1032.27 1084.23 1035.45 1083.13C1038.63 1082.02 1041.97 1081.62 1045.45 1081.93C1048.93 1082.23 1052.41 1083.28 1055.89 1085.09C1059.05 1086.72 1061.65 1088.68 1063.7 1090.99C1065.77 1093.29 1067.31 1095.79 1068.3 1098.5C1069.29 1101.21 1069.76 1104.06 1069.7 1107.03C1069.66 1110 1069.09 1112.98 1068 1115.96L1057.32 1110.44C1057.79 1108.9 1058.04 1107.37 1058.07 1105.85C1058.12 1104.33 1057.9 1102.88 1057.43 1101.5C1056.95 1100.12 1056.19 1098.84 1055.14 1097.67C1054.1 1096.48 1052.72 1095.44 1051.02 1094.56C1049.04 1093.54 1047.09 1092.97 1045.15 1092.85C1043.22 1092.74 1041.37 1093.06 1039.6 1093.82C1037.84 1094.56 1036.18 1095.73 1034.62 1097.32C1033.06 1098.91 1031.66 1100.91 1030.42 1103.31Z" fill="#151700"/>
<path d="M1068.36 1152.76L1057.61 1147.32L1089.7 1083.93L1100.44 1089.38L1085.22 1119.46C1086.98 1117.32 1088.84 1115.57 1090.81 1114.2C1092.78 1112.83 1094.81 1111.86 1096.91 1111.29C1099.03 1110.72 1101.18 1110.58 1103.38 1110.85C1105.58 1111.1 1107.78 1111.78 1109.98 1112.9C1112.59 1114.22 1114.66 1115.88 1116.2 1117.88C1117.76 1119.87 1118.77 1122.14 1119.23 1124.69C1119.72 1127.24 1119.64 1130.05 1119.01 1133.1C1118.39 1136.14 1117.21 1139.37 1115.47 1142.8L1101.85 1169.71L1091.1 1164.27L1104.18 1138.42C1108.62 1129.66 1107.29 1123.48 1100.2 1119.89C1098.3 1118.93 1096.44 1118.38 1094.63 1118.23C1092.82 1118.09 1091.1 1118.34 1089.46 1119C1087.82 1119.64 1086.3 1120.68 1084.89 1122.12C1083.48 1123.56 1082.22 1125.38 1081.1 1127.6L1068.36 1152.76Z" fill="#151700"/>
<path d="M1160.99 1177.44C1159.11 1179.87 1157.01 1181.86 1154.68 1183.4C1152.35 1184.95 1149.86 1186.03 1147.23 1186.65C1144.6 1187.26 1141.86 1187.41 1139.02 1187.09C1136.18 1186.77 1133.32 1185.96 1130.45 1184.67C1128.06 1183.58 1125.93 1182.28 1124.05 1180.77C1122.19 1179.26 1120.6 1177.58 1119.29 1175.74C1117.99 1173.89 1116.96 1171.9 1116.22 1169.77C1115.49 1167.63 1115.06 1165.4 1114.93 1163.08C1114.81 1160.74 1115 1158.33 1115.49 1155.85C1115.98 1153.36 1116.8 1150.85 1117.95 1148.32C1119.66 1144.53 1121.8 1141.33 1124.34 1138.73C1126.91 1136.13 1129.73 1134.19 1132.82 1132.92C1135.91 1131.63 1139.19 1131.04 1142.65 1131.15C1146.12 1131.25 1149.64 1132.1 1153.19 1133.71C1156.69 1135.29 1159.59 1137.32 1161.89 1139.81C1164.21 1142.29 1165.88 1145.09 1166.89 1148.21C1167.91 1151.3 1168.27 1154.66 1167.95 1158.27C1167.64 1161.87 1166.61 1165.59 1164.88 1169.42C1164.62 1169.99 1164.35 1170.55 1164.06 1171.11C1163.79 1171.67 1163.48 1172.25 1163.12 1172.84L1127.26 1156.62C1126.58 1158.73 1126.24 1160.75 1126.24 1162.66C1126.25 1164.56 1126.59 1166.33 1127.24 1167.96C1127.89 1169.59 1128.85 1171.04 1130.14 1172.33C1131.43 1173.61 1133.03 1174.69 1134.92 1175.55C1137.81 1176.85 1140.53 1177.26 1143.09 1176.76C1145.65 1176.27 1148.09 1174.9 1150.41 1172.65L1160.99 1177.44ZM1155.99 1160.13C1157.14 1156.03 1157.13 1152.53 1155.96 1149.61C1154.81 1146.68 1152.52 1144.44 1149.09 1142.89C1147.34 1142.1 1145.63 1141.64 1143.95 1141.51C1142.27 1141.38 1140.65 1141.57 1139.1 1142.09C1137.57 1142.6 1136.12 1143.43 1134.74 1144.56C1133.37 1145.68 1132.12 1147.1 1130.98 1148.81L1155.99 1160.13Z" fill="#151700"/>
<path d="M1234.59 1147.14L1211.66 1214.38L1200.25 1210.49L1205.48 1195.18C1203.98 1197.58 1202.34 1199.62 1200.55 1201.31C1198.75 1202.99 1196.85 1204.3 1194.85 1205.22C1192.86 1206.13 1190.79 1206.64 1188.62 1206.75C1186.47 1206.88 1184.28 1206.56 1182.07 1205.81C1180.06 1205.12 1178.24 1204.17 1176.63 1202.96C1175.03 1201.76 1173.64 1200.35 1172.47 1198.73C1171.31 1197.1 1170.39 1195.3 1169.7 1193.32C1169.01 1191.33 1168.56 1189.21 1168.37 1186.96C1168.17 1184.71 1168.23 1182.36 1168.54 1179.89C1168.88 1177.42 1169.49 1174.9 1170.36 1172.33C1171.24 1169.75 1172.3 1167.39 1173.54 1165.24C1174.8 1163.09 1176.19 1161.18 1177.72 1159.52C1179.25 1157.86 1180.9 1156.46 1182.65 1155.32C1184.42 1154.16 1186.25 1153.3 1188.15 1152.73C1190.07 1152.17 1192.03 1151.9 1194.03 1151.92C1196.05 1151.95 1198.07 1152.31 1200.08 1152.99C1202.29 1153.75 1204.21 1154.83 1205.84 1156.25C1207.49 1157.66 1208.82 1159.34 1209.83 1161.29C1210.86 1163.23 1211.57 1165.41 1211.96 1167.85C1212.34 1170.28 1212.4 1172.9 1212.11 1175.71L1223.18 1143.25L1234.59 1147.14ZM1208.8 1185.43C1209.69 1182.83 1210.17 1180.4 1210.25 1178.14C1210.34 1175.89 1210.04 1173.86 1209.35 1172.06C1208.67 1170.25 1207.6 1168.69 1206.16 1167.37C1204.73 1166.05 1202.94 1165.03 1200.79 1164.29C1198.61 1163.55 1196.57 1163.25 1194.66 1163.39C1192.77 1163.54 1191.01 1164.12 1189.4 1165.13C1187.81 1166.12 1186.38 1167.55 1185.1 1169.41C1183.83 1171.26 1182.73 1173.53 1181.81 1176.23C1180.89 1178.93 1180.37 1181.4 1180.24 1183.66C1180.12 1185.9 1180.38 1187.91 1181.03 1189.68C1181.69 1191.46 1182.72 1192.99 1184.13 1194.26C1185.55 1195.54 1187.36 1196.55 1189.54 1197.3C1191.67 1198.03 1193.71 1198.31 1195.64 1198.14C1197.59 1197.97 1199.39 1197.39 1201.03 1196.38C1202.7 1195.36 1204.19 1193.93 1205.49 1192.09C1206.81 1190.26 1207.91 1188.04 1208.8 1185.43Z" fill="#151700"/>
<path d="M1270.27 1171.59L1282.19 1173.4L1274.25 1225.72L1262.34 1223.91L1264.68 1208.49C1263.69 1211.07 1262.47 1213.32 1261.01 1215.24C1259.57 1217.16 1257.93 1218.71 1256.1 1219.91C1254.29 1221.1 1252.29 1221.92 1250.12 1222.35C1247.95 1222.8 1245.65 1222.84 1243.21 1222.47C1240.32 1222.03 1237.82 1221.11 1235.72 1219.7C1233.63 1218.29 1231.96 1216.44 1230.71 1214.16C1229.47 1211.89 1228.67 1209.21 1228.31 1206.13C1227.95 1203.03 1228.06 1199.59 1228.64 1195.79L1233.16 1165.96L1245.07 1167.77L1240.73 1196.41C1239.26 1206.12 1242.45 1211.57 1250.32 1212.77C1252.44 1213.09 1254.38 1213.03 1256.14 1212.61C1257.91 1212.18 1259.46 1211.4 1260.79 1210.28C1262.14 1209.14 1263.27 1207.67 1264.16 1205.86C1265.05 1204.04 1265.68 1201.91 1266.05 1199.47L1270.27 1171.59Z" fill="#151700"/>
<path d="M1296.07 1224.92L1284.02 1225.11L1282.89 1154.08L1294.93 1153.89L1296.07 1224.92Z" fill="#151700"/>
<path d="M1355.55 1196.49C1355.56 1199.56 1355.12 1202.42 1354.23 1205.07C1353.33 1207.72 1352.04 1210.1 1350.33 1212.2C1348.63 1214.3 1346.56 1216.1 1344.12 1217.59C1341.69 1219.08 1338.93 1220.19 1335.87 1220.93C1333.32 1221.54 1330.83 1221.82 1328.42 1221.78C1326.02 1221.73 1323.74 1221.38 1321.58 1220.73C1319.41 1220.06 1317.38 1219.12 1315.49 1217.89C1313.6 1216.65 1311.89 1215.15 1310.37 1213.4C1308.84 1211.62 1307.51 1209.61 1306.37 1207.34C1305.24 1205.08 1304.35 1202.6 1303.7 1199.89C1302.73 1195.85 1302.45 1192.01 1302.86 1188.39C1303.29 1184.77 1304.34 1181.51 1306 1178.61C1307.65 1175.69 1309.88 1173.22 1312.68 1171.18C1315.48 1169.13 1318.77 1167.64 1322.57 1166.73C1326.31 1165.84 1329.84 1165.66 1333.18 1166.21C1336.54 1166.76 1339.57 1167.95 1342.28 1169.78C1344.99 1171.6 1347.32 1174.03 1349.29 1177.08C1351.25 1180.12 1352.72 1183.68 1353.71 1187.77C1353.85 1188.38 1353.98 1188.99 1354.1 1189.6C1354.23 1190.21 1354.33 1190.86 1354.41 1191.55L1316.14 1200.73C1316.9 1202.82 1317.87 1204.62 1319.04 1206.13C1320.22 1207.63 1321.57 1208.82 1323.08 1209.7C1324.59 1210.59 1326.25 1211.15 1328.05 1211.38C1329.86 1211.6 1331.78 1211.47 1333.8 1210.98C1336.88 1210.24 1339.28 1208.89 1341 1206.94C1342.72 1204.98 1343.8 1202.4 1344.25 1199.2L1355.55 1196.49ZM1340.99 1185.89C1339.38 1181.94 1337.22 1179.18 1334.51 1177.59C1331.8 1175.99 1328.62 1175.62 1324.96 1176.5C1323.1 1176.95 1321.46 1177.64 1320.05 1178.57C1318.65 1179.5 1317.49 1180.64 1316.58 1181.99C1315.69 1183.34 1315.05 1184.89 1314.66 1186.62C1314.26 1188.35 1314.14 1190.24 1314.29 1192.29L1340.99 1185.89Z" fill="#151700"/>
<path d="M1376.26 1167.44C1374.33 1164.99 1373.03 1162.42 1372.38 1159.74C1371.72 1157.05 1371.68 1154.36 1372.26 1151.66C1372.84 1148.94 1374.04 1146.26 1375.85 1143.62C1377.67 1140.98 1380.08 1138.47 1383.07 1136.11C1386.19 1133.64 1389.31 1131.84 1392.41 1130.71C1395.53 1129.57 1398.55 1129.1 1401.48 1129.29C1404.42 1129.48 1407.22 1130.33 1409.89 1131.85C1412.56 1133.37 1415.01 1135.54 1417.25 1138.36L1436.72 1162.99L1427.27 1170.46L1418.66 1159.58C1419.64 1161.82 1420.23 1164.08 1420.42 1166.36C1420.61 1168.62 1420.41 1170.82 1419.81 1172.99C1419.21 1175.14 1418.22 1177.2 1416.85 1179.19C1415.49 1181.16 1413.76 1182.98 1411.65 1184.64C1409.45 1186.38 1407.21 1187.66 1404.93 1188.49C1402.67 1189.32 1400.47 1189.7 1398.34 1189.63C1396.21 1189.56 1394.19 1189.05 1392.28 1188.09C1390.38 1187.1 1388.7 1185.68 1387.23 1183.82C1385.7 1181.89 1384.71 1179.86 1384.27 1177.72C1383.82 1175.58 1383.89 1173.41 1384.48 1171.22C1385.08 1169.01 1386.19 1166.8 1387.82 1164.6C1389.43 1162.39 1391.54 1160.25 1394.14 1158.2L1408.56 1146.8L1407.8 1145.84C1406.56 1144.27 1405.2 1143.05 1403.73 1142.2C1402.25 1141.33 1400.69 1140.82 1399.07 1140.68C1397.46 1140.53 1395.81 1140.74 1394.13 1141.32C1392.44 1141.89 1390.77 1142.84 1389.11 1144.15C1387.43 1145.48 1386.12 1146.83 1385.19 1148.2C1384.26 1149.55 1383.67 1150.89 1383.42 1152.23C1383.17 1153.57 1383.25 1154.89 1383.64 1156.19C1384.04 1157.48 1384.72 1158.75 1385.69 1159.98L1376.26 1167.44ZM1399.92 1164.39C1397.34 1166.44 1395.72 1168.42 1395.08 1170.34C1394.44 1172.24 1394.8 1174.05 1396.14 1175.74C1397.54 1177.52 1399.35 1178.32 1401.55 1178.13C1403.75 1177.92 1406.21 1176.74 1408.95 1174.57C1410.88 1173.04 1412.47 1171.41 1413.73 1169.66C1414.98 1167.9 1415.86 1166.13 1416.36 1164.37C1416.88 1162.59 1417 1160.87 1416.74 1159.2C1416.49 1157.51 1415.82 1155.98 1414.73 1154.61L1413.8 1153.42L1399.92 1164.39Z" fill="#151700"/>
<path d="M1448.12 1108.84C1450.45 1110.23 1452.7 1111.19 1454.87 1111.73C1457.04 1112.25 1459.07 1112.38 1460.97 1112.1C1462.86 1111.79 1464.6 1111.09 1466.18 1109.98C1467.76 1108.85 1469.12 1107.34 1470.26 1105.43C1471.25 1103.78 1471.87 1102.19 1472.14 1100.65C1472.4 1099.09 1472.36 1097.6 1472.04 1096.18C1471.72 1094.75 1471.14 1093.41 1470.31 1092.15C1469.47 1090.87 1468.45 1089.69 1467.25 1088.62L1473.41 1078.29C1475.07 1079.6 1476.54 1081.03 1477.8 1082.59C1479.08 1084.14 1480.15 1085.78 1481.01 1087.53C1481.85 1089.26 1482.47 1091.08 1482.87 1092.97C1483.25 1094.86 1483.39 1096.8 1483.29 1098.78C1483.18 1100.77 1482.81 1102.78 1482.17 1104.82C1481.54 1106.85 1480.61 1108.88 1479.4 1110.91C1478.06 1113.15 1476.54 1115.11 1474.83 1116.79C1473.14 1118.47 1471.3 1119.85 1469.33 1120.94C1467.35 1122.04 1465.26 1122.84 1463.05 1123.35C1460.86 1123.84 1458.59 1124.03 1456.26 1123.91C1453.93 1123.76 1451.56 1123.3 1449.15 1122.53C1446.73 1121.76 1444.33 1120.66 1441.92 1119.23C1438.31 1117.07 1435.36 1114.57 1433.07 1111.73C1430.78 1108.88 1429.19 1105.83 1428.29 1102.59C1427.38 1099.34 1427.18 1095.99 1427.7 1092.54C1428.22 1089.08 1429.48 1085.67 1431.49 1082.3C1433.31 1079.25 1435.43 1076.78 1437.86 1074.87C1440.28 1072.94 1442.87 1071.56 1445.64 1070.74C1448.4 1069.91 1451.27 1069.62 1454.24 1069.86C1457.2 1070.08 1460.13 1070.83 1463.05 1072.1L1456.88 1082.43C1455.37 1081.86 1453.86 1081.52 1452.35 1081.4C1450.83 1081.26 1449.37 1081.38 1447.96 1081.77C1446.56 1082.16 1445.24 1082.84 1444 1083.82C1442.75 1084.79 1441.64 1086.1 1440.65 1087.75C1439.51 1089.66 1438.82 1091.57 1438.58 1093.5C1438.36 1095.41 1438.56 1097.28 1439.21 1099.1C1439.85 1100.9 1440.92 1102.63 1442.41 1104.28C1443.9 1105.94 1445.8 1107.46 1448.12 1108.84Z" fill="#151700"/>
<path d="M1463.14 1067.83C1460.12 1067.04 1457.54 1065.77 1455.4 1064.02C1453.26 1062.27 1451.61 1060.14 1450.45 1057.64C1449.27 1055.11 1448.61 1052.26 1448.47 1049.06C1448.34 1045.85 1448.75 1042.4 1449.71 1038.72C1450.72 1034.86 1452.12 1031.55 1453.92 1028.78C1455.73 1025.99 1457.85 1023.8 1460.31 1022.19C1462.77 1020.57 1465.52 1019.56 1468.57 1019.16C1471.61 1018.77 1474.88 1019.03 1478.36 1019.94L1508.73 1027.88L1505.69 1039.53L1492.26 1036.02C1494.4 1037.23 1496.23 1038.68 1497.75 1040.39C1499.26 1042.07 1500.43 1043.96 1501.26 1046.04C1502.07 1048.12 1502.52 1050.37 1502.62 1052.77C1502.72 1055.16 1502.43 1057.66 1501.75 1060.26C1501.05 1062.97 1500.03 1065.34 1498.7 1067.38C1497.4 1069.4 1495.87 1071.03 1494.13 1072.26C1492.38 1073.49 1490.46 1074.29 1488.36 1074.67C1486.25 1075.03 1484.05 1074.91 1481.76 1074.31C1479.38 1073.69 1477.36 1072.65 1475.72 1071.22C1474.08 1069.78 1472.83 1068.01 1471.98 1065.9C1471.13 1063.77 1470.69 1061.34 1470.66 1058.61C1470.61 1055.87 1471.01 1052.89 1471.85 1049.69L1476.5 1031.9L1475.31 1031.59C1473.38 1031.09 1471.57 1030.94 1469.88 1031.14C1468.17 1031.34 1466.63 1031.87 1465.24 1032.73C1463.86 1033.58 1462.68 1034.74 1461.68 1036.21C1460.68 1037.69 1459.91 1039.45 1459.38 1041.49C1458.84 1043.57 1458.61 1045.43 1458.69 1047.09C1458.75 1048.73 1459.09 1050.16 1459.7 1051.37C1460.31 1052.59 1461.16 1053.6 1462.26 1054.4C1463.35 1055.2 1464.66 1055.8 1466.18 1056.19L1463.14 1067.83ZM1480.2 1051.15C1479.36 1054.34 1479.27 1056.9 1479.91 1058.82C1480.55 1060.72 1481.92 1061.95 1484.01 1062.49C1486.2 1063.07 1488.12 1062.62 1489.77 1061.15C1491.4 1059.65 1492.65 1057.22 1493.53 1053.85C1494.16 1051.46 1494.44 1049.2 1494.39 1047.05C1494.33 1044.88 1493.97 1042.95 1493.31 1041.23C1492.65 1039.51 1491.72 1038.06 1490.5 1036.88C1489.28 1035.68 1487.82 1034.86 1486.13 1034.42L1484.67 1034.04L1480.2 1051.15Z" fill="#151700"/>
<path d="M1509.97 1005.09L1508.92 1017.1L1438.15 1010.95L1439.19 998.951L1509.97 1005.09Z" fill="#151700"/>
<path d="M1510.54 982.587L1510.46 994.635L1439.42 994.133L1439.51 982.085L1510.54 982.587Z" fill="#151700"/>
<path d="M1478.93 908.352L1486.66 950.856L1475.89 952.813L1468.17 910.309L1478.93 908.352Z" fill="#151700"/>
<path d="M1432.8 867.436C1431.55 863.907 1430.83 860.624 1430.63 857.586C1430.44 854.548 1430.74 851.82 1431.52 849.402C1432.31 846.983 1433.58 844.915 1435.31 843.197C1437.04 841.464 1439.21 840.136 1441.82 839.211L1445.77 850.363C1444.55 850.796 1443.53 851.428 1442.72 852.258C1441.91 853.073 1441.32 854.07 1440.96 855.251C1440.59 856.417 1440.46 857.745 1440.56 859.236C1440.66 860.727 1441.03 862.363 1441.66 864.142C1442.22 865.726 1442.89 867.12 1443.65 868.325C1444.4 869.521 1445.21 870.49 1446.08 871.232C1446.96 871.975 1447.87 872.476 1448.81 872.737C1449.74 872.983 1450.67 872.942 1451.59 872.616C1452.68 872.232 1453.45 871.6 1453.92 870.72C1454.37 869.831 1454.63 868.782 1454.69 867.571C1454.76 866.36 1454.69 865.043 1454.49 863.62C1454.27 862.187 1454.03 860.737 1453.76 859.269L1453.13 855.751C1452.87 854.299 1452.61 852.768 1452.36 851.158C1452.1 849.554 1451.94 847.93 1451.89 846.286C1451.83 844.642 1451.92 843.024 1452.15 841.43C1452.37 839.842 1452.82 838.349 1453.52 836.949C1454.21 835.549 1455.19 834.286 1456.45 833.159C1457.7 832.037 1459.33 831.121 1461.33 830.41C1463.82 829.529 1466.21 829.243 1468.49 829.555C1470.77 829.866 1472.92 830.759 1474.94 832.234C1476.95 833.695 1478.81 835.727 1480.51 838.331C1482.22 840.936 1483.73 844.093 1485.04 847.803C1486.41 851.679 1487.24 855.223 1487.51 858.437C1487.8 861.645 1487.56 864.496 1486.8 866.99C1486.02 869.489 1484.74 871.616 1482.95 873.37C1481.14 875.13 1478.85 876.501 1476.08 877.485L1472.13 866.332C1474.81 865.381 1476.52 863.638 1477.25 861.104C1477.97 858.576 1477.59 855.223 1476.11 851.045C1475.45 849.19 1474.72 847.582 1473.91 846.221C1473.1 844.844 1472.25 843.747 1471.35 842.929C1470.44 842.096 1469.49 841.557 1468.51 841.313C1467.52 841.053 1466.51 841.105 1465.48 841.468C1464.67 841.757 1464.01 842.159 1463.52 842.674C1463.02 843.19 1462.64 843.806 1462.39 844.525C1462.11 845.233 1461.95 846.021 1461.9 846.887C1461.84 847.759 1461.84 848.69 1461.92 849.68C1461.99 850.676 1462.1 851.721 1462.27 852.816C1462.43 853.896 1462.61 855.003 1462.81 856.138L1463.43 859.687C1463.6 860.681 1463.77 861.732 1463.94 862.843C1464.11 863.938 1464.25 865.066 1464.38 866.227C1464.48 867.379 1464.53 868.54 1464.54 869.709C1464.53 870.883 1464.44 872.036 1464.26 873.168C1464.09 874.299 1463.81 875.39 1463.44 876.44C1463.04 877.479 1462.51 878.456 1461.85 879.369C1461.17 880.272 1460.33 881.095 1459.34 881.838C1458.34 882.565 1457.15 883.174 1455.76 883.666C1453.41 884.5 1451.12 884.761 1448.88 884.448C1446.65 884.121 1444.54 883.255 1442.57 881.85C1440.58 880.45 1438.75 878.541 1437.1 876.123C1435.42 873.695 1433.99 870.799 1432.8 867.436Z" fill="#151700"/>
<path d="M1444.12 819.405C1446.59 818.308 1448.67 817.024 1450.36 815.554C1452.04 814.091 1453.31 812.502 1454.18 810.787C1455.03 809.063 1455.45 807.238 1455.45 805.312C1455.45 803.37 1454.99 801.383 1454.09 799.351C1453.31 797.596 1452.37 796.167 1451.27 795.063C1450.15 793.952 1448.91 793.118 1447.56 792.562C1446.21 792.006 1444.78 791.704 1443.27 791.657C1441.74 791.601 1440.19 791.756 1438.62 792.121L1433.74 781.131C1435.76 780.529 1437.78 780.16 1439.78 780.022C1441.78 779.87 1443.74 779.945 1445.66 780.248C1447.57 780.557 1449.41 781.097 1451.19 781.865C1452.95 782.641 1454.61 783.645 1456.17 784.877C1457.74 786.108 1459.17 787.574 1460.46 789.274C1461.75 790.959 1462.88 792.884 1463.84 795.048C1464.9 797.431 1465.62 799.807 1466.01 802.174C1466.4 804.52 1466.48 806.815 1466.23 809.06C1465.98 811.305 1465.43 813.476 1464.58 815.571C1463.72 817.652 1462.56 819.608 1461.12 821.44C1459.65 823.264 1457.91 824.939 1455.89 826.466C1453.87 827.992 1451.59 829.324 1449.03 830.46C1445.18 832.168 1441.44 833.139 1437.79 833.373C1434.14 833.593 1430.74 833.137 1427.57 832.003C1424.4 830.876 1421.54 829.106 1419.02 826.691C1416.49 824.276 1414.43 821.277 1412.84 817.694C1411.4 814.448 1410.6 811.285 1410.44 808.205C1410.26 805.116 1410.63 802.204 1411.55 799.467C1412.47 796.729 1413.89 794.219 1415.79 791.936C1417.68 789.644 1419.99 787.676 1422.7 786.031L1427.58 797.02C1426.25 797.926 1425.1 798.962 1424.13 800.128C1423.14 801.286 1422.4 802.553 1421.91 803.927C1421.41 805.301 1421.21 806.774 1421.3 808.347C1421.37 809.926 1421.79 811.593 1422.57 813.348C1423.47 815.38 1424.64 817.049 1426.08 818.354C1427.51 819.644 1429.16 820.551 1431.02 821.073C1432.86 821.587 1434.88 821.712 1437.09 821.447C1439.3 821.183 1441.65 820.503 1444.12 819.405Z" fill="#151700"/>
<path d="M1443.57 755.454L1449.06 766.178L1385.82 798.549L1380.33 787.824L1410.35 772.459C1407.67 773.15 1405.13 773.471 1402.73 773.422C1400.33 773.373 1398.11 772.961 1396.08 772.186C1394.04 771.397 1392.21 770.248 1390.6 768.739C1388.97 767.237 1387.59 765.39 1386.47 763.197C1385.13 760.59 1384.43 758.028 1384.36 755.51C1384.28 752.985 1384.79 750.554 1385.92 748.218C1387.03 745.867 1388.74 743.644 1391.05 741.547C1393.34 739.457 1396.19 737.537 1399.61 735.787L1426.47 722.041L1431.96 732.766L1406.17 745.965C1397.43 750.442 1394.87 756.219 1398.49 763.298C1399.46 765.192 1400.63 766.73 1402.01 767.912C1403.39 769.094 1404.93 769.902 1406.65 770.337C1408.35 770.779 1410.19 770.833 1412.18 770.499C1414.16 770.165 1416.26 769.434 1418.47 768.303L1443.57 755.454Z" fill="#151700"/>
<path d="M1382.91 679.387C1385.87 678.572 1388.75 678.25 1391.54 678.422C1394.33 678.594 1396.96 679.226 1399.44 680.318C1401.91 681.411 1404.18 682.94 1406.26 684.906C1408.34 686.872 1410.13 689.238 1411.64 692.005C1412.9 694.308 1413.82 696.631 1414.4 698.973C1414.98 701.3 1415.24 703.593 1415.18 705.851C1415.1 708.116 1414.72 710.321 1414.03 712.465C1413.32 714.617 1412.32 716.657 1411.03 718.587C1409.71 720.525 1408.11 722.336 1406.23 724.022C1404.34 725.708 1402.18 727.218 1399.73 728.552C1396.08 730.545 1392.45 731.814 1388.85 732.359C1385.24 732.889 1381.82 732.733 1378.59 731.89C1375.34 731.054 1372.37 729.55 1369.67 727.377C1366.96 725.212 1364.67 722.416 1362.8 718.99C1360.96 715.619 1359.87 712.25 1359.52 708.883C1359.17 705.501 1359.53 702.263 1360.59 699.168C1361.64 696.08 1363.38 693.189 1365.81 690.495C1368.23 687.809 1371.28 685.458 1374.98 683.442C1375.52 683.143 1376.08 682.859 1376.64 682.588C1377.2 682.303 1377.8 682.031 1378.44 681.771L1397.29 716.321C1399.11 715.038 1400.59 713.635 1401.75 712.111C1402.88 710.581 1403.68 708.97 1404.14 707.278C1404.61 705.586 1404.71 703.843 1404.46 702.047C1404.2 700.238 1403.57 698.42 1402.58 696.595C1401.06 693.814 1399.13 691.85 1396.79 690.702C1394.45 689.555 1391.68 689.182 1388.47 689.584L1382.91 679.387ZM1376.48 696.212C1373.09 698.79 1370.98 701.597 1370.16 704.634C1369.32 707.664 1369.8 710.829 1371.6 714.13C1372.52 715.815 1373.61 717.215 1374.88 718.33C1376.14 719.444 1377.55 720.264 1379.09 720.788C1380.63 721.298 1382.28 721.514 1384.06 721.436C1385.83 721.365 1387.68 720.991 1389.63 720.312L1376.48 696.212Z" fill="#151700"/>
<path d="M1309.16 647.786L1373.87 618.473L1378.84 629.448L1364.1 636.122C1366.87 635.57 1369.49 635.369 1371.94 635.521C1374.4 635.672 1376.65 636.163 1378.7 636.993C1380.72 637.816 1382.51 638.98 1384.07 640.486C1385.64 641.971 1386.91 643.778 1387.87 645.906C1388.75 647.844 1389.3 649.816 1389.53 651.823C1389.74 653.815 1389.66 655.792 1389.29 657.754C1388.89 659.707 1388.21 661.615 1387.24 663.475C1386.26 665.342 1385.02 667.117 1383.52 668.8C1382.01 670.482 1380.25 672.051 1378.24 673.506C1376.21 674.953 1373.96 676.238 1371.48 677.361C1369 678.483 1366.56 679.327 1364.14 679.893C1361.71 680.452 1359.36 680.741 1357.11 680.762C1354.85 680.783 1352.7 680.543 1350.67 680.043C1348.62 679.549 1346.73 678.804 1345.02 677.807C1343.3 676.796 1341.76 675.552 1340.4 674.075C1339.04 672.583 1337.92 670.868 1337.04 668.93C1336.08 666.802 1335.56 664.659 1335.48 662.5C1335.37 660.334 1335.69 658.216 1336.42 656.146C1337.13 654.067 1338.24 652.055 1339.74 650.108C1341.25 648.16 1343.12 646.328 1345.37 644.609L1314.13 658.76L1309.16 647.786ZM1354.72 640.371C1352.22 641.506 1350.12 642.818 1348.42 644.307C1346.71 645.781 1345.44 647.387 1344.59 649.123C1343.75 650.859 1343.33 652.705 1343.36 654.661C1343.38 656.602 1343.86 658.608 1344.79 660.677C1345.74 662.776 1346.93 664.472 1348.34 665.765C1349.74 667.043 1351.36 667.925 1353.2 668.411C1355.01 668.888 1357.04 668.955 1359.27 668.611C1361.49 668.274 1363.89 667.517 1366.49 666.342C1369.08 665.167 1371.25 663.854 1372.98 662.402C1374.69 660.957 1375.98 659.391 1376.83 657.706C1377.68 656.005 1378.08 654.205 1378.05 652.307C1378.01 650.393 1377.51 648.387 1376.56 646.288C1375.63 644.233 1374.44 642.559 1372.99 641.264C1371.54 639.955 1369.88 639.047 1368.02 638.539C1366.13 638.022 1364.07 637.918 1361.84 638.227C1359.6 638.52 1357.23 639.235 1354.72 640.371Z" fill="#151700"/>
<path d="M1309.77 597.611L1305.63 586.298L1355.32 568.094L1359.46 579.407L1344.82 584.773C1347.56 584.399 1350.12 584.389 1352.5 584.745C1354.87 585.085 1357.02 585.771 1358.95 586.802C1360.88 587.819 1362.55 589.174 1363.97 590.868C1365.41 592.557 1366.55 594.559 1367.4 596.872C1368.4 599.622 1368.8 602.255 1368.58 604.772C1368.34 607.279 1367.52 609.632 1366.13 611.829C1364.73 614.012 1362.76 616 1360.24 617.796C1357.69 619.597 1354.62 621.158 1351.01 622.479L1322.69 632.856L1318.54 621.544L1345.74 611.579C1354.97 608.199 1358.21 602.776 1355.47 595.31C1354.74 593.296 1353.76 591.619 1352.53 590.279C1351.31 588.938 1349.88 587.952 1348.25 587.322C1346.61 586.682 1344.78 586.407 1342.76 586.496C1340.74 586.591 1338.57 587.063 1336.25 587.91L1309.77 597.611Z" fill="#151700"/>
<path d="M1349.97 550.058L1353.57 561.557L1285.76 582.757L1282.17 571.258L1349.97 550.058Z" fill="#151700"/>
<path d="M1318.23 500.578C1321.31 500.512 1324.18 500.904 1326.84 501.753C1329.51 502.603 1331.9 503.86 1334.03 505.524C1336.17 507.189 1338 509.228 1339.53 511.642C1341.06 514.056 1342.22 516.789 1343.01 519.841C1343.66 522.382 1343.99 524.859 1343.98 527.273C1343.97 529.671 1343.66 531.957 1343.05 534.131C1342.42 536.309 1341.51 538.353 1340.32 540.264C1339.11 542.178 1337.64 543.912 1335.91 545.466C1334.16 547.023 1332.17 548.389 1329.93 549.562C1327.69 550.735 1325.22 551.669 1322.52 552.364C1318.49 553.403 1314.67 553.746 1311.04 553.393C1307.41 553.024 1304.13 552.036 1301.2 550.428C1298.26 548.824 1295.75 546.638 1293.66 543.871C1291.56 541.108 1290.02 537.837 1289.05 534.057C1288.09 530.338 1287.85 526.805 1288.35 523.456C1288.83 520.092 1289.97 517.039 1291.76 514.297C1293.53 511.56 1295.92 509.183 1298.94 507.165C1301.94 505.152 1305.48 503.62 1309.55 502.569C1310.16 502.413 1310.77 502.273 1311.38 502.148C1311.99 502.008 1312.63 501.89 1313.32 501.796L1323.15 539.909C1325.22 539.109 1327.01 538.112 1328.5 536.917C1329.97 535.711 1331.14 534.344 1332 532.817C1332.86 531.289 1333.39 529.624 1333.59 527.822C1333.78 526.004 1333.62 524.089 1333.1 522.075C1332.31 519.007 1330.92 516.631 1328.93 514.946C1326.94 513.261 1324.34 512.221 1321.14 511.826L1318.23 500.578ZM1307.88 515.318C1303.97 516.989 1301.24 519.196 1299.7 521.939C1298.14 524.671 1297.83 527.858 1298.77 531.499C1299.25 533.358 1299.97 534.982 1300.92 536.372C1301.88 537.762 1303.04 538.9 1304.41 539.786C1305.77 540.657 1307.32 541.272 1309.07 541.632C1310.8 541.995 1312.69 542.086 1314.74 541.904L1307.88 515.318Z" fill="#151700"/>
<path d="M1296.16 472.762C1293.07 473.139 1290.2 472.906 1287.57 472.066C1284.94 471.225 1282.62 469.855 1280.61 467.954C1278.59 466.04 1276.93 463.623 1275.62 460.703C1274.32 457.768 1273.43 454.41 1272.97 450.63C1272.49 446.675 1272.58 443.078 1273.23 439.839C1273.89 436.585 1275.06 433.759 1276.75 431.362C1278.44 428.948 1280.63 426.998 1283.32 425.511C1286 424.024 1289.13 423.063 1292.71 422.629L1323.87 418.843L1325.32 430.803L1311.55 432.476C1313.98 432.81 1316.21 433.49 1318.26 434.515C1320.28 435.526 1322.06 436.849 1323.6 438.484C1325.12 440.12 1326.37 442.04 1327.34 444.242C1328.32 446.428 1328.97 448.856 1329.29 451.524C1329.63 454.304 1329.56 456.883 1329.07 459.263C1328.6 461.625 1327.78 463.699 1326.61 465.485C1325.44 467.271 1323.95 468.726 1322.14 469.849C1320.31 470.958 1318.21 471.655 1315.86 471.94C1313.42 472.238 1311.17 472.019 1309.11 471.286C1307.06 470.552 1305.24 469.362 1303.67 467.716C1302.1 466.053 1300.8 463.955 1299.77 461.421C1298.72 458.889 1297.99 455.979 1297.59 452.691L1295.38 434.442L1294.16 434.589C1292.18 434.83 1290.43 435.356 1288.94 436.167C1287.42 436.979 1286.18 438.04 1285.21 439.351C1284.24 440.645 1283.57 442.162 1283.18 443.901C1282.79 445.641 1282.73 447.558 1282.98 449.655C1283.24 451.783 1283.71 453.604 1284.4 455.116C1285.06 456.615 1285.9 457.819 1286.92 458.727C1287.93 459.636 1289.09 460.26 1290.41 460.6C1291.72 460.94 1293.16 461.015 1294.71 460.826L1296.16 472.762ZM1305.9 450.982C1306.29 454.254 1307.14 456.665 1308.44 458.215C1309.74 459.75 1311.46 460.387 1313.61 460.126C1315.86 459.852 1317.48 458.729 1318.47 456.756C1319.44 454.768 1319.71 452.044 1319.29 448.581C1318.99 446.135 1318.42 443.923 1317.59 441.946C1316.73 439.954 1315.68 438.284 1314.44 436.937C1313.19 435.573 1311.79 434.567 1310.23 433.918C1308.65 433.256 1306.99 433.03 1305.26 433.24L1303.76 433.423L1305.9 450.982Z" fill="#151700"/>
<path d="M1297.15 379.884C1299.84 380.09 1302.28 379.947 1304.47 379.456C1306.64 378.963 1308.52 378.167 1310.09 377.068C1311.66 375.951 1312.89 374.546 1313.81 372.85C1314.73 371.139 1315.27 369.174 1315.44 366.957C1315.58 365.042 1315.43 363.338 1314.99 361.844C1314.52 360.332 1313.83 359.012 1312.9 357.882C1311.98 356.753 1310.86 355.809 1309.56 355.052C1308.24 354.277 1306.8 353.678 1305.24 353.255L1306.16 341.265C1308.22 341.696 1310.17 342.326 1312 343.155C1313.84 343.969 1315.53 344.964 1317.07 346.141C1318.6 347.317 1319.97 348.664 1321.17 350.184C1322.35 351.702 1323.34 353.374 1324.13 355.2C1324.92 357.025 1325.49 358.994 1325.82 361.105C1326.16 363.201 1326.24 365.429 1326.06 367.791C1325.86 370.391 1325.37 372.825 1324.59 375.092C1323.83 377.344 1322.8 379.4 1321.52 381.26C1320.24 383.12 1318.73 384.77 1316.98 386.21C1315.23 387.633 1313.29 388.809 1311.15 389.737C1309 390.648 1306.67 391.297 1304.17 391.684C1301.67 392.071 1299.02 392.158 1296.23 391.945C1292.03 391.626 1288.27 390.706 1284.96 389.185C1281.64 387.649 1278.86 385.631 1276.61 383.133C1274.34 380.634 1272.67 377.722 1271.59 374.399C1270.52 371.075 1270.12 367.459 1270.42 363.551C1270.69 360.009 1271.49 356.844 1272.81 354.056C1274.11 351.251 1275.82 348.862 1277.93 346.889C1280.03 344.915 1282.47 343.376 1285.23 342.27C1287.98 341.148 1290.95 340.507 1294.12 340.348L1293.2 352.337C1291.6 352.504 1290.1 352.871 1288.69 353.437C1287.27 353.987 1286.02 354.75 1284.93 355.726C1283.85 356.703 1282.97 357.903 1282.3 359.329C1281.61 360.753 1281.2 362.422 1281.05 364.336C1280.88 366.554 1281.12 368.578 1281.77 370.408C1282.41 372.223 1283.43 373.801 1284.82 375.142C1286.2 376.467 1287.92 377.537 1289.99 378.353C1292.07 379.168 1294.45 379.679 1297.15 379.884Z" fill="#151700"/>
<path d="M1293.76 332.275C1290.77 331.382 1288.23 330.024 1286.16 328.201C1284.08 326.378 1282.5 324.195 1281.42 321.653C1280.34 319.09 1279.78 316.209 1279.75 313.011C1279.72 309.797 1280.26 306.366 1281.35 302.718C1282.49 298.9 1284 295.638 1285.9 292.931C1287.8 290.209 1290 288.087 1292.51 286.565C1295.02 285.028 1297.81 284.116 1300.87 283.827C1303.92 283.538 1307.18 283.909 1310.63 284.94L1340.71 293.926L1337.26 305.47L1323.97 301.499C1326.06 302.775 1327.83 304.291 1329.3 306.047C1330.75 307.783 1331.85 309.708 1332.61 311.82C1333.34 313.928 1333.72 316.186 1333.74 318.596C1333.76 320.989 1333.38 323.474 1332.61 326.049C1331.81 328.732 1330.71 331.068 1329.32 333.055C1327.94 335.032 1326.36 336.606 1324.58 337.776C1322.79 338.945 1320.84 339.682 1318.73 339.987C1316.61 340.271 1314.41 340.074 1312.14 339.397C1309.78 338.691 1307.81 337.592 1306.22 336.098C1304.62 334.604 1303.44 332.788 1302.66 330.651C1301.88 328.499 1301.53 326.055 1301.59 323.319C1301.64 320.579 1302.14 317.622 1303.09 314.449L1308.35 296.834L1307.18 296.484C1305.26 295.911 1303.46 295.697 1301.76 295.842C1300.05 295.982 1298.49 296.458 1297.07 297.272C1295.67 298.071 1294.44 299.19 1293.39 300.63C1292.34 302.071 1291.52 303.803 1290.91 305.826C1290.3 307.88 1290 309.737 1290.02 311.397C1290.04 313.037 1290.32 314.476 1290.89 315.713C1291.45 316.951 1292.27 317.988 1293.34 318.825C1294.41 319.662 1295.7 320.305 1297.2 320.754L1293.76 332.275ZM1311.38 316.2C1310.44 319.358 1310.25 321.908 1310.83 323.849C1311.4 325.775 1312.73 327.047 1314.8 327.665C1316.97 328.315 1318.91 327.933 1320.6 326.518C1322.28 325.083 1323.62 322.695 1324.62 319.353C1325.32 316.992 1325.69 314.738 1325.71 312.591C1325.73 310.424 1325.43 308.474 1324.83 306.742C1324.23 304.994 1323.35 303.51 1322.18 302.292C1320.99 301.053 1319.57 300.185 1317.9 299.685L1316.45 299.253L1311.38 316.2Z" fill="#151700"/>
<path d="M1347.94 283.494L1342.37 294.177L1279.38 261.334L1284.95 250.651L1347.94 283.494Z" fill="#151700"/>
<path d="M1357.37 269.019L1350.58 278.976L1291.88 238.975L1298.66 229.018L1357.37 269.019Z" fill="#151700"/>
<path d="M1391.33 210.27L1355.84 234.909L1349.6 225.919L1385.09 201.281L1391.33 210.27Z" fill="#151700"/>
<path d="M1436.14 161.67C1439.8 160.871 1443.15 160.566 1446.18 160.753C1449.22 160.941 1451.89 161.578 1454.19 162.664C1456.49 163.75 1458.39 165.261 1459.87 167.196C1461.38 169.128 1462.42 171.446 1463.01 174.15L1451.46 176.675C1451.18 175.409 1450.68 174.323 1449.96 173.416C1449.25 172.506 1448.33 171.797 1447.21 171.29C1446.1 170.779 1444.8 170.482 1443.3 170.398C1441.81 170.315 1440.14 170.475 1438.3 170.878C1436.66 171.236 1435.19 171.72 1433.9 172.33C1432.62 172.921 1431.56 173.603 1430.71 174.378C1429.86 175.152 1429.25 175.99 1428.88 176.891C1428.52 177.789 1428.44 178.714 1428.65 179.668C1428.89 180.793 1429.42 181.644 1430.24 182.219C1431.06 182.776 1432.07 183.161 1433.27 183.376C1434.46 183.59 1435.77 183.688 1437.21 183.668C1438.66 183.63 1440.13 183.571 1441.62 183.492L1445.19 183.301C1446.66 183.225 1448.21 183.165 1449.84 183.12C1451.47 183.06 1453.1 183.105 1454.73 183.255C1456.37 183.405 1457.97 183.695 1459.52 184.126C1461.07 184.541 1462.49 185.179 1463.79 186.041C1465.1 186.903 1466.23 188.032 1467.19 189.427C1468.14 190.807 1468.85 192.536 1469.3 194.615C1469.87 197.194 1469.85 199.597 1469.26 201.823C1468.66 204.049 1467.51 206.07 1465.79 207.887C1464.09 209.699 1461.84 211.288 1459.04 212.652C1456.25 214.017 1452.93 215.119 1449.08 215.959C1445.06 216.837 1441.44 217.21 1438.22 217.079C1435 216.963 1432.2 216.371 1429.82 215.302C1427.44 214.217 1425.49 212.678 1423.98 210.684C1422.46 208.674 1421.38 206.231 1420.75 203.355L1432.31 200.829C1432.92 203.612 1434.44 205.524 1436.86 206.567C1439.28 207.595 1442.65 207.635 1446.98 206.689C1448.9 206.269 1450.59 205.745 1452.04 205.117C1453.51 204.485 1454.71 203.774 1455.63 202.982C1456.57 202.187 1457.22 201.316 1457.59 200.368C1457.97 199.416 1458.05 198.409 1457.81 197.346C1457.63 196.502 1457.31 195.802 1456.86 195.245C1456.41 194.688 1455.85 194.238 1455.17 193.895C1454.5 193.534 1453.74 193.274 1452.89 193.117C1452.03 192.944 1451.1 192.834 1450.11 192.789C1449.12 192.728 1448.06 192.712 1446.96 192.741C1445.86 192.767 1444.74 192.807 1443.59 192.862L1439.99 193.034C1438.99 193.074 1437.92 193.11 1436.8 193.142C1435.69 193.171 1434.56 193.174 1433.39 193.151C1432.23 193.109 1431.07 193.018 1429.91 192.878C1428.75 192.723 1427.62 192.487 1426.52 192.171C1425.41 191.855 1424.37 191.445 1423.37 190.942C1422.39 190.419 1421.49 189.773 1420.66 189.003C1419.85 188.214 1419.14 187.28 1418.53 186.202C1417.93 185.121 1417.48 183.861 1417.16 182.423C1416.63 179.984 1416.66 177.677 1417.25 175.501C1417.85 173.322 1418.98 171.34 1420.62 169.557C1422.25 167.758 1424.38 166.189 1426.98 164.85C1429.6 163.492 1432.65 162.432 1436.14 161.67Z" fill="#151700"/>
<path d="M1483.94 182.575C1484.04 185.277 1484.46 187.687 1485.19 189.805C1485.93 191.907 1486.93 193.679 1488.2 195.12C1489.49 196.545 1491.03 197.616 1492.82 198.333C1494.62 199.05 1496.63 199.367 1498.86 199.284C1500.77 199.212 1502.45 198.869 1503.88 198.255C1505.33 197.624 1506.57 196.785 1507.58 195.738C1508.6 194.691 1509.41 193.476 1510.02 192.092C1510.64 190.692 1511.07 189.195 1511.31 187.601L1523.33 187.15C1523.14 189.255 1522.73 191.263 1522.11 193.176C1521.51 195.088 1520.72 196.879 1519.72 198.549C1518.73 200.204 1517.54 201.713 1516.17 203.078C1514.8 204.426 1513.25 205.597 1511.52 206.59C1509.8 207.584 1507.91 208.367 1505.85 208.941C1503.8 209.514 1501.6 209.844 1499.23 209.933C1496.62 210.031 1494.15 209.819 1491.81 209.299C1489.49 208.794 1487.33 208.01 1485.33 206.948C1483.34 205.886 1481.53 204.569 1479.9 202.997C1478.29 201.424 1476.9 199.627 1475.74 197.605C1474.59 195.567 1473.68 193.327 1473.01 190.886C1472.34 188.446 1471.96 185.826 1471.85 183.028C1471.69 178.823 1472.18 174.986 1473.32 171.517C1474.47 168.048 1476.16 165.054 1478.38 162.537C1480.61 160.004 1483.31 158.013 1486.49 156.565C1489.67 155.117 1493.22 154.319 1497.14 154.172C1500.69 154.039 1503.92 154.47 1506.84 155.466C1509.78 156.444 1512.34 157.869 1514.54 159.74C1516.74 161.611 1518.55 163.857 1519.96 166.478C1521.39 169.082 1522.36 171.952 1522.88 175.087L1510.86 175.537C1510.51 173.965 1509.98 172.512 1509.26 171.178C1508.55 169.828 1507.65 168.669 1506.56 167.701C1505.46 166.733 1504.17 165.997 1502.68 165.493C1501.19 164.972 1499.48 164.748 1497.56 164.82C1495.34 164.903 1493.36 165.37 1491.61 166.22C1489.88 167.069 1488.43 168.261 1487.25 169.794C1486.09 171.31 1485.23 173.144 1484.65 175.295C1484.07 177.446 1483.84 179.873 1483.94 182.575Z" fill="#151700"/>
<path d="M1539.07 208.925L1527.07 207.871L1533.28 137.103L1545.28 138.156L1542.34 171.747C1543.18 169.107 1544.26 166.784 1545.57 164.78C1546.89 162.775 1548.42 161.118 1550.15 159.809C1551.91 158.501 1553.85 157.564 1555.99 156.996C1558.13 156.413 1560.43 156.229 1562.88 156.445C1565.8 156.701 1568.34 157.47 1570.51 158.752C1572.69 160.02 1574.48 161.751 1575.86 163.944C1577.26 166.138 1578.23 168.77 1578.78 171.837C1579.33 174.889 1579.44 178.328 1579.1 182.153L1576.47 212.206L1564.46 211.153L1567 182.295C1567.85 172.509 1564.32 167.268 1556.4 166.573C1554.28 166.387 1552.35 166.563 1550.62 167.102C1548.89 167.64 1547.38 168.52 1546.1 169.741C1544.82 170.946 1543.8 172.478 1543.02 174.337C1542.25 176.197 1541.75 178.362 1541.54 180.833L1539.07 208.925Z" fill="#151700"/>
<path d="M1632.98 203.761C1631.79 206.597 1630.27 209.06 1628.41 211.152C1626.56 213.243 1624.43 214.926 1622.05 216.199C1619.66 217.473 1617.06 218.32 1614.23 218.741C1611.4 219.163 1608.43 219.115 1605.32 218.597C1602.74 218.166 1600.34 217.459 1598.13 216.475C1595.95 215.495 1593.98 214.284 1592.24 212.843C1590.51 211.386 1589.01 209.725 1587.74 207.86C1586.48 205.98 1585.49 203.933 1584.78 201.721C1584.06 199.494 1583.62 197.117 1583.46 194.592C1583.29 192.067 1583.44 189.431 1583.9 186.685C1584.58 182.581 1585.82 178.943 1587.61 175.771C1589.42 172.601 1591.65 170.004 1594.31 167.981C1596.97 165.942 1599.99 164.53 1603.36 163.746C1606.74 162.946 1610.35 162.866 1614.2 163.507C1617.99 164.138 1621.32 165.357 1624.18 167.163C1627.06 168.972 1629.39 171.25 1631.17 173.996C1632.95 176.726 1634.15 179.878 1634.78 183.453C1635.4 187.011 1635.37 190.866 1634.67 195.017C1634.57 195.633 1634.45 196.245 1634.32 196.856C1634.2 197.469 1634.05 198.108 1633.85 198.773L1595.03 192.309C1594.92 194.529 1595.11 196.564 1595.59 198.413C1596.1 200.249 1596.88 201.87 1597.92 203.278C1598.97 204.685 1600.28 205.843 1601.85 206.753C1603.43 207.665 1605.25 208.292 1607.3 208.634C1610.42 209.154 1613.16 208.847 1615.51 207.713C1617.85 206.579 1619.86 204.626 1621.52 201.853L1632.98 203.761ZM1623.7 188.323C1623.76 184.067 1622.84 180.68 1620.96 178.16C1619.1 175.627 1616.31 174.052 1612.6 173.435C1610.71 173.119 1608.93 173.116 1607.27 173.424C1605.62 173.732 1604.1 174.332 1602.74 175.224C1601.39 176.118 1600.2 177.29 1599.16 178.74C1598.13 180.174 1597.28 181.865 1596.61 183.814L1623.7 188.323Z" fill="#151700"/>
<path d="M1701.12 163.228L1686.64 232.778L1674.85 230.323L1678.14 214.487C1676.96 217.05 1675.58 219.28 1674 221.176C1672.43 223.072 1670.71 224.601 1668.83 225.763C1666.98 226.912 1664.98 227.674 1662.84 228.046C1660.72 228.437 1658.51 228.395 1656.23 227.919C1654.14 227.486 1652.22 226.768 1650.47 225.766C1648.74 224.767 1647.19 223.537 1645.82 222.077C1644.48 220.604 1643.34 218.929 1642.41 217.052C1641.48 215.159 1640.78 213.109 1640.3 210.902C1639.83 208.696 1639.6 206.352 1639.61 203.869C1639.64 201.375 1639.93 198.796 1640.48 196.133C1641.04 193.47 1641.8 190.997 1642.76 188.714C1643.75 186.419 1644.9 184.353 1646.21 182.518C1647.52 180.683 1648.98 179.091 1650.59 177.742C1652.19 176.377 1653.91 175.295 1655.72 174.496C1657.56 173.701 1659.47 173.192 1661.46 172.969C1663.47 172.749 1665.51 172.856 1667.59 173.29C1669.88 173.765 1671.92 174.607 1673.71 175.813C1675.52 177.007 1677.05 178.509 1678.29 180.32C1679.55 182.119 1680.52 184.2 1681.21 186.565C1681.89 188.93 1682.27 191.525 1682.33 194.35L1689.32 160.773L1701.12 163.228ZM1680.24 204.407C1680.8 201.712 1680.98 199.241 1680.78 196.993C1680.59 194.748 1680.05 192.771 1679.14 191.063C1678.24 189.355 1676.99 187.935 1675.4 186.803C1673.82 185.673 1671.92 184.877 1669.69 184.414C1667.44 183.945 1665.37 183.899 1663.49 184.277C1661.63 184.658 1659.97 185.446 1658.49 186.643C1657.04 187.827 1655.79 189.423 1654.75 191.429C1653.71 193.42 1652.91 195.809 1652.33 198.598C1651.75 201.386 1651.53 203.907 1651.68 206.161C1651.84 208.4 1652.35 210.361 1653.21 212.043C1654.08 213.728 1655.29 215.117 1656.85 216.209C1658.42 217.303 1660.33 218.085 1662.59 218.555C1664.8 219.014 1666.85 219.041 1668.75 218.636C1670.66 218.233 1672.37 217.429 1673.88 216.223C1675.41 215.005 1676.71 213.404 1677.78 211.42C1678.86 209.438 1679.68 207.101 1680.24 204.407Z" fill="#151700"/>
<path d="M1743.03 192.318L1754.7 195.306L1741.58 246.573L1729.91 243.586L1733.78 228.473C1732.54 230.946 1731.09 233.062 1729.45 234.823C1727.83 236.587 1726.05 237.972 1724.1 238.978C1722.18 239.988 1720.11 240.6 1717.91 240.812C1715.71 241.041 1713.41 240.849 1711.02 240.238C1708.19 239.512 1705.79 238.346 1703.84 236.741C1701.91 235.123 1700.43 233.118 1699.41 230.726C1698.4 228.338 1697.88 225.593 1697.83 222.492C1697.78 219.376 1698.24 215.958 1699.19 212.238L1706.67 183.012L1718.34 185.999L1711.16 214.062C1708.72 223.58 1711.36 229.324 1719.06 231.296C1721.14 231.827 1723.07 231.968 1724.87 231.718C1726.67 231.468 1728.29 230.85 1729.73 229.865C1731.19 228.868 1732.46 227.515 1733.52 225.806C1734.59 224.081 1735.43 222.025 1736.04 219.638L1743.03 192.318Z" fill="#151700"/>
<path d="M1760.73 252.287L1749.16 248.914L1769.05 180.715L1780.62 184.088L1760.73 252.287Z" fill="#151700"/>
<path d="M1820.44 252.855C1818.84 255.474 1816.95 257.674 1814.8 259.454C1812.64 261.234 1810.28 262.569 1807.73 263.459C1805.18 264.349 1802.47 264.785 1799.61 264.765C1796.75 264.745 1793.83 264.239 1790.83 263.248C1788.34 262.423 1786.09 261.355 1784.06 260.043C1782.05 258.737 1780.29 257.237 1778.8 255.545C1777.31 253.838 1776.08 251.965 1775.12 249.928C1774.17 247.876 1773.5 245.701 1773.14 243.405C1772.77 241.093 1772.7 238.678 1772.93 236.157C1773.16 233.637 1773.71 231.056 1774.59 228.413C1775.9 224.464 1777.68 221.061 1779.94 218.203C1782.22 215.35 1784.82 213.129 1787.76 211.539C1790.7 209.935 1793.9 209.005 1797.36 208.751C1800.82 208.481 1804.4 208.96 1808.11 210.188C1811.75 211.395 1814.85 213.112 1817.4 215.339C1819.96 217.57 1821.91 220.18 1823.25 223.167C1824.59 226.14 1825.29 229.44 1825.36 233.068C1825.42 236.68 1824.79 240.484 1823.47 244.478C1823.28 245.071 1823.06 245.658 1822.84 246.24C1822.63 246.828 1822.37 247.435 1822.08 248.063L1784.72 235.687C1784.27 237.864 1784.14 239.903 1784.34 241.805C1784.55 243.697 1785.07 245.419 1785.89 246.971C1786.7 248.522 1787.82 249.869 1789.23 251.009C1790.65 252.155 1792.35 253.055 1794.32 253.709C1797.33 254.705 1800.08 254.824 1802.57 254.065C1805.07 253.307 1807.35 251.686 1809.42 249.203L1820.44 252.855ZM1813.66 236.171C1814.37 231.975 1814 228.488 1812.52 225.707C1811.07 222.917 1808.56 220.931 1804.99 219.749C1803.17 219.145 1801.41 218.868 1799.73 218.916C1798.04 218.965 1796.46 219.325 1794.97 219.996C1793.5 220.671 1792.14 221.645 1790.89 222.918C1789.65 224.175 1788.55 225.715 1787.59 227.538L1813.66 236.171Z" fill="#151700"/>
<path d="M1854.02 248.036C1855.26 245.172 1856.9 242.815 1858.95 240.965C1861.01 239.115 1863.36 237.804 1866.01 237.032C1868.68 236.251 1871.61 236.032 1874.79 236.377C1877.98 236.728 1881.33 237.658 1884.83 239.167C1888.48 240.746 1891.55 242.634 1894.01 244.832C1896.49 247.036 1898.34 249.472 1899.56 252.142C1900.8 254.817 1901.38 257.691 1901.3 260.762C1901.23 263.833 1900.48 267.021 1899.06 270.327L1886.62 299.148L1875.56 294.373L1881.05 281.637C1879.54 283.564 1877.83 285.151 1875.91 286.398C1874.02 287.637 1871.98 288.508 1869.79 289.011C1867.61 289.499 1865.33 289.609 1862.93 289.342C1860.55 289.082 1858.13 288.419 1855.66 287.354C1853.09 286.244 1850.9 284.88 1849.09 283.262C1847.29 281.665 1845.91 279.911 1844.95 278.001C1844 276.091 1843.5 274.07 1843.44 271.937C1843.41 269.796 1843.86 267.639 1844.8 265.465C1845.77 263.202 1847.1 261.369 1848.77 259.963C1850.44 258.558 1852.38 257.592 1854.59 257.066C1856.82 256.547 1859.29 256.48 1862 256.865C1864.71 257.236 1867.59 258.077 1870.63 259.39L1887.51 266.676L1888 265.552C1888.79 263.716 1889.21 261.947 1889.27 260.245C1889.33 258.529 1889.04 256.922 1888.39 255.424C1887.77 253.933 1886.8 252.583 1885.49 251.374C1884.18 250.164 1882.56 249.141 1880.62 248.304C1878.65 247.455 1876.84 246.943 1875.19 246.771C1873.56 246.59 1872.1 246.708 1870.8 247.125C1869.51 247.542 1868.38 248.232 1867.43 249.196C1866.47 250.16 1865.68 251.362 1865.06 252.802L1854.02 248.036ZM1867.92 267.422C1864.9 266.116 1862.39 265.633 1860.39 265.975C1858.41 266.323 1856.99 267.488 1856.14 269.471C1855.24 271.557 1855.39 273.523 1856.6 275.369C1857.83 277.206 1860.04 278.816 1863.25 280.198C1865.51 281.175 1867.7 281.8 1869.83 282.074C1871.98 282.341 1873.95 282.276 1875.75 281.882C1877.55 281.494 1879.13 280.789 1880.48 279.767C1881.84 278.737 1882.87 277.421 1883.56 275.82L1884.16 274.432L1867.92 267.422Z" fill="#151700"/>
<path d="M1934.56 293.938C1933.22 296.286 1932.3 298.553 1931.81 300.74C1931.32 302.913 1931.24 304.947 1931.55 306.843C1931.89 308.732 1932.63 310.453 1933.77 312.007C1934.93 313.569 1936.47 314.902 1938.4 316.005C1940.07 316.958 1941.67 317.552 1943.21 317.788C1944.78 318.019 1946.27 317.958 1947.68 317.607C1949.1 317.256 1950.43 316.652 1951.67 315.797C1952.94 314.936 1954.1 313.893 1955.15 312.668L1965.59 318.634C1964.31 320.319 1962.91 321.81 1961.37 323.108C1959.85 324.414 1958.23 325.513 1956.5 326.406C1954.78 327.286 1952.98 327.942 1951.09 328.374C1949.21 328.793 1947.28 328.968 1945.29 328.901C1943.3 328.834 1941.28 328.499 1939.23 327.898C1937.19 327.304 1935.15 326.42 1933.09 325.245C1930.83 323.951 1928.84 322.465 1927.12 320.786C1925.42 319.129 1924 317.323 1922.87 315.368C1921.74 313.413 1920.9 311.338 1920.34 309.144C1919.81 306.957 1919.58 304.697 1919.66 302.365C1919.76 300.028 1920.17 297.646 1920.89 295.221C1921.61 292.796 1922.67 290.368 1924.06 287.937C1926.15 284.283 1928.59 281.283 1931.38 278.938C1934.19 276.6 1937.21 274.951 1940.43 273.99C1943.66 273.016 1947.01 272.754 1950.47 273.204C1953.94 273.655 1957.37 274.853 1960.78 276.798C1963.86 278.56 1966.38 280.635 1968.33 283.022C1970.3 285.404 1971.73 287.97 1972.61 290.72C1973.49 293.471 1973.84 296.332 1973.65 299.303C1973.49 302.267 1972.79 305.218 1971.58 308.153L1961.14 302.187C1961.67 300.669 1961.99 299.153 1962.08 297.638C1962.19 296.118 1962.04 294.659 1961.62 293.259C1961.21 291.86 1960.5 290.553 1959.5 289.336C1958.51 288.106 1957.18 287.014 1955.51 286.061C1953.58 284.958 1951.65 284.306 1949.72 284.106C1947.8 283.913 1945.94 284.157 1944.13 284.838C1942.34 285.513 1940.64 286.611 1939.01 288.133C1937.39 289.655 1935.9 291.59 1934.56 293.938Z" fill="#151700"/>
</svg>
