<svg width="246" height="382" viewBox="0 0 246 382" fill="none" xmlns="http://www.w3.org/2000/svg">
<g clip-path="url(#clip0_3024_7254)">
<path d="M0.0499935 300C0.0499935 300 0.879993 353.5 0.879993 302.22C0.979994 317.36 1.07999 222.51 1.06999 237.65C1.02999 319.46 0.959993 211.27 0.909994 293.08C0.909994 294.74 0.869993 296.41 0.939993 298.07C0.989992 299.19 0.629993 300.77 1.97999 301.12C3.24999 301.45 4.75999 300.22 5.13999 299.36C7.14999 294.69 11.26 291.49 13.45 286.98C13.88 286.09 14.1 285.55 13.2 284.9C11.55 283.72 11.96 281.96 12.07 280.32C12.11 279.65 12.41 278.92 13.2 278.88C13.91 278.84 14.04 279.54 14.22 280.1C14.57 281.2 15.19 282.21 15.06 283.44C15.02 283.88 15.29 284.23 15.82 284.2C16.23 284.17 16.44 283.86 16.41 283.53C16.32 282.4 16.82 281.46 16.13 280.06C15.27 278.31 15.51 275.83 15.35 273.68C15.28 272.74 16.84 271.71 17.93 271.78C19.08 271.85 19.12 273.19 19.14 274.21C19.16 275.36 19.14 276.51 19.14 278.28C21.17 275.55 24.5 275.09 25.29 271.67C25.84 269.27 25.42 267.44 23.34 267.37C22.37 267.34 21.37 267.41 21.74 268.84C21.97 269.72 21.62 270.12 20.78 270.14C20.22 270.14 19.55 270.65 19.14 270.1C18.72 269.53 19.01 268.83 19.33 268.23C20.13 266.73 21.33 265.49 22.26 264.09C23.39 262.38 24.7 260.78 25.24 258.81C25.61 257.47 27.28 258.65 27.62 257.13C27.91 255.84 29.04 254.77 29.39 253.37C29.59 252.57 30.02 251.4 30.8 251.48C33.64 251.79 33.33 249.5 33.85 248C34.78 245.34 36.47 244.96 38.44 247.06C38.61 247.24 38.82 247.37 39.08 247.56C39.63 246.95 40.17 246.36 40.75 245.73C38.89 245.13 37.4 243.68 35.06 244.39C34.24 244.64 34.55 242.46 35.06 242.24C38.52 240.76 38.19 236.85 40.21 234.41C41.38 233 43.63 231.54 42.75 228.95C43.78 228.87 44.06 227.89 44.7 227.35C45.62 226.58 46.46 225.83 46.13 224.46C46.11 224.38 46.1 224.25 46.15 224.22C48.05 222.65 49.93 221.06 51.88 219.56C52.13 219.37 52.69 219.66 52.83 220.14C53 220.73 52.93 221.26 52.54 221.78C51.76 222.83 49.78 223.77 50.91 225.15C52.03 226.5 53.41 224.63 54.68 224.26C55.77 223.94 56.66 223.54 57.33 225.08C56.54 221.48 59.63 220.17 61.01 217.95C61.28 217.52 61.81 217.59 62.36 217.76C64.28 218.35 66.04 217.06 65.68 215.12C65.23 212.68 66.01 210.42 66.12 208.08C66.4 202.22 66.06 196.33 66.44 190.48C66.67 186.97 64.5 183.17 67.5 179.92C67.89 179.5 67.53 178.98 67.27 178.55C66.59 177.42 66.56 176.2 66.76 174.93C67.32 171.39 67.79 167.84 68.4 164.31C68.62 163.05 68.58 161.92 68.27 160.66C67.99 159.53 68.89 158.5 69.47 157.49C71.06 154.73 72.27 151.86 73 148.71C73.52 146.45 74.38 144.27 74.38 141.92C74.38 140.19 76.18 139.67 76.68 138.07C77.52 135.38 77.79 133 76.54 130.45C75.52 128.37 74.33 128.06 72.51 129.55C71.89 130.06 71.42 130.8 70.33 130.95C70.52 129.31 70.17 127.84 71.83 126.55C73.31 125.39 72.87 122.84 74.58 121.51C74.99 121.19 74.4 120.32 73.72 120.39C72.58 120.51 71.36 120.64 70.34 121.11C68.6 121.91 65.78 129.3 66.4 131.04C66.79 132.14 67.82 132.32 68.74 132.66C70 133.12 70.15 133.6 69.5 135.02C68.36 137.56 66.8 140.06 65.11 141.91C63.44 143.74 62.46 145.2 62.3 147.58C62.25 148.36 61.33 147.76 61.06 147.28C60.17 145.74 59.69 144.1 59.9 142.27C60.03 141.18 59.93 140.2 58.42 139.87C54.92 139.1 53.52 134.47 55.93 131.81C56.48 131.21 57.05 131.15 56.02 130.25C54.96 129.32 55.97 127.77 56.09 126.5C56.25 124.78 57.73 123.11 56.21 121.33C56.11 121.22 56.23 120.84 56.34 120.64C58.88 116.23 59.68 111.17 60.62 106.38C61.88 100 65.08 94.44 66.86 88.3C67.61 85.71 69.37 83.27 70.18 80.44C70.74 78.48 71.59 76.09 74.49 75.82C75.8 75.69 75.67 74.21 75.99 73.21C76.9 70.39 77.57 67.42 79.61 65.14C82.27 62.17 84.7 59 87.34 56.01C87.77 55.52 88.3 55 88.46 54.4C89.29 51.28 91.86 49.58 93.99 47.56C95.26 46.36 96.35 45.31 96.98 43.53C97.67 41.56 99.15 39.86 100.42 38.14C100.49 38.04 101.26 38.61 102.19 37.81C104.06 36.2 104.43 33.6 106.47 32.25C107.22 31.75 107.86 30.95 108.77 32.03C109.28 32.63 109.7 32.48 110.11 31.82C111.04 30.33 112.21 29.25 114.19 29.82C114.6 29.94 115.16 29.82 115.26 29.39C115.82 26.85 118.64 27.16 120.03 25.61C120.45 25.14 121.97 23.45 122.64 25.86C122.69 26.02 123.56 25.96 124.46 26.03C123.36 24.76 123.13 23.58 124.24 22.58C125.51 21.44 127.1 21.42 128.67 21.68C130.02 21.9 130.36 22.82 130.22 24.08C130.16 24.6 130.41 25.26 131.04 24.85C132.39 23.99 134.36 24.7 135.38 22.88C135.92 21.91 137.17 21.73 138.3 22.12C138.82 22.3 139.2 22.59 139.9 22.42C142.37 21.8 142.33 22 141.99 24.62C141.87 25.51 142.76 26.84 144.18 26.9C145.52 26.96 146.72 27.26 147.98 27.82C149.2 28.36 150.58 28.24 151.9 27.33C154.47 25.55 156.52 26.49 157.12 29.51C157.26 30.21 157.33 30.89 156.51 31.17C155.76 31.43 155.11 31.11 154.96 30.36C154.75 29.28 154.3 28.2 153.23 28.23C151.95 28.28 151.49 29.64 150.35 31.09C153.39 29.88 153.48 33.28 155.63 33.32C157.29 33.35 158.51 35.69 160.72 34.15C161.24 33.79 162.69 35.77 164.33 35.61C168.21 35.23 171.45 38 175.34 37.99C177.79 37.99 180.91 39.08 181.73 40.73C183.33 43.91 186.25 43.55 188.47 44.93C192.05 47.16 195.68 49.36 198.99 52.03C200.86 53.54 203.19 54.52 203.79 57.21C203.85 57.49 204.42 57.72 204.79 57.86C206.5 58.48 207.47 59.88 208.09 61.4C209.12 63.92 210.65 66.1 212.07 68.37C212.68 69.36 213.55 70.42 213.28 71.79C213.19 72.23 213.27 72.63 213.59 72.94C216.85 76.01 218.61 80 220.47 83.95C221.12 85.32 221.49 86.79 221.85 88.16C222.88 92.06 225.65 95.34 225.69 99.58C225.7 101.22 227.05 102.39 227.97 103.64C228.85 104.84 229.53 103.46 230.26 103.16C230.79 102.94 231.32 102.36 231.78 102.99C232.26 103.65 231.94 104.14 231.14 104.48C230.19 104.89 230.2 105.74 229.95 106.75C229.03 110.43 230.64 114.29 228.94 117.87C228.39 119.03 228.57 120.41 229.44 121.38C230.65 122.74 230.59 124.18 230.42 125.83C230.23 127.81 230.25 129.83 230.41 131.82C230.62 134.41 228.94 136.74 229.34 139.25C229.77 141.97 227.34 144.13 228.23 146.89C229.69 151.46 229.39 156.25 229.88 160.95C229.91 161.27 230.12 161.62 230.04 161.9C229.53 163.8 228.6 165.43 230 167.66C230.52 168.49 230 171.05 229.97 172.8C229.91 176.36 230.98 180.08 229.39 183.42C227.15 188.11 228.9 193.22 227.39 197.97C226.97 199.28 225.71 199.84 225.46 201.32C224.95 204.35 225.05 207.41 224.65 210.43C224.6 210.82 224.68 211.55 224.58 211.57C220.38 212.47 223.2 215.69 222.72 217.72C222.39 219.1 222.43 220.5 221.69 221.88C221.04 223.09 220.09 224.45 221.16 226.06C221.56 226.66 220.87 227.27 220.47 227.79C218.25 230.69 217.82 234.48 215.67 237.41C217.17 239.76 214.78 241.32 214.11 242.98C213.35 244.88 212.12 246.82 211.18 248.75C209.52 252.17 207.28 255.55 206.99 259.3C206.78 262.04 204.68 263.34 204.1 265.48C203.2 268.83 199.99 270.63 198.97 273.84C198.79 274.42 198.24 274.96 197.73 275.35C195.01 277.41 192.06 279.18 190.99 282.82C190.6 284.14 188.94 283.72 187.86 283.73C186.68 283.75 185.81 283.56 185.16 285.01C184.5 286.47 182.51 286.12 181.26 286.95C178.28 288.95 175.15 290.42 171.45 290.87C169.01 291.17 166.7 290.42 164.3 290.8C161.71 291.2 158.93 289.98 156.45 291.77C155.72 292.3 154.86 291.55 154.03 291.56C149.98 291.58 145.94 291.07 141.91 290.91C138.56 290.78 134.77 290.96 131.52 289.23C130.89 288.9 130.31 288.82 129.64 289.18C128.83 289.62 128.07 289.49 127.36 288.82C127.02 288.5 126.41 288.06 126.1 288.16C122.64 289.32 119.77 287.25 116.62 286.73C111.03 285.81 107.09 282.38 102.88 279.33C101.85 278.58 100.74 279.2 100.44 278.82C98.29 276.12 94.82 274.94 92.74 272.53C90.77 270.24 88.5 267.76 87.36 264.95C86.09 261.83 82.84 260.26 82.2 256.55C81.67 253.49 78.71 251.25 76.68 248.75C76.05 247.98 75.53 248.05 75.01 249.01C74.07 250.72 74.21 252.68 73.62 254.48C73.32 255.38 73.97 256.51 72.46 256.93C71.95 257.07 72.02 257.8 72.32 258.24C73.49 259.93 72.72 261.32 71.77 262.76C70.94 264.01 70.16 265.1 71.89 266.58C73.21 267.71 71.76 269.51 71.68 271C71.6 272.5 71.27 274.14 70.31 275.48C69.88 276.07 69.68 276.6 70.32 277.24C70.57 277.49 70.77 278.08 70.64 278.36C68.15 283.9 70.11 289.67 69.67 295.29C69.41 298.63 70.28 302.33 67.76 305.33C67.45 305.7 67.6 306.69 67.86 307.25C69.71 311.22 67.89 314.62 66.24 318.03C65.95 318.64 65.38 319.2 65.84 319.83C68.07 322.96 67.18 325.91 65.58 328.95C65.11 329.84 65.01 331.09 65.18 332.11C65.84 336.05 65.91 336.04 63.68 338.37C64.57 338.89 66.28 338.69 65.96 340.31C65.73 341.47 64.85 342.62 63.63 342.63C62.24 342.64 61.17 341.56 60.88 340.2C60.41 338.04 59.7 335.9 61.3 333.72C62.13 332.59 62.18 331.05 61.31 329.5C60.45 327.96 61.13 325.99 61.53 324.48C62.24 321.77 60.74 319.28 61.3 316.83C61.8 314.62 60.91 312.43 61.61 310.38C62.07 309.02 61.24 307.99 61.23 306.76C61.18 303.26 60.87 299.8 62.5 296.49C62.89 295.71 62.21 294.86 61.34 294.56C60.51 294.28 60.33 294.99 59.93 295.56C58.87 297.06 58.39 298.86 57.55 300.45C57.01 301.47 58.18 303.69 59.05 305.08C60.12 306.78 59.76 308.26 58.62 309.33C56.58 311.25 57.11 313.05 57.56 315.46C57.94 317.53 57.51 320.14 56.17 322.19C55.68 322.94 55.33 323.7 55.78 324.51C56.85 326.46 56.29 328.51 55.83 330.36C55.25 332.65 54.9 334.82 55.29 337.19C55.51 338.53 55.09 340.04 53.55 340.73C52.82 341.05 52.04 341.59 51.27 340.77C50.2 339.62 49.29 338.24 50.07 336.74C51.82 333.36 51.29 329.83 50.94 326.35C50.73 324.25 50.78 322.23 51.14 320.17C51.65 317.31 50.87 314.42 51.37 311.52C52.25 306.38 53.12 301.23 52.96 295.96C52.92 294.74 54.23 293.42 54.05 292.27C53.63 289.54 55.44 287.56 55.82 285.32C56.22 282.93 56.34 279.87 55.59 277.63C54.87 275.49 53.86 274.07 55.81 272.29C55.99 272.13 55.92 271.65 55.89 271.33C55.75 269.57 56.01 268.19 58.29 268.3C58.66 268.32 59.07 267.75 59.43 267.47C59.98 267.73 59.86 268.2 59.9 268.58C60 269.54 60.13 270.52 61.41 270.4C62.8 270.27 62.44 269.13 62.45 268.27C62.47 266.61 62.45 264.94 62.41 263.28C62.4 262.82 62.39 262.18 61.72 262.14C61.26 262.11 61.05 262.55 60.88 262.94C60.68 263.39 60.54 263.91 60.22 264.26C59.56 264.98 58.66 264.88 57.91 264.51C57.13 264.13 57.29 263.33 57.72 262.79C58.61 261.69 58.12 260.94 57.42 259.96C56.56 258.74 56.35 257 57.34 255.98C59.08 254.18 58.02 252.21 58.18 250.34C58.26 249.42 57.49 248.54 56.45 248.54C55.17 248.54 55.54 249.66 55.44 250.42C55.14 252.73 53.77 254.64 52.49 256.34C50.56 258.92 49.1 261.58 48.4 264.69C48.22 265.5 47.98 266.18 46.95 266.46C44.53 267.12 44.05 269.53 45.89 271.29C46.33 271.71 47.31 271.88 46.87 272.75C46.51 273.46 45.85 272.9 45.31 272.8C44.46 272.65 43.9 272.96 44.26 273.86C44.72 274.99 43.66 275.48 43.25 275.42C39.4 274.92 37.96 278.52 35.34 280.06C33.51 281.14 32.31 283.54 29.76 281.36C29.26 280.93 28.52 281.21 28.51 281.98C28.51 282.91 27.71 283.36 27.4 284.06C28.05 284.63 28.53 284.17 29.02 283.9C29.73 283.52 30.51 283.26 31 284.08C31.44 284.82 31 285.5 30.42 286.06C28.34 288.06 25.78 289.48 24.03 291.93C23.14 293.18 22.05 292.18 21.78 289.73C18.65 292.87 15.46 296.07 12.25 299.27C11.96 299.56 11.31 299.78 11.31 300.02C11.4 303.63 8.28999 304.11 6.08999 305.52C4.54999 306.51 3.80999 308.65 1.33999 308.37C0.719994 308.3 0.839993 309.97 0.839993 310.86C0.819992 320.43 0.829994 330 0.829994 339.57C0.829994 352.14 0.829994 290.7 0.829994 303.27C0.829994 305.763 2.03666 307.01 4.44999 307.01C83.79 307.01 -76.88 307.01 2.46002 307.03C3.46002 307.03 4.60003 306.54 5.47003 307.5C-75.62 307.5 83.3 307.5 2.20999 307.55C0.339993 307.55 -0.0800056 307.13 -0.0800056 305.26C0.0499935 178.84 0.0499935 426.42 0.0499935 300ZM95.45 109.8C94.71 109.02 94.76 108.13 95.7 107.78C98.18 106.86 99.41 104.82 100.73 102.78C101.07 102.25 101.78 101.93 101.61 101.14C101.51 100.67 101.15 100.49 100.69 100.48C99.81 100.45 99.81 101.28 99.39 101.71C97.8 103.35 97.2 106.08 94.06 106.1C93.09 106.1 91.88 107.33 91.23 108.3C90.55 109.31 92.38 109.2 92.52 110.13C92.09 110.67 90.95 110.13 90.77 111.08C90.73 111.29 91.06 111.73 91.28 111.79C92.12 111.99 92.9 111.65 93.6 111.22C93.77 111.12 93.8 110.79 93.87 110.55C94.13 109.68 94.91 109.89 95.51 109.73C95.83 110.62 97.71 110.19 97.3 111.38C96.93 112.44 96.18 113.66 94.69 113.71C93.93 113.73 93.61 114.21 93.14 114.73C91.34 116.7 89.38 118.91 87.34 120.17C84.09 122.19 82.59 124.29 82.67 128C82.75 131.36 82.94 131.67 86.37 130.97C87.03 130.84 87.66 130.42 88.14 131.15C88.59 131.83 88.47 132.6 88.12 133.3C87.34 134.86 85.99 135.5 84.32 135.74C81.42 136.16 81.02 136.72 81.47 139.7C81.58 140.39 81.75 141.1 81.34 141.62C79.56 143.85 80.12 146.95 78.45 149.2C78.18 148.72 78.11 147.96 77.33 148.09C76.62 148.21 76.62 148.87 76.5 149.45C76.08 151.4 77.38 153.21 77.1 155.02C76.73 157.39 74.97 159.51 75.72 162.14C75.77 162.33 75.63 162.75 75.48 162.8C72.06 164.08 74.54 167.13 73.86 169.24C73.17 171.37 73.88 174.24 72.89 176.68C72.62 177.36 72.97 177.95 72.97 178.54C72.97 181.29 74.49 183.84 74.17 186.53C73.74 190.1 73.37 193.46 74.34 197.13C75.52 201.59 75.26 206.31 74.53 210.97C74.28 212.58 73.29 214.22 73.76 215.79C75 219.92 75.92 224.16 77.39 228.18C79.12 232.92 79.39 238.15 82.64 242.43C85.08 245.65 86.03 249.89 88.7 253.02C89.98 254.52 90.97 256.02 91.43 257.9C91.55 258.41 91.79 258.75 92.25 259.05C94.42 260.45 96.08 262.55 97.33 264.6C98.61 266.72 100.37 267.88 102.12 269.3C103.09 270.09 103.81 268.22 104.71 269.47C106.22 271.57 109.81 271.12 110.66 274.26C110.82 274.85 111.98 275.03 112.85 275.16C114.57 275.41 116.33 275.76 117.91 276.44C120.15 277.4 122.57 277.6 124.85 278.68C127.15 279.77 129.96 280.22 132.55 280.89C133.63 281.17 135.03 281.78 136.07 281.3C138.32 280.26 140.66 280.08 143.11 279.6C143.07 280.11 143.1 280.36 143.03 280.58C142.82 281.21 142.39 282.03 143.09 282.39C144.03 282.88 143.89 281.42 144.27 281.35C146.12 281.01 148.01 280.88 149.89 280.7C149.91 280.7 150.04 281.12 150.01 281.32C149.9 281.91 149.73 282.57 150.58 282.67C151.13 282.73 151.33 282.18 151.63 281.76C153.37 279.3 154.12 279.25 156.27 281.31C156.83 281.85 157.42 282.94 158.25 281.99C159.15 280.96 160.73 280.99 161.38 279.48C161.79 278.54 163.05 278.65 163.97 279.44C165.67 280.89 167.19 280.01 168.56 278.9C169.72 277.95 170.72 276.98 172.43 277.79C173.68 278.38 175.54 277.79 175.79 276.97C176.28 275.38 177.67 275.33 178.49 274.46C179.92 272.92 182.58 273.44 183.56 271.04C184.19 269.51 185.67 269.45 187 270.83C187.37 268.02 188.26 265.93 190.94 265.07C191.65 264.84 192.42 264.39 192.23 263.47C191.87 261.71 193.1 260.72 193.92 259.51C196.54 255.66 199.26 251.87 200.25 247.16C200.57 245.64 201.08 243.99 202.42 243.08C203.82 242.13 204.25 240.86 204.47 239.36C204.8 237.05 205.45 234.85 206.83 232.92C208.41 230.71 210.03 228.51 210.02 225.6C210.02 224.82 210.55 224.22 210.8 223.52C211.63 221.22 213.82 219.31 213.52 216.77C213.06 212.71 214.14 208.81 214.59 204.92C215.28 199.01 218.02 193.48 218.84 187.49C219.06 185.89 219.75 184.32 219.65 182.64C219.38 178.45 219.7 174.24 220.38 170.15C220.76 167.85 221.35 165.63 220.78 163.38C220.49 162.26 220.19 161.18 220.1 160.01C219.54 153.21 220.56 146.42 220.1 139.61C219.61 132.1 220.21 124.59 220.69 117.09C220.79 115.52 220.94 113.93 220.79 112.37C220.57 110.24 218.85 109.35 217.04 109.12C214.81 108.84 214.32 110.23 214.58 112.26C214.7 113.2 214.72 114.51 213.11 114.67C211.62 114.82 210.6 114.51 210.02 112.92C209.08 110.36 207.58 107.86 204.63 107.83C202.57 107.81 202.41 106.81 201.94 105.48C200.9 102.48 201.23 98.69 197.37 97.21C197.09 97.1 196.84 96.5 196.85 96.14C196.96 93.15 194.19 92.05 192.78 90.12C191.13 87.86 187.81 86.61 189.26 82.85C189.48 82.28 188.67 81.67 189.11 81.03C192.07 80.95 188.64 84.85 191.01 84.8C193.77 82.99 192.11 79.66 194.23 77.77C194.36 77.65 194.29 77.09 194.13 76.89C193.8 76.49 193.38 76.71 193.04 76.99C191.71 78.08 190.28 78.96 188.53 79.48C188.67 78.56 191.36 73.57 191.87 73.12C192.79 72.3 193.4 72.91 193.93 73.59C194.88 74.79 195.77 76.04 196.81 77.45C197.48 74.27 195.19 69.3 193.12 67.5C190.78 65.47 188.21 63.6 186.2 61.28C183.78 58.49 181.29 55.81 178.68 53.2C177.44 51.96 175.22 52.24 174.8 49.85C174.42 51.04 174.7 52.45 173.07 51.99C171.96 51.68 170.82 51.38 169.79 50.88C167.55 49.8 166.55 50.15 165.78 52.56C165.37 53.84 165.01 55.22 163.75 55.86C161.47 57.03 160.24 59.27 158.42 60.83C156.24 62.69 154.86 65.47 151.78 66.4C148.87 67.28 146.82 69.78 144.02 71.11C142.54 71.81 141.05 73.22 139.37 74.08C137.03 75.28 134.98 76.82 133.06 78.72C131.24 80.51 128.7 81.68 126.31 82.73C124.71 83.43 123.69 83.85 124.92 85.66C125.39 86.36 125.6 87.09 124.68 87.55C123.96 87.91 123.26 87.65 122.61 87.14C122.07 86.72 122.57 85.74 121.69 85.55C120.89 85.84 121.24 86.52 121.16 87.05C120.74 90.01 120.62 93.18 116.61 93.68C116.13 93.74 115.64 93.8 115.16 93.81C114.3 93.82 113.8 94.26 114.17 95.05C115.43 97.72 113 99.37 111.74 99.71C109.17 100.4 107.98 102.01 106.22 103.59C104.93 104.75 103.31 106.32 101.54 107.09C99.98 107.77 100.47 109.48 99.37 110.21C98.09 111.06 97.34 108.31 95.93 109.64C95.83 109.74 95.61 109.73 95.45 109.77V109.8ZM152.16 45.79C153.42 46.11 155.41 45.59 154.19 48.14C153.86 48.83 154.6 49.72 155.38 50.11C156.07 50.45 156.63 50.09 157.15 49.58C157.85 48.88 158.55 48.17 159.35 47.58C160.02 47.09 160.5 46.55 160.31 45.73C160.09 44.78 159.19 44.8 158.47 44.84C156.56 44.94 154.44 44.58 153.32 43.35C150.83 40.59 148.37 42.91 145.94 42.87C145.24 42.86 144.92 43.62 145.22 44.41C145.86 46.05 147.06 46.65 148.75 46.38C149.9 46.2 151.04 45.98 152.15 45.79H152.16ZM104.33 50.28C103.27 49.83 102.54 49.94 102.26 50.62C100.95 53.76 97.8 55.23 95.73 57.72C92.53 61.58 91.33 66.6 87.64 70.03C87.15 70.49 87.11 71.56 88 71.94C88.83 72.29 89.38 71.73 89.7 70.94C92.13 65 96.65 60.47 100.23 55.3C101.42 53.59 102.86 52.05 104.32 50.27L104.33 50.28ZM57.84 230.59C58.66 229.71 59.37 228.39 60.3 228.63C61.5 228.95 60.68 230.36 60.88 231.28C61.03 232 61.01 232.98 62 232.89C62.88 232.81 62.58 231.88 62.67 231.26C62.76 230.59 62.62 229.56 63.78 229.9C65.35 230.35 65.36 230.42 65.11 228.89C64.95 227.9 64.91 226.93 65.06 225.93C65.28 224.48 63.94 223.42 63.16 223.29C62.11 223.12 60.35 223.63 61.36 225.68C61.89 226.76 60.68 226.51 60.32 226.91C59.39 227.96 57.17 228.06 57.85 230.58L57.84 230.59ZM212.72 96.61C212.58 96.01 212.39 95.37 212.28 94.72C211.9 92.52 210.92 90.53 210.06 88.5C209.78 87.83 210.39 86.52 209.19 86.58C207.99 86.64 208.34 87.97 208.2 88.8C208.1 89.39 208.36 89.91 208.67 90.43C209.85 92.37 210.49 94.48 210.51 96.77C210.51 97.56 210.28 98.69 211.45 98.72C212.73 98.75 212.42 97.46 212.71 96.61H212.72ZM125.88 33.96C127.45 34.11 128.52 32.12 130.39 32.32C131.72 32.47 132.79 31.27 132.46 30.14C132.06 28.79 130.58 29.15 129.48 29.56C127.73 30.22 126.45 31.77 124.44 32.06C123.66 32.17 122.1 32.59 122.61 33.88C123 34.86 124.03 34.14 124.72 33.68C125.05 33.46 125.33 33.56 125.87 33.95L125.88 33.96ZM40.17 251.72C39.22 250.82 38.32 249.91 37.34 249.1C37.23 249.01 36.59 249.41 36.3 249.69C34.59 251.34 34.74 253.66 34.23 255.74C34.18 255.93 34.53 256.33 34.78 256.45C35.26 256.67 35.47 256.24 35.74 255.92C36.73 254.74 37.03 252.73 39.3 253.04C39.54 253.07 39.91 252.14 40.18 251.73L40.17 251.72ZM110.32 37.44C111.01 41.14 111.02 41.16 113.73 39.64C114.15 39.4 114.52 39.52 114.91 39.5C115.55 39.47 116.5 39.56 116.37 38.65C116.27 37.9 115.76 37.07 115.18 36.56C114.58 36.03 113.47 36.21 113.24 36.92C112.68 38.64 111.69 38.25 110.32 37.44ZM117.98 87.05C117.3 89.68 117.23 89.71 115.2 88.46C114.72 88.16 113.86 87.64 113.79 88.2C113.68 89.16 112.12 89.88 113.07 90.73C113.61 91.21 114.19 92.89 115.05 91.97C116.24 90.7 118.82 90.2 117.97 87.05H117.98ZM35.28 270.82C37.32 270.46 37.76 268.82 38.79 267.85C39.25 267.42 39.84 266.9 39.32 266.15C39.03 265.74 38.57 265.46 38.04 265.5C37.29 265.56 36.87 266.05 36.65 266.73C36.24 267.97 35.82 269.21 35.28 270.81V270.82ZM106.35 97.62C106.15 96.75 105.84 96 104.91 96.1C102.89 96.32 103.44 98.17 102.99 99.37C102.79 99.91 103.31 100.56 103.73 100.18C104.64 99.36 106.17 99.08 106.34 97.62H106.35ZM30.29 258.97C30.37 258.18 30.07 257.82 29.44 258.01C28.19 258.4 27.53 259.29 27.61 260.61C27.65 261.41 28.05 262.28 28.94 262.01C30.5 261.54 29.65 259.81 30.29 258.97ZM59.73 129.34C60.63 128.53 62.23 128.01 61.26 126.28C61 125.82 60.4 125.54 60.02 125.99C59.18 127.01 58.3 128.13 59.73 129.33V129.34ZM62.56 260.43C62.78 258.38 63.4 256.95 62.66 255.39C61.31 256.84 61.24 257.86 62.56 260.43ZM75.9 92.34C76.74 92.35 77.18 91.97 77.16 91.17C77.15 90.41 77.02 89.56 76.08 89.56C75.34 89.56 75.11 90.35 74.96 90.99C74.77 91.78 75.16 92.22 75.9 92.35V92.34ZM43.69 261.54C43.77 260.91 43.48 260.34 43.14 260.51C42.17 260.97 40.88 261.09 40.39 262.21C40.17 262.72 40.7 263.08 41.28 263.1C42.54 263.16 43.21 262.39 43.68 261.54H43.69ZM34.02 275.78C32.64 274.65 31.66 274.22 30.65 275.38C30.27 275.82 30.29 276.37 30.74 276.68C32.06 277.56 32.7 276.18 34.02 275.79V275.78Z" fill="#EEFE05"/>
<path d="M50.9795 152.56C49.2995 152.28 48.3295 151.67 50.0195 149.83C50.9195 148.85 50.5595 147.15 50.3095 146.08C49.5295 142.79 51.8895 140.78 52.9495 138.25C53.0495 138.01 53.4495 137.74 53.6995 137.75C54.3195 137.77 54.4095 138.31 54.4895 138.82C54.9395 141.74 54.6395 144.57 53.5995 147.34C53.3395 148.03 52.8795 148.78 52.9695 149.44C53.4095 152.71 52.7495 156.16 53.3195 159.16C53.8895 162.16 54.7195 165.32 55.5495 168.37C56.1395 170.55 57.2395 172.66 56.8995 175.04C56.6995 176.45 57.7995 177.32 58.4095 178.34C59.8695 180.79 59.7295 183.84 61.6495 186.13C62.6395 187.31 62.0695 188.43 60.6995 189.14C58.5595 190.25 55.7195 189.11 55.1095 186.77C53.7195 181.44 52.4795 176.08 51.2195 170.73C50.5395 167.83 50.1795 164.82 49.2295 161.93C48.1795 158.75 49.2295 155.6 50.9795 152.57V152.56Z" fill="#EEFE05"/>
<path d="M45.5605 277.09C45.4605 278.75 45.7705 280.53 43.5305 280.82C43.3505 280.84 43.0405 281.27 43.0805 281.35C44.4805 283.83 42.2805 286.69 44.0905 289.23C45.6505 291.42 43.6405 293.51 43.1305 295.6C42.9505 296.32 41.6605 296.04 41.7605 295.28C42.1705 292.2 40.1205 289.63 40.2005 286.65C40.2005 286.4 40.3305 286.14 40.2905 285.91C40.1605 285.23 40.8305 284.39 39.9505 283.89C39.5705 283.68 39.1605 283.89 38.8805 284.28C38.4205 284.92 37.4205 285.44 38.0305 286.38C38.9005 287.74 38.7505 288.87 38.0605 290.31C37.0505 292.42 38.9705 291.15 39.5705 291.37C39.5905 291.49 39.6405 291.62 39.6105 291.65C37.4905 293.52 39.6605 295.03 40.0405 296.68C40.1105 296.99 40.4305 297.27 40.8105 297.12C41.5805 296.8 42.2705 296.6 42.5105 297.73C42.7105 298.64 42.5405 299.39 41.5905 299.78C40.9005 300.06 40.9005 301.18 39.9005 301.14C38.9205 300.36 40.4305 298.74 38.9405 298.13C38.2505 297.85 37.5605 297.52 36.6705 298.2C38.9405 300.99 38.5305 303.81 36.6505 306.66C35.2505 308.79 36.1305 311.38 35.4405 313.69C35.2205 314.43 35.0705 315.05 34.4005 315.54C33.1505 316.47 32.2105 317.14 32.2305 314.7C32.2305 313.91 31.7505 313.12 31.5405 312.32C31.3705 311.69 31.5905 311.18 32.1505 310.82C33.1305 310.2 33.1505 311.32 33.7905 311.72C33.7705 309.97 32.8905 308.62 32.3005 307.21C31.8805 306.21 31.6105 305.18 32.3805 304.4C34.8105 301.95 34.0805 298.36 35.7705 295.55C37.9005 292.02 36.1605 287.58 37.5505 283.77C38.1505 282.12 38.1505 279.78 41.1005 280.08C41.8105 280.15 42.8305 279.03 43.4005 278.23C43.9605 277.45 44.7405 277.39 45.5105 277.09H45.5605Z" fill="#EEFE05"/>
<path d="M34.3102 328.49C34.9702 330.21 34.5802 332.1 36.9002 331.2C37.5702 330.94 37.5502 332.51 37.7102 333.28C38.0102 334.66 37.9402 336.13 36.5102 336.73C35.1802 337.29 35.6902 337.81 35.6102 338.88C35.4402 341.23 34.6002 343.75 33.2902 345.7C32.5702 346.76 30.6002 345.46 30.1502 344.28C29.3902 342.31 29.1902 340.12 29.8502 338.02C30.0302 337.44 29.8502 337.26 29.4502 337.12C27.9502 336.61 28.7002 335.44 28.7902 334.59C28.8902 333.63 29.5802 333.08 30.6202 332.87C33.7502 332.23 33.7402 332.19 34.3002 328.48L34.3102 328.49Z" fill="#EEFE05"/>
<path d="M54.9406 203.85C55.7406 206.2 54.2306 207.49 54.3206 209.24C54.4106 210.97 53.5106 212.72 54.4806 214.54C54.8406 215.22 54.2806 216.03 53.4606 216.27C52.3806 216.58 51.2606 216.93 50.1606 216.91C49.7306 216.91 49.7606 215.79 50.1806 215.39C51.2206 214.41 51.2106 213.19 51.2006 211.95C51.1906 210.11 51.8206 208.53 53.2406 207.38C54.2106 206.59 54.4306 205.48 54.9406 203.84V203.85Z" fill="#EEFE05"/>
<path d="M30.5403 326.55C31.3303 327.08 31.9803 325.69 32.6203 326.55C33.1103 327.22 32.9303 327.96 32.6603 328.68C32.4503 329.26 32.0903 329.71 31.4203 329.72C30.7603 329.73 30.4003 329.31 30.1003 328.77C28.6403 326.21 30.1703 320.02 32.6403 318.49C33.1403 318.18 33.7903 317.82 34.2103 318.3C34.6903 318.85 34.0903 319.46 33.6703 319.72C32.3503 320.54 32.2103 321.32 33.3403 322.45C34.2603 323.38 33.6703 324.06 32.7303 324.57C31.8903 325.03 30.8003 325.2 30.5303 326.55H30.5403Z" fill="#EEFE05"/>
<path d="M61.1507 202.95C62.3007 203.38 62.3707 204.44 62.3407 205.38C62.2907 207.01 61.9907 208.61 62.8207 210.19C63.1407 210.8 62.9207 211.61 61.8807 211.32C61.0307 211.08 60.2607 211.19 59.4507 211.46C59.1807 211.55 58.5807 211.48 58.5707 211.42C58.3007 209.56 58.0107 207.69 57.9107 205.82C57.8907 205.36 58.4807 204.71 59.1807 205.35C61.1107 207.11 61.0606 205.99 60.7106 204.32C60.6106 203.83 60.6407 203.33 61.1507 202.95Z" fill="#EEFE05"/>
<path d="M39.1409 315.81C37.4309 313.35 37.6609 308.82 39.4209 306.6C39.6409 306.32 39.8109 306.04 40.1909 306.27C40.6909 306.57 41.1209 306.93 41.0409 307.64C40.7809 309.86 41.5109 312.29 39.5609 314.15C39.2609 314.43 39.3209 315.08 39.1509 315.82L39.1409 315.81Z" fill="#EEFE05"/>
<path d="M171.469 28.56C170.459 29.1 169.249 29.9 167.919 30.36C167.379 30.55 166.389 30.27 166.219 29.32C166.069 28.51 168.529 24.99 169.199 24.98C169.739 24.98 171.409 27.23 171.469 28.55V28.56Z" fill="#EEFE05"/>
<path d="M38.1803 317.21C38.6703 319.26 39.6203 321.31 38.1803 323.44C34.9003 321.24 37.8103 319.24 38.1803 317.21Z" fill="#EEFE05"/>
<path d="M163.43 27.9403C163.02 28.4903 163.52 29.7103 162.31 29.8203C161.69 29.8703 161.02 29.4303 161.17 28.8103C161.37 27.9903 161.66 26.9703 162.9 27.0703C163.41 27.1103 163.67 27.3303 163.43 27.9503V27.9403Z" fill="#EEFE05"/>
<path d="M207.76 148.58C208.44 150.35 207.45 151.49 205.73 152.23C204.4 152.81 204.1 153.53 204.82 154.96C206.4 158.09 204.55 160.84 203.48 163.63C203.33 164.01 202.76 164.44 202.35 164.49C199.86 164.75 197.42 164.19 195.09 163.45C193.8 163.03 193.04 158.12 193.93 156.86C194.56 155.98 195.53 155.18 194.91 154.01C194.21 152.71 192.64 152.94 191.59 152.94C188.01 152.94 184.37 153.76 180.85 153.39C177.66 153.06 174.47 151.91 171.62 150.21C170.72 149.68 170.61 148.41 171.26 147.77C172.27 146.77 173.95 145.59 175.12 146.45C178 148.56 179.74 146.35 182.16 145.68C184.59 145 187.81 142.58 190.47 145.9C190.89 146.43 192.05 146.6 192.45 145.82C193.22 144.3 194.39 144.76 195.63 144.69C197.81 144.57 199.93 143.93 202.13 143.68C207.19 143.12 207.53 143.25 207.76 148.57V148.58Z" fill="#EEFE05"/>
<path d="M149.5 243.73C150.58 241.5 152.28 240.79 154.21 240.31C155.01 240.11 156.15 240.34 156.51 239.24C156.7 238.65 156.83 237.93 157.53 238.15C157.96 238.28 158.28 238.99 158.51 239.5C159.46 241.63 158.66 243.8 157.69 245.46C156.56 247.4 155.23 249.62 152.49 249.93C152.57 250.72 153.2 250.71 153.6 250.58C155.18 250.07 156.72 249.76 158.44 249.96C159.93 250.14 160.69 248.66 161.44 247.63C162.27 246.49 161.1 246.04 160.4 245.33C159.26 244.17 160 240.09 161.44 239.4C162.62 238.83 163.66 239.68 164 240.65C164.73 242.75 165.5 244.47 168.22 243.7C168.4 243.65 168.75 243.79 168.86 243.95C169.86 245.44 170.85 246.88 172.17 248.17C173.54 249.51 173.2 251.35 172.41 253.07C172.19 253.54 172.41 254.21 172.39 254.79C172.36 255.4 172.19 255.98 171.52 256.16C170.9 256.32 170.24 256.06 170 255.54C168.81 252.95 166.57 253.87 164.6 253.8C160.71 253.67 156.76 254.51 152.93 253.16C152.62 253.05 152.26 252.85 151.98 252.91C149.38 253.49 147.39 253.27 147.34 249.87C147.34 249.28 146.6 248.85 145.92 248.6C144.74 248.17 144.19 247.2 143.76 246.04C142.53 242.7 142.18 242.42 139.3 244.54C137.63 245.77 136.95 244.6 135.96 244.05C135.23 243.64 135.72 242.84 135.79 242.21C135.85 241.64 136.3 241.12 136.78 241.36C140.01 242.97 141.36 240.49 142.66 238.5C143.95 236.51 144.93 237.82 145.45 238.71C146.34 240.23 146.67 242.11 149.02 242.05C149.14 242.05 149.28 242.92 149.5 243.74V243.73Z" fill="#EEFE05"/>
<path d="M116.739 155.72C115.369 156.02 114.409 155.26 113.609 154.04C112.499 152.33 111.099 150.82 110.919 148.59C110.799 147.04 109.479 146.61 108.139 146.77C101.679 147.55 95.4791 146.82 89.5891 143.89C88.9491 143.57 88.3491 143.45 88.6191 142.52C89.1591 140.67 90.6291 142.25 91.3091 141.78C91.9791 141.32 91.5891 139.16 93.3191 141.1C94.3391 142.25 95.8891 140.93 96.6391 140.41C98.1491 139.37 99.9191 139.42 101.429 138.62C101.689 138.48 102.329 138.49 102.339 138.54C103.009 141.45 104.639 139.18 105.739 139.1C110.629 138.78 115.509 138.28 120.389 137.89C122.799 137.7 123.399 140.07 124.519 141.37C125.199 142.16 125.609 144.13 124.749 145.61C124.099 146.72 123.129 146.79 121.969 146.77C118.819 146.71 118.519 147.23 119.889 150C121.499 153.25 120.229 155.71 116.759 155.72H116.739Z" fill="#EEFE05"/>
<path d="M165.89 216.48C165.72 218.34 164.43 219.65 162.73 220.67C161.68 221.29 161.26 220.32 160.67 219.83C160.12 219.38 160.02 218.99 160.33 218.16C161.71 214.51 161.59 210.74 160.24 207.13C159.82 206.01 158.37 205.32 157.11 204.92C152.91 203.57 149.27 201.54 147.26 197.32C146.66 196.05 145.62 194.97 146.96 193.52C147.22 193.24 146.93 192.45 146.87 191.9C146.18 185.73 146.98 179.57 146.87 173.4C146.82 170.72 147.26 168.03 147.53 165.35C147.63 164.3 148.01 163.35 149.3 163.34C150.76 163.34 150.71 164.4 150.75 165.44C150.91 170.18 151.26 174.93 151.24 179.67C151.23 183.78 150.56 187.88 151.08 192.01C151.51 195.49 152.52 197.95 156.29 199.72C158.83 200.91 162.44 201.77 163.75 205.15C163.93 205.61 164.4 205.98 164.47 206.44C164.98 209.7 165.42 212.96 165.92 216.49L165.89 216.48Z" fill="#EEFE05"/>
<path d="M171.24 258C168.42 258.19 167.02 259.75 166.17 261.95C165.36 264.04 163.15 264.28 161.61 265.4C158.7 267.51 155.21 268.92 151.92 267.53C149.41 266.47 145.97 267.15 144.34 264.07C143.92 263.28 143.25 263.65 142.71 264.2C142.12 264.81 141.54 264.53 140.94 264.13C140.14 263.61 140.3 263.12 140.85 262.54C141.08 262.3 141.21 261.94 140.93 261.65C140.66 261.38 140.28 261.39 140.04 261.67C138.79 263.19 138.6 262.15 138.28 261.02C138.06 260.26 137.41 259.62 136.58 260.05C134.98 260.88 134.16 259.36 133 258.95C132.06 258.62 132.28 257.51 132.58 256.75C132.96 255.76 133.67 256.07 134.41 256.46C136.26 257.42 138.4 257.85 139.78 259.66C140.37 260.44 141.07 260.65 141.1 259.23C141.15 257.34 142.3 257.62 143.28 258.32C144.36 259.09 145.9 258.97 146.71 260.21C146.81 260.37 147.25 260.51 147.35 260.43C150.38 258.1 153.9 260.31 157.08 259.39C157.89 259.16 158.6 258.79 159.34 258.45C160.89 257.74 162.53 256.85 164.13 258.39C164.58 258.82 164.99 258.91 165.36 258.4C165.73 257.9 165.52 257.46 165.01 257.17C164.37 256.8 163.87 256.27 164.4 255.58C164.92 254.9 165.43 255.55 165.86 255.87C166.86 256.6 167.78 254.68 168.82 255.83C169.47 256.54 170.25 257.13 171.24 258.01V258Z" fill="#EEFE05"/>
<path d="M184.701 74.2701C184.901 75.9701 184.101 76.5701 183.141 76.9601C182.091 77.3901 181.271 77.0501 180.561 76.1201C179.221 74.3701 177.351 73.0001 176.091 71.2901C174.671 69.3701 173.151 67.4601 171.971 65.3701C171.161 63.9401 172.581 62.8301 173.341 61.9801C174.311 60.9001 174.791 62.4201 175.551 62.8901C178.711 64.8301 179.981 67.8101 180.611 71.2101C180.861 72.5401 181.411 73.1602 182.811 72.7302C184.731 72.1402 184.341 73.8501 184.701 74.2701Z" fill="#EEFE05"/>
<path d="M149.16 222.64C151.95 224.15 152.77 223.01 153.17 221.09C153.34 220.26 156.92 218.34 157.73 218.53C158.15 218.63 158.28 218.89 158.25 219.23C158.15 220.69 159.23 220.94 160.27 221.27C160.73 221.42 161.26 221.6 161.33 222.18C161.41 222.88 160.77 223.42 160.35 223.44C156.87 223.61 153.47 225.96 149.91 223.89C149.74 223.79 149.68 223.52 149.16 222.63V222.64Z" fill="#EEFE05"/>
<path d="M150.621 148.88C151.241 149.31 152.021 149.82 151.481 150.64C150.071 152.78 150.551 154.64 151.941 156.56C153.061 158.11 151.721 159.56 151.401 161.02C151.261 161.64 150.331 161.56 149.631 161.48C148.881 161.39 148.461 161.21 148.271 160.37C147.401 156.66 147.721 153.14 149.651 149.81C149.881 149.41 149.901 148.79 150.621 148.88Z" fill="#EEFE05"/>
<path d="M127.83 248.74C126.87 248.37 125.41 248.45 125.06 247.2C124.74 246.06 125.77 245.21 126.66 244.64C128.18 243.67 129.81 242.88 131.37 241.98C132.18 241.51 132.57 242 132.98 242.57C133.63 243.48 134.36 245.02 133.45 245.42C131.63 246.22 131.04 248.78 128.66 248.59C128.42 248.57 128.18 248.68 127.83 248.75V248.74Z" fill="#EEFE05"/>
<path d="M178.97 122.45C176.55 122.48 175.43 121.14 176.42 119.32C176.93 118.38 177.74 117.63 178.78 118.65C179.39 119.25 179.89 119.57 180.71 119.2C181.14 119.01 181.7 118.64 182.05 119.17C182.43 119.75 182.29 120.48 181.97 121.06C181.32 122.22 180.18 122.43 178.98 122.45H178.97Z" fill="#EEFE05"/>
<path d="M191.35 122.47C189.4 122.9 188.97 120.38 187.26 120.36L187.41 119.15C188.54 119.36 189.63 118.22 190.71 118.92C191.65 119.53 192.95 120.05 193.15 121.22C193.33 122.29 192.12 122.27 191.35 122.46V122.47Z" fill="#EEFE05"/>
<path d="M140.37 252.1C139.7 251.88 138.55 252.22 138.76 251.07C139.03 249.53 140.51 249.87 141.58 249.68C142.11 249.58 142.95 249.52 142.72 250.42C142.43 251.56 141.55 252.14 140.37 252.11V252.1Z" fill="#EEFE05"/>
<path d="M129.01 253.5C130.16 253.5 131.31 253.34 131.58 254.75C131.68 255.25 131.42 256.03 130.99 255.95C129.73 255.7 129.77 254.29 129.01 253.49V253.5Z" fill="#EEFE05"/>
<path d="M185.439 73.3101C186.059 74.0601 186.269 74.2201 186.239 74.2901C185.749 75.5301 187.939 76.5201 186.569 77.8101C186.459 77.9101 185.989 77.8701 185.929 77.7601C185.279 76.5601 185.669 75.2801 185.439 73.3101Z" fill="#EEFE05"/>
<path d="M198.84 118.78C198.56 119.34 198.1 119.82 197.42 119.78C196.95 119.75 196.5 119.38 196.63 118.77C196.77 118.11 197.3 117.88 197.91 117.89C198.43 117.89 198.89 118.04 198.85 118.78H198.84Z" fill="#EEFE05"/>
</g>
<defs>
<clipPath id="clip0_3024_7254">
<rect width="245.55" height="381.55" fill="white"/>
</clipPath>
</defs>
</svg>
