<svg width="301" height="176" viewBox="0 0 301 176" fill="none" xmlns="http://www.w3.org/2000/svg">
<g clip-path="url(#clip0_3024_7786)">
<path d="M60.8197 206.884C60.8197 173.974 70.0942 132.688 90.7376 105.463L90.7376 83.6225C102.106 72.8521 123.049 67.4669 152.668 67.4669C175.106 67.4669 199.639 74.0488 210.11 83.3234C210.409 84.2209 209.511 95.2905 209.511 100.077C209.511 110.549 210.11 114.438 223.573 131.491C238.233 150.04 243.019 162.007 243.019 179.958C243.019 200.601 240.327 217.355 235.241 229.921C229.856 243.085 226.864 253.556 225.368 258.941C224.47 262.531 222.675 266.121 220.88 268.515C220.282 277.191 219.683 285.867 218.786 294.543C217.29 308.306 215.196 325.658 213.7 337.924C210.708 362.457 203.827 372.928 189.466 372.928C175.405 372.928 168.823 363.055 168.823 343.609C168.823 336.728 169.721 322.666 169.721 310.101C169.721 300.527 169.122 291.252 168.524 282.576C163.438 286.166 158.352 287.363 151.172 287.363C141.598 287.363 135.913 283.175 132.024 274.498C130.827 271.806 129.631 270.31 127.537 270.31C124.246 270.31 119.758 273.302 114.073 273.302C103.901 273.302 96.7211 268.216 93.4302 258.642C92.5326 255.949 91.9343 255.65 87.4466 255.65C69.4959 255.65 60.8197 238.597 60.8197 206.884ZM70.9918 206.884L70.9918 218.851C72.4877 214.064 74.8811 207.782 79.668 198.507C85.9507 186.54 94.0285 176.368 100.61 171.88C102.106 171.282 104.5 170.983 106.594 170.983C110.483 170.983 114.073 172.778 116.467 174.872C120.356 167.393 124.246 160.811 126.938 157.52C128.733 156.024 132.024 154.528 135.914 154.229C134.118 148.843 133.52 142.86 133.52 135.979C133.52 131.192 134.118 126.106 135.016 122.516L145.487 122.516C144.59 125.807 144.291 132.089 144.291 135.979C144.291 144.356 145.188 150.938 147.881 156.323C152.667 159.016 155.958 163.802 156.557 169.786C159.249 168.888 162.241 168.29 165.233 168.29C175.405 168.29 184.081 174.872 184.081 187.138C184.081 191.626 182.585 196.114 180.79 200.9C182.885 202.396 185.278 204.191 187.971 205.687C189.766 199.105 192.159 194.019 194.253 191.925L201.434 200.003C197.544 203.593 191.561 235.605 191.561 247.872C191.561 255.949 196.647 263.728 207.716 263.728L210.708 263.728L210.708 263.429C211.606 263.429 213.999 259.539 214.897 256.249C216.393 250.863 219.683 239.495 225.368 225.732C229.856 214.663 232.249 199.105 232.249 179.958C232.249 164.401 228.36 154.827 214.897 138.073C200.835 120.421 198.741 113.54 198.741 100.077C198.741 97.0856 199.04 92.2987 199.339 88.7086C188.868 82.725 170.02 78.2373 152.668 78.2373C128.733 78.2373 111.68 81.8275 101.508 88.7086L101.508 109.053C82.9589 130.893 70.9918 168.589 70.9918 206.884ZM80.8647 54.9014C80.8647 35.4548 123.049 30.0696 150.573 30.0696C177.798 30.0696 220.581 35.754 220.581 54.9014L220.581 77.3398C220.581 80.9299 217.888 83.3234 213.401 83.3234L212.802 83.3234C214.597 81.8275 214.897 80.9299 214.897 78.8357C214.897 62.0817 177.499 57.594 150.573 57.594C123.049 57.594 85.9507 62.9792 85.9507 78.8357C85.9507 80.9299 86.8482 82.1266 88.9425 83.3234L86.8482 83.3234C83.5573 83.3234 80.8647 81.8275 80.8647 77.3398L80.8647 54.9014ZM168.823 241.29C176.003 243.384 179.594 252.06 179.594 260.736C179.594 266.121 179.294 269.113 178.696 271.806C179.294 283.773 180.491 298.433 180.491 310.101C180.491 322.965 179.594 337.027 179.594 343.609C179.594 357.969 182.585 362.158 189.466 362.158C196.946 362.158 199.938 355.875 202.929 336.428C204.725 324.461 206.52 308.006 208.016 293.047C208.614 287.662 208.913 281.08 209.511 274.199L208.016 274.199C190.663 274.199 180.79 262.232 180.79 248.47C180.79 240.691 182.585 227.827 185.278 216.159C182.286 214.663 179.594 212.868 176.901 211.073L176.901 211.372C175.106 216.458 171.217 225.732 168.823 241.29ZM134.418 251.761C134.418 256.548 136.213 261.035 141 268.814C145.188 275.396 146.086 276.593 150.274 276.593C157.454 276.593 164.335 275.695 168.823 270.011C169.122 267.916 169.122 266.121 169.122 264.626C169.122 253.257 164.635 249.966 156.856 249.966C158.95 230.519 162.84 219.749 167.028 208.679C169.421 201.2 175.106 193.122 174.208 186.54C173.909 183.249 172.114 178.761 166.43 178.761C164.036 178.761 160.147 180.257 159.249 180.556C154.762 186.241 147.581 197.61 140.7 217.056C136.512 228.724 134.418 243.982 134.418 251.761ZM101.209 246.974C101.209 256.249 104.5 263.728 112.877 263.728C117.664 263.728 122.151 262.531 125.143 261.335C123.946 258.343 123.647 256.249 123.647 253.257C123.647 246.376 126.34 228.425 130.528 215.56C135.016 201.798 141.299 188.933 147.282 179.36C148.18 176.966 148.778 174.872 148.778 172.778C148.778 167.393 143.991 164.102 138.905 164.102C136.512 164.102 133.819 164.999 132.024 166.196C127.836 171.88 117.664 191.626 112.578 204.79C105.696 222.441 101.209 235.605 101.209 246.974ZM78.1721 235.605C78.1721 245.179 85.6515 246.675 90.1392 246.675C90.7376 246.675 91.3359 246.675 91.9343 246.376L91.9343 244.281C91.9343 227.827 99.4137 212.868 103.901 201.798C105.996 197.011 108.688 190.728 111.68 184.745C109.885 182.95 106.893 181.454 104.201 181.155C99.7129 184.446 93.4302 192.224 88.9425 200.302C82.9589 211.073 78.1721 217.355 78.1721 235.605Z" fill="#131313"/>
</g>
<defs>
<clipPath id="clip0_3024_7786">
<rect width="301" height="176" fill="white" transform="translate(301 176) rotate(-180)"/>
</clipPath>
</defs>
</svg>
