<svg width="133" height="70" viewBox="0 0 133 70" fill="none" xmlns="http://www.w3.org/2000/svg">
<path d="M68.561 69.7486C55.9632 69.7486 40.1588 66.1983 29.737 58.2961H21.3766C17.2537 53.9441 15.1922 45.9274 15.1922 34.5894C15.1922 26 17.7118 16.6089 21.2621 12.6005C21.6057 12.486 25.8431 12.8296 27.6755 12.8296C31.6839 12.8296 33.1727 12.6005 39.7007 7.44687C46.8012 1.83514 51.3822 0.00273138 58.2537 0.00273138C66.156 0.00273138 72.5694 1.03346 77.3795 2.98039C82.4186 5.04185 86.427 6.1871 88.4884 6.75972C89.8627 7.1033 91.237 7.79045 92.1532 8.4776C95.4744 8.70665 98.7957 8.9357 102.117 9.27928C107.385 9.8519 114.028 10.6536 118.723 11.2262C128.114 12.3715 132.123 15.0055 132.123 20.5028C132.123 25.8854 128.343 28.405 120.899 28.405C118.265 28.405 112.882 28.0614 108.072 28.0614C104.407 28.0614 100.857 28.2905 97.5359 28.5195C98.9102 30.4664 99.3683 32.4134 99.3683 35.162C99.3683 38.8268 97.7649 41.0028 94.4437 42.4916C93.413 42.9497 92.8404 43.4078 92.8404 44.2095C92.8404 45.4693 93.9856 47.1871 93.9856 49.3631C93.9856 53.257 92.0387 56.0056 88.3739 57.2654C87.3432 57.6089 87.2286 57.838 87.2286 59.5559C87.2286 66.4274 80.7007 69.7486 68.561 69.7486ZM68.561 65.8547H73.142C71.3096 65.2821 68.9046 64.3659 65.3543 62.5335C60.7733 60.1285 56.8794 57.0363 55.1616 54.5167C54.9325 53.9441 54.818 53.0279 54.818 52.2262C54.818 50.7374 55.5051 49.3631 56.3068 48.4469C53.4437 46.9581 50.9241 45.4693 49.6643 44.4385C49.0917 43.7514 48.5191 42.4916 48.4046 41.0028C46.3431 41.6899 44.0526 41.919 41.4185 41.919C39.5861 41.919 37.6392 41.6899 36.2649 41.3463V37.338C37.5247 37.6815 39.9297 37.7961 41.4185 37.7961C44.6252 37.7961 47.1448 37.4525 49.2062 36.4218C50.237 34.5894 52.0694 33.3296 54.3599 33.1005C54.0163 32.0698 53.7873 30.9245 53.7873 29.7793C53.7873 25.8854 56.3068 22.5642 61.0023 22.5642C62.7202 22.5642 64.4381 23.1368 66.2705 23.824C66.8431 23.0223 67.5303 22.1061 68.1029 21.0754C65.5834 20.3882 63.6364 19.472 62.8347 18.6703L65.9269 15.9217C67.3012 17.4106 79.5554 19.7011 84.251 19.7011C87.3432 19.7011 90.3208 17.7541 90.3208 13.5167V12.3715H90.2063C90.2063 12.0279 88.7175 11.1117 87.4577 10.7681C85.3962 10.1955 81.0443 8.9357 75.7761 6.75972C71.5387 5.04185 65.5834 4.12564 58.2537 4.12564C52.2984 4.12564 48.6336 5.61447 42.2202 10.7681C35.4632 16.1508 32.8291 16.9525 27.6755 16.9525C26.5302 16.9525 24.6978 16.8379 23.3235 16.7234C21.033 20.7318 19.3152 27.9469 19.3152 34.5894C19.3152 43.7514 20.6895 50.2793 23.3235 54.1732H31.1113C39.4716 61.2737 53.9018 65.8547 68.561 65.8547ZM10.3822 62.0754C2.93805 62.0754 0.876594 45.9274 0.876594 35.391C0.876594 24.9692 3.05257 8.59212 10.3822 8.59212H18.9716C20.3459 8.59212 21.2621 9.62285 21.2621 11.3407V11.5698C20.6895 10.8826 20.3459 10.7681 19.5442 10.7681C13.1308 10.7681 11.4129 25.0838 11.4129 35.391C11.4129 45.9274 13.4744 60.1285 19.5442 60.1285C20.3459 60.1285 20.804 59.7849 21.2621 58.9832V59.7849C21.2621 61.0447 20.6895 62.0754 18.9716 62.0754H10.3822ZM81.7314 28.405C82.5331 25.6564 85.8543 24.2821 89.1756 24.2821C91.237 24.2821 92.3823 24.3966 93.413 24.6257C97.994 24.3966 103.606 23.9385 108.072 23.9385C112.997 23.9385 118.379 24.2821 120.899 24.2821C126.396 24.2821 128 23.1368 128 20.5028C128 17.6396 125.595 16.4944 118.15 15.3491C113.569 14.662 107.271 13.9748 101.544 13.4022C99.4828 13.1731 96.9633 13.0586 94.3292 12.8296V13.4022C94.3292 20.0446 89.7482 23.824 84.48 23.824C81.5024 23.824 76.5778 23.1368 72.1113 22.1061C71.5387 23.2514 70.8515 24.2821 70.1644 25.3128H70.2789C72.2258 26 75.7761 27.4888 81.7314 28.405ZM85.7398 41.5754C87.5722 41.5754 89.2901 40.8882 92.2677 39.0558C94.7873 37.4525 95.2454 37.1089 95.2454 35.5056C95.2454 32.757 94.9018 30.1229 92.7258 28.405C91.9242 28.2905 91.237 28.2905 90.6644 28.2905C86.3124 28.2905 85.0526 30.0083 85.0526 32.986C77.6085 32.1843 73.4856 30.6955 69.2482 29.0921C66.385 28.1759 63.2929 26 60.7733 26.3435C59.5135 26.4581 57.7956 27.1452 57.7956 29.3212C57.7956 30.2374 58.3683 31.7262 58.4828 32.0698C60.6588 33.7877 65.0107 36.5363 72.4549 39.1704C76.9214 40.7737 82.7621 41.5754 85.7398 41.5754ZM83.9074 54.2877C87.4577 54.2877 90.3208 53.0279 90.3208 49.8212C90.3208 47.9888 89.8627 46.2709 89.4046 45.1257C88.2594 45.5838 87.4577 45.6983 86.3124 45.6983C83.6783 45.6983 76.8068 44.6676 71.8822 43.0642C66.6141 41.3463 61.6895 38.9413 58.0247 36.6508C57.1085 36.3072 56.3068 36.0782 55.5051 36.0782C53.4437 36.0782 52.1839 37.9106 52.1839 39.8575C52.1839 40.7737 52.5275 41.8044 52.9856 42.4916C55.1616 44.095 62.7202 47.9888 67.7593 49.9357C74.5163 52.5698 79.5554 54.2877 83.9074 54.2877ZM79.5554 63.1061C83.2202 63.1061 83.7929 60.243 83.7929 58.5251C83.7929 58.2961 83.7929 58.067 83.6783 57.838H82.8767C76.5778 57.838 70.8515 54.9748 66.6141 53.257C64.7817 52.4553 62.3766 51.4246 60.0861 50.2793C59.399 50.9665 58.8264 52.1117 58.7118 53.1424C59.9716 54.8603 62.9493 57.2654 66.0415 58.9832C70.1644 61.2737 72.5694 63.1061 79.5554 63.1061Z" fill="#131313"/>
</svg>
