<svg width="30" height="22" viewBox="0 0 30 22" fill="none" xmlns="http://www.w3.org/2000/svg">
<path d="M18.1248 20.3703L28.1403 12.5035C28.2493 12.4177 28.3375 12.3083 28.3981 12.1835C28.4587 12.0587 28.4902 11.9217 28.4902 11.783C28.4902 11.6442 28.4587 11.5073 28.3981 11.3825C28.3375 11.2577 28.2493 11.1482 28.1403 11.0625L18.1248 3.19379C17.9786 3.0789 17.8009 3.01117 17.6153 2.99962C17.4297 2.98806 17.245 3.03321 17.0857 3.12908C16.9264 3.22495 16.8 3.367 16.7233 3.53639C16.6466 3.70577 16.6232 3.89448 16.6563 4.07746L17.3071 7.66163C8.11111 9.86896 4.27578 4.92263 2.79811 1.73079C2.58178 1.26513 1.67245 1.35496 1.62478 1.86463C0.442279 15.0665 9.10844 16.9786 17.3364 15.7375L16.6563 19.4885C16.6236 19.6711 16.6472 19.8594 16.7238 20.0284C16.8005 20.1974 16.9266 20.3391 17.0856 20.4349C17.2445 20.5307 17.4288 20.5759 17.614 20.5647C17.7992 20.5535 17.9767 20.4864 18.1229 20.3721" stroke="#EEFE05" stroke-width="2.75" stroke-linecap="round" stroke-linejoin="round"/>
</svg>
