<svg width="261" height="261" viewBox="0 0 261 261" fill="none" xmlns="http://www.w3.org/2000/svg">
<path d="M53.9136 229.192C48.482 229.192 43.3899 226.816 38.6372 222.063C33.8845 217.31 31.5082 212.218 31.5082 206.787C31.5082 201.016 34.224 195.244 39.3161 190.152C46.7846 182.684 56.6294 177.252 68.5111 171.142C79.0348 165.71 90.2375 159.26 103.138 149.415C100.422 145.681 98.3849 140.928 97.3665 135.836C81.4111 138.213 69.19 141.268 57.6478 145.002C44.7478 149.076 34.224 152.131 23.7003 152.131C9.10279 152.131 0.615891 143.644 0.615891 130.065C0.615891 116.486 9.10279 107.999 23.7003 107.999C34.224 107.999 44.7478 111.054 57.6478 115.128C69.19 118.862 81.4111 122.257 97.706 124.633C98.3849 119.541 100.422 114.789 103.477 110.715C90.2375 100.87 79.0348 94.4201 68.5111 88.9885C56.6294 82.878 46.7846 77.4463 39.3161 69.9779C34.224 64.8857 31.5082 59.1146 31.5082 53.3436C31.5082 47.9119 33.8845 42.8198 38.6372 38.0671C43.3899 33.3145 48.482 30.9381 53.9136 30.9381C59.6847 30.9381 65.4558 33.6539 70.5479 38.7461C78.0164 46.2146 83.448 56.0593 89.5586 67.941C94.9902 78.4648 101.44 89.6675 111.285 102.907C115.359 99.8517 120.111 97.8149 125.204 97.1359C122.827 80.8411 119.432 68.62 115.698 57.0778C111.625 44.1777 108.569 33.6539 108.569 23.1302C108.569 8.53273 117.056 0.0458446 130.635 0.0458446C144.214 0.0458446 152.701 8.53273 152.701 23.1302C152.701 33.6539 149.646 44.1777 145.572 57.0778C141.838 68.62 138.783 80.8411 136.406 96.7965C141.498 97.8149 146.251 99.8517 149.985 102.568C159.83 89.6675 166.28 78.4648 171.712 67.941C177.822 56.0593 183.254 46.2146 190.722 38.7461C195.815 33.6539 201.586 30.9381 207.357 30.9381C212.788 30.9381 217.88 33.3145 222.633 38.0671C227.386 42.8198 229.762 47.9119 229.762 53.3436C229.762 59.1146 227.046 64.8857 221.954 69.9779C214.486 77.4463 204.641 82.878 192.759 88.9885C182.235 94.4201 171.033 100.87 158.133 110.715C160.848 114.789 162.885 119.202 163.904 124.633C179.859 122.257 192.08 118.862 203.622 115.128C216.523 111.054 227.046 107.999 237.57 107.999C252.168 107.999 260.654 116.486 260.654 130.065C260.654 143.644 252.168 152.131 237.57 152.131C227.046 152.131 216.523 149.076 203.622 145.002C192.08 141.268 179.859 138.213 163.904 135.836C162.885 140.928 161.188 145.681 158.133 149.755C171.372 159.26 182.235 165.71 192.759 171.142C204.641 177.252 214.486 182.684 221.954 190.152C227.046 195.244 229.762 201.016 229.762 206.787C229.762 212.218 227.386 217.31 222.633 222.063C217.88 226.816 212.788 229.192 207.357 229.192C201.586 229.192 195.815 226.476 190.722 221.384C183.254 213.916 177.822 204.071 171.712 192.189C166.28 181.665 159.83 170.802 150.325 157.563C146.251 160.618 141.498 162.655 136.406 163.334C138.783 179.289 141.838 191.51 145.572 203.052C149.646 215.952 152.701 226.476 152.701 237C152.701 251.597 144.214 260.084 130.635 260.084C117.056 260.084 108.569 251.597 108.569 237C108.569 226.476 111.625 215.952 115.698 203.052C119.432 191.51 122.827 179.289 125.204 163.334C120.111 162.315 115.359 160.278 111.285 157.563C101.44 170.463 94.9902 181.665 89.5586 192.189C83.448 204.071 78.0164 213.916 70.5479 221.384C65.4558 226.476 59.6847 229.192 53.9136 229.192Z" fill="black"/>
</svg>
